<svg xmlns="http://www.w3.org/2000/svg" width="295" height="264" viewBox="0 0 295 264">
  <g id="Grupo_949095" data-name="Grupo 949095" transform="translate(-180 -6784)">
    <rect id="Rect치ngulo_336388" data-name="Rect치ngulo 336388" width="295" height="264" transform="translate(180 6784)" fill="#fff5d8"/>
    <g id="Fill_Outline" data-name="Fill Outline" transform="translate(242 6839)">
      <g id="Color" transform="translate(4.433 4.433)">
        <rect id="Rect치ngulo_336387" data-name="Rect치ngulo 336387" width="98" height="142" rx="4" transform="translate(43.567 -0.433)" fill="#e9f1f2"/>
        <path id="Trazado_657788" data-name="Trazado 657788" d="M118.333,127.1v7.3a9.733,9.733,0,0,1-9.733,9.733H30.733A9.733,9.733,0,0,1,21,134.4V12.733A9.733,9.733,0,0,1,30.733,3H35.6a4.757,4.757,0,0,0,1.436,3.431,4.757,4.757,0,0,0,3.431,1.436H108.6a4.881,4.881,0,0,1,4.867,4.867v109.5A4.881,4.881,0,0,0,118.333,127.1Z" transform="translate(22.8 -3)" fill="#d0d8da"/>
        <path id="Trazado_657789" data-name="Trazado 657789" d="M25,7h77.867V128.667H25Z" transform="translate(28.533 2.733)" fill="#ade8f4"/>
        <path id="Trazado_657790" data-name="Trazado 657790" d="M25,7V128.667h77.867V7ZM95.567,84.867A9.733,9.733,0,0,1,85.833,94.6H76.1A34.067,34.067,0,0,1,42.033,60.533v-36.5A9.733,9.733,0,0,1,51.767,14.3H85.833a9.733,9.733,0,0,1,9.733,9.733Z" transform="translate(28.533 2.733)" fill="#48cae4"/>
        <circle id="Elipse_7646" data-name="Elipse 7646" cx="10" cy="10" r="10" transform="translate(65.567 31.567)" fill="#ff7373"/>
        <circle id="Elipse_7647" data-name="Elipse 7647" cx="10" cy="10" r="10" transform="translate(65.567 60.567)" fill="#ff7373"/>
        <g id="Grupo_949094" data-name="Grupo 949094" transform="translate(65.699 32.947)">
          <circle id="Elipse_7648" data-name="Elipse 7648" cx="10" cy="10" r="10" transform="translate(-0.132 56.619)" fill="#ef5350"/>
          <path id="Trazado_657791" data-name="Trazado 657791" d="M34.867,16.54V33.379a9.716,9.716,0,0,1,0-16.839Z" transform="translate(-29.999 -16.54)" fill="#ef5350"/>
          <path id="Trazado_657792" data-name="Trazado 657792" d="M39.442,46.668A9.714,9.714,0,0,1,34.867,28.54v1.119a33.689,33.689,0,0,0,4.575,17.009Z" transform="translate(-30 0.66)" fill="#ef5350"/>
        </g>
        <path id="Trazado_657793" data-name="Trazado 657793" d="M3,19H37.067V53.067H3Z" transform="translate(-3 19.933)" fill="#ffd000"/>
        <path id="Trazado_657794" data-name="Trazado 657794" d="M8,19h9.733v9.733H8Z" transform="translate(4.167 19.933)" fill="#ffea00"/>
        <path id="Trazado_657795" data-name="Trazado 657795" d="M37.067,45.767v7.3H3V19h7.3v7.3A19.467,19.467,0,0,0,29.767,45.767Z" transform="translate(-3 19.933)" fill="#ffb700"/>
        <path id="Trazado_657796" data-name="Trazado 657796" d="M3,33H37.067V67.067H3Z" transform="translate(-3 40)" fill="#ffd000"/>
        <path id="Trazado_657797" data-name="Trazado 657797" d="M8,33h9.733v9.733H8Z" transform="translate(4.167 40)" fill="#ffea00"/>
        <path id="Trazado_657798" data-name="Trazado 657798" d="M37.067,59.767v7.3H3V33h7.3v7.3A19.467,19.467,0,0,0,29.767,59.767Z" transform="translate(-3 40)" fill="#ffb700"/>
        <path id="Trazado_657799" data-name="Trazado 657799" d="M3,47H37.067V81.067H3Z" transform="translate(-3 60.067)" fill="#ffd000"/>
        <path id="Trazado_657800" data-name="Trazado 657800" d="M8,47h9.733v9.733H8Z" transform="translate(4.167 60.067)" fill="#ffea00"/>
        <path id="Trazado_657801" data-name="Trazado 657801" d="M37.067,73.767v7.3H3V47h7.3v7.3A19.467,19.467,0,0,0,29.767,73.767Z" transform="translate(-3 60.067)" fill="#ffb700"/>
        <path id="Trazado_657802" data-name="Trazado 657802" d="M17,33H51.067V67.067H17Z" transform="translate(17.067 40)" fill="#ffd000"/>
        <path id="Trazado_657803" data-name="Trazado 657803" d="M22,33h9.733v9.733H22Z" transform="translate(24.233 40)" fill="#ffea00"/>
        <path id="Trazado_657804" data-name="Trazado 657804" d="M51.067,59.767v7.3H17V33h7.3v7.3A19.467,19.467,0,0,0,43.767,59.767Z" transform="translate(17.067 40)" fill="#ffb700"/>
        <path id="Trazado_657805" data-name="Trazado 657805" d="M17,47H51.067V81.067H17Z" transform="translate(17.067 60.067)" fill="#ffd000"/>
        <path id="Trazado_657806" data-name="Trazado 657806" d="M22,47h9.733v9.733H22Z" transform="translate(24.233 60.067)" fill="#ffea00"/>
        <path id="Trazado_657807" data-name="Trazado 657807" d="M51.067,73.767v7.3H17V47h7.3v7.3A19.467,19.467,0,0,0,43.767,73.767Z" transform="translate(17.067 60.067)" fill="#ffb700"/>
        <path id="Trazado_657808" data-name="Trazado 657808" d="M31,47H65.067V81.067H31Z" transform="translate(37.133 60.067)" fill="#ffd000"/>
        <path id="Trazado_657809" data-name="Trazado 657809" d="M36,47h9.733v9.733H36Z" transform="translate(44.3 60.067)" fill="#ffea00"/>
        <path id="Trazado_657810" data-name="Trazado 657810" d="M65.067,73.767v7.3H31V47h7.3v7.3A19.467,19.467,0,0,0,57.767,73.767Z" transform="translate(37.133 60.067)" fill="#ffb700"/>
      </g>
      <g id="Outline_copy" data-name="Outline copy" transform="translate(2 2)">
        <path id="Trazado_657811" data-name="Trazado 657811" d="M145.567,70.133A2.433,2.433,0,0,0,148,67.7V14.167A12.181,12.181,0,0,0,135.833,2H57.967A12.181,12.181,0,0,0,45.8,14.167V75H40.933V43.367A2.433,2.433,0,0,0,38.5,40.933H4.433A2.433,2.433,0,0,0,2,43.367V89.6a2.433,2.433,0,1,0,4.867,0V79.867h7.3v7.3A2.433,2.433,0,0,0,16.6,89.6h9.733a2.433,2.433,0,0,0,2.433-2.433v-7.3h7.3v21.9a2.433,2.433,0,0,0,4.867,0v-21.9h7.3v7.3A2.433,2.433,0,0,0,50.667,89.6H60.4a2.433,2.433,0,0,0,2.433-2.433v-7.3h7.3v29.2H6.867V99.333a2.433,2.433,0,1,0-4.867,0v46.233A2.433,2.433,0,0,0,4.433,148H50.667a2.433,2.433,0,1,0,0-4.867H40.933v-29.2h7.3v7.3a2.433,2.433,0,0,0,2.433,2.433H60.4a2.433,2.433,0,0,0,2.433-2.433v-7.3h7.3v29.2H60.4a2.433,2.433,0,1,0,0,4.867h75.433A12.181,12.181,0,0,0,148,135.833v-58.4a2.433,2.433,0,1,0-4.867,0v58.4a7.3,7.3,0,0,1-7.3,7.3H109.067v-4.867h26.767a2.433,2.433,0,0,0,2.433-2.433V33.633a2.433,2.433,0,1,0-4.867,0V133.4H109.067V113.933h14.6a2.433,2.433,0,1,0,0-4.867H90.989a11.984,11.984,0,0,0,1.044-4.867,12.114,12.114,0,0,0-.91-4.58l4.694-3.129a2.434,2.434,0,0,0-2.7-4.049l-4.689,3.127a12.12,12.12,0,0,0-8.56-3.536A11.984,11.984,0,0,0,75,93.077V86.123a11.984,11.984,0,0,0,4.867,1.044A12.135,12.135,0,0,0,91.123,70.42l4.694-3.129a2.434,2.434,0,1,0-2.7-4.049l-4.689,3.127a12.047,12.047,0,0,0-16.593-.436l-.243-.18a2.433,2.433,0,1,0-2.92,3.893l.229.173A12.023,12.023,0,0,0,67.7,75H50.667V14.167a7.3,7.3,0,0,1,7.3-7.3h77.867a7.3,7.3,0,0,1,7.3,7.3V67.7A2.433,2.433,0,0,0,145.567,70.133ZM23.9,113.933V118.8H19.033v-4.867Zm-17.033,0h7.3v7.3a2.433,2.433,0,0,0,2.433,2.433h9.733a2.433,2.433,0,0,0,2.433-2.433v-7.3h7.3v29.2H6.867Zm51.1,4.867H53.1v-4.867h4.867Zm46.233-4.867v29.2H75v-29.2h7.3v7.3a2.433,2.433,0,0,0,2.433,2.433h9.733a2.433,2.433,0,0,0,2.433-2.433v-7.3ZM92.033,118.8H87.167v-4.867h4.867Zm-4.867-14.6a7.117,7.117,0,0,1-1.964,4.867H75v-5.475l3.407,2.555a2.433,2.433,0,0,0,2.811.078l5.706-3.8A7.147,7.147,0,0,1,87.167,104.2ZM84.22,98.375l-4.271,2.845-4.083-3.061a7.079,7.079,0,0,1,4-1.258,7.222,7.222,0,0,1,4.353,1.475ZM79.867,67.7a7.222,7.222,0,0,1,4.353,1.475l-4.271,2.845-4.137-3.09A7.254,7.254,0,0,1,79.867,67.7Zm-6.937,5.139,5.477,4.107a2.433,2.433,0,0,0,2.811.078l5.706-3.8A7.146,7.146,0,0,1,87.167,75a7.3,7.3,0,0,1-7.3,7.3A7.118,7.118,0,0,1,75,80.336v-2.9A2.433,2.433,0,0,0,72.567,75,7.222,7.222,0,0,1,72.929,72.839ZM23.9,45.8v4.867H19.033V45.8Zm-17.033,0h7.3v7.3A2.433,2.433,0,0,0,16.6,55.533h9.733A2.433,2.433,0,0,0,28.767,53.1V45.8h7.3V75H6.867ZM23.9,84.733H19.033V79.867H23.9Zm34.067-4.867v4.867H53.1V79.867Z" transform="translate(-2 -2)" fill="#323232"/>
        <path id="Trazado_657812" data-name="Trazado 657812" d="M104.3,20.6a2.433,2.433,0,0,0,2.433-2.433V8.433A2.433,2.433,0,0,0,104.3,6H26.433A2.433,2.433,0,0,0,24,8.433V61.967a2.433,2.433,0,1,0,4.867,0v-51.1h73v7.3A2.433,2.433,0,0,0,104.3,20.6Z" transform="translate(29.533 3.733)" fill="#323232"/>
        <path id="Trazado_657813" data-name="Trazado 657813" d="M57.793,16.083a2.433,2.433,0,0,0-3.375-.674l-4.689,3.127A12.047,12.047,0,0,0,33.136,18.1l-.243-.18a2.433,2.433,0,0,0-2.92,3.893l.229.173A12.023,12.023,0,0,0,29,27.167a12.167,12.167,0,1,0,23.423-4.58l4.694-3.129a2.433,2.433,0,0,0,.674-3.375ZM41.168,19.867a7.222,7.222,0,0,1,4.353,1.475l-4.271,2.845L37.114,21.1a7.254,7.254,0,0,1,4.054-1.229Zm7.3,7.3a7.3,7.3,0,1,1-14.6,0,7.222,7.222,0,0,1,.363-2.161l5.477,4.107a2.433,2.433,0,0,0,2.811.078l5.706-3.8a7.147,7.147,0,0,1,.243,1.779Z" transform="translate(36.698 16.633)" fill="#323232"/>
        <path id="Trazado_657814" data-name="Trazado 657814" d="M69.2,22H42.433a2.433,2.433,0,1,0,0,4.867H69.2A2.433,2.433,0,0,0,69.2,22Z" transform="translate(52.467 26.667)" fill="#323232"/>
        <path id="Trazado_657815" data-name="Trazado 657815" d="M71.633,36.433A2.433,2.433,0,0,0,69.2,34H42.433a2.433,2.433,0,1,0,0,4.867H69.2A2.433,2.433,0,0,0,71.633,36.433Z" transform="translate(52.467 43.867)" fill="#323232"/>
        <path id="Trazado_657816" data-name="Trazado 657816" d="M67.767,18H43.433a2.433,2.433,0,1,0,0,4.867H67.767a2.433,2.433,0,1,0,0-4.867Z" transform="translate(53.9 20.933)" fill="#323232"/>
        <path id="Trazado_657817" data-name="Trazado 657817" d="M66.333,30h-21.9a2.433,2.433,0,1,0,0,4.867h21.9a2.433,2.433,0,0,0,0-4.867Z" transform="translate(55.333 38.133)" fill="#323232"/>
        <path id="Trazado_657818" data-name="Trazado 657818" d="M44.433,42a2.433,2.433,0,1,0,0,4.867H63.9A2.433,2.433,0,1,0,63.9,42Z" transform="translate(55.333 55.333)" fill="#323232"/>
        <path id="Trazado_657819" data-name="Trazado 657819" d="M68.2,14.867A2.433,2.433,0,1,0,68.2,10H41.433a2.433,2.433,0,1,0,0,4.867Z" transform="translate(51.033 9.467)" fill="#323232"/>
        <path id="Trazado_657820" data-name="Trazado 657820" d="M41.733,14.867a2.433,2.433,0,0,0,0-4.867h-7.3a2.433,2.433,0,1,0,0,4.867Z" transform="translate(41 9.467)" fill="#323232"/>
      </g>
    </g>
  </g>
</svg>
