<svg xmlns="http://www.w3.org/2000/svg" width="505" height="266.526" viewBox="0 0 505 266.526">
  <g id="Grupo_949093" data-name="Grupo 949093" transform="translate(-185.1 -306.03)">
    <path id="Trazado_657719" data-name="Trazado 657719" d="M681.944,574.087s58.763-63.092,9.938-131.4C648.561,382.082,598.053,386.225,561,410.819c-15.783,10.475-61.287,1.291-100.016-60.378-52.817-84.1-235.9-33.093-202.517,96.3,16.154,62.615-49.164,64.891-15.882,127.482Z" transform="translate(-38.695 -2.622)" fill="#ffebcb"/>
    <path id="Trazado_657720" data-name="Trazado 657720" d="M1330.8,326.2h-10.687l-.062-20.171-22.841.07v.009l-6.853.027h-.047l.016,6.441.047.036.034,13.589H1198.4V571.334h132.4v.086h18V326.2ZM1201.4,506.3v.446h0ZM1327.8,537.115l-34.937.108v.014l-10.576.041h-.073l.025,9.94.073.055.052,20.921H1201.4V513.433H1327.8Zm-98.184-30.4.124.027h-.124Zm98.184.027h-12.348l-.1-51-35.249.109v.014l-10.576.041h-.073l.025,9.939.063.048.062,40.824H1280.2v.024H1247.23l-.086-31.425-35.249.109v.013l-10.5.041v-23.5H1327.8Zm0-61.45h-36.014l-.1-31.425-35.249.109v.013l-10.576.041h-.073l.024,9.94.073.055.052,21.267H1201.4V390.533H1327.8Zm0-61.45H1201.4V329.083H1327.8Z" transform="translate(-818.713)" fill="#ead6c3"/>
    <g id="Grupo_949082" data-name="Grupo 949082" transform="translate(327.258 522.515)">
      <g id="Grupo_949080" data-name="Grupo 949080" transform="translate(33.438 0)">
        <rect id="Rectángulo_336384" data-name="Rectángulo 336384" width="48.652" height="54.857" transform="matrix(0.003, -1, 1, 0.003, 0, 48.652)" fill="#d3671e"/>
        <path id="Trazado_657721" data-name="Trazado 657721" d="M1286.394,1433.99l-43.917-.169-.12,48.652,43.917.169Z" transform="translate(-1214.928 -1433.737)" fill="#f1a34f"/>
        <path id="Trazado_657722" data-name="Trazado 657722" d="M1241.852,1433.779l44.03.17-.038,15.469-44.113,33.014Z" transform="translate(-1214.423 -1433.703)" fill="#d86713" opacity="0.4"/>
      </g>
      <g id="Grupo_949081" data-name="Grupo 949081" transform="translate(0 17.448)">
        <rect id="Rectángulo_336385" data-name="Rectángulo 336385" width="31.262" height="35.249" transform="translate(0 31.262) rotate(-89.823)" fill="#d3671e"/>
        <path id="Trazado_657723" data-name="Trazado 657723" d="M1045.468,1524.634l-28.22-.109-.077,31.262,28.219.109Z" transform="translate(-999.547 -1524.471)" fill="#f1a34f"/>
        <path id="Trazado_657724" data-name="Trazado 657724" d="M1017.249,1524.525l28.292.109-.024,9.939-28.345,21.213Z" transform="translate(-999.547 -1524.471)" fill="#d86713" opacity="0.4"/>
      </g>
    </g>
    <path id="Trazado_657725" data-name="Trazado 657725" d="M1569.239,1543.678a17.83,17.83,0,0,0-1-4.6q-.149-.409-.316-.8-.123-.29-.255-.572-.15-.32-.312-.631-.178-.339-.369-.667a14.506,14.506,0,0,0-2.191-2.879l-.009-.009q-.439-.443-.911-.835c-.245-.2-.5-.395-.754-.577a11.73,11.73,0,0,0-1.139-.715q-.218-.12-.441-.23a10.442,10.442,0,0,0-3.988-1.078q-.317-.019-.637-.02h-5.761c-6.841,0-12.386,6.792-12.386,15.17s5.545,15.17,12.386,15.17h5.761q.32,0,.637-.02a10.447,10.447,0,0,0,3.988-1.078c.149-.073.3-.151.441-.23a11.873,11.873,0,0,0,1.139-.715c.257-.183.509-.374.754-.577q.471-.393.911-.835l.009-.009a14.529,14.529,0,0,0,2.191-2.879q.192-.327.369-.667.161-.311.312-.631.132-.282.255-.572.167-.4.316-.8a17.825,17.825,0,0,0,1-4.6q.063-.765.064-1.551T1569.239,1543.678Z" transform="translate(-1093.725 -988.979)" fill="#233862"/>
    <g id="Grupo_949086" data-name="Grupo 949086" transform="translate(251.56 329.756)">
      <path id="Trazado_657726" data-name="Trazado 657726" d="M1026.542,860.364h-2.9a1.092,1.092,0,0,0-.494-1.412,1.108,1.108,0,0,0-1.373.731,1.358,1.358,0,0,0-.094.682h-2.839a.346.346,0,0,0-.261.119l-.939,1.086a.345.345,0,0,0,.261.571h7.7a.345.345,0,0,0,.261-.12l.939-1.086A.345.345,0,0,0,1026.542,860.364Zm-3.545-.183a.333.333,0,1,1-.155-.487A.364.364,0,0,1,1023,860.181Z" transform="translate(-924.157 -776.45)" fill="#ffa412"/>
      <g id="Grupo_949084" data-name="Grupo 949084" transform="translate(0 4.452)">
        <path id="Trazado_657727" data-name="Trazado 657727" d="M730.526,453.53l-9.351,7.328c-.439.684.5.722.091,1.566-3.8,7.8-1.251,16.139,1.966,15.3,2.063-.54,2.647,2.98,2.647,2.98l20.042-16.225S738.558,449.243,730.526,453.53Z" transform="translate(-683.231 -452.769)" fill="#2c3a64"/>
        <path id="Trazado_657728" data-name="Trazado 657728" d="M666.549,1096.684l-4.257,1.585s-18.49-25.645-20.767-48.209a34.279,34.279,0,0,1,.608-11.535s-.181-1.032-.5-2.857c-.146-.852-.327-1.877-.532-3.052-.6-3.444-1.429-8.157-2.374-13.523-2.176-12.349-4.995-28.135-7.184-39.739l1.147-.369,12.411-4,2.565-8.147,9.241-2.433s2.065,4.039,3.91,23.116c.341,2.5.65,5.262.883,8.255a163.369,163.369,0,0,1-.879,33.417q-.636,4.974-1.623,10.256a45.749,45.749,0,0,0-.354,10.128C659.779,1068.019,666.549,1096.684,666.549,1096.684Z" transform="translate(-612.276 -866.153)" fill="#2b478b"/>
        <path id="Trazado_657729" data-name="Trazado 657729" d="M661.7,995.773l-20.068,39.9c-.146-.852-.327-1.877-.532-3.052-.6-3.444-1.429-8.157-2.374-13.523-2.176-12.349-4.995-28.135-7.184-39.739l1.147-.369,12.411-4,2.565-8.147,9.241-2.433s2.065,4.039,3.91,23.116C661.162,990.02,661.472,992.78,661.7,995.773Z" transform="translate(-612.276 -866.153)" fill="#233862"/>
        <path id="Trazado_657730" data-name="Trazado 657730" d="M574.837,950l-.464-3.984c-7.783,2.067-28.578-5.777-28.578-5.777s-7.54,6.628-6.55,22.515c.483,7.754,1.366,40.705,2.288,50.456.333,3.534.625,6.049.744,7.053a.018.018,0,0,1,0,.01,1.392,1.392,0,0,1-.226.863,45.8,45.8,0,0,0-3.4,7.155c-9.048,24.111,1.394,53.8,1.394,53.8l2.71-1.092s5.942-33.044,10.77-47.642a28.926,28.926,0,0,1,2.325-5.585c2.1-3.388,4.047-8.923,5.815-15.508,3.342-12.448,6.032-28.641,7.822-41.14C569.732,971.136,574.837,950,574.837,950Z" transform="translate(-534.237 -846.627)" fill="#2b478b"/>
        <path id="Trazado_657731" data-name="Trazado 657731" d="M1033.327,930.17c-1.675,1.482-6.121-3.608-6.733-4.285a.394.394,0,0,0-.064-.1l1.353-3.77s5.831-.225,6.8.741S1035.163,928.592,1033.327,930.17Z" transform="translate(-931.41 -831.891)" fill="#ed985f"/>
        <path id="Trazado_657732" data-name="Trazado 657732" d="M841,736.618l-.58,3.9s-.258,0-.709-.032c-1.417-.1-4.865-.29-8.763-.709-5.863-.58-12.822-1.611-15.593-3.318-4.22-2.577-11.147-10.47-15.657-18.363a5.219,5.219,0,0,1-.322-.58c-2.352-4.189-3.995-8.344-4.123-11.663a16.652,16.652,0,0,1,.547-5.283,13.469,13.469,0,0,1,2.384-4.768,2.4,2.4,0,0,1,.451-.548,11.128,11.128,0,0,1,3.061-2.609c.773-.322,1.611.065,2.48,1v.032a14.764,14.764,0,0,1,2.223,3.286c.032.032.064.064.064.1.161.29.322.612.516.966a.815.815,0,0,1,.129.226q.532,1.111,1.063,2.32c3.963,8.634,8.183,21.714,11.694,25.612,1.514,1.675,8.441,4.961,13.95,7.41C837.779,735.33,841,736.618,841,736.618Z" transform="translate(-744.528 -646.49)" fill="#ed985f"/>
        <path id="Trazado_657733" data-name="Trazado 657733" d="M710.928,617.544a24.23,24.23,0,0,1-8.964,2.1c-13.381.733-16.418-11-16.971-18.782a11.227,11.227,0,0,1,4.591-.58c.949.052,1.94.149,2.756.25,1.637-.855,4.577-5.008,6.277-11.956l.577.268,9.655,4.539s-1.025,3.142-1.783,6.148c-.591,2.353-1.015,4.626-.66,5.262.761.309,1.216.5,1.216.5a.03.03,0,0,0,0,.011A66.281,66.281,0,0,1,710.928,617.544Z" transform="translate(-655.459 -562.496)" fill="#ffb27d"/>
        <path id="Trazado_657734" data-name="Trazado 657734" d="M622.209,674.5c-.1.268-.212.528-.334.8-3.388,7.3-9.662,37.532-9.662,37.532.893,5.436-40.852-1.067-40.959-6.016-1.47-5.248,5.217-13.68,8.988-17.91a12.051,12.051,0,0,0,2.975-6.694,172.673,172.673,0,0,0,.521-17.589h0c.737-.545,1.449-1.049,2.113-1.529a18.88,18.88,0,0,0,2.572-2.134,3.891,3.891,0,0,0,1.233-2.429,12.893,12.893,0,0,0-.052-2.037c-.031-.323-.073-.646-.122-.97a27.618,27.618,0,0,0-1.939-6.475c3.59-1.453,9.975-.587,9.975-.587s-.007.354-.01.935c-.021,2.332,0,8.321.747,9.454.935,1.411,18.038,7.594,18.942,5.679.889-1.884-1.547-10.709-1.637-11.042a.031.031,0,0,1,0-.011c5.727,2.249,7.775,4.136,7.775,4.136C619.88,659.846,624.878,667.419,622.209,674.5Z" transform="translate(-563.393 -610.672)" fill="#739af0"/>
        <path id="Trazado_657735" data-name="Trazado 657735" d="M768.6,594.519s-1.027,3.139-1.783,6.148c-5.643-1.574-7.357-7.507-7.873-10.687Z" transform="translate(-715.207 -563.631)" fill="#ed985f"/>
        <path id="Trazado_657736" data-name="Trazado 657736" d="M766.425,527.6s-13.5-3.125-11.427-11.5,1.73-14.425,10.439-12.784,9.585,5.251,9.573,8.216S769.991,528.2,766.425,527.6Z" transform="translate(-711.846 -493.39)" fill="#ffb27d"/>
        <path id="Trazado_657737" data-name="Trazado 657737" d="M761.488,497.23c-1.451-3.037-3.16-2.875-4.229-2.336-6.344-5.87-15.96-2.92-15.96-2.92-2.4,5.786-4.193,10-4.193,10s2.074,2.124,8.086,2.077a9.9,9.9,0,0,0,5.363-2.019,32.336,32.336,0,0,1-7.04,5.251c7.525-1.44,12.572-10.153,13.089-11.078a10.863,10.863,0,0,1,1.96,4.638c.139,2.3-.652,6.766.665,6.935C759.229,507.773,763.665,501.784,761.488,497.23Z" transform="translate(-697.565 -483.846)" fill="#2c3a64"/>
        <path id="Trazado_657738" data-name="Trazado 657738" d="M834.057,697.18s3.251,5.671,3.737,7.131c0,0-4.216-.162-5.918,3.08C831.876,707.391,831.468,697.944,834.057,697.18Z" transform="translate(-774.117 -650.246)" fill="#739af0"/>
        <path id="Trazado_657739" data-name="Trazado 657739" d="M644.987,756.331c-8.234-.087-15.206-8.637-19.467-15.47a11.871,11.871,0,0,0,1.71-4.991,172.665,172.665,0,0,0,.521-17.589h0c.737-.545,1.449-1.049,2.113-1.529a18.87,18.87,0,0,0,2.572-2.134C639.179,726.013,656.15,756.449,644.987,756.331Z" transform="translate(-607.406 -664.334)" fill="#4a75cb"/>
        <path id="Trazado_657740" data-name="Trazado 657740" d="M552.752,1639.633H531.311a11.774,11.774,0,0,1,.606-5.747c1.073-2.379,2.754-3.46,2.352-6.338a7.721,7.721,0,0,0,6.683,2.556c.38.616,2.451,3.911,3.72,4.823C546.073,1635.934,552.321,1635.575,552.752,1639.633Z" transform="translate(-531.193 -1401.955)" fill="#233862"/>
        <path id="Trazado_657741" data-name="Trazado 657741" d="M792.03,1643.678H770.589s-.8-3.42.606-5.747c1.246-2.059.768-3.232-.155-4.935a8.339,8.339,0,0,0,3.612.68,7.56,7.56,0,0,0,3.189-1.122,77.133,77.133,0,0,0,6.109,6.418C785.351,1639.979,791.6,1639.62,792.03,1643.678Z" transform="translate(-724.435 -1406)" fill="#233862"/>
        <g id="Grupo_949083" data-name="Grupo 949083" transform="translate(66.668 80.254)">
          <path id="Trazado_657742" data-name="Trazado 657742" d="M899.231,870.693l-20.863,27.138.309.379,21.159-27.19Z" transform="translate(-878.369 -870.693)" fill="#233862"/>
          <path id="Trazado_657743" data-name="Trazado 657743" d="M901.1,872.667h21.172L900.108,899.8H879.98Z" transform="translate(-879.671 -872.288)" fill="#2b478b"/>
        </g>
        <path id="Trazado_657744" data-name="Trazado 657744" d="M696.686,710.776c-.059-1.08-1.483-1.03-2.565-1.036a20.823,20.823,0,0,1-6.192-.75s5.17-.074,4.072-1.708c-.2-.3-2.77-.072-5.64-.072a10,10,0,0,0-3.935,1.687c-2.079-.275-3.969-.678-4.58-.81h0c-1.418-.773-3.125-1.708-4.929-2.739a144.242,144.242,0,0,1-12.758-7.925,15.6,15.6,0,0,1-3.963-3.576,44.352,44.352,0,0,1-2.706-6.282c-.515-1.418-1.063-2.964-1.611-4.607-.967-2.706-1.933-5.638-2.932-8.569-1.8-5.348-3.737-10.728-5.573-14.885a29.252,29.252,0,0,0-3.447-6.088c-.87-1.063-1.708-1.611-2.513-1.482-.129.032-.226.064-.322.1,0,0-4.639,1.288-4.7,10.631a14.247,14.247,0,0,0,.032,1.643,34.6,34.6,0,0,0,.87,5.831,88.148,88.148,0,0,0,3.673,12.243c.451,1.159.9,2.352,1.385,3.543,3.479,8.634,7.958,16.689,11.727,19.426a3.892,3.892,0,0,0,.451.323A33.9,33.9,0,0,0,657.1,708.6c3.8,1.289,8.312,2.448,12.339,3.415h.032c2.352.515,4.51,1,6.314,1.353,0,0,.3.074.823.179l.24.047a71.964,71.964,0,0,1,8.537,2.61,8.54,8.54,0,0,0,9.6-2.062A5.356,5.356,0,0,0,696.686,710.776Z" transform="translate(-612.945 -613.674)" fill="#ffb27d"/>
        <path id="Trazado_657745" data-name="Trazado 657745" d="M643.368,659.42c-6.2-1.71-10.986,3.133-10.986,3.133.078-9.328,4.721-10.6,4.721-10.6C638.971,651.175,642.921,653.263,643.368,659.42Z" transform="translate(-612.951 -613.576)" fill="#739af0"/>
      </g>
      <g id="Grupo_949085" data-name="Grupo 949085" transform="translate(36.471 0)">
        <path id="Trazado_657746" data-name="Trazado 657746" d="M740.407,430.1a16.9,16.9,0,0,0-7.869-.111c-.217.053-.433.112-.643.175h0c-8.388,2.508-10.5,12.225-10.5,12.225a25.342,25.342,0,0,0-.262,3.651c.089,1.1,8.079,3.953,9.29,2.534a10.607,10.607,0,0,1,3.553-2.341s8.179,3.482,8.73,3.714c1.851.78,7.849,1.6,7.849,1.6C750.748,451.026,755.977,433.669,740.407,430.1Z" transform="translate(-721.115 -429.583)" fill="#ffa412"/>
        <path id="Trazado_657747" data-name="Trazado 657747" d="M800.638,453.77a30.1,30.1,0,0,0-4.929-3.251,23.958,23.958,0,0,1-8.346-.139c-.749-3.7-3.469-13.075-10.275-18.878l-.059-.052c-.27.123-.4.146-.584.227h0a1.833,1.833,0,0,0-.188.092c5.75,4.314,8.138,14.455,8.845,18.157a39.451,39.451,0,0,1-6.576-2.179s6.089,6.485,21.685,7.184A.66.66,0,0,0,800.638,453.77Z" transform="translate(-765.665 -431.091)" fill="#e27f2b"/>
      </g>
      <path id="Trazado_657748" data-name="Trazado 657748" d="M987.012,870.693H1008.3l.446.379H987.577Z" transform="translate(-899.481 -785.987)" fill="#233862"/>
    </g>
    <path id="Trazado_657749" data-name="Trazado 657749" d="M1655.688,1524.939h-38.34a1.442,1.442,0,0,1,0-2.88h38.34a1.442,1.442,0,0,1,0,2.88Z" transform="translate(-1156.108 -982.515)" fill="#2b478b"/>
    <path id="Trazado_657750" data-name="Trazado 657750" d="M1654.352,1293.939h-39.1a1.441,1.441,0,0,1,0-2.88h39.1a1.441,1.441,0,0,1,0,2.88Z" transform="translate(-1154.391 -795.874)" fill="#2b478b"/>
    <g id="Grupo_949089" data-name="Grupo 949089" transform="translate(509.97 327.321)">
      <path id="Trazado_657751" data-name="Trazado 657751" d="M1938.478,699.706c2.32.536,12.8.663,20.163-.991a22.49,22.49,0,0,0,4.1-1.277,6.324,6.324,0,0,0,2.965-2.24c.832-1.386,2.354-6.131,4.144-12.352,4.929-17.138,11.866-45.458,11.866-45.458s-13.928,2.843-16.875,5.27-5.551,40.922-8.323,41.962c-.408.153-1.113.476-2.016.921-.044.021-.088.044-.133.065-.539.266-1.145.572-1.8.911-5.75,2.955-15.268,8.279-16.254,9.463C1935.011,697.539,1935.1,698.926,1938.478,699.706Z" transform="translate(-1924.268 -595.049)" fill="#739af0"/>
      <path id="Trazado_657752" data-name="Trazado 657752" d="M2090.037,659.3a10.989,10.989,0,0,1,.185-1.969c1.792-9.855,16.043-19.947,16.324-19.947l0,.206c0,1.506,2.375,4.286,6.032,4.526,4.338.284,9.693-2.191,9.693-4.691.026,0,2.438.326,3.254.417,3.478.4,10.417,2.273,13.39,4.521,2.827,2.136-1.167,15.6-3.641,25.136-1.048,4.034-1.821,7.364-1.693,8.838.063.72.71,10.508,1.288,19.362.479,7.3.91,13.97.923,14.389.031.83-4.094,3.735-11.02,5.93a54.065,54.065,0,0,1-5.494,1.425,58.406,58.406,0,0,1-11.952,1.186c-1.43-.005-2.785-.078-4.065-.206C2093.369,717.458,2089.979,706.183,2090.037,659.3Z" transform="translate(-2049.102 -595.049)" fill="#739af0"/>
      <path id="Trazado_657753" data-name="Trazado 657753" d="M2191.513,585.412a83.853,83.853,0,0,0-.5-12.26l-15.278,2.5s-.017,4.664.05,9.838c-.009,0-.415,4.8,5.5,5.5S2191.672,589.116,2191.513,585.412Z" transform="translate(-2118.345 -543.149)" fill="#d9935c"/>
      <path id="Trazado_657754" data-name="Trazado 657754" d="M2080.9,1632.972c1.92-1.182.792-9.944.792-9.944s-9-7.143-10.21-1.644-8.493,7.994-12.639,8.682c-2.862.475-3.919,1.956-4.19,2.9Z" transform="translate(-2020.51 -1388.407)" fill="#233862"/>
      <path id="Trazado_657755" data-name="Trazado 657755" d="M2264.215,765.114c0,14.652,7.1,10.7,11.387,6.747-.578-8.854-.983-40.214-.983-40.214S2264.215,744.132,2264.215,765.114Z" transform="translate(-2189.833 -671.207)" fill="#4a75cb"/>
      <path id="Trazado_657756" data-name="Trazado 657756" d="M2024.225,792.409c.283,2.055,3.53,8.037,6.076,12.2a22.493,22.493,0,0,0,4.1-1.277,6.323,6.323,0,0,0,2.965-2.24c.833-1.386,2.354-6.131,4.144-12.352-1.324-7.657-2.583-15.219-2.583-15.219l-.39-5.072c0,.39-5.938,22.673-8.627,23.194a9.541,9.541,0,0,1-3.748-.208c-.044.021-.088.044-.133.065C2025.486,791.764,2024.88,792.071,2024.225,792.409Z" transform="translate(-1995.928 -700.941)" fill="#4a75cb"/>
      <path id="Trazado_657757" data-name="Trazado 657757" d="M2224.541,1632.972c1.921-1.182.792-9.944.792-9.944s-9-7.143-10.21-1.644-8.492,7.994-12.639,8.682c-2.862.475-3.9,1.956-4.174,2.9Z" transform="translate(-2136.584 -1388.407)" fill="#233862"/>
      <path id="Trazado_657758" data-name="Trazado 657758" d="M2176.94,474.712s10.2-16.081-9.385-17.145c0,0-7.346.865-9.009-.8,0,0-5.7,8.66-.376,17.943S2176.94,474.712,2176.94,474.712Z" transform="translate(-2102.316 -449.114)" fill="#233862"/>
      <path id="Trazado_657759" data-name="Trazado 657759" d="M2169.716,512.772c1.484,1.168,5.837,2.328,7.1,2.464,0,0,6.455-1.439,7.628-2.147,1.817-1.1,1.7-3.331,1.793-6.431.112-3.669.482-6.55.072-8.666-.487-2.53-2.091-3.97-6.583-4.361-8.245-.716-11.68,1.349-11.824,4.113-.037.742-.072,1.45-.1,2.12C2167.473,508.486,2168.154,511.543,2169.716,512.772Z" transform="translate(-2111.869 -478.782)" fill="#d9935c"/>
      <path id="Trazado_657760" data-name="Trazado 657760" d="M2167.729,541.411c.08,4.994,1.427,7.95,2.4,8.323a20.632,20.632,0,0,0,3.824,1.022c.464.055.909.039.9-.224-.015-.788-1.068-1.759-.286-2.456.821-.732,5.224-.978,5.579.618.173.779-1.247,2.153-.274,2.184.3-.05.585-.107.862-.179a12.853,12.853,0,0,0,3.393-1.5c1.817-1.1,1.7-2.79,2.1-5.865.26-1.989.26-.911,0,2.04-.272,3.089.26,5.072-1.793,6.431-1.143.756-7.723,3.713-7.723,3.713.1-1.566-5.516-2.862-7-4.03C2168.337,550.409,2167.646,547.9,2167.729,541.411Z" transform="translate(-2111.869 -517.502)" fill="#233862"/>
      <path id="Trazado_657761" data-name="Trazado 657761" d="M2130.353,794.018c.031.83-4.094,3.735-11.021,5.93-.558.178-1.136.349-1.729.514a.02.02,0,0,0-.014.017c-.646,7.581-2.4,18.291-3.973,28.626v0c-.409,2.679-.8,5.332-1.168,7.9a157.1,157.1,0,0,0-1.76,17.44v.047c-.034,2.044,1.69,7.145,1.82,8.323.081.72.146,1.483.193,2.281a92.61,92.61,0,0,1-.146,10.99c-1.132,17.573-5.774,40.056-7.431,41.013-3.293,1.9-9.285,0-12.331-.447a2.517,2.517,0,0,1-2.206-2.534c1.488-29.163-2.786-69.778-5.98-94.745q-.126-.976-.248-1.914c-.382-2.944-.635-5.694-.793-8.172-.146-2.174-.216-4.149-.247-5.86-.008-.533-.013-1.043-.016-1.524-.008-1.563,1.235-11.8,1.292-58.674h0a1.978,1.978,0,0,1,1.971-1.969h28.668a4.968,4.968,0,0,1,4.964,5.037,79.876,79.876,0,0,0,.861,13.334c1.058,6.509,3.324,12.59,8,14.054a.019.019,0,0,1,.012.009c.021.047.149.332.354.806a.014.014,0,0,1,0,.007q.067,1.766.148,3.6c.01.245.021.492.033.739.005.146.013.289.021.434.01.247.023.5.036.747q.027.616.063,1.243c.018.328.036.656.054.986q.051.952.115,1.925c.01.208.023.414.039.624.055.838.112,1.688.177,2.544.018.263.039.525.06.791.007.127.018.255.028.382.026.336.052.671.081,1.009.029.356.06.715.091,1.077C2130.488,791.921,2130.319,793.094,2130.353,794.018Z" transform="translate(-2043.661 -678.975)" fill="#2b478b"/>
      <path id="Trazado_657762" data-name="Trazado 657762" d="M2113.659,1134.322c-1.131,17.573-5.774,40.056-7.431,41.013-3.293,1.9-9.286,0-12.332-.447a2.517,2.517,0,0,1-2.206-2.533c1.488-29.163-2.786-69.778-5.98-94.745q-.126-.976-.247-1.914c-.383-2.944-.635-5.694-.793-8.172,1.519-9.9,10.092-10.43,17.866,10.048C2101.575,1084.364,2113.917,1130.3,2113.659,1134.322Z" transform="translate(-2044.766 -937.209)" fill="#233862"/>
      <path id="Trazado_657763" data-name="Trazado 657763" d="M2184.129,1049.863c.236,2.031,2.613,6.862,2.9,8.012,3.931,15.807,1.759,53.286-.189,54.784-3.015,2.32-9.208,1.217-12.284,1.176a2.513,2.513,0,0,1-2.518-2.22c-2.417-29.862-12.432-70.877-18.872-95a113.234,113.234,0,0,1-3.7-21.089s30.1-18.441,33.354-8.367C2185.7,996.068,2182.314,1034.265,2184.129,1049.863Z" transform="translate(-2097.117 -875.217)" fill="#2b478b"/>
      <g id="Grupo_949088" data-name="Grupo 949088" transform="translate(52.185 0)">
        <path id="Trazado_657764" data-name="Trazado 657764" d="M2152.794,420.862q.312-.35.66-.679a11.709,11.709,0,0,1,3.586-2.331c5.248-2.189,9.6-.169,12.32,1.9.269.2.52.406.755.609a15.813,15.813,0,0,1,2.3,2.378s2.549,3.477,2.464,10.806l-26.254.281S2148.244,425.91,2152.794,420.862Z" transform="translate(-2148.621 -416.905)" fill="#ffa412"/>
        <g id="Grupo_949087" data-name="Grupo 949087" transform="translate(0.008 3.086)">
          <path id="Trazado_657765" data-name="Trazado 657765" d="M2240.93,446.607l-1.443.016c-.03-.418.041-9.947,3.595-13.646a5.187,5.187,0,0,1,.447.369C2240.154,436.6,2240.923,446.509,2240.93,446.607Z" transform="translate(-2222.044 -432.978)" fill="#e27f2b"/>
          <path id="Trazado_657766" data-name="Trazado 657766" d="M2156.141,447.534A40.367,40.367,0,0,0,2153,434.48a5.855,5.855,0,0,1,.484-.51c.418.72,3.842,7.068,4.2,13.547l17.224-.184s-8.728,1.957-13.995,2.023a57.3,57.3,0,0,1-12.259-1.742Z" transform="translate(-2148.663 -433.779)" fill="#e27f2b"/>
        </g>
      </g>
      <path id="Trazado_657767" data-name="Trazado 657767" d="M2240.716,640.5s-8.871,10.334-9.391,19.351l4.52.24a43.453,43.453,0,0,1,7.814-18.973s-1.045-.253-1.392-.322C2241.8,640.7,2240.716,640.5,2240.716,640.5Z" transform="translate(-2163.259 -597.561)" fill="#2b478b"/>
      <path id="Trazado_657768" data-name="Trazado 657768" d="M2116.263,639.759a45.191,45.191,0,0,0-7.036,19.688l-4.562-.078c.375-7.088,4.827-14.884,7.286-18.578C2111.952,640.79,2115.108,639.993,2116.263,639.759Z" transform="translate(-2060.922 -596.964)" fill="#2b478b"/>
      <path id="Trazado_657769" data-name="Trazado 657769" d="M2284.256,698.569c-.224,10.581,1.095,31.652,1.095,31.652h6.243c2.947-14.826,3.987-24.364,3.987-29.566q0-1.537-.014-2.861c-.039-4.442-.158-7.023-.158-7.023,1.17-26.918-4.206-41.312-5.894-43.294s-9.416-3.764-9.416-3.764a106.2,106.2,0,0,0-3.592,13.419c-1.04,5.983,8.183,31.119,7.8,39.71C2284.287,697.377,2284.269,697.955,2284.256,698.569Z" transform="translate(-2199.699 -600.159)" fill="#739af0"/>
      <path id="Trazado_657770" data-name="Trazado 657770" d="M2304.3,956.062s-1.319-21.071-1.095-31.652a22.121,22.121,0,0,1,11.312-.775q.012,1.322.014,2.861c0,5.2-1.041,14.74-3.988,29.566,1.3,5.462,1.213,11.358-1.041,12.4s-9.71-2.861-9.624-4.6S2304.3,956.062,2304.3,956.062Z" transform="translate(-2218.643 -826.001)" fill="#d9935c"/>
      <path id="Trazado_657771" data-name="Trazado 657771" d="M1877.109,903.625c.608-2.231,1.06-3.468,2.6-4.552,2.232-1.575,4.882-1.149,6.857-.8a7.583,7.583,0,0,0,3.753-.5c3.5-2.331,12.278-7.138,16.649-9.292,2.983,1.73,6.648,5.153,8.372,11.832-6.729,2.968-21.456,2.916-24.26,2.268,0,0-2.6,1.887-4.571,2.06a6.873,6.873,0,0,1-2.572-.447,3.5,3.5,0,0,0-3.875,1.231,2.909,2.909,0,0,1-2.508,1.185C1876.749,906.612,1876.726,905.029,1877.109,903.625Z" transform="translate(-1876.868 -797.926)" fill="#d9935c"/>
    </g>
    <path id="Trazado_657772" data-name="Trazado 657772" d="M1628.934,1099.237h-46.5c-.8,0-2.576-.645-2.576-1.44s5.981-1.44,6.777-1.44h39.422V974.42a9.038,9.038,0,0,1,9.028-9.028h10.079a1.44,1.44,0,1,1,0,2.88h-10.079a6.154,6.154,0,0,0-6.147,6.147Z" transform="translate(-1126.92 -532.745)" fill="#2b478b"/>
    <path id="Trazado_657773" data-name="Trazado 657773" d="M1477.445,1099.237h-33.733a1.44,1.44,0,1,1,0-2.88h30.853V974.42a9.038,9.038,0,0,1,9.028-9.028h10.079a1.44,1.44,0,0,1,0,2.88h-10.079a6.154,6.154,0,0,0-6.147,6.147Z" transform="translate(-1015.758 -532.745)" fill="#2b478b"/>
    <path id="Trazado_657774" data-name="Trazado 657774" d="M1655.452,1063.939h-38.474a1.442,1.442,0,0,1,0-2.88h38.474a1.442,1.442,0,0,1,0,2.88Z" transform="translate(-1155.805 -610.041)" fill="#2b478b"/>
    <path id="Trazado_657775" data-name="Trazado 657775" d="M1869.8,965.193h-12.447a2.4,2.4,0,0,1,0-4.8H1869.8a2.4,2.4,0,0,1,0,4.8Z" transform="translate(-1349.19 -528.705)" fill="#963333"/>
    <path id="Trazado_657776" data-name="Trazado 657776" d="M1829.872,965.392a9.042,9.042,0,0,0-8.932,7.713h2.927a6.157,6.157,0,0,1,6-4.833,1.44,1.44,0,0,0,0-2.88Z" transform="translate(-1321.71 -532.745)" fill="#2b478b"/>
    <path id="Trazado_657777" data-name="Trazado 657777" d="M1659.8,965.193h-12.447a2.4,2.4,0,0,1,0-4.8H1659.8a2.4,2.4,0,0,1,0,4.8Z" transform="translate(-1179.516 -528.705)" fill="#963333"/>
    <path id="Trazado_657778" data-name="Trazado 657778" d="M1619.872,965.392a9.041,9.041,0,0,0-8.931,7.713h2.927a6.157,6.157,0,0,1,6-4.833,1.44,1.44,0,0,0,0-2.88Z" transform="translate(-1152.037 -532.745)" fill="#2b478b"/>
    <g id="Grupo_949090" data-name="Grupo 949090" transform="translate(438.2 520.18)">
      <path id="Trazado_657779" data-name="Trazado 657779" d="M1578.019,1422.067l47.932-.844.134,43.43h-47.934Z" transform="translate(-1563.638 -1421.224)" fill="#d3671e"/>
      <path id="Trazado_657780" data-name="Trazado 657780" d="M1503.125,1425.38l38.375-.148.1,42.686-38.375-.026Z" transform="translate(-1503.125 -1424.463)" fill="#f1a34f"/>
      <path id="Trazado_657781" data-name="Trazado 657781" d="M1541.5,1425.232l-38.375.148.033,13.453,38.447,29.085Z" transform="translate(-1503.125 -1424.463)" fill="#d86713" opacity="0.4"/>
    </g>
    <g id="Grupo_949091" data-name="Grupo 949091" transform="translate(487.099 541.08)">
      <path id="Trazado_657782" data-name="Trazado 657782" d="M1775.917,1530.059h-5.761c-6.841,0-12.386,6.792-12.386,15.17s5.545,15.17,12.386,15.17h5.761c6.841,0,12.386-6.792,12.386-15.17S1782.758,1530.059,1775.917,1530.059Z" transform="translate(-1757.77 -1530.059)" fill="#233862"/>
      <ellipse id="Elipse_7645" data-name="Elipse 7645" cx="12.386" cy="15.17" rx="12.386" ry="15.17" transform="translate(5.761 0)" fill="#2b478b"/>
      <path id="Trazado_657783" data-name="Trazado 657783" d="M1827.125,1568.661c0,5.3-3.51,9.6-7.839,9.6s-7.839-4.3-7.839-9.6,3.51-9.6,7.839-9.6S1827.125,1563.358,1827.125,1568.661Z" transform="translate(-1801.14 -1553.49)" fill="#4a75cb"/>
    </g>
    <g id="Grupo_949092" data-name="Grupo 949092" transform="translate(444.734 472.172)">
      <path id="Trazado_657784" data-name="Trazado 657784" d="M1622.862,1171.389l55.159-.169-.152,48.652-54.857.169Z" transform="translate(-1606.403 -1171.22)" fill="#d3671e"/>
      <path id="Trazado_657785" data-name="Trazado 657785" d="M1537.151,1171.829l43.917-.169.12,48.652-43.917.169Z" transform="translate(-1537.151 -1171.576)" fill="#f1a34f"/>
      <path id="Trazado_657786" data-name="Trazado 657786" d="M1581.069,1171.66l-43.917.169.038,15.554,44,32.929Z" transform="translate(-1537.151 -1171.576)" fill="#d86713" opacity="0.4"/>
    </g>
    <path id="Trazado_657787" data-name="Trazado 657787" d="M1920.1,957.841s-4.672,3.181-5.907,2.4.864-2.56-1.12-3.2S1920.1,957.841,1920.1,957.841Z" transform="translate(-1395.917 -525.862)" fill="#d9935c"/>
    <path id="Rectángulo_336386" data-name="Rectángulo 336386" d="M.67,0H504.33a.67.67,0,0,1,.67.67v0a.67.67,0,0,1-.67.67H.67A.67.67,0,0,1,0,.67v0A.67.67,0,0,1,.67,0Z" transform="translate(185.1 571.216)" fill="#2e3552"/>
  </g>
</svg>
