<svg xmlns="http://www.w3.org/2000/svg" width="76.407" height="78.099" viewBox="0 0 76.407 78.099">
  <g id="inventario" transform="translate(-5.545)">
    <g id="Grupo_949050" data-name="Grupo 949050" transform="translate(51.429 8.057)">
      <path id="Trazado_657655" data-name="Trazado 657655" d="M332.211,52.818H316.28a9.013,9.013,0,0,1-9.926,11.061V85.652a.458.458,0,0,0,.458.458h25.4a.458.458,0,0,0,.458-.458V53.276A.458.458,0,0,0,332.211,52.818Z" transform="translate(-306.354 -52.818)" fill="#eaf6ff"/>
      <path id="Trazado_657656" data-name="Trazado 657656" d="M312.706,138.353V115.005a8.98,8.98,0,0,1-5.2,1.651,9.085,9.085,0,0,1-1.152-.076v21.772a.458.458,0,0,0,.458.458h6.353A.457.457,0,0,1,312.706,138.353Z" transform="translate(-306.353 -105.519)" fill="#d8ecfe"/>
    </g>
    <g id="Grupo_949061" data-name="Grupo 949061" transform="translate(6.689 31.675)">
      <g id="Grupo_949058" data-name="Grupo 949058" transform="translate(8.065)">
        <g id="Grupo_949053" data-name="Grupo 949053" transform="translate(34.322 18.415)">
          <path id="Trazado_657657" data-name="Trazado 657657" d="M314.592,349.68V328.841a.458.458,0,0,0-.458-.458h-23.21v21.3Z" transform="translate(-290.925 -328.383)" fill="#fed2a4"/>
          <path id="Trazado_657658" data-name="Trazado 657658" d="M290.925,328.383H296.1v21.3h-5.173Z" transform="translate(-290.925 -328.383)" fill="#ffbd86"/>
          <g id="Grupo_949051" data-name="Grupo 949051" transform="translate(8.504)">
            <path id="Trazado_657659" data-name="Trazado 657659" d="M352.879,334.379h-5.744a.458.458,0,0,1-.458-.458v-5.538h6.659v5.538A.458.458,0,0,1,352.879,334.379Z" transform="translate(-346.678 -328.383)" fill="#fe646f"/>
          </g>
          <g id="Grupo_949052" data-name="Grupo 949052" transform="translate(8.504)">
            <path id="Trazado_657660" data-name="Trazado 657660" d="M349.221,333.921v-5.538h-2.543v5.538a.458.458,0,0,0,.458.458h2.543A.458.458,0,0,1,349.221,333.921Z" transform="translate(-346.678 -328.383)" fill="#fd4755"/>
          </g>
        </g>
        <path id="Trazado_657661" data-name="Trazado 657661" d="M124.508,226.07V208.113a.458.458,0,0,0-.458-.458H101.3a.458.458,0,0,0-.458.458V226.07Z" transform="translate(-95.514 -207.655)" fill="#fed2a4"/>
        <path id="Trazado_657662" data-name="Trazado 657662" d="M106.027,226.07V208.113a.458.458,0,0,1,.458-.458H101.3a.458.458,0,0,0-.458.458V226.07Z" transform="translate(-95.514 -207.655)" fill="#ffbd86"/>
        <g id="Grupo_949054" data-name="Grupo 949054" transform="translate(13.832)">
          <path id="Trazado_657663" data-name="Trazado 657663" d="M162.8,213.651h-5.744a.458.458,0,0,1-.458-.458v-5.538h6.659v5.538A.458.458,0,0,1,162.8,213.651Z" transform="translate(-156.594 -207.655)" fill="#fe646f"/>
        </g>
        <g id="Grupo_949055" data-name="Grupo 949055" transform="translate(13.832)">
          <path id="Trazado_657664" data-name="Trazado 657664" d="M159.149,213.193v-5.538h-2.555v5.538a.458.458,0,0,0,.458.458h2.555A.458.458,0,0,1,159.149,213.193Z" transform="translate(-156.594 -207.655)" fill="#fd4755"/>
        </g>
        <path id="Trazado_657665" data-name="Trazado 657665" d="M100.238,349.68v-21.3H66.374a.458.458,0,0,0-.458.458V349.68Z" transform="translate(-65.916 -309.968)" fill="#f6a96c"/>
        <path id="Trazado_657666" data-name="Trazado 657666" d="M70.963,349.68V328.841a.458.458,0,0,1,.458-.458H66.374a.458.458,0,0,0-.458.458V349.68Z" transform="translate(-65.916 -309.968)" fill="#ea9b58"/>
        <g id="Grupo_949056" data-name="Grupo 949056" transform="translate(13.451 18.415)">
          <path id="Trazado_657667" data-name="Trazado 657667" d="M161.058,334.379h-6.506a.458.458,0,0,1-.458-.458v-5.538h7.421v5.538A.458.458,0,0,1,161.058,334.379Z" transform="translate(-154.095 -328.383)" fill="#fe646f"/>
        </g>
        <g id="Grupo_949057" data-name="Grupo 949057" transform="translate(13.451 18.415)">
          <path id="Trazado_657668" data-name="Trazado 657668" d="M156.674,333.921v-5.538H154.1v5.538a.458.458,0,0,0,.458.458h2.579A.458.458,0,0,1,156.674,333.921Z" transform="translate(-154.095 -328.383)" fill="#fd4755"/>
        </g>
      </g>
      <g id="Grupo_949059" data-name="Grupo 949059" transform="translate(0 39.56)">
        <path id="Trazado_657669" data-name="Trazado 657669" d="M86.707,472.72H13.5a.458.458,0,0,1-.458-.458v-4.8A.458.458,0,0,1,13.5,467h73.2a.458.458,0,0,1,.458.458v4.8A.458.458,0,0,1,86.707,472.72Z" transform="translate(-13.045 -467)" fill="#fac600"/>
      </g>
      <g id="Grupo_949060" data-name="Grupo 949060" transform="translate(0 39.56)">
        <path id="Trazado_657670" data-name="Trazado 657670" d="M20.221,472.263v-4.8a.458.458,0,0,1,.458-.458H13.5a.458.458,0,0,0-.458.458v4.8a.458.458,0,0,0,.458.458h7.176A.458.458,0,0,1,20.221,472.263Z" transform="translate(-13.045 -467)" fill="#e8b800"/>
      </g>
    </g>
    <g id="Grupo_949065" data-name="Grupo 949065" transform="translate(43.557 1.144)">
      <g id="Grupo_949064" data-name="Grupo 949064">
        <g id="Grupo_949062" data-name="Grupo 949062">
          <circle id="Elipse_7643" data-name="Elipse 7643" cx="9.025" cy="9.025" r="9.025" fill="#97e580"/>
        </g>
      </g>
    </g>
    <g id="Grupo_949066" data-name="Grupo 949066" transform="translate(5.545)">
      <path id="Trazado_657672" data-name="Trazado 657672" d="M358.929,135.582h-12a1.144,1.144,0,0,0,0,2.288h12a1.144,1.144,0,0,0,0-2.288Z" transform="translate(-293.889 -114.901)"/>
      <path id="Trazado_657673" data-name="Trazado 657673" d="M360.073,174.449a1.144,1.144,0,0,0-1.144-1.144h-12a1.144,1.144,0,0,0,0,2.288h12A1.144,1.144,0,0,0,360.073,174.449Z" transform="translate(-293.889 -146.87)"/>
      <path id="Trazado_657674" data-name="Trazado 657674" d="M346.932,211.027a1.144,1.144,0,1,0,0,2.288h7.926a1.144,1.144,0,0,0,0-2.288Z" transform="translate(-293.888 -178.838)"/>
      <path id="Trazado_657675" data-name="Trazado 657675" d="M80.351,239.714H73.887V220.171a1.6,1.6,0,0,0-1.6-1.6H44.893v-3.49a1.144,1.144,0,0,0-2.288,0v3.49H21.225V202.442h6.216v4.394a1.6,1.6,0,0,0,1.6,1.6h5.744a1.6,1.6,0,0,0,1.6-1.6v-4.394H42.6v7.3a1.144,1.144,0,1,0,2.288,0v-7.985a1.6,1.6,0,0,0-1.6-1.6H20.539a1.6,1.6,0,0,0-1.6,1.6V218.57H15.211a1.6,1.6,0,0,0-1.6,1.6v19.543H7.147a1.6,1.6,0,0,0-1.6,1.6v4.8a1.6,1.6,0,0,0,1.6,1.6h73.2a1.6,1.6,0,0,0,1.6-1.6v-4.8A1.6,1.6,0,0,0,80.351,239.714ZM29.73,202.442H34.1v3.708H29.73Zm28.995,18.415H63.1v3.708H58.724Zm-29.376,0h5.133v3.708H29.349Zm-13.451,0H27.06v4.394a1.6,1.6,0,0,0,1.6,1.6h6.506a1.6,1.6,0,0,0,1.6-1.6v-4.394H47.932v18.856H15.9Zm63.766,24.576H7.833V242H62.816a1.144,1.144,0,0,0,0-2.288H50.22V220.858h6.216v4.394a1.6,1.6,0,0,0,1.6,1.6h5.744a1.6,1.6,0,0,0,1.6-1.6v-4.394H71.6v18.856H68.155a1.144,1.144,0,0,0,0,2.288h11.51Z" transform="translate(-5.545 -169.623)"/>
      <path id="Trazado_657676" data-name="Trazado 657676" d="M255.114,20.073V40.89a1.6,1.6,0,0,0,1.6,1.6h25.4a1.6,1.6,0,0,0,1.6-1.6V30.507a1.144,1.144,0,1,0-2.288,0v9.7H257.4V20.338h.008a10.138,10.138,0,0,0,7.321-3.122h10.682a1.144,1.144,0,1,0,0-2.288h-9.021a10.1,10.1,0,0,0,1.186-4.758c0-.327-.017-.649-.047-.968h13.9V25.169a1.144,1.144,0,1,0,2.288,0V8.514a1.6,1.6,0,0,0-1.6-1.6H267.041a10.168,10.168,0,1,0-11.927,13.16Zm2.3-17.785a7.881,7.881,0,1,1-7.881,7.881A7.89,7.89,0,0,1,257.41,2.288Z" transform="translate(-210.373)"/>
      <path id="Trazado_657677" data-name="Trazado 657677" d="M283.507,52a1.144,1.144,0,0,0,1.618,0l4.652-4.652a1.144,1.144,0,1,0-1.618-1.618l-3.843,3.843-2.7-2.7A1.144,1.144,0,1,0,280,48.5Z" transform="translate(-237.853 -38.472)"/>
    </g>
  </g>
</svg>
