<svg xmlns="http://www.w3.org/2000/svg" width="295" height="208" viewBox="0 0 295 208">
  <g id="Grupo_948561" data-name="Grupo 948561" transform="translate(-1020 -9249)">
    <rect id="Rectángulo_336302" data-name="Rectángulo 336302" width="295" height="208" transform="translate(1020 9249)" fill="#c9ecff"/>
    <g id="verificado" transform="translate(1095.974 9281.654)">
      <g id="Grupo_948559" data-name="Grupo 948559" transform="translate(11.115 2.09)">
        <path id="Trazado_656220" data-name="Trazado 656220" d="M145.587,7.5v7.285l-20.689,1.4-21.965-1.4V7.5Z" transform="translate(-78.851 -7.5)" fill="#7ca1b1"/>
        <path id="Trazado_656221" data-name="Trazado 656221" d="M228.4,7.5v7.283l-8.918.557v-6.1A1.74,1.74,0,0,0,217.737,7.5H228.4A0,0,0,0,1,228.4,7.5Z" transform="translate(-161.66 -7.5)" fill="#678d98"/>
        <path id="Trazado_656222" data-name="Trazado 656222" d="M107.338,42.076V154.227a8.435,8.435,0,0,1-8.436,8.436H24.962a8.438,8.438,0,0,1-8.439-8.436V42.076a8.438,8.438,0,0,1,8.439-8.436h4.452l32.519,2.144L93.7,33.64h5.2a8.435,8.435,0,0,1,8.436,8.436Z" transform="translate(-16.523 -26.355)" fill="#cdf0c2"/>
        <path id="Trazado_656223" data-name="Trazado 656223" d="M307.086,42.073V154.224a8.435,8.435,0,0,1-8.436,8.436h-5.2a8.435,8.435,0,0,0,8.436-8.436V42.073c0-8.731-7.469-8.436-7.469-8.436h4.236A8.435,8.435,0,0,1,307.086,42.073Z" transform="translate(-216.27 -26.352)" fill="#4278c3"/>
        <path id="Trazado_656224" data-name="Trazado 656224" d="M120.747,37.876v106.4a4.236,4.236,0,0,1-4.236,4.236H51.043a4.234,4.234,0,0,1-4.236-4.236V37.876a4.236,4.236,0,0,1,4.236-4.236h65.468A4.238,4.238,0,0,1,120.747,37.876Z" transform="translate(-38.367 -26.355)" fill="#c8effe"/>
        <path id="Trazado_656225" data-name="Trazado 656225" d="M281.808,37.876v106.4a4.236,4.236,0,0,1-4.236,4.236H270.1a4.234,4.234,0,0,0,4.236-4.236V37.876A4.236,4.236,0,0,0,270.1,33.64h7.475A4.238,4.238,0,0,1,281.808,37.876Z" transform="translate(-199.428 -26.355)" fill="#99e6fc"/>
        <path id="Trazado_656226" data-name="Trazado 656226" d="M85.9,108.658h53.422v8.361H85.9Z" transform="translate(-66.568 -80.466)" fill="#7ca1b1"/>
        <path id="Trazado_656227" data-name="Trazado 656227" d="M281.124,160.815l-54.886-14.707a2.914,2.914,0,0,0-3.569,2.06L201.4,227.542a2.914,2.914,0,0,0,2.06,3.569l54.886,14.707a2.914,2.914,0,0,0,3.569-2.06l21.268-79.373A2.914,2.914,0,0,0,281.124,160.815Z" transform="translate(-149.805 -107.407)" fill="#99e6fc"/>
        <path id="Trazado_656228" data-name="Trazado 656228" d="M258.511,121.653l-21.268,79.372a2.915,2.915,0,0,1-3.568,2.062L178.789,188.38a2.917,2.917,0,0,1-2.061-3.57L198,105.437a2.916,2.916,0,0,1,3.57-2.061l54.887,14.707a2.913,2.913,0,0,1,2.058,3.57Z" transform="translate(-132.008 -76.584)" fill="#eaf6ff"/>
        <path id="Trazado_656229" data-name="Trazado 656229" d="M383.4,153.9,362.13,233.271a2.917,2.917,0,0,1-3.567,2.062l-8.8-2.358a2.917,2.917,0,0,0,3.57-2.062L374.6,151.542a2.911,2.911,0,0,0-2.034-3.562l8.768,2.349a2.909,2.909,0,0,1,2.06,3.567Z" transform="translate(-256.894 -108.829)" fill="#c8effe"/>
        <circle id="Elipse_7626" data-name="Elipse 7626" cx="20.543" cy="20.543" r="20.543" transform="translate(61.478 69.504)" fill="#ffb338"/>
        <path id="Trazado_656230" data-name="Trazado 656230" d="M0,0H41.087V16.483H0Z" transform="translate(74.461 38.899) rotate(15.009)" fill="#eb6f2d"/>
      </g>
      <g id="Grupo_948560" data-name="Grupo 948560" transform="translate(9.026 0)">
        <path id="Trazado_656231" data-name="Trazado 656231" d="M80.492,184.828H92.148a2.09,2.09,0,1,0,0-4.18H80.492a2.09,2.09,0,1,0,0,4.18Z" transform="translate(-59.067 -130.303)"/>
        <path id="Trazado_656232" data-name="Trazado 656232" d="M92.148,378.611H80.492a2.09,2.09,0,0,0,0,4.18H92.148a2.09,2.09,0,1,0,0-4.18Z" transform="translate(-59.067 -273.095)"/>
        <path id="Trazado_656233" data-name="Trazado 656233" d="M146.013,55.811a4.971,4.971,0,0,0-3.039-2.332l-4.559-1.222,1.221-4.558a5.067,5.067,0,0,0-3.537-6.13l-32.079-8.6V17.812A10.539,10.539,0,0,0,93.494,7.285H79.941V2.09A2.09,2.09,0,0,0,77.851,0H35.2a2.09,2.09,0,0,0-2.09,2.09V7.285H19.553A10.539,10.539,0,0,0,9.026,17.812V108.6a2.09,2.09,0,1,0,4.18,0V17.812a6.357,6.357,0,0,1,4.543-6.084,6.31,6.31,0,0,0-.286,1.884v106.4a6.334,6.334,0,0,0,6.327,6.327H61.821a4.969,4.969,0,0,0,2.41,1.477l30.9,8.28a6.37,6.37,0,0,1-1.639.215H19.553a6.354,6.354,0,0,1-6.347-6.347V118.444a2.09,2.09,0,1,0-4.18,0v11.518a10.539,10.539,0,0,0,10.527,10.527h73.94a10.473,10.473,0,0,0,7.245-2.894l18.378,4.924a5,5,0,0,0,6.129-3.539l21.268-79.373a4.97,4.97,0,0,0-.5-3.8Zm-10.5-9.82a.822.822,0,0,1,.082.627L114.331,125.99a.825.825,0,0,1-1.008.584L58.437,111.868a.826.826,0,0,1-.583-1.01L79.121,31.485a.865.865,0,0,1,1.01-.583l54.887,14.707a.816.816,0,0,1,.5.383ZM73.435,36.553H32.541v-4.18H74.556ZM37.286,4.18H75.761v3.1H37.286Zm5.633,7.285H70.127v1.826A4.811,4.811,0,0,1,65.321,18.1h-17.6a4.811,4.811,0,0,1-4.806-4.806ZM21.643,120.009V13.612a2.149,2.149,0,0,1,2.146-2.146h14.95v1.826a9,9,0,0,0,8.986,8.986h17.6a9,9,0,0,0,8.986-8.986V11.465h14.95A2.149,2.149,0,0,1,91.4,13.612v8.5a2.09,2.09,0,1,0,4.18,0v-8.5a6.3,6.3,0,0,0-.286-1.884,6.357,6.357,0,0,1,4.543,6.084V31.854L81.213,26.863a5.045,5.045,0,0,0-4.864,1.329h-45.9a2.09,2.09,0,0,0-2.09,2.09v8.361a2.09,2.09,0,0,0,2.09,2.09H72.315l-6.271,23.4H30.451a2.09,2.09,0,1,0,0,4.18H64.924l-2.576,9.612h-31.9a2.09,2.09,0,0,0,0,4.18H61.228l-2.576,9.612h-28.2a2.09,2.09,0,0,0,0,4.18H57.532l-3.717,13.871a5.011,5.011,0,0,0,3.539,6.13l4.558,1.222-1.221,4.557c-.042.157-.075.314-.1.471h-36.8a2.148,2.148,0,0,1-2.146-2.146ZM142.475,58.526,121.207,137.9a.824.824,0,0,1-1.009.582L65.313,123.775a.824.824,0,0,1-.582-1.009l1.221-4.557,46.29,12.4a5,5,0,0,0,6.128-3.54L137.334,56.3l4.559,1.222a.833.833,0,0,1,.582,1.009Z" transform="translate(-9.026 0)"/>
        <path id="Trazado_656234" data-name="Trazado 656234" d="M273.466,263.824a2.117,2.117,0,0,0-2.963-.981L252.044,273.5l-5.711-9.892a2.09,2.09,0,1,0-3.62,2.09l6.756,11.7a2.134,2.134,0,0,0,2.855.765l18.02-10.4a18.449,18.449,0,1,1-5.907-9.639,2.09,2.09,0,1,0,2.726-3.169,22.636,22.636,0,1,0-3.434,36.774C273.1,286.317,277.848,273.983,273.466,263.824Z" transform="translate(-168.302 -179.989)"/>
        <path id="Trazado_656235" data-name="Trazado 656235" d="M261.182,158.571a2.092,2.092,0,0,0,1.269.974l39.687,10.634a2.132,2.132,0,0,0,2.56-1.478l4.266-15.921a2.11,2.11,0,0,0-1.478-2.56L267.8,139.586a2.091,2.091,0,0,0-2.56,1.478l-4.266,15.921a2.091,2.091,0,0,0,.209,1.586Zm7.554-14.406,35.649,9.552L301.2,165.6l-35.649-9.552Z" transform="translate(-190.706 -100.632)"/>
      </g>
    </g>
  </g>
</svg>
