<svg xmlns="http://www.w3.org/2000/svg" width="186" height="265" viewBox="0 0 186 265">
  <g id="Grupo_949231" data-name="Grupo 949231" transform="translate(-466 -7976.7)">
    <rect id="Rectángulo_336269" data-name="Rectángulo 336269" width="85" height="57" transform="translate(517 7976.7)" fill="#95c27d"/>
    <rect id="Rectángulo_336270" data-name="Rectángulo 336270" width="85" height="57" transform="translate(466 8050.7)" fill="#95c27d"/>
    <rect id="Rectángulo_336271" data-name="Rectángulo 336271" width="85" height="57" transform="translate(567 8050.7)" fill="#95c27d"/>
    <rect id="Rectángulo_336272" data-name="Rectángulo 336272" width="85" height="57" transform="translate(466 8117.7)" fill="#95c27d"/>
    <rect id="Rectángulo_336273" data-name="Rectángulo 336273" width="85" height="57" transform="translate(567 8117.7)" fill="#95c27d"/>
    <rect id="Rectángulo_336274" data-name="Rectángulo 336274" width="85" height="57" transform="translate(466 8184.7)" fill="#95c27d"/>
    <rect id="Rectángulo_336275" data-name="Rectángulo 336275" width="85" height="57" transform="translate(567 8184.7)" fill="#95c27d"/>
    <g id="Trazado_658071" data-name="Trazado 658071" transform="translate(490 8064.7)" fill="#fff">
      <path d="M 141.5 29.5 L 0.5 29.5 L 0.5 0.5 L 141.5 0.5 L 141.5 29.5 Z" stroke="none"/>
      <path d="M 1 1 L 1 29 L 141 29 L 141 1 L 1 1 M 0 0 L 142 0 L 142 30 L 0 30 L 0 0 Z" stroke="none" fill="#707070"/>
    </g>
    <path id="Trazado_658345" data-name="Trazado 658345" d="M2.781-4.234V0H1.469V-11.2H4.547a4.063,4.063,0,0,1,2.785.875A3.124,3.124,0,0,1,8.32-7.859a3.4,3.4,0,0,1-1.1,2.609A4.194,4.194,0,0,1,4.258-4.234Zm0-5.781v4.594H4.156A3.074,3.074,0,0,0,6.23-6.043,2.2,2.2,0,0,0,6.945-7.8q0-2.219-2.625-2.219ZM14.43-6.7a1.567,1.567,0,0,0-.969-.258,1.635,1.635,0,0,0-1.371.773,3.576,3.576,0,0,0-.551,2.109V0H10.258V-8h1.281v1.648h.031a2.793,2.793,0,0,1,.836-1.316,1.906,1.906,0,0,1,1.258-.473,2.092,2.092,0,0,1,.766.109Zm2.047-3.328a.812.812,0,0,1-.586-.234.791.791,0,0,1-.242-.594.8.8,0,0,1,.242-.6.8.8,0,0,1,.586-.238.827.827,0,0,1,.6.238.8.8,0,0,1,.246.6.792.792,0,0,1-.246.586A.82.82,0,0,1,16.477-10.031ZM17.1,0H15.82V-8H17.1ZM31.055,0H29.773V-4.594a3.466,3.466,0,0,0-.41-1.922,1.555,1.555,0,0,0-1.379-.594,1.708,1.708,0,0,0-1.395.75,2.869,2.869,0,0,0-.574,1.8V0H24.734V-4.75q0-2.359-1.82-2.359a1.686,1.686,0,0,0-1.391.707,2.923,2.923,0,0,0-.547,1.84V0H19.7V-8h1.281v1.266h.031a2.718,2.718,0,0,1,2.484-1.453,2.316,2.316,0,0,1,1.43.457,2.3,2.3,0,0,1,.836,1.2,2.855,2.855,0,0,1,2.656-1.656q2.641,0,2.641,3.258Zm8.852-3.68H34.258a2.992,2.992,0,0,0,.719,2.063,2.478,2.478,0,0,0,1.891.727,3.931,3.931,0,0,0,2.484-.891v1.2a4.643,4.643,0,0,1-2.789.766A3.381,3.381,0,0,1,33.9-.9a4.461,4.461,0,0,1-.969-3.066,4.375,4.375,0,0,1,1.059-3.043,3.394,3.394,0,0,1,2.629-1.176,3.008,3.008,0,0,1,2.43,1.016,4.234,4.234,0,0,1,.859,2.82ZM38.594-4.766a2.607,2.607,0,0,0-.535-1.727,1.823,1.823,0,0,0-1.465-.617,2.07,2.07,0,0,0-1.539.648,2.943,2.943,0,0,0-.781,1.7ZM46.016-6.7a1.567,1.567,0,0,0-.969-.258,1.635,1.635,0,0,0-1.371.773,3.576,3.576,0,0,0-.551,2.109V0H41.844V-8h1.281v1.648h.031a2.794,2.794,0,0,1,.836-1.316,1.906,1.906,0,0,1,1.258-.473,2.092,2.092,0,0,1,.766.109ZM53.133,0H51.852V-1.25H51.82A2.682,2.682,0,0,1,49.359.188a2.63,2.63,0,0,1-1.871-.633,2.192,2.192,0,0,1-.676-1.68q0-2.242,2.641-2.609l2.4-.336q0-2.039-1.648-2.039a3.938,3.938,0,0,0-2.609.984V-7.437a4.958,4.958,0,0,1,2.719-.75q2.82,0,2.82,2.984ZM51.852-4.047l-1.93.266a3.133,3.133,0,0,0-1.344.441,1.273,1.273,0,0,0-.453,1.121,1.221,1.221,0,0,0,.418.957,1.615,1.615,0,0,0,1.113.371,2.056,2.056,0,0,0,1.574-.668,2.387,2.387,0,0,0,.621-1.691Zm9.563-.187V0H60.1V-11.2H63.18a4.063,4.063,0,0,1,2.785.875,3.124,3.124,0,0,1,.988,2.469,3.4,3.4,0,0,1-1.1,2.609,4.194,4.194,0,0,1-2.965,1.016Zm0-5.781v4.594h1.375a3.074,3.074,0,0,0,2.074-.621A2.2,2.2,0,0,0,65.578-7.8q0-2.219-2.625-2.219ZM73.063-6.7a1.567,1.567,0,0,0-.969-.258,1.635,1.635,0,0,0-1.371.773,3.576,3.576,0,0,0-.551,2.109V0H68.891V-8h1.281v1.648H70.2a2.793,2.793,0,0,1,.836-1.316A1.906,1.906,0,0,1,72.3-8.141a2.092,2.092,0,0,1,.766.109Zm2.047-3.328a.812.812,0,0,1-.586-.234.791.791,0,0,1-.242-.594.8.8,0,0,1,.242-.6.8.8,0,0,1,.586-.238.827.827,0,0,1,.6.238.8.8,0,0,1,.246.6.792.792,0,0,1-.246.586A.82.82,0,0,1,75.109-10.031ZM75.734,0H74.453V-8h1.281Zm5.938.188A3.711,3.711,0,0,1,78.84-.934a4.153,4.153,0,0,1-1.059-2.973,4.326,4.326,0,0,1,1.1-3.148,3.96,3.96,0,0,1,2.977-1.133,3.588,3.588,0,0,1,2.793,1.1,4.368,4.368,0,0,1,1,3.055A4.3,4.3,0,0,1,84.574-.965,3.791,3.791,0,0,1,81.672.188Zm.094-7.3a2.437,2.437,0,0,0-1.953.84,3.449,3.449,0,0,0-.719,2.316,3.262,3.262,0,0,0,.727,2.242,2.469,2.469,0,0,0,1.945.82,2.342,2.342,0,0,0,1.91-.8,3.492,3.492,0,0,0,.668-2.289A3.552,3.552,0,0,0,83.676-6.3,2.332,2.332,0,0,0,81.766-7.109ZM91.875-6.7a1.567,1.567,0,0,0-.969-.258,1.635,1.635,0,0,0-1.371.773,3.576,3.576,0,0,0-.551,2.109V0H87.7V-8h1.281v1.648h.031a2.793,2.793,0,0,1,.836-1.316,1.906,1.906,0,0,1,1.258-.473,2.092,2.092,0,0,1,.766.109Zm2.047-3.328a.812.812,0,0,1-.586-.234.791.791,0,0,1-.242-.594.8.8,0,0,1,.242-.6.8.8,0,0,1,.586-.238.827.827,0,0,1,.6.238.8.8,0,0,1,.246.6.792.792,0,0,1-.246.586A.82.82,0,0,1,93.922-10.031ZM94.547,0H93.266V-8h1.281Zm9.422,0h-1.281V-1.359h-.031A2.958,2.958,0,0,1,99.906.188,2.988,2.988,0,0,1,97.5-.887a4.407,4.407,0,0,1-.9-2.926,4.794,4.794,0,0,1,1-3.18,3.3,3.3,0,0,1,2.664-1.2,2.564,2.564,0,0,1,2.4,1.3h.031v-4.953h1.281Zm-1.281-3.617V-4.8a2.289,2.289,0,0,0-.641-1.641,2.149,2.149,0,0,0-1.625-.672,2.212,2.212,0,0,0-1.844.859,3.766,3.766,0,0,0-.672,2.375,3.387,3.387,0,0,0,.645,2.184,2.107,2.107,0,0,0,1.73.8,2.188,2.188,0,0,0,1.738-.773A2.882,2.882,0,0,0,102.688-3.617ZM112.289,0h-1.281V-1.25h-.031A2.682,2.682,0,0,1,108.516.188a2.63,2.63,0,0,1-1.871-.633,2.192,2.192,0,0,1-.676-1.68q0-2.242,2.641-2.609l2.4-.336q0-2.039-1.648-2.039a3.938,3.938,0,0,0-2.609.984V-7.437a4.958,4.958,0,0,1,2.719-.75q2.82,0,2.82,2.984Zm-1.281-4.047-1.93.266a3.133,3.133,0,0,0-1.344.441,1.273,1.273,0,0,0-.453,1.121,1.221,1.221,0,0,0,.418.957,1.615,1.615,0,0,0,1.113.371,2.056,2.056,0,0,0,1.574-.668,2.387,2.387,0,0,0,.621-1.691ZM121.531,0H120.25V-1.359h-.031a2.958,2.958,0,0,1-2.75,1.547,2.988,2.988,0,0,1-2.41-1.074,4.407,4.407,0,0,1-.9-2.926,4.794,4.794,0,0,1,1-3.18,3.3,3.3,0,0,1,2.664-1.2,2.564,2.564,0,0,1,2.4,1.3h.031v-4.953h1.281ZM120.25-3.617V-4.8a2.289,2.289,0,0,0-.641-1.641,2.149,2.149,0,0,0-1.625-.672,2.212,2.212,0,0,0-1.844.859,3.766,3.766,0,0,0-.672,2.375,3.387,3.387,0,0,0,.645,2.184,2.107,2.107,0,0,0,1.73.8,2.188,2.188,0,0,0,1.738-.773A2.882,2.882,0,0,0,120.25-3.617Z" transform="translate(497 8084.7)" fill="#12263f"/>
  </g>
</svg>
