<svg xmlns="http://www.w3.org/2000/svg" width="85" height="81.77" viewBox="0 0 85 81.77">
  <g id="planificacion" transform="translate(0 -9.727)">
    <g id="Grupo_949199" data-name="Grupo 949199" transform="translate(25.095 40.015)">
      <g id="Grupo_949197" data-name="Grupo 949197" transform="translate(0 0)">
        <path id="Trazado_658190" data-name="Trazado 658190" d="M179.987,213.426H157.026a5.864,5.864,0,0,1-5.864-5.864v-9.529a5.864,5.864,0,0,1,5.864-5.864h22.962a5.864,5.864,0,0,1,5.864,5.864v9.529A5.864,5.864,0,0,1,179.987,213.426Z" transform="translate(-151.162 -192.169)" fill="#ffb338"/>
      </g>
      <g id="Grupo_949198" data-name="Grupo 949198" transform="translate(0 28.566)">
        <path id="Trazado_658191" data-name="Trazado 658191" d="M179.987,385.491H157.026a5.864,5.864,0,0,1-5.864-5.864V370.1a5.864,5.864,0,0,1,5.864-5.864h22.962a5.864,5.864,0,0,1,5.864,5.864v9.529A5.864,5.864,0,0,1,179.987,385.491Z" transform="translate(-151.162 -364.234)" fill="#eb6f2d"/>
      </g>
    </g>
    <g id="Grupo_949201" data-name="Grupo 949201" transform="translate(25.095 11.387)">
      <g id="Grupo_949200" data-name="Grupo 949200" transform="translate(0 0)">
        <path id="Trazado_658192" data-name="Trazado 658192" d="M157.026,19.727a5.864,5.864,0,0,0-5.864,5.864V35.12a5.864,5.864,0,0,0,5.864,5.864h22.962a5.864,5.864,0,0,0,5.864-5.864V25.591a5.864,5.864,0,0,0-5.864-5.864Z" transform="translate(-151.162 -19.727)" fill="#f9f6f4"/>
      </g>
    </g>
    <g id="Grupo_949202" data-name="Grupo 949202" transform="translate(0 9.727)">
      <path id="Trazado_658193" data-name="Trazado 658193" d="M171.647,182.17H148.686a7.532,7.532,0,0,0-7.524,7.524v9.529a7.532,7.532,0,0,0,7.524,7.524h22.962a7.532,7.532,0,0,0,7.524-7.524v-9.529a7.532,7.532,0,0,0-7.524-7.524Zm4.2,17.053a4.208,4.208,0,0,1-4.2,4.2H148.686a4.208,4.208,0,0,1-4.2-4.2v-9.529a4.208,4.208,0,0,1,4.2-4.2h22.962a4.208,4.208,0,0,1,4.2,4.2Z" transform="translate(-117.727 -153.542)"/>
      <path id="Trazado_658194" data-name="Trazado 658194" d="M171.647,354.234H148.686a7.532,7.532,0,0,0-7.524,7.524v9.529a7.532,7.532,0,0,0,7.524,7.524h22.962a7.532,7.532,0,0,0,7.524-7.524v-9.529a7.532,7.532,0,0,0-7.524-7.524Zm4.2,17.053a4.208,4.208,0,0,1-4.2,4.2H148.686a4.208,4.208,0,0,1-4.2-4.2v-9.529a4.208,4.208,0,0,1,4.2-4.2h22.962a4.208,4.208,0,0,1,4.2,4.2Z" transform="translate(-117.727 -297.04)"/>
      <path id="Trazado_658195" data-name="Trazado 658195" d="M171.647,9.727H167.7a1.66,1.66,0,1,0,0,3.32h3.95a4.208,4.208,0,0,1,4.2,4.2V26.78a4.208,4.208,0,0,1-4.2,4.2H148.686a4.208,4.208,0,0,1-4.2-4.2V17.251a4.208,4.208,0,0,1,4.2-4.2h4.384a1.66,1.66,0,1,0,0-3.32h-4.384a7.532,7.532,0,0,0-7.524,7.524V26.78a7.532,7.532,0,0,0,7.524,7.524h22.962a7.532,7.532,0,0,0,7.524-7.524V17.251a7.532,7.532,0,0,0-7.524-7.524Z" transform="translate(-117.727 -9.727)"/>
      <path id="Trazado_658196" data-name="Trazado 658196" d="M398.636,246.188h-5.174a1.66,1.66,0,1,0,0,3.32h5.174a9.811,9.811,0,0,1,9.8,9.8v5.645a9.811,9.811,0,0,1-9.8,9.8H397.47l1.732-1.733a1.66,1.66,0,0,0-2.348-2.348l-4.566,4.567a1.679,1.679,0,0,0,0,2.348l4.566,4.566a1.66,1.66,0,0,0,2.348-2.348l-1.732-1.732h1.166a13.135,13.135,0,0,0,13.121-13.12v-5.645a13.135,13.135,0,0,0-13.12-13.12Z" transform="translate(-326.757 -206.932)"/>
      <path id="Trazado_658197" data-name="Trazado 658197" d="M13.121,107.26h1.166l-1.732,1.733a1.66,1.66,0,0,0,0,2.348,1.685,1.685,0,0,0,2.348,0l4.566-4.567a1.683,1.683,0,0,0,0-2.348L14.9,99.859a1.66,1.66,0,0,0-2.348,2.348l1.732,1.733H13.121a9.811,9.811,0,0,1-9.8-9.8V88.494a9.811,9.811,0,0,1,9.8-9.8h5.174a1.66,1.66,0,1,0,0-3.32H13.121A13.135,13.135,0,0,0,0,88.494v5.645a13.135,13.135,0,0,0,13.121,13.12Z" transform="translate(0 -64.476)"/>
      <path id="Trazado_658198" data-name="Trazado 658198" d="M34.914,395.314H25.547l1.733-1.733a1.66,1.66,0,1,0-2.348-2.348L20.365,395.8a1.683,1.683,0,0,0,0,2.348l4.566,4.567a1.685,1.685,0,0,0,2.348,0,1.66,1.66,0,0,0,0-2.348l-1.733-1.733h9.366a1.66,1.66,0,1,0,0-3.32Z" transform="translate(-16.586 -327.492)"/>
      <path id="Trazado_658199" data-name="Trazado 658199" d="M391.981,46.241a1.676,1.676,0,0,0,.143,2.182l4.567,4.567a1.66,1.66,0,1,0,2.348-2.348l-1.733-1.733h9.366a1.66,1.66,0,0,0,0-3.32h-9.366l1.732-1.732a1.66,1.66,0,1,0-2.348-2.348l-4.567,4.566a1.727,1.727,0,0,0-.143.166Z" transform="translate(-326.624 -35.827)"/>
      <path id="Trazado_658200" data-name="Trazado 658200" d="M190.722,75.406a1.66,1.66,0,0,0,1.66,1.66h18.425a1.66,1.66,0,0,0,0-3.32H192.382A1.66,1.66,0,0,0,190.722,75.406Z" transform="translate(-159.059 -63.118)"/>
      <path id="Trazado_658201" data-name="Trazado 658201" d="M203.533,246.188H192.382a1.66,1.66,0,1,0,0,3.32h11.151a1.66,1.66,0,0,0,0-3.32Z" transform="translate(-159.059 -206.932)"/>
      <path id="Trazado_658202" data-name="Trazado 658202" d="M210.808,418.632H192.382a1.66,1.66,0,0,0,0,3.32h18.425a1.66,1.66,0,0,0,0-3.32Z" transform="translate(-159.059 -350.747)"/>
      <path id="Trazado_658203" data-name="Trazado 658203" d="M304.913,247.26a1.659,1.659,0,1,0-.672,2.054A1.673,1.673,0,0,0,304.913,247.26Z" transform="translate(-251.632 -206.991)"/>
      <path id="Trazado_658204" data-name="Trazado 658204" d="M247.658,12.04a1.659,1.659,0,1,0,.9-2.168A1.675,1.675,0,0,0,247.658,12.04Z" transform="translate(-206.439 -9.745)"/>
    </g>
  </g>
</svg>
