<svg xmlns="http://www.w3.org/2000/svg" width="190" height="168" viewBox="0 0 190 168">
  <g id="Grupo_948014" data-name="Grupo 948014" transform="translate(-390 -3511)">
    <rect id="Rectángulo_336226" data-name="Rectángulo 336226" width="190" height="168" transform="translate(390 3511)" fill="#ffebcb" opacity="0.8"/>
    <g id="_26-Partner" data-name="26-Partner" transform="translate(412 3522.335)">
      <path id="Trazado_655934" data-name="Trazado 655934" d="M34.125,78.563V16.969H25L40.969,1,56.938,16.969H47.813V78.563" transform="translate(32.031 1.281)" fill="#f5d882"/>
      <path id="Trazado_655935" data-name="Trazado 655935" d="M47.125,72.156V21.969H38L53.969,6,69.938,21.969H60.813V72.156" transform="translate(48.688 7.687)" fill="#ffc247"/>
      <path id="Trazado_655936" data-name="Trazado 655936" d="M21.125,68.313V24.969H12L27.969,9,43.938,24.969H34.813V68.313" transform="translate(15.375 11.531)" fill="#ffa426"/>
      <path id="Trazado_655937" data-name="Trazado 655937" d="M32.938,42.938,10.125,65.75,1,56.625V11Z" transform="translate(1.281 14.093)" fill="#d09271"/>
      <path id="Trazado_655938" data-name="Trazado 655938" d="M80.938,11V56.625L71.813,65.75,49,42.938Z" transform="translate(62.781 14.093)" fill="#bdedaf"/>
      <path id="Trazado_655939" data-name="Trazado 655939" d="M40.5,36.406,19.969,56.938,15.406,61.5,4,50.094l2.281-2.281L29.094,25Z" transform="translate(5.125 32.031)" fill="#e09167"/>
      <path id="Trazado_655940" data-name="Trazado 655940" d="M80.5,50.094,69.094,61.5l-4.562-4.562L44,36.406,55.406,25,78.219,47.813Z" transform="translate(56.375 32.031)" fill="#7dbe6a"/>
      <path id="Trazado_655941" data-name="Trazado 655941" d="M52.268,91.8l-6.844-6.844L38.58,78.112l-6.867-6.867L11,50.531,31.531,30l4.563,4.563H58.906L38.375,55.094s6.844,6.844,13.688,0l4.563-4.562s5.68,7.095,13.665,4.494l.023.068L86.281,71.063l4.563,4.563a4.74,4.74,0,0,1,0,6.844,4.681,4.681,0,0,1-6.775.068,4.841,4.841,0,0,1-6.844,6.844,4.841,4.841,0,0,1-6.844,6.844A4.681,4.681,0,0,1,70.312,103a4.74,4.74,0,0,1-6.844,0l-4.38-4.38Z" transform="translate(14.094 38.437)" fill="#ffb338"/>
      <path id="Trazado_655942" data-name="Trazado 655942" d="M29.337,54.09l6.844,6.844L31.8,65.291l-.068.068a4.841,4.841,0,0,1-6.844-6.844l.068-.068Z" transform="translate(30.181 69.303)" fill="#ffcdbe"/>
      <path id="Trazado_655943" data-name="Trazado 655943" d="M27.942,61.447l4.38-4.357,6.821,6.821-4.357,4.38a4.841,4.841,0,0,1-6.912-6.775Z" transform="translate(34.04 73.146)" fill="#ffbeaa"/>
      <path id="Trazado_655944" data-name="Trazado 655944" d="M26.337,51.09l6.844,6.844L28.8,62.291l-.068.068a4.841,4.841,0,0,1-6.844-6.844l.068-.068Z" transform="translate(26.337 65.459)" fill="#ffbeaa"/>
      <path id="Trazado_655945" data-name="Trazado 655945" d="M25.765,59.372A4.686,4.686,0,0,1,18.99,59.3a4.74,4.74,0,0,1,0-6.844l4.357-4.38,6.867,6.867L25.834,59.3Z" transform="translate(22.46 61.602)" fill="#ffcdbe"/>
      <path id="Trazado_655946" data-name="Trazado 655946" d="M54.915,55.025c-7.984,2.6-13.665-4.494-13.665-4.494l-4.562,4.563c-6.844,6.844-13.688,0-13.688,0L43.531,34.563H66.344L70.906,30,91.438,50.531,70.906,71.063,54.937,55.094Z" transform="translate(29.469 38.437)" fill="#ffcdbe"/>
      <g id="Grupo_948011" data-name="Grupo 948011" transform="translate(20.531 110.16)">
        <path id="Trazado_655947" data-name="Trazado 655947" d="M49,55H62.687v4.563H49Z" transform="translate(42.25 -39.692)" fill="#19cffc"/>
        <path id="Trazado_655948" data-name="Trazado 655948" d="M0,0H12.905V4.563H0Z" transform="translate(89.613 9.131) rotate(-45)" fill="#19cffc"/>
        <path id="Trazado_655949" data-name="Trazado 655949" d="M0,0H4.563V12.905H0Z" transform="translate(89.611 26.045) rotate(-45)" fill="#19cffc"/>
        <path id="Trazado_655950" data-name="Trazado 655950" d="M9,55H22.688v4.563H9Z" transform="translate(-9 -39.692)" fill="#19cffc"/>
        <path id="Trazado_655951" data-name="Trazado 655951" d="M0,0H12.905V4.563H0Z" transform="translate(2.933 31.932) rotate(-45)" fill="#19cffc"/>
        <path id="Trazado_655952" data-name="Trazado 655952" d="M0,0H4.563V12.905H0Z" transform="translate(2.935 3.226) rotate(-45)" fill="#19cffc"/>
      </g>
      <path id="Trazado_655953" data-name="Trazado 655953" d="M0,0H6.451V4.563H0Z" transform="translate(30.314 69.1) rotate(-45)" fill="#7e8596"/>
      <path id="Trazado_655954" data-name="Trazado 655954" d="M0,0H4.563V6.451H0Z" transform="translate(107.648 67.553) rotate(-45)" fill="#7e8596"/>
      <path id="Trazado_655955" data-name="Trazado 655955" d="M0,0H4.563V19.356H0Z" transform="translate(57.68 113.39) rotate(-45)" fill="#ffdecf"/>
      <path id="Trazado_655956" data-name="Trazado 655956" d="M0,0H4.563V6.451H0Z" transform="translate(50.838 106.546) rotate(-45)" fill="#ffdecf"/>
      <path id="Trazado_655957" data-name="Trazado 655957" d="M144.592,10.175a2.268,2.268,0,0,0-2.487.5L110.168,42.607,98.762,54.014l-3.894,3.894H51.132l-3.894-3.894L35.832,42.607,3.894,10.67A2.281,2.281,0,0,0,0,12.283V57.908A2.281,2.281,0,0,0,.668,59.52l7.512,7.512-.668.668a2.281,2.281,0,0,0,0,3.226L18.918,82.333a2.281,2.281,0,0,0,3.226,0l2.95-2.95L42.589,96.878l-2.76,2.76a6.921,6.921,0,0,0,0,10.069,6.844,6.844,0,0,0,4.69,2.167,7.455,7.455,0,0,0,6.844,6.844,7.455,7.455,0,0,0,6.844,6.844,7.469,7.469,0,0,0,7.06,6.864,7.562,7.562,0,0,0,5.165-2.188l2.758-2.76,2.76,2.76a7.558,7.558,0,0,0,5.165,2.188,7.469,7.469,0,0,0,7.058-6.864,7.455,7.455,0,0,0,6.844-6.844,7.455,7.455,0,0,0,6.844-6.844,6.844,6.844,0,0,0,4.69-2.167,6.919,6.919,0,0,0,0-10.069l-2.95-2.95,17.306-17.306,2.95,2.95a2.281,2.281,0,0,0,3.226,0l11.406-11.406a2.281,2.281,0,0,0,0-3.226l-.668-.668,7.512-7.512A2.281,2.281,0,0,0,146,57.908V12.283a2.281,2.281,0,0,0-1.408-2.108ZM4.563,56.963V17.79L30.993,44.22,11.406,63.807ZM20.531,77.495l-8.181-8.181L34.219,47.446,42.4,55.627,23.481,74.545Zm22.525,25.37,2.758-2.76,3.618,3.618-2.738,2.738a2.558,2.558,0,0,1-3.634-3.6Zm6.844,6.844,2.758-2.76,3.618,3.618L53.539,113.3a2.558,2.558,0,0,1-3.634-3.6Zm6.844,6.844,2.758-2.76,3.618,3.618-2.738,2.738a2.558,2.558,0,1,1-3.634-3.6ZM67.222,127a2.558,2.558,0,0,1-3.634-3.6l2.758-2.76,3.618,3.618Zm36.1-20.513a2.363,2.363,0,0,1-3.618,0l-4.562-4.562-3.226,3.226,4.544,4.547a2.56,2.56,0,1,1-3.616,3.616L88.3,108.764l-3.226,3.226,4.542,4.547A2.56,2.56,0,1,1,86,120.152l-4.544-4.544-3.226,3.226,4.542,4.547a2.558,2.558,0,0,1-3.6,3.636L28.319,76.158,45.625,58.852l2.95,2.95a2.281,2.281,0,0,0,1.613.668H67.493L50.856,79.107a2.281,2.281,0,0,0,0,3.226,11.527,11.527,0,0,0,16.913,0l2.95-2.947a15.919,15.919,0,0,0,9.41,4.106,12.905,12.905,0,0,0,3.55-.271L103.3,102.839a2.375,2.375,0,0,1,.027,3.643Zm-2.95-13.019L88.284,81.373a23.341,23.341,0,0,0,4.563-3.613L97.409,73.2l-3.226-3.226-4.562,4.563A12.271,12.271,0,0,1,80.4,78.923a12.319,12.319,0,0,1-7.914-4.2,2.281,2.281,0,0,0-3.395-.187L64.527,79.1a6.691,6.691,0,0,1-8.6,1.369L73.944,62.47H95.813a2.281,2.281,0,0,0,1.612-.668l2.95-2.95,17.306,17.306Zm25.094-15.969-2.95-2.95L103.6,55.627l8.181-8.181,21.868,21.868Zm15.969-20.531-6.844,6.844L115.007,44.22,141.438,17.79Z" transform="translate(0 12.811)"/>
      <path id="Trazado_655958" data-name="Trazado 655958" d="M49,55H62.687v4.563H49Z" transform="translate(62.781 70.468)"/>
      <path id="Trazado_655959" data-name="Trazado 655959" d="M0,0H12.905V4.563H0Z" transform="translate(110.145 119.292) rotate(-45)"/>
      <path id="Trazado_655960" data-name="Trazado 655960" d="M0,0H4.563V12.905H0Z" transform="translate(110.142 136.205) rotate(-45)"/>
      <path id="Trazado_655961" data-name="Trazado 655961" d="M9,55H22.688v4.563H9Z" transform="translate(11.531 70.468)"/>
      <path id="Trazado_655962" data-name="Trazado 655962" d="M0,0H12.905V4.563H0Z" transform="translate(23.464 142.093) rotate(-45)"/>
      <path id="Trazado_655963" data-name="Trazado 655963" d="M0,0H4.563V12.905H0Z" transform="translate(23.466 113.386) rotate(-45)"/>
      <path id="Trazado_655964" data-name="Trazado 655964" d="M0,0H6.451V4.563H0Z" transform="translate(30.314 69.1) rotate(-45)"/>
      <path id="Trazado_655965" data-name="Trazado 655965" d="M0,0H4.563V6.451H0Z" transform="translate(107.646 67.553) rotate(-45)"/>
      <path id="Trazado_655966" data-name="Trazado 655966" d="M0,0H4.563V19.356H0Z" transform="translate(57.68 113.39) rotate(-45)"/>
      <path id="Trazado_655967" data-name="Trazado 655967" d="M0,0H4.563V6.451H0Z" transform="translate(50.838 106.546) rotate(-45)"/>
      <path id="Trazado_655968" data-name="Trazado 655968" d="M26.281,20.531h6.844V66.156h4.563V18.25a2.281,2.281,0,0,0-2.281-2.281H31.788L42.25,5.507,52.712,15.968H49.094a2.281,2.281,0,0,0-2.281,2.281V57.031h4.563v-36.5h6.844a2.281,2.281,0,0,0,1.613-3.894L43.863.668a2.281,2.281,0,0,0-3.226,0L24.668,16.637a2.281,2.281,0,0,0,1.613,3.894Z" transform="translate(30.75 0)"/>
      <path id="Trazado_655969" data-name="Trazado 655969" d="M37.174,24.123a2.281,2.281,0,0,0,2.108,1.408h6.844V59.75h4.563V23.25a2.281,2.281,0,0,0-2.281-2.281H44.788L55.25,10.507,65.712,20.968H62.094a2.281,2.281,0,0,0-2.281,2.281V43.781h4.563V25.531h6.844a2.281,2.281,0,0,0,1.613-3.894L56.863,5.668a2.281,2.281,0,0,0-3.226,0L37.669,21.637A2.281,2.281,0,0,0,37.174,24.123Z" transform="translate(47.406 6.406)"/>
      <path id="Trazado_655970" data-name="Trazado 655970" d="M13.281,28.531h6.844V39.937h4.563V26.25a2.281,2.281,0,0,0-2.281-2.281H18.788L29.25,13.507,39.712,23.968H36.094a2.281,2.281,0,0,0-2.281,2.281V55.906h4.563V28.531h6.844a2.281,2.281,0,0,0,1.613-3.894L30.863,8.668a2.281,2.281,0,0,0-3.226,0L11.668,24.637a2.281,2.281,0,0,0,1.613,3.894Z" transform="translate(14.094 10.25)"/>
      <path id="Trazado_655971" data-name="Trazado 655971" d="M34,27h4.563v4.563H34Z" transform="translate(43.563 34.593)"/>
    </g>
  </g>
</svg>
