<svg xmlns="http://www.w3.org/2000/svg" width="186" height="265" viewBox="0 0 186 265">
  <g id="Grupo_949233" data-name="Grupo 949233" transform="translate(-948 -7976.7)">
    <rect id="Rectángulo_336283" data-name="Rectángulo 336283" width="85" height="57" transform="translate(999 7976.7)" fill="#9fc5ea"/>
    <rect id="Rectángulo_336284" data-name="Rectángulo 336284" width="85" height="57" transform="translate(948 8050.7)" fill="#c9c9c9"/>
    <rect id="Rectángulo_336285" data-name="Rectángulo 336285" width="85" height="57" transform="translate(1049 8050.7)" fill="#9fc5ea"/>
    <rect id="Rectángulo_336286" data-name="Rectángulo 336286" width="85" height="57" transform="translate(948 8117.7)" fill="#9fc5ea"/>
    <rect id="Rectángulo_336287" data-name="Rectángulo 336287" width="85" height="57" transform="translate(1049 8117.7)" fill="#95c27d"/>
    <rect id="Rectángulo_336288" data-name="Rectángulo 336288" width="85" height="57" transform="translate(948 8184.7)" fill="#fcda64"/>
    <rect id="Rectángulo_336289" data-name="Rectángulo 336289" width="85" height="57" transform="translate(1049 8184.7)" fill="#9fc5ea"/>
    <g id="Rectángulo_336292" data-name="Rectángulo 336292" transform="translate(971 8064.7)" fill="#fff" stroke="#707070" stroke-width="1">
      <rect width="142" height="30" stroke="none"/>
      <rect x="0.5" y="0.5" width="141" height="29" fill="none"/>
    </g>
    <path id="Trazado_658073" data-name="Trazado 658073" d="M9.18-10.141H5.523V0H4.031V-10.141H.383v-1.234h8.8Zm4.2,10.3a3.693,3.693,0,0,1-2.8-1.129A4.19,4.19,0,0,1,9.5-3.992v-.266A5.073,5.073,0,0,1,9.98-6.5a3.748,3.748,0,0,1,1.344-1.547A3.378,3.378,0,0,1,13.2-8.609a3.166,3.166,0,0,1,2.563,1.086,4.7,4.7,0,0,1,.914,3.109v.6H10.945a3,3,0,0,0,.73,2.02,2.3,2.3,0,0,0,1.777.77,2.517,2.517,0,0,0,1.3-.312,3.259,3.259,0,0,0,.93-.828l.883.688A3.55,3.55,0,0,1,13.375.156ZM13.2-7.422a1.928,1.928,0,0,0-1.469.637A3.1,3.1,0,0,0,10.992-5h4.234v-.109a2.753,2.753,0,0,0-.594-1.707A1.815,1.815,0,0,0,13.2-7.422Zm9.234.266a4.331,4.331,0,0,0-.711-.055A1.9,1.9,0,0,0,19.789-6V0H18.344V-8.453H19.75l.023.977a2.251,2.251,0,0,1,2.016-1.133,1.477,1.477,0,0,1,.641.109ZM27-1.023a2.082,2.082,0,0,0,1.352-.469,1.649,1.649,0,0,0,.641-1.172h1.367a2.621,2.621,0,0,1-.5,1.383,3.293,3.293,0,0,1-1.23,1.047A3.55,3.55,0,0,1,27,.156,3.482,3.482,0,0,1,24.254-1a4.59,4.59,0,0,1-1.02-3.152v-.242a5.089,5.089,0,0,1,.453-2.2,3.451,3.451,0,0,1,1.3-1.492,3.7,3.7,0,0,1,2-.531,3.39,3.39,0,0,1,2.363.852,3.043,3.043,0,0,1,1,2.211H28.992a1.992,1.992,0,0,0-.621-1.348,1.932,1.932,0,0,0-1.379-.527,2.023,2.023,0,0,0-1.707.793,3.724,3.724,0,0,0-.605,2.293v.273a3.65,3.65,0,0,0,.6,2.25A2.033,2.033,0,0,0,27-1.023ZM35.492.156A3.693,3.693,0,0,1,32.7-.973a4.19,4.19,0,0,1-1.078-3.02v-.266A5.073,5.073,0,0,1,32.1-6.5a3.748,3.748,0,0,1,1.344-1.547,3.378,3.378,0,0,1,1.871-.559,3.166,3.166,0,0,1,2.563,1.086,4.7,4.7,0,0,1,.914,3.109v.6H33.063a3,3,0,0,0,.73,2.02,2.3,2.3,0,0,0,1.777.77,2.517,2.517,0,0,0,1.3-.312,3.259,3.259,0,0,0,.93-.828l.883.688A3.55,3.55,0,0,1,35.492.156Zm-.18-7.578a1.928,1.928,0,0,0-1.469.637A3.1,3.1,0,0,0,33.109-5h4.234v-.109a2.753,2.753,0,0,0-.594-1.707A1.815,1.815,0,0,0,35.313-7.422Zm9.234.266a4.331,4.331,0,0,0-.711-.055A1.9,1.9,0,0,0,41.906-6V0H40.461V-8.453h1.406l.023.977a2.251,2.251,0,0,1,2.016-1.133,1.477,1.477,0,0,1,.641.109ZM50.781,0a3.036,3.036,0,0,1-.2-.891A3.225,3.225,0,0,1,48.172.156a2.984,2.984,0,0,1-2.051-.707,2.287,2.287,0,0,1-.8-1.793,2.39,2.39,0,0,1,1-2.051,4.733,4.733,0,0,1,2.824-.73h1.406v-.664A1.623,1.623,0,0,0,50.1-7a1.821,1.821,0,0,0-1.336-.449,2.107,2.107,0,0,0-1.3.391,1.151,1.151,0,0,0-.523.945H45.492a2,2,0,0,1,.449-1.223,3.066,3.066,0,0,1,1.219-.934,4.1,4.1,0,0,1,1.691-.344,3.342,3.342,0,0,1,2.289.73A2.635,2.635,0,0,1,52-5.867v3.891a4.757,4.757,0,0,0,.3,1.852V0Zm-2.4-1.1a2.54,2.54,0,0,0,1.289-.352,2.127,2.127,0,0,0,.883-.914V-4.1H49.422q-2.656,0-2.656,1.555a1.316,1.316,0,0,0,.453,1.063A1.742,1.742,0,0,0,48.383-1.1Zm11.57-3.352V0h-1.5V-11.375h4.2a4.215,4.215,0,0,1,2.926.953A3.231,3.231,0,0,1,66.633-7.9,3.189,3.189,0,0,1,65.6-5.348a4.4,4.4,0,0,1-2.965.895Zm0-1.227h2.7a2.7,2.7,0,0,0,1.844-.566,2.069,2.069,0,0,0,.641-1.637,2.138,2.138,0,0,0-.641-1.625,2.528,2.528,0,0,0-1.758-.633H59.953ZM72.406-7.156a4.331,4.331,0,0,0-.711-.055A1.9,1.9,0,0,0,69.766-6V0H68.32V-8.453h1.406l.023.977a2.251,2.251,0,0,1,2.016-1.133,1.477,1.477,0,0,1,.641.109ZM75.3,0H73.859V-8.453H75.3ZM73.742-10.7a.863.863,0,0,1,.215-.594.807.807,0,0,1,.637-.242.819.819,0,0,1,.641.242.854.854,0,0,1,.219.594.826.826,0,0,1-.219.586.834.834,0,0,1-.641.234.821.821,0,0,1-.637-.234A.834.834,0,0,1,73.742-10.7ZM77.234-4.3a4.993,4.993,0,0,1,.488-2.234A3.643,3.643,0,0,1,79.082-8.07a3.7,3.7,0,0,1,1.988-.539,3.565,3.565,0,0,1,2.793,1.2,4.6,4.6,0,0,1,1.066,3.18v.1a5.036,5.036,0,0,1-.473,2.215A3.589,3.589,0,0,1,83.105-.391a3.743,3.743,0,0,1-2.02.547,3.556,3.556,0,0,1-2.785-1.2A4.575,4.575,0,0,1,77.234-4.2Zm1.453.172a3.616,3.616,0,0,0,.652,2.258,2.088,2.088,0,0,0,1.746.852,2.075,2.075,0,0,0,1.75-.863A3.955,3.955,0,0,0,83.484-4.3a3.61,3.61,0,0,0-.66-2.254,2.1,2.1,0,0,0-1.754-.863,2.075,2.075,0,0,0-1.727.852A3.925,3.925,0,0,0,78.688-4.133ZM90.828-7.156a4.331,4.331,0,0,0-.711-.055A1.9,1.9,0,0,0,88.188-6V0H86.742V-8.453h1.406l.023.977a2.251,2.251,0,0,1,2.016-1.133,1.477,1.477,0,0,1,.641.109ZM93.727,0H92.281V-8.453h1.445ZM92.164-10.7a.863.863,0,0,1,.215-.594.807.807,0,0,1,.637-.242.819.819,0,0,1,.641.242.854.854,0,0,1,.219.594.826.826,0,0,1-.219.586.834.834,0,0,1-.641.234.821.821,0,0,1-.637-.234A.834.834,0,0,1,92.164-10.7Zm3.523,6.4a4.952,4.952,0,0,1,.922-3.129,2.915,2.915,0,0,1,2.414-1.184,2.932,2.932,0,0,1,2.352,1.016V-12h1.445V0h-1.328l-.07-.906A2.943,2.943,0,0,1,99.008.156a2.887,2.887,0,0,1-2.395-1.2,5.008,5.008,0,0,1-.926-3.141Zm1.445.164a3.749,3.749,0,0,0,.594,2.25,1.92,1.92,0,0,0,1.641.813A2.109,2.109,0,0,0,101.375-2.3V-6.187a2.125,2.125,0,0,0-1.992-1.2,1.929,1.929,0,0,0-1.656.82A4.128,4.128,0,0,0,97.133-4.133ZM110.281,0a3.036,3.036,0,0,1-.2-.891A3.225,3.225,0,0,1,107.672.156a2.984,2.984,0,0,1-2.051-.707,2.288,2.288,0,0,1-.8-1.793,2.39,2.39,0,0,1,1-2.051,4.733,4.733,0,0,1,2.824-.73h1.406v-.664A1.623,1.623,0,0,0,109.6-7a1.821,1.821,0,0,0-1.336-.449,2.108,2.108,0,0,0-1.3.391,1.151,1.151,0,0,0-.523.945h-1.453a2,2,0,0,1,.449-1.223,3.066,3.066,0,0,1,1.219-.934,4.1,4.1,0,0,1,1.691-.344,3.342,3.342,0,0,1,2.289.73,2.635,2.635,0,0,1,.859,2.012v3.891a4.757,4.757,0,0,0,.3,1.852V0Zm-2.4-1.1a2.54,2.54,0,0,0,1.289-.352,2.127,2.127,0,0,0,.883-.914V-4.1h-1.133q-2.656,0-2.656,1.555a1.316,1.316,0,0,0,.453,1.063A1.742,1.742,0,0,0,107.883-1.1Zm5.531-3.2a4.952,4.952,0,0,1,.922-3.129,2.915,2.915,0,0,1,2.414-1.184A2.932,2.932,0,0,1,119.1-7.594V-12h1.445V0h-1.328l-.07-.906A2.943,2.943,0,0,1,116.734.156a2.887,2.887,0,0,1-2.395-1.2,5.008,5.008,0,0,1-.926-3.141Zm1.445.164a3.749,3.749,0,0,0,.594,2.25,1.92,1.92,0,0,0,1.641.813A2.109,2.109,0,0,0,119.1-2.3V-6.187a2.125,2.125,0,0,0-1.992-1.2,1.929,1.929,0,0,0-1.656.82A4.128,4.128,0,0,0,114.859-4.133Z" transform="translate(977 8084.7)" fill="#12263f"/>
  </g>
</svg>
