<svg xmlns="http://www.w3.org/2000/svg" width="167" height="167" viewBox="0 0 167 167">
  <g id="Grupo_947865" data-name="Grupo 947865" transform="translate(7076 10507)">
    <rect id="Rectángulo_336212" data-name="Rectángulo 336212" width="167" height="167" transform="translate(-7076 -10507)" fill="none"/>
    <g id="objetivo" transform="translate(-7056 -10487.268)">
      <g id="Grupo_947860" data-name="Grupo 947860">
        <g id="Grupo_947848" data-name="Grupo 947848" transform="translate(2.664 16.615)">
          <g id="Grupo_947847" data-name="Grupo 947847" transform="translate(0 0)">
            <ellipse id="Elipse_7594" data-name="Elipse 7594" cx="54.195" cy="54.192" rx="54.195" ry="54.192" transform="translate(0 0.108) rotate(-0.057)" fill="#e5ecec"/>
          </g>
        </g>
        <g id="Grupo_947850" data-name="Grupo 947850" transform="translate(15.86 29.791)">
          <g id="Grupo_947849" data-name="Grupo 947849">
            <path id="Trazado_655841" data-name="Trazado 655841" d="M104.734,201.72A41.048,41.048,0,0,1,79.77,128.076q.414-.318.836-.626a41.056,41.056,0,1,1,24.127,74.27Z" transform="translate(-63.67 -119.597)" fill="#f5737f"/>
          </g>
        </g>
        <g id="Grupo_947851" data-name="Grupo 947851" transform="translate(15.86 29.791)">
          <path id="Trazado_655842" data-name="Trazado 655842" d="M90.818,122.024a41.136,41.136,0,1,1-19.265,14.468" transform="translate(-63.67 -119.597)" fill="#f0c580"/>
        </g>
        <g id="Grupo_947854" data-name="Grupo 947854">
          <g id="Grupo_947852" data-name="Grupo 947852">
            <path id="Trazado_655843" data-name="Trazado 655843" fill="#f5737f"/>
          </g>
          <g id="Grupo_947853" data-name="Grupo 947853" transform="translate(30.31 35.158)">
            <path id="Trazado_655844" data-name="Trazado 655844" d="M124.167,146.122a2.489,2.489,0,1,1,2.443-2,2.51,2.51,0,0,1-2.443,2Z" transform="translate(-121.681 -141.147)"/>
          </g>
        </g>
        <g id="Grupo_947856" data-name="Grupo 947856" transform="translate(28.921 42.848)">
          <g id="Grupo_947855" data-name="Grupo 947855">
            <ellipse id="Elipse_7595" data-name="Elipse 7595" cx="27.932" cy="27.933" rx="27.932" ry="27.933" transform="translate(0 55.864) rotate(-89.885)" fill="#e5ecec"/>
          </g>
        </g>
        <g id="Grupo_947858" data-name="Grupo 947858" transform="translate(75.83 86.309)">
          <g id="Grupo_947857" data-name="Grupo 947857">
            <path id="Trazado_655845" data-name="Trazado 655845" d="M306.916,351.467a2.489,2.489,0,1,1,2.46-2.1A2.513,2.513,0,0,1,306.916,351.467Z" transform="translate(-304.427 -346.494)"/>
          </g>
        </g>
        <g id="Grupo_947859" data-name="Grupo 947859" transform="translate(42.051 55.977)">
          <ellipse id="Elipse_7596" data-name="Elipse 7596" cx="14.802" cy="14.802" rx="14.802" ry="14.802" transform="translate(0 29.604) rotate(-89.771)" fill="#fa9965"/>
        </g>
      </g>
      <g id="Grupo_947864" data-name="Grupo 947864" transform="translate(0.238 0)">
        <g id="Grupo_947861" data-name="Grupo 947861" transform="translate(94.616 2.491)">
          <path id="Trazado_655846" data-name="Trazado 655846" d="M393.858,10,383,20.855a7.543,7.543,0,0,0-2.2,5.058l.246,13.816,13.989-14.011Z" transform="translate(-380.799 -10.001)" fill="#ffcb7c"/>
        </g>
        <g id="Grupo_947863" data-name="Grupo 947863">
          <g id="Grupo_947862" data-name="Grupo 947862" transform="translate(94.861 18.208)">
            <path id="Trazado_655847" data-name="Trazado 655847" d="M411.492,74.273,395.774,73.1,381.785,87.108l13.794.223a7.543,7.543,0,0,0,5.058-2.2Z" transform="translate(-381.785 -73.097)" fill="#ffd89e"/>
          </g>
          <path id="Trazado_655848" data-name="Trazado 655848" d="M127.859,18.518A2.49,2.49,0,0,0,125.71,16.9l-13.58-1.016L111.114,2.306A2.491,2.491,0,0,0,106.869.73L96.014,11.584a10,10,0,0,0-2.932,6.728c0,.045,0,.09,0,.135l.148,8.317a56.743,56.743,0,1,0,8.122,8.036l8.22.133h.04l.091,0A10,10,0,0,0,116.431,32l10.855-10.854a2.491,2.491,0,0,0,.574-2.628ZM99.537,15.107l7.014-7.014.686,9.163L98.2,26.3l-.14-7.871A5.033,5.033,0,0,1,99.537,15.107Zm-41.9,107.447a51.7,51.7,0,1,1,34.5-90.179l-5.769,5.769a43.515,43.515,0,0,0-43.49-8.269,2.491,2.491,0,0,0,1.693,4.686A38.54,38.54,0,0,1,82.84,41.673l-5.779,5.779a30.417,30.417,0,1,0-5.6,50.5,2.491,2.491,0,1,0-2.27-4.434,25.113,25.113,0,0,1-11.553,2.778,25.441,25.441,0,1,1,15.88-45.3L67.711,56.8A17.315,17.315,0,1,0,71.3,60.258l5.789-5.789A25.416,25.416,0,0,1,81.8,78.854a2.491,2.491,0,0,0,4.728,1.571,30.4,30.4,0,0,0-5.9-29.489l5.77-5.77a38.572,38.572,0,1,1-59.921,2.989,2.491,2.491,0,0,0-4.023-2.938A43.557,43.557,0,1,0,89.918,41.64l5.765-5.764a51.674,51.674,0,0,1-38.041,86.678Zm12.311-51.7A12.322,12.322,0,1,1,64.122,60.39l-7.945,7.945A2.491,2.491,0,1,0,59.7,71.857l8.04-8.039A12.241,12.241,0,0,1,69.953,70.853Zm42.955-42.376a5.036,5.036,0,0,1-3.329,1.474l-7.844-.127,4.785-4.785c.053-.053.1-.109.151-.165l4.089-4.1,9.161.685Z" transform="translate(-0.956 -0.001)"/>
        </g>
      </g>
    </g>
  </g>
</svg>
