<svg xmlns="http://www.w3.org/2000/svg" width="190" height="168" viewBox="0 0 190 168">
  <g id="Grupo_948013" data-name="Grupo 948013" transform="translate(-1020 -3511)">
    <rect id="Rectángulo_336227" data-name="Rectángulo 336227" width="190" height="168" transform="translate(1020 3511)" fill="#fff" opacity="0.8"/>
    <g id="Page-1" transform="translate(1053 3533)">
      <g id="_050---Check-Documents" data-name="050---Check-Documents" transform="translate(0)">
        <path id="Shape" d="M92.317,5.151v40.7a33.206,33.206,0,0,0-38,53.338,32.733,32.733,0,0,0,11.913,7.658H5.151A4.163,4.163,0,0,1,1,102.694V30.055L30.055,1H88.166A4.163,4.163,0,0,1,92.317,5.151Z" transform="translate(1.075 1.075)" fill="#ffdc00"/>
        <path id="Shape-2" data-name="Shape" d="M46.226,1H40a4.163,4.163,0,0,1,4.151,4.151V43.585a33.061,33.061,0,0,1,6.226,2.264V5.151A4.163,4.163,0,0,0,46.226,1Z" transform="translate(43.016 1.075)" fill="#fec108"/>
        <path id="Shape-3" data-name="Shape" d="M102.485,63.753H10.151A4.163,4.163,0,0,1,6,59.6V53.377H60.853a33.221,33.221,0,0,0,28.62-2.656Z" transform="translate(6.452 54.544)" fill="#ff9801"/>
        <path id="Shape-4" data-name="Shape" d="M55.377,10.151V48.4c-.457-.519-.934-1.038-1.432-1.536A32.791,32.791,0,0,0,45,40.472V6h6.226A4.163,4.163,0,0,1,55.377,10.151Z" transform="translate(48.393 6.452)" fill="#ff9801"/>
        <path id="Shape-5" data-name="Shape" d="M51.226,6H45a4.163,4.163,0,0,1,4.151,4.151V42.9a32.721,32.721,0,0,1,4.794,3.962c.5.5.975,1.017,1.432,1.536V10.151A4.163,4.163,0,0,0,51.226,6Z" transform="translate(48.393 6.452)" fill="#f57c00"/>
        <path id="Shape-6" data-name="Shape" d="M30.055,1V25.9A4.163,4.163,0,0,1,25.9,30.055H1Z" transform="translate(1.075 1.075)" fill="#ffeb3a"/>
        <path id="Shape-7" data-name="Shape" d="M82.038,73.78a33.206,33.206,0,1,1,5.4-27.593A33.206,33.206,0,0,1,82.038,73.78Z" transform="translate(23.661 22.58)" fill="#82b772"/>
        <path id="Shape-8" data-name="Shape" d="M70.813,70.588a6.641,6.641,0,0,1-9.36,0c-3.155-3.155-.428-.415-15.233-15.254A33.5,33.5,0,0,0,56,46.43l14.818,14.8a6.641,6.641,0,0,1,0,9.36Z" transform="translate(49.705 49.93)" fill="#7f8e94"/>
        <path id="Shape-9" data-name="Shape" d="M67.23,61.228,52.412,46.43a34.119,34.119,0,0,1-2.86,3.362L61,61.228a6.641,6.641,0,0,1,0,9.36,6.456,6.456,0,0,1-1.563,1.121A6.6,6.6,0,0,0,67.23,61.228Z" transform="translate(53.288 49.93)" fill="#545c60"/>
        <path id="Shape-10" data-name="Shape" d="M38.322,63.791,27.194,52.663a2.075,2.075,0,0,1,0-2.935l2.935-2.935a2.075,2.075,0,0,1,2.935,0l7.056,7.056L67.828,30.089a2.075,2.075,0,0,1,2.926.226l2.7,3.153a2.075,2.075,0,0,1-.224,2.926L41.143,63.9a2.075,2.075,0,0,1-2.82-.108Z" transform="translate(28.591 31.82)" fill="#f5f5f5"/>
        <g id="Grupo_948012" data-name="Grupo 948012">
          <path id="Shape-11" data-name="Shape" d="M6.226,110h4.151v4.151a6.226,6.226,0,0,0,6.226,6.226H97.211a2.075,2.075,0,0,0,0-4.151H16.6a2.075,2.075,0,0,1-2.075-2.075V110h36.9a2.075,2.075,0,0,0,0-4.151H6.226a2.075,2.075,0,0,1-2.075-2.075V33.206H26.98a6.226,6.226,0,0,0,6.226-6.226V4.151H89.242a2.075,2.075,0,0,1,2.075,2.075V37.9a2.075,2.075,0,1,0,4.151,0V14.528h4.151a2.075,2.075,0,0,1,2.075,2.075V43.562a2.075,2.075,0,1,0,4.151,0V16.6a6.226,6.226,0,0,0-6.226-6.226H95.468V6.226A6.226,6.226,0,0,0,89.242,0H31.131a2.075,2.075,0,0,0-1.467.608L.608,29.664A2.075,2.075,0,0,0,0,31.131V103.77A6.226,6.226,0,0,0,6.226,110ZM26.98,29.055H7.085l21.97-21.97V26.98A2.075,2.075,0,0,1,26.98,29.055Z" transform="translate(0)"/>
          <path id="Shape-12" data-name="Shape" d="M6.075,42A2.075,2.075,0,0,0,4,44.075V54.452a2.075,2.075,0,0,0,2.075,2.075H16.452a2.075,2.075,0,1,0,0-4.151h-8.3v-8.3A2.075,2.075,0,0,0,6.075,42Z" transform="translate(4.302 45.166)"/>
          <path id="Shape-13" data-name="Shape" d="M47.452,18.528a2.075,2.075,0,0,0,2.075-2.075V6.075A2.075,2.075,0,0,0,47.452,4H37.075a2.075,2.075,0,1,0,0,4.151h8.3v8.3A2.075,2.075,0,0,0,47.452,18.528Z" transform="translate(37.639 4.302)"/>
          <path id="Shape-14" data-name="Shape" d="M56.282,90.564a35.074,35.074,0,0,0,16.723-4.2l14.113,14.125a8.7,8.7,0,0,0,12.29-12.3L85.808,74.6A35.282,35.282,0,1,0,56.282,90.564Zm40.18.548a4.543,4.543,0,0,1-6.417,6.434L76.608,84.089a35.813,35.813,0,0,0,4.622-3.858c.726-.728,1.4-1.494,2.059-2.27ZM34.27,33.271a31.131,31.131,0,1,1-9.119,22.012A31.131,31.131,0,0,1,34.27,33.271Z" transform="translate(22.583 21.507)"/>
          <path id="Shape-15" data-name="Shape" d="M37.93,66.335a4.172,4.172,0,0,0,5.635.208l32.09-27.5a4.151,4.151,0,0,0,.452-5.851l-2.7-3.157a4.151,4.151,0,0,0-5.848-.448L41.3,52.092,35.606,46.4a4.151,4.151,0,0,0-5.869,0L26.8,49.335a4.151,4.151,0,0,0,0,5.869L37.928,66.333Zm-5.259-17,7.056,7.056a2.075,2.075,0,0,0,2.818.108L70.252,32.739l2.7,3.153L40.862,63.4,29.736,52.27Z" transform="translate(27.515 30.746)"/>
          <path id="Shape-16" data-name="Shape" d="M7.075,24.151H44.432a2.075,2.075,0,0,0,0-4.151H7.075a2.075,2.075,0,1,0,0,4.151Z" transform="translate(5.377 21.508)"/>
          <path id="Shape-17" data-name="Shape" d="M42.336,26.075A2.075,2.075,0,0,0,40.261,24H7.075a2.075,2.075,0,1,0,0,4.151H40.261A2.075,2.075,0,0,0,42.336,26.075Z" transform="translate(5.377 25.809)"/>
          <path id="Shape-18" data-name="Shape" d="M37.5,30.075A2.075,2.075,0,0,0,35.425,28H7.075a2.075,2.075,0,1,0,0,4.151h28.35A2.075,2.075,0,0,0,37.5,30.075Z" transform="translate(5.377 30.111)"/>
          <path id="Shape-19" data-name="Shape" d="M34.886,34.075A2.075,2.075,0,0,0,32.81,32H7.075a2.075,2.075,0,1,0,0,4.151H32.81A2.075,2.075,0,0,0,34.886,34.075Z" transform="translate(5.377 34.413)"/>
          <path id="Shape-20" data-name="Shape" d="M34.055,38.075A2.075,2.075,0,0,0,31.98,36H7.075a2.075,2.075,0,1,0,0,4.151h24.9A2.075,2.075,0,0,0,34.055,38.075Z" transform="translate(5.377 38.714)"/>
        </g>
      </g>
    </g>
  </g>
</svg>
