<svg xmlns="http://www.w3.org/2000/svg" width="167" height="167" viewBox="0 0 167 167">
  <g id="Grupo_948000" data-name="Grupo 948000" transform="translate(-257 -1195)">
    <g id="Grupo_947840" data-name="Grupo 947840" transform="translate(257.75 1193.354)">
      <path id="Trazado_655799" data-name="Trazado 655799" d="M144.15,24H32.9A8.9,8.9,0,0,0,24,32.9V77.4a8.9,8.9,0,0,0,8.9,8.9l113.475-.28a8.9,8.9,0,0,0,6.675-8.62V32.9A8.9,8.9,0,0,0,144.15,24Z" transform="translate(-5.775 -5.775)" fill="#ffebcb"/>
      <path id="Trazado_655800" data-name="Trazado 655800" d="M393.665,240.445c-5-1.542-6.593-3.137-8.135-8.135a.444.444,0,0,0-.845,0c-1.542,5-3.137,6.593-8.135,8.135a.444.444,0,0,0,0,.845c5,1.542,6.593,3.137,8.135,8.135a.444.444,0,0,0,.845,0c1.542-5,3.137-6.593,8.135-8.135A.444.444,0,0,0,393.665,240.445Z" transform="translate(-260.05 -155.926)" fill="#ffe38f"/>
      <g id="Grupo_947839" data-name="Grupo 947839" transform="translate(27.125 33.8)">
        <path id="Trazado_655801" data-name="Trazado 655801" d="M56,80H87.15v31.15H56Z" transform="translate(-56 -80)" fill="#cfcfcf"/>
        <path id="Trazado_655802" data-name="Trazado 655802" d="M200,80h31.15v31.15H200Z" transform="translate(-159.95 -80)" fill="#cfcfcf"/>
        <path id="Trazado_655803" data-name="Trazado 655803" d="M344,80h31.15v31.15H344Z" transform="translate(-263.9 -80)" fill="#cfcfcf"/>
      </g>
      <path id="Trazado_655804" data-name="Trazado 655804" d="M315.531,367.821l4.519-.058-.1-7.99-4.519.058a15.868,15.868,0,0,0-1.753-4.087l3.153-3.235-5.723-5.578-3.153,3.235a15.916,15.916,0,0,0-4.132-1.649L303.763,344l-7.99.1.058,4.519a15.869,15.869,0,0,0-4.087,1.753l-3.235-3.153-5.578,5.723,3.235,3.153a15.918,15.918,0,0,0-1.649,4.132l-4.517.058.1,7.99,4.519-.058a15.869,15.869,0,0,0,1.753,4.087l-3.153,3.235,5.723,5.578,3.153-3.235a15.919,15.919,0,0,0,4.132,1.649l.058,4.517,7.99-.1-.058-4.519a15.869,15.869,0,0,0,4.087-1.753l3.235,3.153,5.578-5.723-3.235-3.153A15.849,15.849,0,0,0,315.531,367.821Zm-15.468,2.79a6.69,6.69,0,1,1,6.6-6.775,6.69,6.69,0,0,1-6.6,6.775Z" transform="translate(-190.575 -236.775)" fill="#ffbb96"/>
      <path id="Trazado_655805" data-name="Trazado 655805" d="M131.175,288l-11.258,19.291H97.934L86.675,288,80,292.45l15.575,28.925V345.85h26.7V321.375L137.85,292.45Z" transform="translate(-46.2 -196.35)" fill="#95d9ff"/>
      <path id="Trazado_655806" data-name="Trazado 655806" d="M172.45,392,168,407.575l4.45,6.675,4.45-6.675Z" transform="translate(-109.725 -271.425)" fill="#759acc"/>
      <path id="Trazado_655807" data-name="Trazado 655807" d="M166.25,323.125a7.071,7.071,0,0,1-.111,1.379,11.1,11.1,0,0,1-22.027,0,7.071,7.071,0,0,1-.111-1.379,11.125,11.125,0,0,1,22.25,0Z" transform="translate(-92.4 -213.675)" fill="#ffdbac"/>
      <path id="Trazado_655808" data-name="Trazado 655808" d="M155.125,312A11.129,11.129,0,0,0,144,323.125a7.071,7.071,0,0,0,.111,1.379,13.319,13.319,0,0,1,22.027,0,7.071,7.071,0,0,0,.111-1.379A11.129,11.129,0,0,0,155.125,312Z" transform="translate(-92.4 -213.675)" fill="#526273"/>
      <path id="Trazado_655809" data-name="Trazado 655809" d="M328.576,383.568a8.916,8.916,0,0,0,.109,17.831h.118a8.915,8.915,0,0,0,6.11-15.3A9.091,9.091,0,0,0,328.576,383.568Zm3.311,12.033a4.42,4.42,0,0,1-3.142,1.348,4.779,4.779,0,0,1-3.173-1.266,4.465,4.465,0,0,1,3.059-7.663h.06a4.467,4.467,0,0,1,3.2,7.581Z" transform="translate(-219.287 -265.338)"/>
      <path id="Trazado_655810" data-name="Trazado 655810" d="M314.3,364.221a2.226,2.226,0,0,0,2.2-2.254l-.1-7.99a2.224,2.224,0,0,0-2.225-2.2h-.029l-2.884.038c-.187-.5-.4-.983-.625-1.462l2.009-2.063a2.223,2.223,0,0,0-.04-3.146l-5.72-5.578a1.96,1.96,0,0,0-1.582-.632,2.221,2.221,0,0,0-1.564.672l-2.011,2.065q-.724-.33-1.477-.59l-.036-2.881a2.216,2.216,0,0,0-.672-1.564,2.543,2.543,0,0,0-1.582-.632l-7.99.1a2.225,2.225,0,0,0-2.2,2.254l.038,2.884c-.5.187-.983.4-1.462.625l-2.063-2.009a2.227,2.227,0,0,0-3.146.04l-5.578,5.72a2.224,2.224,0,0,0,.04,3.146l2.065,2.011q-.33.724-.59,1.477l-2.881.036a2.226,2.226,0,0,0-2.2,2.254l.1,7.99a2.224,2.224,0,0,0,2.225,2.2h.029l2.884-.038c.187.5.4.983.625,1.462l-2.009,2.063a2.223,2.223,0,0,0,.04,3.146l5.72,5.578a2.313,2.313,0,0,0,1.582.632,2.221,2.221,0,0,0,1.564-.672l2.011-2.065q.724.33,1.477.59l.036,2.881a2.222,2.222,0,0,0,2.223,2.194h.029l7.99-.1a2.225,2.225,0,0,0,2.2-2.254l-.038-2.884c.5-.187.983-.4,1.462-.625l2.063,2.009a2.221,2.221,0,0,0,3.146-.04l5.578-5.72a2.224,2.224,0,0,0-.04-3.146l-2.065-2.011q.33-.724.59-1.477Zm-4.577-4.394a2.222,2.222,0,0,0-2.134,1.7,13.65,13.65,0,0,1-1.415,3.551,2.222,2.222,0,0,0,.376,2.7l1.642,1.6-2.472,2.534-1.64-1.6a2.225,2.225,0,0,0-2.71-.309,13.674,13.674,0,0,1-3.513,1.509,2.223,2.223,0,0,0-1.642,2.176l.029,2.294-3.54.047-.029-2.294a2.222,2.222,0,0,0-1.7-2.134,13.65,13.65,0,0,1-3.551-1.415,2.193,2.193,0,0,0-1.106-.3,2.227,2.227,0,0,0-1.593.672l-1.6,1.642-2.534-2.472,1.6-1.64a2.229,2.229,0,0,0,.309-2.71,13.671,13.671,0,0,1-1.509-3.513,2.221,2.221,0,0,0-2.147-1.642h-.029l-2.294.029-.047-3.54,2.294-.029a2.222,2.222,0,0,0,2.134-1.7,13.65,13.65,0,0,1,1.415-3.551,2.222,2.222,0,0,0-.376-2.7l-1.642-1.6,2.472-2.534,1.64,1.6a2.225,2.225,0,0,0,2.71.309A13.67,13.67,0,0,1,290.634,345a2.223,2.223,0,0,0,1.642-2.176l-.029-2.294,3.54-.047.029,2.294a2.222,2.222,0,0,0,1.7,2.134,13.649,13.649,0,0,1,3.551,1.415,2.22,2.22,0,0,0,2.7-.376l1.6-1.642,2.534,2.472-1.6,1.64a2.229,2.229,0,0,0-.309,2.71,13.671,13.671,0,0,1,1.509,3.513,2.222,2.222,0,0,0,2.147,1.642h.029l2.294-.029.047,3.54Z" transform="translate(-184.8 -231.006)"/>
      <path id="Trazado_655811" data-name="Trazado 655811" d="M50.225,72A2.223,2.223,0,0,0,48,74.225v31.15a2.223,2.223,0,0,0,2.225,2.225h31.15a2.223,2.223,0,0,0,2.225-2.225V74.225A2.223,2.223,0,0,0,81.375,72ZM79.15,103.15H52.45V76.45h26.7Z" transform="translate(-23.1 -40.425)"/>
      <path id="Trazado_655812" data-name="Trazado 655812" d="M90.592,124.376c.071,0,.145,0,.22-.011a2.22,2.22,0,0,0,1.631-.979l8.9-13.35-3.7-2.468L90.247,118.66,85.49,113.9l-3.146,3.146,6.675,6.675a2.218,2.218,0,0,0,1.573.652Z" transform="translate(-47.892 -66.101)"/>
      <path id="Trazado_655813" data-name="Trazado 655813" d="M194.225,72A2.223,2.223,0,0,0,192,74.225v31.15a2.223,2.223,0,0,0,2.225,2.225h31.15a2.223,2.223,0,0,0,2.225-2.225V74.225A2.223,2.223,0,0,0,225.375,72Zm28.925,31.15h-26.7V76.45h26.7Z" transform="translate(-127.05 -40.425)"/>
      <path id="Trazado_655814" data-name="Trazado 655814" d="M234.592,124.376c.071,0,.145,0,.22-.011a2.22,2.22,0,0,0,1.631-.979l8.9-13.35-3.7-2.468-7.394,11.092L229.49,113.9l-3.146,3.146,6.675,6.675a2.217,2.217,0,0,0,1.573.652Z" transform="translate(-151.842 -66.101)"/>
      <path id="Trazado_655815" data-name="Trazado 655815" d="M371.6,105.375V74.225A2.223,2.223,0,0,0,369.375,72h-31.15A2.223,2.223,0,0,0,336,74.225v31.15a2.223,2.223,0,0,0,2.225,2.225h31.15A2.223,2.223,0,0,0,371.6,105.375Zm-4.45-2.225h-26.7V76.45h26.7Z" transform="translate(-231 -40.425)"/>
      <path id="Trazado_655816" data-name="Trazado 655816" d="M378.592,124.376c.071,0,.145,0,.22-.011a2.22,2.22,0,0,0,1.631-.979l8.9-13.35-3.7-2.468-7.394,11.092L373.49,113.9l-3.146,3.146,6.675,6.675a2.217,2.217,0,0,0,1.573.652Z" transform="translate(-255.792 -66.101)"/>
      <path id="Trazado_655817" data-name="Trazado 655817" d="M27.125,82.75H109.45V78.3H27.125a6.683,6.683,0,0,1-6.675-6.675v-44.5a6.683,6.683,0,0,1,6.675-6.675h111.25a6.683,6.683,0,0,1,6.675,6.675v44.5a6.669,6.669,0,0,1-5,6.464l1.108,4.312A11.124,11.124,0,0,0,149.5,71.625v-44.5A11.138,11.138,0,0,0,138.375,16H27.125A11.138,11.138,0,0,0,16,27.125v44.5A11.138,11.138,0,0,0,27.125,82.75Z"/>
      <path id="Trazado_655818" data-name="Trazado 655818" d="M388.475,232.237a2.225,2.225,0,0,0-1.633-2.145c-5.947-1.642-6.815-2.512-8.459-8.459a2.225,2.225,0,0,0-4.29,0c-1.642,5.947-2.512,6.815-8.459,8.459a2.225,2.225,0,0,0,0,4.29c5.947,1.642,6.815,2.512,8.459,8.459a2.225,2.225,0,0,0,4.29,0c1.642-5.947,2.512-6.815,8.459-8.459a2.225,2.225,0,0,0,1.633-2.145Zm-12.237,3.756a9.629,9.629,0,0,0-3.756-3.756,9.63,9.63,0,0,0,3.756-3.756,9.629,9.629,0,0,0,3.756,3.756A9.644,9.644,0,0,0,376.238,235.993Z" transform="translate(-251.213 -147.262)"/>
      <path id="Trazado_655819" data-name="Trazado 655819" d="M114.272,315.6v24.475h4.45V316.163l15.31-28.431a2.224,2.224,0,0,0-.725-2.906l-6.675-4.45a2.258,2.258,0,0,0-1.736-.318,2.215,2.215,0,0,0-1.42,1.048l-8.023,13.748a13.349,13.349,0,0,0-24.613,0l-8.023-13.748a2.22,2.22,0,0,0-3.155-.73l-6.675,4.45a2.224,2.224,0,0,0-.725,2.906l15.31,28.431v23.914h4.45V315.6a2.24,2.24,0,0,0-.265-1.055L77.141,287.4l3.026-2.016,9.9,16.972a13.231,13.231,0,0,0,10.222,10.68l-3.736,13.076a2.226,2.226,0,0,0,.289,1.845l4.45,6.675a2.226,2.226,0,0,0,3.7,0l4.45-6.675a2.226,2.226,0,0,0,.289-1.845L106,313.041a13.15,13.15,0,0,0,10.235-10.7l9.89-16.948,3.026,2.016-14.616,27.143a2.24,2.24,0,0,0-.265,1.055Zm-11.125-24.475a8.878,8.878,0,0,1,7.509,4.17,15.471,15.471,0,0,0-15.019,0A8.878,8.878,0,0,1,103.147,291.127Zm0,38.263-2.027-3.042,2.027-7.1,2.027,7.1Zm0-20.463a8.851,8.851,0,0,1-8.626-6.98,11.05,11.05,0,0,1,17.259.007A8.824,8.824,0,0,1,103.147,308.927Z" transform="translate(-40.422 -190.577)"/>
    </g>
    <rect id="Rectángulo_336212" data-name="Rectángulo 336212" width="167" height="167" transform="translate(257 1195)" fill="none"/>
  </g>
</svg>
