<svg xmlns="http://www.w3.org/2000/svg" width="112" height="112" viewBox="0 0 112 112">
  <g id="Grupo_948523" data-name="Grupo 948523" transform="translate(-1158 -7180)">
    <rect id="Rectángulo_336255" data-name="Rectángulo 336255" width="112" height="112" transform="translate(1158 7180)" fill="#fff8ed"/>
    <g id="hecho" transform="translate(1176.783 7198.77)">
      <g id="Grupo_948494" data-name="Grupo 948494" transform="translate(1.09 1.105)">
        <path id="Trazado_656124" data-name="Trazado 656124" d="M50.459,110.682H9.046A1.546,1.546,0,0,1,7.5,109.136v-63.9a1.546,1.546,0,0,1,1.546-1.546H50.459a1.546,1.546,0,0,1,1.546,1.546v63.9A1.546,1.546,0,0,1,50.459,110.682Z" transform="translate(-7.5 -38.433)" fill="#e7e2e6"/>
        <path id="Trazado_656125" data-name="Trazado 656125" d="M96.649,74.5H55.236a1.546,1.546,0,0,1-1.546-1.546V9.061a1.546,1.546,0,0,1,1.546-1.546H96.649A1.546,1.546,0,0,1,98.2,9.061v63.9A1.546,1.546,0,0,1,96.649,74.5Z" transform="translate(-46.975 -7.515)" fill="#faf7f8"/>
        <path id="Trazado_656126" data-name="Trazado 656126" d="M330.322,7.515h-3.213a1.546,1.546,0,0,1,1.546,1.546v63.9a1.546,1.546,0,0,1-1.546,1.546h3.213a1.546,1.546,0,0,0,1.546-1.546V9.061a1.546,1.546,0,0,0-1.546-1.546Z" transform="translate(-280.648 -7.515)" fill="#f0eef0"/>
        <path id="Trazado_656127" data-name="Trazado 656127" d="M141.885,47.008H118.868a1.485,1.485,0,0,1-1.485-1.485V41.911a1.485,1.485,0,0,1,1.485-1.485h23.017a1.485,1.485,0,0,1,1.485,1.485v3.612A1.485,1.485,0,0,1,141.885,47.008Z" transform="translate(-101.409 -35.642)" fill="#ffb338"/>
        <path id="Trazado_656128" data-name="Trazado 656128" d="M269.274,40.426H266.44a1.485,1.485,0,0,1,1.485,1.485v3.612a1.485,1.485,0,0,1-1.485,1.485h2.834a1.485,1.485,0,0,0,1.485-1.485V41.911A1.485,1.485,0,0,0,269.274,40.426Z" transform="translate(-228.798 -35.642)" fill="#eb6f2d"/>
        <path id="Trazado_656176" data-name="Trazado 656176" d="M17.3,0A17.3,17.3,0,1,1,0,17.3,17.3,17.3,0,0,1,17.3,0Z" transform="translate(37.657 27.264)" fill="#ffb338"/>
        <path id="Trazado_656129" data-name="Trazado 656129" d="M373.891,195.062a17.475,17.475,0,0,0-1.981.114,17.3,17.3,0,0,1,0,34.369,17.475,17.475,0,0,0,1.981.114,17.3,17.3,0,0,0,0-34.6Z" transform="translate(-318.936 -167.798)" fill="#eb6f2d"/>
        <g id="Grupo_948493" data-name="Grupo 948493" transform="translate(44.541 36.771)">
          <path id="Trazado_656130" data-name="Trazado 656130" d="M321.578,276.046a2.423,2.423,0,0,1-1.719-.712l-5.246-5.246a2.432,2.432,0,1,1,3.439-3.439l3.526,3.526,9-9a2.432,2.432,0,1,1,3.439,3.439L323.3,275.334A2.424,2.424,0,0,1,321.578,276.046Z" transform="translate(-313.9 -260.464)" fill="#faf7f8"/>
        </g>
      </g>
      <g id="Grupo_948495" data-name="Grupo 948495" transform="translate(0 0.015)">
        <path id="Trazado_656131" data-name="Trazado 656131" d="M135.476,41.688a2.578,2.578,0,0,0,2.575-2.575V35.5a2.578,2.578,0,0,0-2.575-2.575H112.458a2.578,2.578,0,0,0-2.575,2.575v3.612a2.578,2.578,0,0,0,2.575,2.575Zm-23.412-2.575V35.5a.4.4,0,0,1,.395-.395h23.017a.4.4,0,0,1,.395.395v3.612a.4.4,0,0,1-.395.395H112.458A.4.4,0,0,1,112.064,39.113Z" transform="translate(-93.909 -28.141)"/>
        <path id="Trazado_656132" data-name="Trazado 656132" d="M89.873,189.743H122a1.09,1.09,0,1,0,0-2.181H89.873a1.09,1.09,0,0,0,0,2.181Z" transform="translate(-75.877 -160.298)"/>
        <path id="Trazado_656133" data-name="Trazado 656133" d="M89.873,153.9H122a1.09,1.09,0,1,0,0-2.181H89.873a1.09,1.09,0,0,0,0,2.181Z" transform="translate(-75.877 -129.662)"/>
        <path id="Trazado_656134" data-name="Trazado 656134" d="M88.783,116.957a1.09,1.09,0,0,0,1.09,1.09H122a1.09,1.09,0,1,0,0-2.181H89.873A1.09,1.09,0,0,0,88.783,116.957Z" transform="translate(-75.877 -99.026)"/>
        <path id="Trazado_656135" data-name="Trazado 656135" d="M325.884,252.965a3.5,3.5,0,0,0-2.49,1.032l-8.228,8.228-2.755-2.755a3.522,3.522,0,1,0-4.981,4.98l5.246,5.246a3.522,3.522,0,0,0,4.981,0l10.718-10.718a3.522,3.522,0,0,0-2.49-6.012Zm.948,4.47-10.718,10.718a1.341,1.341,0,0,1-1.9,0l-5.246-5.246a1.341,1.341,0,1,1,1.9-1.9l3.527,3.527a1.091,1.091,0,0,0,1.542,0l9-9a1.341,1.341,0,1,1,1.9,1.9Z" transform="translate(-261.857 -216.194)"/>
        <path id="Trazado_656136" data-name="Trazado 656136" d="M70.949,34.9a1.09,1.09,0,0,0-1.766,1.279,16.218,16.218,0,1,1-2.69-2.9A1.09,1.09,0,0,0,67.9,31.611a18.409,18.409,0,0,0-14.5-4.142V2.651A2.639,2.639,0,0,0,50.764.015H9.351A2.639,2.639,0,0,0,6.715,2.651V5.274H2.636A2.639,2.639,0,0,0,0,7.91v5.233a1.09,1.09,0,0,0,2.181,0V7.91a.456.456,0,0,1,.456-.456H6.715V66.549a2.639,2.639,0,0,0,2.636,2.636H24.409a1.09,1.09,0,1,0,0-2.181H9.351a.456.456,0,0,1-.456-.456V2.651A.456.456,0,0,1,9.351,2.2H50.764a.456.456,0,0,1,.456.455v25.27a18.393,18.393,0,0,0-7.988,4.569H14a1.09,1.09,0,0,0,0,2.181H41.316A18.418,18.418,0,0,0,39.473,37.7H14a1.09,1.09,0,1,0,0,2.181H38.589a18.249,18.249,0,0,0-.726,3.031H14a1.09,1.09,0,0,0,0,2.181H37.665q-.009.286-.009.574a18.482,18.482,0,0,0,.163,2.456H14A1.09,1.09,0,1,0,14,50.3H38.249a18.251,18.251,0,0,0,1.084,3.031H14a1.09,1.09,0,0,0,0,2.181H40.522a18.531,18.531,0,0,0,2.41,3.031H14a1.09,1.09,0,1,0,0,2.181H45.5a18.319,18.319,0,0,0,5.717,2.687v3.136a.456.456,0,0,1-.456.456H28.624a1.09,1.09,0,1,0,0,2.181H44.5v2.623a.456.456,0,0,1-.456.456H2.636a.456.456,0,0,1-.456-.456V17.359a1.09,1.09,0,0,0-2.181,0V71.808a2.639,2.639,0,0,0,2.636,2.636H44.05a2.639,2.639,0,0,0,2.636-2.636V69.185h4.079A2.639,2.639,0,0,0,53.4,66.549V63.866a18.4,18.4,0,0,0,21.033-18.2A18.255,18.255,0,0,0,70.949,34.9Z" transform="translate(0 -0.015)"/>
      </g>
    </g>
  </g>
</svg>
