<svg xmlns="http://www.w3.org/2000/svg" width="261.714" height="287.212" viewBox="0 0 261.714 287.212">
  <g id="Grupo_949234" data-name="Grupo 949234" transform="translate(-390 -8755.7)">
    <g id="Trazado_658081" data-name="Trazado 658081" transform="translate(390 8755.7)" fill="#9ac8f5">
      <path d="M 213 246.25 L 17 246.25 C 12.65946865081787 246.25 8.578719139099121 244.5597229003906 5.509500026702881 241.4904937744141 C 2.44028115272522 238.4212799072266 0.75 234.3405303955078 0.75 230 L 0.75 17 C 0.75 12.65946865081787 2.44028115272522 8.578719139099121 5.509500026702881 5.509500026702881 C 8.578719139099121 2.44028115272522 12.65946865081787 0.75 17 0.75 L 213 0.75 C 217.3405303955078 0.75 221.4212799072266 2.44028115272522 224.4904937744141 5.509500026702881 C 227.5597229003906 8.578719139099121 229.25 12.65946865081787 229.25 17 L 229.25 230 C 229.25 234.3405303955078 227.5597229003906 238.4212799072266 224.4904937744141 241.4904937744141 C 221.4212799072266 244.5597229003906 217.3405303955078 246.25 213 246.25 Z" stroke="none"/>
      <path d="M 17 1.5 C 12.85981750488281 1.5 8.9674072265625 3.112274169921875 6.039840698242188 6.039840698242188 C 3.112274169921875 8.9674072265625 1.5 12.85981750488281 1.5 17 L 1.5 230 C 1.5 234.1401824951172 3.112274169921875 238.0325927734375 6.039840698242188 240.9601593017578 C 8.9674072265625 243.8877258300781 12.85981750488281 245.5 17 245.5 L 213 245.5 C 217.1401824951172 245.5 221.0325927734375 243.8877258300781 223.9601593017578 240.9601593017578 C 226.8877258300781 238.0325927734375 228.5 234.1401824951172 228.5 230 L 228.5 17 C 228.5 12.85981750488281 226.8877258300781 8.9674072265625 223.9601593017578 6.039840698242188 C 221.0325927734375 3.112274169921875 217.1401824951172 1.5 213 1.5 L 17 1.5 M 17 0 L 213 0 C 222.3888397216797 0 230 7.611160278320312 230 17 L 230 230 C 230 239.3888397216797 222.3888397216797 247 213 247 L 17 247 C 7.611160278320312 247 0 239.3888397216797 0 230 L 0 17 C 0 7.611160278320312 7.611160278320312 0 17 0 Z" stroke="none" fill="#0387d0"/>
    </g>
    <g id="signo-de-interrogacion" transform="translate(394.333 8918.7)">
      <g id="Grupo_948543" data-name="Grupo 948543" transform="translate(65.935 1.818)">
        <g id="Grupo_948536" data-name="Grupo 948536" transform="translate(0 0.001)">
          <g id="Grupo_948535" data-name="Grupo 948535">
            <g id="Grupo_948534" data-name="Grupo 948534">
              <path id="Trazado_656202" data-name="Trazado 656202" d="M210.681,101.762l21.166-16.58,3.3-28.866L210.681,42.844,200.747,56.5a16.8,16.8,0,0,1-1.924,30.864A23.848,23.848,0,0,0,183,109.837v4.338A10.23,10.23,0,0,0,193.231,124.4h14.961Z" transform="translate(-155.98 -34.269)" fill="#fe7d43"/>
              <path id="Trazado_656203" data-name="Trazado 656203" d="M111.355,7.58a37.231,37.231,0,0,0-39.74,37.171,10.23,10.23,0,0,0,10.23,10.23H96.805" transform="translate(-71.615 -7.5)" fill="#fe7d43"/>
            </g>
            <path id="Trazado_656204" data-name="Trazado 656204" d="M208.19,419.815H193.23A10.23,10.23,0,0,0,183,430.045v.085a10.23,10.23,0,0,0,10.23,10.23h13.141" transform="translate(-155.978 -319.786)" fill="#fe7d43"/>
          </g>
          <path id="Trazado_656205" data-name="Trazado 656205" d="M250.382,7.5H235.421" transform="translate(-195.681 -7.5)" fill="#fe7d43"/>
        </g>
        <g id="Grupo_948542" data-name="Grupo 948542" transform="translate(14.961)">
          <g id="Grupo_948541" data-name="Grupo 948541">
            <g id="Grupo_948538" data-name="Grupo 948538" transform="translate(0 0.001)">
              <g id="Grupo_948537" data-name="Grupo 948537">
                <path id="Trazado_656206" data-name="Trazado 656206" d="M170.534,97.635A10.23,10.23,0,0,1,160.3,87.4V83.066a23.842,23.842,0,0,1,15.822-22.475A16.8,16.8,0,1,0,153.9,42.4a17.087,17.087,0,0,0-.163,2.355,10.23,10.23,0,1,1-20.459,0A37.253,37.253,0,1,1,182.947,79.88a3.351,3.351,0,0,0-2.183,3.186V87.4a10.23,10.23,0,0,1-10.23,10.23Z" transform="translate(-133.282 -7.5)" fill="#ffd15b"/>
              </g>
              <path id="Trazado_656207" data-name="Trazado 656207" d="M254.9,440.359a10.23,10.23,0,0,1-10.23-10.23v-.085a10.23,10.23,0,1,1,20.459,0v.085a10.23,10.23,0,0,1-10.23,10.23Z" transform="translate(-217.645 -319.786)" fill="#ffd15b"/>
            </g>
            <g id="Grupo_948540" data-name="Grupo 948540" transform="translate(0)">
              <g id="Grupo_948539" data-name="Grupo 948539">
                <path id="Trazado_656208" data-name="Trazado 656208" d="M142.685,39.566a37.292,37.292,0,0,0-.358,5.181,10.222,10.222,0,0,0,5.707,9.177,10.231,10.231,0,0,1-14.751-9.177A37.26,37.26,0,0,1,173.025,7.575q1.042.069,2.069.2a37.424,37.424,0,0,0-32.41,31.792Z" transform="translate(-133.283 -7.495)" fill="#ffc344"/>
                <path id="Trazado_656209" data-name="Trazado 656209" d="M269.54,124.465a23.849,23.849,0,0,0-15.824,22.477v4.338a10.226,10.226,0,0,0,5.713,9.177,10.231,10.231,0,0,1-14.751-9.177v-4.338A23.842,23.842,0,0,1,260.5,124.465a16.8,16.8,0,0,0-1.042-32.006,16.788,16.788,0,0,1,10.081,32.006Z" transform="translate(-217.653 -71.374)" fill="#ffc344"/>
              </g>
              <path id="Trazado_656210" data-name="Trazado 656210" d="M259.428,439.3a10.231,10.231,0,0,1-14.751-9.177v-.087a10.231,10.231,0,0,1,14.751-9.177,10.237,10.237,0,0,0-5.713,9.177v.087A10.226,10.226,0,0,0,259.428,439.3Z" transform="translate(-217.652 -319.778)" fill="#ffc344"/>
            </g>
          </g>
        </g>
      </g>
      <g id="Grupo_948544" data-name="Grupo 948544" transform="translate(64.116 0)">
        <path id="Trazado_656211" data-name="Trazado 656211" d="M157.114,36.172A39.174,39.174,0,0,0,120.755.084C119.858.025,103.176,0,103.176,0h-.046A38.954,38.954,0,0,0,84.559,4.78a39.389,39.389,0,0,0-15.24,14.844,1.819,1.819,0,1,0,3.15,1.822A35.752,35.752,0,0,1,86.3,7.974a35.356,35.356,0,0,1,15.412-4.3,38.943,38.943,0,0,0-22.638,35.4,12.007,12.007,0,0,0,3.433,8.411H76.164a8.419,8.419,0,0,1-8.409-8.411,35.874,35.874,0,0,1,.341-4.93,35.237,35.237,0,0,1,1.163-5.293,1.82,1.82,0,0,0-3.484-1.053,38.9,38.9,0,0,0-1.283,5.843,39.523,39.523,0,0,0-.376,5.433A12.062,12.062,0,0,0,76.164,51.12H91.135A12.063,12.063,0,0,0,103.175,39.07a15.276,15.276,0,0,1,.145-2.1A14.932,14.932,0,0,1,110.7,26.112a14.979,14.979,0,0,1-2.526,27.082A25.671,25.671,0,0,0,91.139,77.387v4.338a12.062,12.062,0,0,0,12.048,12.05h14.962A12.063,12.063,0,0,0,130.2,81.725V77.386a1.531,1.531,0,0,1,.97-1.471,39.21,39.21,0,0,0,25.948-39.743ZM94.778,81.725V77.387a22.026,22.026,0,0,1,14.607-20.762A18.61,18.61,0,0,0,114.763,24.5a14.969,14.969,0,0,1,8.371,28.7A25.664,25.664,0,0,0,106.1,77.386v4.339a12.006,12.006,0,0,0,3.433,8.411h-6.346a8.419,8.419,0,0,1-8.409-8.411Zm35.176-9.24a5.173,5.173,0,0,0-3.4,4.9v4.339a8.41,8.41,0,1,1-16.82,0V77.386a22.02,22.02,0,0,1,14.609-20.76A18.617,18.617,0,0,0,119.419,20.5q-.619-.041-1.232-.041a18.693,18.693,0,0,0-18.472,16,18.946,18.946,0,0,0-.18,2.606,8.41,8.41,0,1,1-16.82,0,35.434,35.434,0,1,1,47.238,33.414Z" transform="translate(-64.116 0)"/>
        <path id="Trazado_656212" data-name="Trazado 656212" d="M202.511,412.315H187.55A12.063,12.063,0,0,0,175.5,424.364v.085A12.063,12.063,0,0,0,187.55,436.5s15.276,0,15.434-.009a1.819,1.819,0,1,0-.13-3.637q-.171.006-.342.006a8.421,8.421,0,0,1-8.411-8.411v-.085a8.41,8.41,0,0,1,16.82,0v.085a8.43,8.43,0,0,1-1.948,5.386,1.82,1.82,0,0,0,2.8,2.33,12.074,12.074,0,0,0,2.792-7.715v-.085a12.062,12.062,0,0,0-12.048-12.048ZM179.14,424.449v-.085a8.42,8.42,0,0,1,8.41-8.41h6.343a12,12,0,0,0-3.432,8.409v.085a12.008,12.008,0,0,0,3.433,8.411H187.55A8.419,8.419,0,0,1,179.14,424.449Z" transform="translate(-148.479 -312.286)"/>
      </g>
    </g>
    <g id="flecha-correcta" transform="translate(600 8772.449)">
      <g id="Grupo_948002" data-name="Grupo 948002" transform="translate(0.758 92.409)">
        <path id="Trazado_655928" data-name="Trazado 655928" d="M38.9,130.836a4.376,4.376,0,0,1-4.376-4.376v-1.206H12.061A4.561,4.561,0,0,1,7.5,120.693v-11.4a4.561,4.561,0,0,1,4.561-4.561H34.527v-1.207a4.373,4.373,0,0,1,7.1-3.424L56.047,111.57a4.374,4.374,0,0,1,0,6.847L41.622,129.885a4.388,4.388,0,0,1-2.719.951Z" transform="translate(-7.5 -99.151)" fill="#f5f5f5"/>
      </g>
      <g id="Grupo_948003" data-name="Grupo 948003" transform="translate(4.63 96.281)">
        <path id="Trazado_655929" data-name="Trazado 655929" d="M88.1,149.066,73.679,137.6a.5.5,0,0,0-.813.393v4.578a.5.5,0,0,1-.5.5H47.231a1.392,1.392,0,0,0-1.392,1.392v9.992a1.392,1.392,0,0,0,1.392,1.392H72.364a.5.5,0,0,1,.5.5v4.578a.5.5,0,0,0,.813.393L88.1,149.851A.5.5,0,0,0,88.1,149.066Z" transform="translate(-45.839 -137.488)" fill="#fddf7c"/>
      </g>
      <g id="Grupo_948004" data-name="Grupo 948004" transform="translate(30.64 92.409)">
        <path id="Trazado_655930" data-name="Trazado 655930" d="M322.017,111.57,307.592,100.1a4.367,4.367,0,0,0-4.239-.679,4.382,4.382,0,0,1,1.209.679l14.425,11.468a4.374,4.374,0,0,1,0,6.847l-14.425,11.468a4.383,4.383,0,0,1-1.21.679,4.368,4.368,0,0,0,1.521.272h0a4.387,4.387,0,0,0,2.719-.951l14.425-11.468a4.374,4.374,0,0,0,0-6.847Z" transform="translate(-303.352 -99.151)" fill="#ebe5ed"/>
      </g>
      <g id="Grupo_948005" data-name="Grupo 948005" transform="translate(31.657 96.281)">
        <path id="Trazado_655931" data-name="Trazado 655931" d="M328.659,149.066,314.234,137.6a.5.5,0,0,0-.813.393v1.37l12.208,9.705a.5.5,0,0,1,0,.785l-12.208,9.705v1.37a.5.5,0,0,0,.813.392l14.425-11.468A.5.5,0,0,0,328.659,149.066Z" transform="translate(-313.421 -137.488)" fill="#fcce63"/>
      </g>
      <g id="Grupo_948006" data-name="Grupo 948006" transform="translate(0 91.651)">
        <path id="Trazado_655932" data-name="Trazado 655932" d="M32.16,124.851a5.139,5.139,0,0,1-5.133-5.133v-.449H21.014a.758.758,0,1,1,0-1.515h6.77a.757.757,0,0,1,.758.758v1.206a3.615,3.615,0,0,0,5.866,2.832l14.425-11.468a3.616,3.616,0,0,0,0-5.661L34.408,93.952a3.615,3.615,0,0,0-5.866,2.831V97.99a.757.757,0,0,1-.758.758H5.318a3.808,3.808,0,0,0-3.8,3.8v11.4a3.808,3.808,0,0,0,3.8,3.8H17.984a.758.758,0,0,1,0,1.515H5.318A5.324,5.324,0,0,1,0,113.95v-11.4a5.324,5.324,0,0,1,5.318-5.318H27.027v-.45a5.13,5.13,0,0,1,8.324-4.016l14.424,11.468a5.131,5.131,0,0,1,0,8.033L35.351,123.735A5.148,5.148,0,0,1,32.16,124.851Z" transform="translate(0 -91.651)"/>
      </g>
      <g id="Grupo_948007" data-name="Grupo 948007" transform="translate(3.872 95.523)">
        <path id="Trazado_655933" data-name="Trazado 655933" d="M66.626,155.438a1.263,1.263,0,0,1-.549-.127,1.25,1.25,0,0,1-.712-1.134v-4.322H40.488a2.152,2.152,0,0,1-2.15-2.15v-9.992a2.152,2.152,0,0,1,2.15-2.15h5.219a.758.758,0,1,1,0,1.515H40.488a.635.635,0,0,0-.635.635v9.992a.635.635,0,0,0,.635.635H65.621A1.26,1.26,0,0,1,66.88,149.6v4.047L80.637,142.71,66.88,131.773v4.047a1.26,1.26,0,0,1-1.259,1.259H48.737a.758.758,0,0,1,0-1.515H65.365v-4.322a1.259,1.259,0,0,1,2.042-.985l14.425,11.468a1.259,1.259,0,0,1,0,1.971L67.407,155.163A1.253,1.253,0,0,1,66.626,155.438Z" transform="translate(-38.338 -129.982)"/>
      </g>
    </g>
  </g>
</svg>
