<svg xmlns="http://www.w3.org/2000/svg" width="185" height="165" viewBox="0 0 185 165">
  <g id="Grupo_949208" data-name="Grupo 949208" transform="translate(-325 -891)">
    <g id="Trazado_658211" data-name="Trazado 658211" transform="translate(325 891)" fill="#ffebcb">
      <path d="M 82.5 164.5 C 76.93608093261719 164.5 71.37579345703125 163.9394989013672 65.97360229492188 162.8340454101562 C 60.70898056030273 161.7567443847656 55.53049850463867 160.1492462158203 50.58206176757812 158.0562438964844 C 45.72333145141602 156.0011596679688 41.03704071044922 153.4575347900391 36.65337371826172 150.4959716796875 C 32.31122970581055 147.5624847412109 28.22804260253906 144.1935424804688 24.51725006103516 140.4827575683594 C 20.80645751953125 136.7719573974609 17.43752098083496 132.6887969970703 14.50402069091797 128.3466186523438 C 11.54247951507568 123.9629592895508 8.998833656311035 119.2766876220703 6.943770885467529 114.4179611206055 C 4.850749969482422 109.4694976806641 3.243249893188477 104.2910232543945 2.165958404541016 99.02639770507812 C 1.060500025749207 93.62420654296875 0.5 88.06391906738281 0.5 82.5 C 0.5 76.93608093261719 1.060500025749207 71.37579345703125 2.165958404541016 65.97360229492188 C 3.243249893188477 60.70898056030273 4.850749969482422 55.53049850463867 6.943770885467529 50.58206176757812 C 8.998833656311035 45.72333145141602 11.54247951507568 41.03704071044922 14.50402069091797 36.65337371826172 C 17.43752098083496 32.31122970581055 20.80645751953125 28.22804260253906 24.51725006103516 24.51725006103516 C 28.22804260253906 20.80645751953125 32.31122970581055 17.43752098083496 36.65337371826172 14.50402069091797 C 41.03704071044922 11.54247951507568 45.72333145141602 8.998833656311035 50.58206176757812 6.943770885467529 C 55.53049850463867 4.850749969482422 60.70898056030273 3.243249893188477 65.97360229492188 2.165958404541016 C 71.37579345703125 1.060500025749207 76.93608093261719 0.5 82.5 0.5 C 88.06391906738281 0.5 93.62420654296875 1.060500025749207 99.02639770507812 2.165958404541016 C 104.2910232543945 3.243249893188477 109.4694976806641 4.850749969482422 114.4179611206055 6.943770885467529 C 119.2766876220703 8.998833656311035 123.9629592895508 11.54247951507568 128.3466186523438 14.50402069091797 C 132.6887969970703 17.43752098083496 136.7719573974609 20.80645751953125 140.4827575683594 24.51725006103516 C 144.1935424804688 28.22804260253906 147.5624847412109 32.31122970581055 150.4959716796875 36.65337371826172 C 153.4575347900391 41.03704071044922 156.0011596679688 45.72333145141602 158.0562438964844 50.58206176757812 C 160.1492462158203 55.53049850463867 161.7567443847656 60.70898056030273 162.8340454101562 65.97360229492188 C 163.9394989013672 71.37579345703125 164.5 76.93608093261719 164.5 82.5 C 164.5 88.06391906738281 163.9394989013672 93.62420654296875 162.8340454101562 99.02639770507812 C 161.7567443847656 104.2910232543945 160.1492462158203 109.4694976806641 158.0562438964844 114.4179611206055 C 156.0011596679688 119.2766876220703 153.4575347900391 123.9629592895508 150.4959716796875 128.3466186523438 C 147.5624847412109 132.6887969970703 144.1935424804688 136.7719573974609 140.4827575683594 140.4827575683594 C 136.7719573974609 144.1935424804688 132.6887969970703 147.5624847412109 128.3466186523438 150.4959716796875 C 123.9629592895508 153.4575347900391 119.2766876220703 156.0011596679688 114.4179611206055 158.0562438964844 C 109.4694976806641 160.1492462158203 104.2910232543945 161.7567443847656 99.02639770507812 162.8340454101562 C 93.62420654296875 163.9394989013672 88.06391906738281 164.5 82.5 164.5 Z" stroke="none"/>
      <path d="M 82.5 1 C 76.96967315673828 1 71.44310760498047 1.557083129882812 66.07384490966797 2.655807495117188 C 60.84154510498047 3.72650146484375 55.69486999511719 5.324111938476562 50.77682495117188 7.404266357421875 C 45.94782257080078 9.446762084960938 41.29019927978516 11.974853515625 36.93325805664062 14.91831970214844 C 32.61747741699219 17.83399963378906 28.55908203125 21.1824951171875 24.87080383300781 24.87080383300781 C 21.1824951171875 28.55908203125 17.83399963378906 32.61747741699219 14.91831970214844 36.93325805664062 C 11.974853515625 41.29019927978516 9.446762084960938 45.94782257080078 7.404266357421875 50.77682495117188 C 5.324111938476562 55.69486999511719 3.72650146484375 60.84154510498047 2.655807495117188 66.07384490966797 C 1.557083129882812 71.44310760498047 1 76.96967315673828 1 82.5 C 1 88.03032684326172 1.557083129882812 93.55689239501953 2.655807495117188 98.92615509033203 C 3.72650146484375 104.1584548950195 5.324111938476562 109.3051300048828 7.404266357421875 114.2231750488281 C 9.446762084960938 119.0521697998047 11.974853515625 123.7098083496094 14.91831970214844 128.0667419433594 C 17.83399963378906 132.3825225830078 21.1824951171875 136.44091796875 24.87080383300781 140.1291961669922 C 28.55908203125 143.8175048828125 32.61747741699219 147.1660003662109 36.93325805664062 150.0816802978516 C 41.29019927978516 153.025146484375 45.94782257080078 155.5532379150391 50.77682495117188 157.5957336425781 C 55.69486999511719 159.6758880615234 60.84154510498047 161.2734985351562 66.07384490966797 162.3441925048828 C 71.44310760498047 163.4429168701172 76.96967315673828 164 82.5 164 C 88.03032684326172 164 93.55689239501953 163.4429168701172 98.92615509033203 162.3441925048828 C 104.1584548950195 161.2734985351562 109.3051300048828 159.6758880615234 114.2231750488281 157.5957336425781 C 119.0521697998047 155.5532379150391 123.7098083496094 153.025146484375 128.0667419433594 150.0816802978516 C 132.3825225830078 147.1660003662109 136.44091796875 143.8175048828125 140.1291961669922 140.1291961669922 C 143.8175048828125 136.44091796875 147.1660003662109 132.3825225830078 150.0816802978516 128.0667419433594 C 153.025146484375 123.7098083496094 155.5532379150391 119.0521697998047 157.5957336425781 114.2231750488281 C 159.6758880615234 109.3051300048828 161.2734985351562 104.1584548950195 162.3441925048828 98.92615509033203 C 163.4429168701172 93.55689239501953 164 88.03032684326172 164 82.5 C 164 76.96967315673828 163.4429168701172 71.44310760498047 162.3441925048828 66.07384490966797 C 161.2734985351562 60.84154510498047 159.6758880615234 55.69486999511719 157.5957336425781 50.77682495117188 C 155.5532379150391 45.94782257080078 153.025146484375 41.29019927978516 150.0816802978516 36.93325805664062 C 147.1660003662109 32.61747741699219 143.8175048828125 28.55908203125 140.1291961669922 24.87080383300781 C 136.44091796875 21.1824951171875 132.3825225830078 17.83399963378906 128.0667419433594 14.91831970214844 C 123.7098083496094 11.974853515625 119.0521697998047 9.446762084960938 114.2231750488281 7.404266357421875 C 109.3051300048828 5.324111938476562 104.1584548950195 3.72650146484375 98.92615509033203 2.655807495117188 C 93.55689239501953 1.557083129882812 88.03032684326172 1 82.5 1 M 82.5 0 C 128.0635070800781 0 165 36.93649291992188 165 82.5 C 165 128.0635070800781 128.0635070800781 165 82.5 165 C 36.93649291992188 165 0 128.0635070800781 0 82.5 C 0 36.93649291992188 36.93649291992188 0 82.5 0 Z" stroke="none" fill="#eb6f2d"/>
    </g>
    <g id="Elipse_7632" data-name="Elipse 7632" transform="translate(459 908)" fill="#ffb338" stroke="#eb6f2d" stroke-width="1">
      <circle cx="25.5" cy="25.5" r="25.5" stroke="none"/>
      <circle cx="25.5" cy="25.5" r="25" fill="none"/>
    </g>
    <path id="Trazado_658212" data-name="Trazado 658212" d="M-1.914-8.486H-.361a1.614,1.614,0,0,0,1.846-1.807,1.562,1.562,0,0,0-.439-1.147A1.666,1.666,0,0,0-.2-11.885a1.784,1.784,0,0,0-1.138.381,1.162,1.162,0,0,0-.483.947H-5.107a3.369,3.369,0,0,1,.625-2,4.127,4.127,0,0,1,1.733-1.372,5.926,5.926,0,0,1,2.437-.493,5.823,5.823,0,0,1,3.73,1.084,3.6,3.6,0,0,1,1.357,2.979,3,3,0,0,1-.562,1.733A4,4,0,0,1,2.578-7.3,3.823,3.823,0,0,1,4.355-6.06,3.279,3.279,0,0,1,5-3.994,3.669,3.669,0,0,1,3.535-.947,6.08,6.08,0,0,1-.312.2,6.306,6.306,0,0,1-2.905-.337,4.062,4.062,0,0,1-4.717-1.812a3.834,3.834,0,0,1-.615-2.144h3.311a1.482,1.482,0,0,0,.527,1.133,1.862,1.862,0,0,0,1.3.479,1.95,1.95,0,0,0,1.387-.483,1.616,1.616,0,0,0,.518-1.235,1.889,1.889,0,0,0-.537-1.523A2.245,2.245,0,0,0-.312-6.035h-1.6Z" transform="translate(486 938.614)" fill="#12263f"/>
    <g id="files-document-protection-insurance-pen" transform="translate(356 924.238)">
      <path id="Trazado_656258" data-name="Trazado 656258" d="M53,23h6.184V69.381H53Z" transform="translate(27.847 11.467)" fill="#ff3051"/>
      <path id="Trazado_656259" data-name="Trazado 656259" d="M59.184,20.092v6.184H53V20.092a3.092,3.092,0,0,1,6.184,0Z" transform="translate(27.847 8.19)" fill="#898890"/>
      <path id="Trazado_656260" data-name="Trazado 656260" d="M59.184,53,56.092,65.368,53,53Z" transform="translate(27.847 27.847)" fill="#898890"/>
      <path id="Trazado_656261" data-name="Trazado 656261" d="M55,23h3.092V69.381H55Z" transform="translate(28.94 11.467)" fill="#cd2a00"/>
      <path id="Trazado_656262" data-name="Trazado 656262" d="M58.092,20.092v6.184H55V17a3.115,3.115,0,0,1,3.092,3.092Z" transform="translate(28.94 8.19)" fill="#57565c"/>
      <path id="Trazado_656263" data-name="Trazado 656263" d="M58.092,53,55,65.368V53Z" transform="translate(28.94 27.847)" fill="#57565c"/>
      <rect id="Rectángulo_336303" data-name="Rectángulo 336303" width="56" height="89" rx="2" transform="translate(19 3.762)" fill="#fee9ab"/>
      <path id="Trazado_656264" data-name="Trazado 656264" d="M49.829,13.184v9.91a12.384,12.384,0,0,1-4.159,9.245l-9.755,8.673-9.755-8.673A12.384,12.384,0,0,1,22,23.094v-9.91L35.914,7Z" transform="translate(10.921 2.73)" fill="#eb6f2d"/>
      <path id="Trazado_656265" data-name="Trazado 656265" d="M33.921,31.638a4.638,4.638,0,0,1-4.638,4.638H18.46V54.829H7.654L3,51.736V30.092L10.73,27H29.282A4.638,4.638,0,0,1,33.921,31.638Z" transform="translate(0.546 13.651)" fill="#ffc477"/>
      <path id="Trazado_656266" data-name="Trazado 656266" d="M33.921,31.638a4.678,4.678,0,0,1-.618,2.319A5.1,5.1,0,0,0,32.56,33a4.627,4.627,0,0,0-3.278-1.361H10.73L3,34.73V30.092L10.73,27H29.282A4.638,4.638,0,0,1,33.921,31.638Z" transform="translate(0.546 13.651)" fill="#ffa733"/>
      <path id="Trazado_656267" data-name="Trazado 656267" d="M46.006,13.184v9.91a12.384,12.384,0,0,1-4.159,9.245l-9.755,8.673L29,38.261l6.663-5.921a12.384,12.384,0,0,0,4.159-9.245v-9.91L29,8.376,32.092,7Z" transform="translate(14.743 2.73)" fill="#eb6f2d"/>
      <path id="Trazado_656268" data-name="Trazado 656268" d="M52.276,6.092V89.578a3.1,3.1,0,0,1-3.092,3.092H43a3.1,3.1,0,0,0,3.092-3.092V6.092A3.1,3.1,0,0,0,43,3h6.184a3.1,3.1,0,0,1,3.092,3.092Z" transform="translate(22.387 0.546)" fill="#ffde55"/>
      <path id="Trazado_656269" data-name="Trazado 656269" d="M71.571,2H22.1A4.652,4.652,0,0,0,17.46,6.638V39.1H11.276a1.449,1.449,0,0,0-.572.108L2.974,42.3A1.546,1.546,0,0,0,2,43.743V65.387a1.546,1.546,0,0,0,.7,1.283l4.654,3.092a1.5,1.5,0,0,0,.85.263H17.46v20.1A4.652,4.652,0,0,0,22.1,94.762H71.571a4.652,4.652,0,0,0,4.638-4.638V6.638A4.652,4.652,0,0,0,71.571,2ZM17.306,51.473h.155v15.46h-8.8L5.092,64.552V44.794l6.478-2.6H29.829a3.092,3.092,0,1,1,0,6.184H15.914a1.546,1.546,0,0,0-1.546,1.546A4.652,4.652,0,0,1,9.73,54.565v3.092a7.744,7.744,0,0,0,7.576-6.184ZM73.117,90.124a1.546,1.546,0,0,1-1.546,1.546H22.1a1.546,1.546,0,0,1-1.546-1.546V51.473h9.276a6.184,6.184,0,1,0,0-12.368H20.552V6.638A1.546,1.546,0,0,1,22.1,5.092H71.571a1.546,1.546,0,0,1,1.546,1.546Z" transform="translate(0 0)"/>
      <path id="Trazado_656270" data-name="Trazado 656270" d="M32.931,24.021a1.546,1.546,0,0,0,1.093-.453l8.746-8.746-2.186-2.186-7.653,7.653L29.65,17.008l-2.186,2.186,4.374,4.374a1.546,1.546,0,0,0,1.093.453Z" transform="translate(13.904 5.808)"/>
      <path id="Trazado_656271" data-name="Trazado 656271" d="M51.008,12.323,37.094,6.139a1.514,1.514,0,0,0-1.268,0L21.912,12.323A1.526,1.526,0,0,0,21,13.73v9.91a13.882,13.882,0,0,0,4.669,10.389l9.771,8.689a1.546,1.546,0,0,0,2.041,0l9.771-8.689A13.882,13.882,0,0,0,51.921,23.64V13.73a1.526,1.526,0,0,0-.912-1.407ZM48.829,23.64A10.844,10.844,0,0,1,45.2,31.726L36.46,39.487l-8.735-7.761a10.844,10.844,0,0,1-3.633-8.086V14.735l12.368-5.5,12.368,5.5Z" transform="translate(10.375 2.184)"/>
      <path id="Trazado_656272" data-name="Trazado 656272" d="M65.914,25.276H61.276V20.638a4.638,4.638,0,0,0-9.276,0V73.2a1.524,1.524,0,0,0,.046.371l3.092,12.368a1.546,1.546,0,0,0,3,0L61.23,73.574a1.524,1.524,0,0,0,.046-.371V28.368h3.092V42.282H67.46V26.822a1.546,1.546,0,0,0-1.546-1.546ZM56.638,79.2l-1.113-4.453h2.226Zm1.546-7.545H55.092V28.368h3.092Zm0-46.381H55.092V20.638a1.546,1.546,0,0,1,3.092,0Z" transform="translate(27.301 7.644)"/>
      <path id="Trazado_656273" data-name="Trazado 656273" d="M18,38h6.184v3.092H18Z" transform="translate(8.736 19.657)"/>
      <path id="Trazado_656274" data-name="Trazado 656274" d="M24,38H54.921v3.092H24Z" transform="translate(12.013 19.657)"/>
      <path id="Trazado_656275" data-name="Trazado 656275" d="M18,44h6.184v3.092H18Z" transform="translate(8.736 22.933)"/>
      <path id="Trazado_656276" data-name="Trazado 656276" d="M24,44H54.921v3.092H24Z" transform="translate(12.013 22.933)"/>
      <path id="Trazado_656277" data-name="Trazado 656277" d="M18,50h6.184v3.092H18Z" transform="translate(8.736 26.209)"/>
      <path id="Trazado_656278" data-name="Trazado 656278" d="M24,50H54.921v3.092H24Z" transform="translate(12.013 26.209)"/>
      <path id="Trazado_656279" data-name="Trazado 656279" d="M18,56h6.184v3.092H18Z" transform="translate(8.736 29.486)"/>
      <path id="Trazado_656280" data-name="Trazado 656280" d="M24,56H54.921v3.092H24Z" transform="translate(12.013 29.486)"/>
    </g>
  </g>
</svg>
