<svg xmlns="http://www.w3.org/2000/svg" width="185" height="165" viewBox="0 0 185 165">
  <g id="Grupo_949207" data-name="Grupo 949207" transform="translate(-1115 -731)">
    <g id="Trazado_658208" data-name="Trazado 658208" transform="translate(1115 731)" fill="#ffebcb">
      <path d="M 82.5 164.5 C 76.93608093261719 164.5 71.37579345703125 163.9394989013672 65.97360229492188 162.8340454101562 C 60.70898056030273 161.7567443847656 55.53049850463867 160.1492462158203 50.58206176757812 158.0562438964844 C 45.72333145141602 156.0011596679688 41.03704071044922 153.4575347900391 36.65337371826172 150.4959716796875 C 32.31122970581055 147.5624847412109 28.22804260253906 144.1935424804688 24.51725006103516 140.4827575683594 C 20.80645751953125 136.7719573974609 17.43752098083496 132.6887969970703 14.50402069091797 128.3466186523438 C 11.54247951507568 123.9629592895508 8.998833656311035 119.2766876220703 6.943770885467529 114.4179611206055 C 4.850749969482422 109.4694976806641 3.243249893188477 104.2910232543945 2.165958404541016 99.02639770507812 C 1.060500025749207 93.62420654296875 0.5 88.06391906738281 0.5 82.5 C 0.5 76.93608093261719 1.060500025749207 71.37579345703125 2.165958404541016 65.97360229492188 C 3.243249893188477 60.70898056030273 4.850749969482422 55.53049850463867 6.943770885467529 50.58206176757812 C 8.998833656311035 45.72333145141602 11.54247951507568 41.03704071044922 14.50402069091797 36.65337371826172 C 17.43752098083496 32.31122970581055 20.80645751953125 28.22804260253906 24.51725006103516 24.51725006103516 C 28.22804260253906 20.80645751953125 32.31122970581055 17.43752098083496 36.65337371826172 14.50402069091797 C 41.03704071044922 11.54247951507568 45.72333145141602 8.998833656311035 50.58206176757812 6.943770885467529 C 55.53049850463867 4.850749969482422 60.70898056030273 3.243249893188477 65.97360229492188 2.165958404541016 C 71.37579345703125 1.060500025749207 76.93608093261719 0.5 82.5 0.5 C 88.06391906738281 0.5 93.62420654296875 1.060500025749207 99.02639770507812 2.165958404541016 C 104.2910232543945 3.243249893188477 109.4694976806641 4.850749969482422 114.4179611206055 6.943770885467529 C 119.2766876220703 8.998833656311035 123.9629592895508 11.54247951507568 128.3466186523438 14.50402069091797 C 132.6887969970703 17.43752098083496 136.7719573974609 20.80645751953125 140.4827575683594 24.51725006103516 C 144.1935424804688 28.22804260253906 147.5624847412109 32.31122970581055 150.4959716796875 36.65337371826172 C 153.4575347900391 41.03704071044922 156.0011596679688 45.72333145141602 158.0562438964844 50.58206176757812 C 160.1492462158203 55.53049850463867 161.7567443847656 60.70898056030273 162.8340454101562 65.97360229492188 C 163.9394989013672 71.37579345703125 164.5 76.93608093261719 164.5 82.5 C 164.5 88.06391906738281 163.9394989013672 93.62420654296875 162.8340454101562 99.02639770507812 C 161.7567443847656 104.2910232543945 160.1492462158203 109.4694976806641 158.0562438964844 114.4179611206055 C 156.0011596679688 119.2766876220703 153.4575347900391 123.9629592895508 150.4959716796875 128.3466186523438 C 147.5624847412109 132.6887969970703 144.1935424804688 136.7719573974609 140.4827575683594 140.4827575683594 C 136.7719573974609 144.1935424804688 132.6887969970703 147.5624847412109 128.3466186523438 150.4959716796875 C 123.9629592895508 153.4575347900391 119.2766876220703 156.0011596679688 114.4179611206055 158.0562438964844 C 109.4694976806641 160.1492462158203 104.2910232543945 161.7567443847656 99.02639770507812 162.8340454101562 C 93.62420654296875 163.9394989013672 88.06391906738281 164.5 82.5 164.5 Z" stroke="none"/>
      <path d="M 82.5 1 C 76.96967315673828 1 71.44310760498047 1.557083129882812 66.07384490966797 2.655807495117188 C 60.84154510498047 3.72650146484375 55.69486999511719 5.324111938476562 50.77682495117188 7.404266357421875 C 45.94782257080078 9.446762084960938 41.29019927978516 11.974853515625 36.93325805664062 14.91831970214844 C 32.61747741699219 17.83399963378906 28.55908203125 21.1824951171875 24.87080383300781 24.87080383300781 C 21.1824951171875 28.55908203125 17.83399963378906 32.61747741699219 14.91831970214844 36.93325805664062 C 11.974853515625 41.29019927978516 9.446762084960938 45.94782257080078 7.404266357421875 50.77682495117188 C 5.324111938476562 55.69486999511719 3.72650146484375 60.84154510498047 2.655807495117188 66.07384490966797 C 1.557083129882812 71.44310760498047 1 76.96967315673828 1 82.5 C 1 88.03032684326172 1.557083129882812 93.55689239501953 2.655807495117188 98.92615509033203 C 3.72650146484375 104.1584548950195 5.324111938476562 109.3051300048828 7.404266357421875 114.2231750488281 C 9.446762084960938 119.0521697998047 11.974853515625 123.7098083496094 14.91831970214844 128.0667419433594 C 17.83399963378906 132.3825225830078 21.1824951171875 136.44091796875 24.87080383300781 140.1291961669922 C 28.55908203125 143.8175048828125 32.61747741699219 147.1660003662109 36.93325805664062 150.0816802978516 C 41.29019927978516 153.025146484375 45.94782257080078 155.5532379150391 50.77682495117188 157.5957336425781 C 55.69486999511719 159.6758880615234 60.84154510498047 161.2734985351562 66.07384490966797 162.3441925048828 C 71.44310760498047 163.4429168701172 76.96967315673828 164 82.5 164 C 88.03032684326172 164 93.55689239501953 163.4429168701172 98.92615509033203 162.3441925048828 C 104.1584548950195 161.2734985351562 109.3051300048828 159.6758880615234 114.2231750488281 157.5957336425781 C 119.0521697998047 155.5532379150391 123.7098083496094 153.025146484375 128.0667419433594 150.0816802978516 C 132.3825225830078 147.1660003662109 136.44091796875 143.8175048828125 140.1291961669922 140.1291961669922 C 143.8175048828125 136.44091796875 147.1660003662109 132.3825225830078 150.0816802978516 128.0667419433594 C 153.025146484375 123.7098083496094 155.5532379150391 119.0521697998047 157.5957336425781 114.2231750488281 C 159.6758880615234 109.3051300048828 161.2734985351562 104.1584548950195 162.3441925048828 98.92615509033203 C 163.4429168701172 93.55689239501953 164 88.03032684326172 164 82.5 C 164 76.96967315673828 163.4429168701172 71.44310760498047 162.3441925048828 66.07384490966797 C 161.2734985351562 60.84154510498047 159.6758880615234 55.69486999511719 157.5957336425781 50.77682495117188 C 155.5532379150391 45.94782257080078 153.025146484375 41.29019927978516 150.0816802978516 36.93325805664062 C 147.1660003662109 32.61747741699219 143.8175048828125 28.55908203125 140.1291961669922 24.87080383300781 C 136.44091796875 21.1824951171875 132.3825225830078 17.83399963378906 128.0667419433594 14.91831970214844 C 123.7098083496094 11.974853515625 119.0521697998047 9.446762084960938 114.2231750488281 7.404266357421875 C 109.3051300048828 5.324111938476562 104.1584548950195 3.72650146484375 98.92615509033203 2.655807495117188 C 93.55689239501953 1.557083129882812 88.03032684326172 1 82.5 1 M 82.5 0 C 128.0635070800781 0 165 36.93649291992188 165 82.5 C 165 128.0635070800781 128.0635070800781 165 82.5 165 C 36.93649291992188 165 0 128.0635070800781 0 82.5 C 0 36.93649291992188 36.93649291992188 0 82.5 0 Z" stroke="none" fill="#eb6f2d"/>
    </g>
    <g id="Trazado_658210" data-name="Trazado 658210" transform="translate(1249 748)" fill="#ffb338">
      <path d="M 25.5 50.5 C 22.12479972839355 50.5 18.850830078125 49.83906936645508 15.76902961730957 48.53557968139648 C 12.79209995269775 47.27645111083984 10.11845016479492 45.47378921508789 7.822329998016357 43.17766952514648 C 5.526209831237793 40.88154983520508 3.723550081253052 38.20790100097656 2.464420080184937 35.2309684753418 C 1.160930037498474 32.149169921875 0.5 28.87520027160645 0.5 25.5 C 0.5 22.12479972839355 1.160930037498474 18.850830078125 2.464420080184937 15.76902961730957 C 3.723550081253052 12.79209995269775 5.526209831237793 10.11845016479492 7.822329998016357 7.822329998016357 C 10.11845016479492 5.526209831237793 12.79209995269775 3.723550081253052 15.76902961730957 2.464420080184937 C 18.850830078125 1.160930037498474 22.12479972839355 0.5 25.5 0.5 C 28.87520027160645 0.5 32.149169921875 1.160930037498474 35.2309684753418 2.464420080184937 C 38.20790100097656 3.723550081253052 40.88154983520508 5.526209831237793 43.17766952514648 7.822329998016357 C 45.47378921508789 10.11845016479492 47.27645111083984 12.79209995269775 48.53557968139648 15.76902961730957 C 49.83906936645508 18.850830078125 50.5 22.12479972839355 50.5 25.5 C 50.5 28.87520027160645 49.83906936645508 32.149169921875 48.53557968139648 35.2309684753418 C 47.27645111083984 38.20790100097656 45.47378921508789 40.88154983520508 43.17766952514648 43.17766952514648 C 40.88154983520508 45.47378921508789 38.20790100097656 47.27645111083984 35.2309684753418 48.53557968139648 C 32.149169921875 49.83906936645508 28.87520027160645 50.5 25.5 50.5 Z" stroke="none"/>
      <path d="M 25.5 1 C 22.19207954406738 1 18.98363876342773 1.647640228271484 15.96379852294922 2.924919128417969 C 13.04647827148438 4.158840179443359 10.42623901367188 5.925521850585938 8.175880432128906 8.175880432128906 C 5.925521850585938 10.42623901367188 4.158840179443359 13.04647827148438 2.924919128417969 15.96379852294922 C 1.647640228271484 18.98363876342773 1 22.19207954406738 1 25.5 C 1 28.80792045593262 1.647640228271484 32.016357421875 2.924919128417969 35.03620147705078 C 4.158840179443359 37.95352172851562 5.925521850585938 40.57376098632812 8.175880432128906 42.82411956787109 C 10.42623901367188 45.07447814941406 13.04647827148438 46.84115982055664 15.96379852294922 48.07508087158203 C 18.98363876342773 49.35235977172852 22.19207954406738 50 25.5 50 C 28.80792045593262 50 32.016357421875 49.35235977172852 35.03620147705078 48.07508087158203 C 37.95352172851562 46.84115982055664 40.57376098632812 45.07447814941406 42.82411956787109 42.82411956787109 C 45.07447814941406 40.57376098632812 46.84115982055664 37.95352172851562 48.07508087158203 35.03620147705078 C 49.35235977172852 32.016357421875 50 28.80792045593262 50 25.5 C 50 22.19207954406738 49.35235977172852 18.98363876342773 48.07508087158203 15.96379852294922 C 46.84115982055664 13.04647827148438 45.07447814941406 10.42623901367188 42.82411956787109 8.175880432128906 C 40.57376098632812 5.925521850585938 37.95352172851562 4.158840179443359 35.03620147705078 2.924919128417969 C 32.016357421875 1.647640228271484 28.80792045593262 1 25.5 1 M 25.5 0 C 39.58325958251953 0 51 11.41674041748047 51 25.5 C 51 39.58325958251953 39.58325958251953 51 25.5 51 C 11.41674041748047 51 0 39.58325958251953 0 25.5 C 0 11.41674041748047 11.41674041748047 0 25.5 0 Z" stroke="none" fill="#eb6f2d"/>
    </g>
    <path id="Trazado_658209" data-name="Trazado 658209" d="M5,0H-4.922V-2.148l4.57-4.8Q1.338-8.877,1.338-10.01a2.126,2.126,0,0,0-.4-1.4,1.43,1.43,0,0,0-1.162-.479,1.447,1.447,0,0,0-1.221.64,2.629,2.629,0,0,0-.469,1.6h-3.3a4.67,4.67,0,0,1,.654-2.417A4.588,4.588,0,0,1-2.744-13.8a5.4,5.4,0,0,1,2.6-.625A5.308,5.308,0,0,1,3.4-13.359,3.8,3.8,0,0,1,4.648-10.3a4.439,4.439,0,0,1-.312,1.636A7.173,7.173,0,0,1,3.364-7,24.476,24.476,0,0,1,1.24-4.658L-.6-2.539H5Z" transform="translate(1276 778.614)" fill="#12263f"/>
    <g id="barra-grafica" transform="translate(1143.203 746.677)">
      <path id="Trazado_656236" data-name="Trazado 656236" d="M91.189,139.7H1.642a1.544,1.544,0,0,1,0-3.088h88V65.588a1.544,1.544,0,1,1,3.088,0v72.564A1.544,1.544,0,0,1,91.189,139.7Z" transform="translate(-0.079 -32.272)" fill="#5a6470"/>
      <path id="Trazado_656237" data-name="Trazado 656237" d="M48.1,240.044H66.625V274.01H48.1Z" transform="translate(-38.816 -174.306)" fill="#fdbd40"/>
      <path id="Trazado_656238" data-name="Trazado 656238" d="M192.1,144.044h18.527v52.493H192.1Z" transform="translate(-155.025 -96.832)" fill="#e9686a"/>
      <path id="Trazado_656239" data-name="Trazado 656239" d="M336.1,64.044h18.527v67.932H336.1Z" transform="translate(-271.235 -32.272)" fill="#238892"/>
      <path id="Trazado_656240" data-name="Trazado 656240" d="M32.441,33.588l5.084,5.084-12.8,12.8-3.54-3.54a1.544,1.544,0,0,0-2.183,0L.471,66.462a1.544,1.544,0,1,0,2.145,2.221l.038-.038L20.089,51.21l3.54,3.54a1.544,1.544,0,0,0,2.183,0l13.9-13.9,5.084,5.084,1.544-13.9Z" transform="translate(0 -6.447)" fill="#e9686a"/>
      <g id="Grupo_948562" data-name="Grupo 948562" transform="translate(13.914 51.843)">
        <path id="Trazado_656241" data-name="Trazado 656241" d="M73.642,366.22a1.544,1.544,0,0,1-1.544-1.544v-3.088a1.544,1.544,0,1,1,3.088,0v3.088A1.544,1.544,0,0,1,73.642,366.22Z" transform="translate(-72.098 -322.99)" fill="#fff"/>
        <path id="Trazado_656242" data-name="Trazado 656242" d="M73.642,305.307a1.544,1.544,0,0,1-1.544-1.544v-6.176a1.544,1.544,0,0,1,3.088,0v6.176A1.544,1.544,0,0,1,73.642,305.307Z" transform="translate(-72.098 -271.341)" fill="#fff"/>
        <path id="Trazado_656243" data-name="Trazado 656243" d="M217.642,366.22a1.544,1.544,0,0,1-1.544-1.544v-3.088a1.544,1.544,0,0,1,3.088,0v3.088A1.544,1.544,0,0,1,217.642,366.22Z" transform="translate(-188.308 -322.99)" fill="#fff"/>
        <path id="Trazado_656244" data-name="Trazado 656244" d="M217.642,266.571a1.544,1.544,0,0,1-1.544-1.544V249.588a1.544,1.544,0,0,1,3.088,0v15.439A1.544,1.544,0,0,1,217.642,266.571Z" transform="translate(-188.308 -232.605)" fill="#fff"/>
        <path id="Trazado_656245" data-name="Trazado 656245" d="M361.642,366.22a1.544,1.544,0,0,1-1.544-1.544v-3.088a1.544,1.544,0,0,1,3.088,0v3.088A1.544,1.544,0,0,1,361.642,366.22Z" transform="translate(-304.517 -322.99)" fill="#fff"/>
        <path id="Trazado_656246" data-name="Trazado 656246" d="M361.642,202.01a1.544,1.544,0,0,1-1.544-1.544V169.588a1.544,1.544,0,0,1,3.088,0v30.878A1.544,1.544,0,0,1,361.642,202.01Z" transform="translate(-304.517 -168.044)" fill="#fff"/>
      </g>
      <path id="Trazado_656247" data-name="Trazado 656247" d="M91.189,64.044a1.544,1.544,0,0,0-1.544,1.544v71.02h-88a1.544,1.544,0,0,0,0,3.088H91.189a1.544,1.544,0,0,0,1.544-1.544V65.588A1.544,1.544,0,0,0,91.189,64.044Z" transform="translate(-0.079 -32.272)"/>
      <path id="Trazado_656248" data-name="Trazado 656248" d="M41.642,232.044a1.544,1.544,0,0,0-1.544,1.544v33.966a1.544,1.544,0,0,0,1.544,1.544H60.169a1.544,1.544,0,0,0,1.544-1.544V233.588a1.544,1.544,0,0,0-1.544-1.544ZM58.625,266.01H43.186V235.132H58.625Z" transform="translate(-32.36 -167.849)"/>
      <path id="Trazado_656249" data-name="Trazado 656249" d="M185.642,136.044a1.544,1.544,0,0,0-1.544,1.544v52.493a1.544,1.544,0,0,0,1.544,1.544h18.527a1.544,1.544,0,0,0,1.544-1.544V137.588a1.544,1.544,0,0,0-1.544-1.544Zm16.983,52.493H187.186V139.132h15.439Z" transform="translate(-148.569 -90.376)"/>
      <path id="Trazado_656250" data-name="Trazado 656250" d="M329.642,127.064h18.527a1.544,1.544,0,0,0,1.544-1.544V57.588a1.544,1.544,0,0,0-1.544-1.544H329.642a1.544,1.544,0,0,0-1.544,1.544V125.52A1.544,1.544,0,0,0,329.642,127.064Zm1.544-67.932h15.439v64.844H331.186Z" transform="translate(-264.779 -25.815)"/>
      <path id="Trazado_656251" data-name="Trazado 656251" d="M.552,62.2a1.544,1.544,0,0,0,2.183,0L20.17,44.763l3.54,3.54a1.544,1.544,0,0,0,2.183,0L38.7,35.5l5.084,5.084a1.544,1.544,0,0,0,2.625-.926l1.544-13.9a1.544,1.544,0,0,0-1.7-1.7l-13.9,1.544a1.544,1.544,0,0,0-.926,2.625l5.084,5.084L24.8,45.028l-3.54-3.54a1.544,1.544,0,0,0-2.183,0L.552,60.015a1.544,1.544,0,0,0,0,2.183ZM44.669,27.344l-.976,8.783L35.886,28.32Z" transform="translate(-0.081 0)"/>
      <path id="Trazado_656252" data-name="Trazado 656252" d="M73.642,366.22a1.544,1.544,0,0,0,1.544-1.544v-3.088a1.544,1.544,0,1,0-3.088,0v3.088A1.544,1.544,0,0,0,73.642,366.22Z" transform="translate(-58.184 -271.147)"/>
      <path id="Trazado_656253" data-name="Trazado 656253" d="M73.642,305.307a1.544,1.544,0,0,0,1.544-1.544v-6.176a1.544,1.544,0,0,0-3.088,0v6.176A1.544,1.544,0,0,0,73.642,305.307Z" transform="translate(-58.184 -219.498)"/>
      <path id="Trazado_656254" data-name="Trazado 656254" d="M217.642,366.22a1.544,1.544,0,0,0,1.544-1.544v-3.088a1.544,1.544,0,0,0-3.088,0v3.088A1.544,1.544,0,0,0,217.642,366.22Z" transform="translate(-174.394 -271.147)"/>
      <path id="Trazado_656255" data-name="Trazado 656255" d="M217.642,266.571a1.544,1.544,0,0,0,1.544-1.544V249.588a1.544,1.544,0,0,0-3.088,0v15.439A1.544,1.544,0,0,0,217.642,266.571Z" transform="translate(-174.394 -180.762)"/>
      <path id="Trazado_656256" data-name="Trazado 656256" d="M361.642,360.044a1.544,1.544,0,0,0-1.544,1.544v3.088a1.544,1.544,0,0,0,3.088,0v-3.088A1.544,1.544,0,0,0,361.642,360.044Z" transform="translate(-290.603 -271.147)"/>
      <path id="Trazado_656257" data-name="Trazado 656257" d="M361.642,168.044a1.544,1.544,0,0,0-1.544,1.544v30.878a1.544,1.544,0,1,0,3.088,0V169.588A1.544,1.544,0,0,0,361.642,168.044Z" transform="translate(-290.603 -116.201)"/>
    </g>
  </g>
</svg>
