<svg xmlns="http://www.w3.org/2000/svg" width="185" height="165" viewBox="0 0 185 165">
  <g id="Grupo_949210" data-name="Grupo 949210" transform="translate(-325 -1196)">
    <g id="Trazado_658216" data-name="Trazado 658216" transform="translate(325 1196)" fill="#ffebcb">
      <path d="M 82.5 164.5 C 76.93608093261719 164.5 71.37579345703125 163.9394989013672 65.97360229492188 162.8340454101562 C 60.70898056030273 161.7567443847656 55.53049850463867 160.1492462158203 50.58206176757812 158.0562438964844 C 45.72333145141602 156.0011596679688 41.03704071044922 153.4575347900391 36.65337371826172 150.4959716796875 C 32.31122970581055 147.5624847412109 28.22804260253906 144.1935424804688 24.51725006103516 140.4827575683594 C 20.80645751953125 136.7719573974609 17.43752098083496 132.6887969970703 14.50402069091797 128.3466186523438 C 11.54247951507568 123.9629592895508 8.998833656311035 119.2766876220703 6.943770885467529 114.4179611206055 C 4.850749969482422 109.4694976806641 3.243249893188477 104.2910232543945 2.165958404541016 99.02639770507812 C 1.060500025749207 93.62420654296875 0.5 88.06391906738281 0.5 82.5 C 0.5 76.93608093261719 1.060500025749207 71.37579345703125 2.165958404541016 65.97360229492188 C 3.243249893188477 60.70898056030273 4.850749969482422 55.53049850463867 6.943770885467529 50.58206176757812 C 8.998833656311035 45.72333145141602 11.54247951507568 41.03704071044922 14.50402069091797 36.65337371826172 C 17.43752098083496 32.31122970581055 20.80645751953125 28.22804260253906 24.51725006103516 24.51725006103516 C 28.22804260253906 20.80645751953125 32.31122970581055 17.43752098083496 36.65337371826172 14.50402069091797 C 41.03704071044922 11.54247951507568 45.72333145141602 8.998833656311035 50.58206176757812 6.943770885467529 C 55.53049850463867 4.850749969482422 60.70898056030273 3.243249893188477 65.97360229492188 2.165958404541016 C 71.37579345703125 1.060500025749207 76.93608093261719 0.5 82.5 0.5 C 88.06391906738281 0.5 93.62420654296875 1.060500025749207 99.02639770507812 2.165958404541016 C 104.2910232543945 3.243249893188477 109.4694976806641 4.850749969482422 114.4179611206055 6.943770885467529 C 119.2766876220703 8.998833656311035 123.9629592895508 11.54247951507568 128.3466186523438 14.50402069091797 C 132.6887969970703 17.43752098083496 136.7719573974609 20.80645751953125 140.4827575683594 24.51725006103516 C 144.1935424804688 28.22804260253906 147.5624847412109 32.31122970581055 150.4959716796875 36.65337371826172 C 153.4575347900391 41.03704071044922 156.0011596679688 45.72333145141602 158.0562438964844 50.58206176757812 C 160.1492462158203 55.53049850463867 161.7567443847656 60.70898056030273 162.8340454101562 65.97360229492188 C 163.9394989013672 71.37579345703125 164.5 76.93608093261719 164.5 82.5 C 164.5 88.06391906738281 163.9394989013672 93.62420654296875 162.8340454101562 99.02639770507812 C 161.7567443847656 104.2910232543945 160.1492462158203 109.4694976806641 158.0562438964844 114.4179611206055 C 156.0011596679688 119.2766876220703 153.4575347900391 123.9629592895508 150.4959716796875 128.3466186523438 C 147.5624847412109 132.6887969970703 144.1935424804688 136.7719573974609 140.4827575683594 140.4827575683594 C 136.7719573974609 144.1935424804688 132.6887969970703 147.5624847412109 128.3466186523438 150.4959716796875 C 123.9629592895508 153.4575347900391 119.2766876220703 156.0011596679688 114.4179611206055 158.0562438964844 C 109.4694976806641 160.1492462158203 104.2910232543945 161.7567443847656 99.02639770507812 162.8340454101562 C 93.62420654296875 163.9394989013672 88.06391906738281 164.5 82.5 164.5 Z" stroke="none"/>
      <path d="M 82.5 1 C 76.96967315673828 1 71.44310760498047 1.557083129882812 66.07384490966797 2.655807495117188 C 60.84154510498047 3.72650146484375 55.69486999511719 5.324111938476562 50.77682495117188 7.404266357421875 C 45.94782257080078 9.446762084960938 41.29019927978516 11.974853515625 36.93325805664062 14.91831970214844 C 32.61747741699219 17.83399963378906 28.55908203125 21.1824951171875 24.87080383300781 24.87080383300781 C 21.1824951171875 28.55908203125 17.83399963378906 32.61747741699219 14.91831970214844 36.93325805664062 C 11.974853515625 41.29019927978516 9.446762084960938 45.94782257080078 7.404266357421875 50.77682495117188 C 5.324111938476562 55.69486999511719 3.72650146484375 60.84154510498047 2.655807495117188 66.07384490966797 C 1.557083129882812 71.44310760498047 1 76.96967315673828 1 82.5 C 1 88.03032684326172 1.557083129882812 93.55689239501953 2.655807495117188 98.92615509033203 C 3.72650146484375 104.1584548950195 5.324111938476562 109.3051300048828 7.404266357421875 114.2231750488281 C 9.446762084960938 119.0521697998047 11.974853515625 123.7098083496094 14.91831970214844 128.0667419433594 C 17.83399963378906 132.3825225830078 21.1824951171875 136.44091796875 24.87080383300781 140.1291961669922 C 28.55908203125 143.8175048828125 32.61747741699219 147.1660003662109 36.93325805664062 150.0816802978516 C 41.29019927978516 153.025146484375 45.94782257080078 155.5532379150391 50.77682495117188 157.5957336425781 C 55.69486999511719 159.6758880615234 60.84154510498047 161.2734985351562 66.07384490966797 162.3441925048828 C 71.44310760498047 163.4429168701172 76.96967315673828 164 82.5 164 C 88.03032684326172 164 93.55689239501953 163.4429168701172 98.92615509033203 162.3441925048828 C 104.1584548950195 161.2734985351562 109.3051300048828 159.6758880615234 114.2231750488281 157.5957336425781 C 119.0521697998047 155.5532379150391 123.7098083496094 153.025146484375 128.0667419433594 150.0816802978516 C 132.3825225830078 147.1660003662109 136.44091796875 143.8175048828125 140.1291961669922 140.1291961669922 C 143.8175048828125 136.44091796875 147.1660003662109 132.3825225830078 150.0816802978516 128.0667419433594 C 153.025146484375 123.7098083496094 155.5532379150391 119.0521697998047 157.5957336425781 114.2231750488281 C 159.6758880615234 109.3051300048828 161.2734985351562 104.1584548950195 162.3441925048828 98.92615509033203 C 163.4429168701172 93.55689239501953 164 88.03032684326172 164 82.5 C 164 76.96967315673828 163.4429168701172 71.44310760498047 162.3441925048828 66.07384490966797 C 161.2734985351562 60.84154510498047 159.6758880615234 55.69486999511719 157.5957336425781 50.77682495117188 C 155.5532379150391 45.94782257080078 153.025146484375 41.29019927978516 150.0816802978516 36.93325805664062 C 147.1660003662109 32.61747741699219 143.8175048828125 28.55908203125 140.1291961669922 24.87080383300781 C 136.44091796875 21.1824951171875 132.3825225830078 17.83399963378906 128.0667419433594 14.91831970214844 C 123.7098083496094 11.974853515625 119.0521697998047 9.446762084960938 114.2231750488281 7.404266357421875 C 109.3051300048828 5.324111938476562 104.1584548950195 3.72650146484375 98.92615509033203 2.655807495117188 C 93.55689239501953 1.557083129882812 88.03032684326172 1 82.5 1 M 82.5 0 C 128.0635070800781 0 165 36.93649291992188 165 82.5 C 165 128.0635070800781 128.0635070800781 165 82.5 165 C 36.93649291992188 165 0 128.0635070800781 0 82.5 C 0 36.93649291992188 36.93649291992188 0 82.5 0 Z" stroke="none" fill="#eb6f2d"/>
    </g>
    <g id="Trazado_658218" data-name="Trazado 658218" transform="translate(459 1213)" fill="#ffb338">
      <path d="M 25.5 50.5 C 22.12479972839355 50.5 18.850830078125 49.83906936645508 15.76902961730957 48.53557968139648 C 12.79209995269775 47.27645111083984 10.11845016479492 45.47378921508789 7.822329998016357 43.17766952514648 C 5.526209831237793 40.88154983520508 3.723550081253052 38.20790100097656 2.464420080184937 35.2309684753418 C 1.160930037498474 32.149169921875 0.5 28.87520027160645 0.5 25.5 C 0.5 22.12479972839355 1.160930037498474 18.850830078125 2.464420080184937 15.76902961730957 C 3.723550081253052 12.79209995269775 5.526209831237793 10.11845016479492 7.822329998016357 7.822329998016357 C 10.11845016479492 5.526209831237793 12.79209995269775 3.723550081253052 15.76902961730957 2.464420080184937 C 18.850830078125 1.160930037498474 22.12479972839355 0.5 25.5 0.5 C 28.87520027160645 0.5 32.149169921875 1.160930037498474 35.2309684753418 2.464420080184937 C 38.20790100097656 3.723550081253052 40.88154983520508 5.526209831237793 43.17766952514648 7.822329998016357 C 45.47378921508789 10.11845016479492 47.27645111083984 12.79209995269775 48.53557968139648 15.76902961730957 C 49.83906936645508 18.850830078125 50.5 22.12479972839355 50.5 25.5 C 50.5 28.87520027160645 49.83906936645508 32.149169921875 48.53557968139648 35.2309684753418 C 47.27645111083984 38.20790100097656 45.47378921508789 40.88154983520508 43.17766952514648 43.17766952514648 C 40.88154983520508 45.47378921508789 38.20790100097656 47.27645111083984 35.2309684753418 48.53557968139648 C 32.149169921875 49.83906936645508 28.87520027160645 50.5 25.5 50.5 Z" stroke="none"/>
      <path d="M 25.5 1 C 22.19207954406738 1 18.98363876342773 1.647640228271484 15.96379852294922 2.924919128417969 C 13.04647827148438 4.158840179443359 10.42623901367188 5.925521850585938 8.175880432128906 8.175880432128906 C 5.925521850585938 10.42623901367188 4.158840179443359 13.04647827148438 2.924919128417969 15.96379852294922 C 1.647640228271484 18.98363876342773 1 22.19207954406738 1 25.5 C 1 28.80792045593262 1.647640228271484 32.016357421875 2.924919128417969 35.03620147705078 C 4.158840179443359 37.95352172851562 5.925521850585938 40.57376098632812 8.175880432128906 42.82411956787109 C 10.42623901367188 45.07447814941406 13.04647827148438 46.84115982055664 15.96379852294922 48.07508087158203 C 18.98363876342773 49.35235977172852 22.19207954406738 50 25.5 50 C 28.80792045593262 50 32.016357421875 49.35235977172852 35.03620147705078 48.07508087158203 C 37.95352172851562 46.84115982055664 40.57376098632812 45.07447814941406 42.82411956787109 42.82411956787109 C 45.07447814941406 40.57376098632812 46.84115982055664 37.95352172851562 48.07508087158203 35.03620147705078 C 49.35235977172852 32.016357421875 50 28.80792045593262 50 25.5 C 50 22.19207954406738 49.35235977172852 18.98363876342773 48.07508087158203 15.96379852294922 C 46.84115982055664 13.04647827148438 45.07447814941406 10.42623901367188 42.82411956787109 8.175880432128906 C 40.57376098632812 5.925521850585938 37.95352172851562 4.158840179443359 35.03620147705078 2.924919128417969 C 32.016357421875 1.647640228271484 28.80792045593262 1 25.5 1 M 25.5 0 C 39.58325958251953 0 51 11.41674041748047 51 25.5 C 51 39.58325958251953 39.58325958251953 51 25.5 51 C 11.41674041748047 51 0 39.58325958251953 0 25.5 C 0 11.41674041748047 11.41674041748047 0 25.5 0 Z" stroke="none" fill="#eb6f2d"/>
    </g>
    <path id="Trazado_658217" data-name="Trazado 658217" d="M-4.727-6.953l.869-7.266H4.453v2.559H-1.182L-1.5-8.838A3.892,3.892,0,0,1-.581-9.2,4.228,4.228,0,0,1,.537-9.355,4.171,4.171,0,0,1,3.794-8.1,5.055,5.055,0,0,1,4.932-4.58,5.046,5.046,0,0,1,4.321-2.1,4.2,4.2,0,0,1,2.607-.4,5.411,5.411,0,0,1,0,.2,5.818,5.818,0,0,1-2.51-.356,4.5,4.5,0,0,1-4.346-1.87,3.68,3.68,0,0,1-5-4.043h3.3A1.873,1.873,0,0,0-1.2-2.8,1.579,1.579,0,0,0-.02-2.344q1.66,0,1.66-2.461,0-2.275-2.031-2.275a2.025,2.025,0,0,0-1.719.742Z" transform="translate(486 1243.614)" fill="#12263f"/>
    <g id="leer" transform="translate(312.947 1226.976)">
      <path id="Trazado_656303" data-name="Trazado 656303" d="M391.407,242.072h-.894l1.351-18.342h4.853a6.178,6.178,0,0,1,6.178,6.178v.676A11.488,11.488,0,0,1,391.407,242.072Z" transform="translate(-270.006 -178.7)" fill="#f9a58e"/>
      <path id="Trazado_656304" data-name="Trazado 656304" d="M71.457,242.072h.894L71,223.73H66.147a6.178,6.178,0,0,0-6.178,6.178v.676A11.488,11.488,0,0,0,71.457,242.072Z" transform="translate(-5.99 -178.7)" fill="#eaac9d"/>
      <path id="Trazado_656305" data-name="Trazado 656305" d="M168.668,426.9v-5.258c-5.155,3.526-10.848,5.546-14.706,5.546s-9.55-2.019-14.706-5.546V426.9a7.618,7.618,0,0,1-4.322,6.868l-6.215,2.982a.824.824,0,0,0,.357,1.568h49.773a.824.824,0,0,0,.357-1.568l-6.215-2.982A7.618,7.618,0,0,1,168.668,426.9Z" transform="translate(-60.529 -336.78)" fill="#ffcbbe"/>
      <path id="Trazado_656306" data-name="Trazado 656306" d="M170.2,75.5a28.876,28.876,0,1,0-57.6,0l1.963,26.66c1.035,14.056,18.363,23.8,26.835,23.8s25.8-9.741,26.835-23.8L170.2,75.5Z" transform="translate(-47.967 -35.548)" fill="#ffcbbe"/>
      <path id="Trazado_656307" data-name="Trazado 656307" d="M208.185,51.146a28.842,28.842,0,0,1,12.031,25.635l-1.963,26.66c-1.035,14.056-18.363,23.8-26.835,23.8a19.735,19.735,0,0,1-6.194-1.21c5.031,3.334,10.5,5.236,14.245,5.236,8.471,0,25.8-9.741,26.835-23.8l1.963-26.66A28.891,28.891,0,0,0,208.185,51.146Z" transform="translate(-106.035 -40.852)" fill="#eaac9d"/>
      <path id="Trazado_656308" data-name="Trazado 656308" d="M208.361,65.47h-32.1V32.5a5.032,5.032,0,0,0,5.032,5.032h27.065Z" transform="translate(-98.879 -25.959)" fill="#86f1a7"/>
      <path id="Trazado_656309" data-name="Trazado 656309" d="M208.361,17.564H181.3a5.032,5.032,0,1,1,0-10.064h27.065Z" transform="translate(-98.879 -5.99)" fill="#f1f4f6"/>
      <path id="Trazado_656310" data-name="Trazado 656310" d="M228.6,99.425H211.937a.674.674,0,0,1-.674-.674V93.174a.674.674,0,0,1,.674-.674H228.6a.674.674,0,0,1,.674.674v5.577A.674.674,0,0,1,228.6,99.425Z" transform="translate(-126.833 -73.882)" fill="#f1f4f6"/>
      <path id="Trazado_656311" data-name="Trazado 656311" d="M148.8,107.945a22.57,22.57,0,0,0-6.058,13.951,3.068,3.068,0,0,0,3.062,3.27h3.679V107.24Q149.139,107.584,148.8,107.945Z" transform="translate(-72.101 -85.656)" fill="#9dc6fb"/>
      <path id="Trazado_656312" data-name="Trazado 656312" d="M342.478,121.9a22.57,22.57,0,0,0-6.058-13.951q-.335-.361-.683-.705v17.927h3.679A3.068,3.068,0,0,0,342.478,121.9Z" transform="translate(-226.255 -85.656)" fill="#9dc6fb"/>
      <path id="Trazado_656313" data-name="Trazado 656313" d="M142.808,176.308q-.037.376-.063.755a3.068,3.068,0,0,0,3.062,3.27h3.679v-4.025Z" transform="translate(-72.101 -140.822)" fill="#80b4fb"/>
      <path id="Trazado_656314" data-name="Trazado 656314" d="M176.264,176.308h32.1v4.025h-32.1Z" transform="translate(-98.879 -140.822)" fill="#80e29d"/>
      <path id="Trazado_656315" data-name="Trazado 656315" d="M342.478,121.9a22.57,22.57,0,0,0-6.058-13.951q-.335-.361-.683-.705v6.337a22.628,22.628,0,0,1,.7,4.294,3.052,3.052,0,0,1-.7,2.164v5.132h3.679A3.068,3.068,0,0,0,342.478,121.9Z" transform="translate(-226.255 -85.656)" fill="#80b4fb"/>
      <g id="Grupo_948563" data-name="Grupo 948563" transform="translate(52.469 0)">
        <path id="Trazado_656316" data-name="Trazado 656316" d="M126.711,43.521h-3.228l.254-3.455A30.475,30.475,0,0,0,110.992,13.03V1.51A1.509,1.509,0,0,0,109.482,0H82.417a6.549,6.549,0,0,0-6.541,6.541V13.03A30.475,30.475,0,0,0,63.131,40.065l.254,3.455H60.157a7.7,7.7,0,0,0-7.688,7.688v.676A13.014,13.014,0,0,0,64.957,64.872l.136,1.853c.577,7.839,5.881,14.441,12.125,18.917v4.48a6.14,6.14,0,0,1-3.466,5.507l-6.215,2.982a2.334,2.334,0,0,0,1.01,4.438H118.32a2.334,2.334,0,0,0,1.01-4.438l-6.215-2.982a6.14,6.14,0,0,1-3.466-5.507V85.651a31.878,31.878,0,0,0,9.593-10.484,1.51,1.51,0,0,0-2.659-1.431C111.6,82.993,99.545,88.9,93.434,88.9c-8.754,0-24.419-10.035-25.329-22.4-.147-2,.144,1.95-1.963-26.66a27.451,27.451,0,0,1,9.734-23v4.125A24.01,24.01,0,0,0,69.138,36.14a4.581,4.581,0,0,0,4.568,4.88h39.455a4.581,4.581,0,0,0,4.568-4.88,24.332,24.332,0,0,0-.4-3.087,1.51,1.51,0,0,0-2.962.584,21.278,21.278,0,0,1,.354,2.7A1.557,1.557,0,0,1,113.161,38h-2.169V25.714q.56.805,1.042,1.654a1.51,1.51,0,1,0,2.626-1.49,24.722,24.722,0,0,0-3.668-4.912V16.841a27.452,27.452,0,0,1,9.734,23c-2.456,33.34-1.5,20.265-1.725,23.418-.256,3.474-.255,3.63-.361,4.368a1.51,1.51,0,1,0,2.989.427c.116-.811.129-1.123.281-3.184A13.013,13.013,0,0,0,134.4,51.885v-.676a7.7,7.7,0,0,0-7.688-7.688ZM106.63,87.607v2.516a9.175,9.175,0,0,0,5.179,8.229l3.5,1.68H71.559l3.5-1.68a9.175,9.175,0,0,0,5.179-8.229V87.6c4.708,2.762,9.6,4.316,13.2,4.316C97.1,91.92,102,90.313,106.63,87.607ZM55.488,51.884v-.676a4.674,4.674,0,0,1,4.669-4.669h3.45l1.127,15.3A9.992,9.992,0,0,1,55.488,51.884ZM82.417,3.019h25.556V4.83H82.417a1.51,1.51,0,0,0,0,3.019h25.556v2.214H82.417a3.522,3.522,0,0,1,0-7.044ZM77.385,32.372a1.51,1.51,0,0,0-1.51,1.51V38H73.706a1.558,1.558,0,0,1-1.556-1.661,20.882,20.882,0,0,1,3.725-10.63v1.127a1.51,1.51,0,1,0,3.019,0V12.051a6.5,6.5,0,0,0,3.522,1.031h25.556V38H78.895v-4.12a1.51,1.51,0,0,0-1.51-1.509ZM131.38,51.884a9.992,9.992,0,0,1-9.246,9.952l1.127-15.3h3.45a4.674,4.674,0,0,1,4.669,4.669v.676Z" transform="translate(-52.469 0)" fill="#222221"/>
        <path id="Trazado_656317" data-name="Trazado 656317" d="M183.812,239.8a1.51,1.51,0,0,0-1.51-1.51H170.274a1.51,1.51,0,0,0,0,3.019H182.3A1.51,1.51,0,0,0,183.812,239.8Z" transform="translate(-145.357 -190.328)" fill="#222221"/>
        <path id="Trazado_656318" data-name="Trazado 656318" d="M267.568,239.8a1.509,1.509,0,0,0-1.51-1.51h-8.009a5.536,5.536,0,0,0-5.529,5.529v7.92a2.513,2.513,0,0,1-2.51,2.51,1.51,1.51,0,0,0,0,3.019,5.536,5.536,0,0,0,5.529-5.529v-7.92a2.513,2.513,0,0,1,2.51-2.51h8.009a1.51,1.51,0,0,0,1.51-1.51Z" transform="translate(-209.045 -190.328)" fill="#222221"/>
        <path id="Trazado_656319" data-name="Trazado 656319" d="M205.947,94.944h16.661a2.186,2.186,0,0,0,2.183-2.183V87.183A2.186,2.186,0,0,0,222.608,85H205.947a2.186,2.186,0,0,0-2.183,2.183V92.76A2.186,2.186,0,0,0,205.947,94.944Zm.836-6.925h14.989v3.905H206.783Z" transform="translate(-173.313 -67.892)" fill="#222221"/>
        <path id="Trazado_656320" data-name="Trazado 656320" d="M228.972,153.4H214.8a1.51,1.51,0,1,0,0,3.019h14.174a1.51,1.51,0,0,0,0-3.019Z" transform="translate(-180.92 -122.528)" fill="#222221"/>
        <path id="Trazado_656321" data-name="Trazado 656321" d="M200.426,371.484l1.263.634a20.737,20.737,0,0,0,18.513,0l1.263-.634a1.509,1.509,0,1,0-1.354-2.7l-1.263.634a17.7,17.7,0,0,1-15.806,0l-1.263-.634a1.509,1.509,0,0,0-1.354,2.7Z" transform="translate(-169.981 -294.432)" fill="#222221"/>
      </g>
    </g>
  </g>
</svg>
