<svg xmlns="http://www.w3.org/2000/svg" width="888.367" height="217.367" viewBox="0 0 888.367 217.367">
  <g id="Grupo_949234" data-name="Grupo 949234" transform="translate(-325 -552.548)">
    <path id="Rectángulo_33996" data-name="Rectángulo 33996" d="M0,0H712.14a94,94,0,0,1,94,94v61.319a0,0,0,0,1,0,0H0a0,0,0,0,1,0,0V0A0,0,0,0,1,0,0Z" transform="translate(407.228 610.764)" fill="#e2e8e0"/>
    <line id="Línea_166" data-name="Línea 166" x1="845.518" transform="translate(347.248 767.915)" fill="none" stroke="#406834" stroke-linecap="round" stroke-width="4"/>
    <path id="Rectángulo_34645" data-name="Rectángulo 34645" d="M32,0H377.255a32,32,0,0,1,32,32V58.76a0,0,0,0,1,0,0H0a0,0,0,0,1,0,0V32A32,32,0,0,1,32,0Z" transform="translate(604.124 552.548)" fill="#ffb338"/>
    <path id="Trazado_658346" data-name="Trazado 658346" d="M37.848,22V16.775H33V22H28.785V8H33v5.186h4.844V8h4.219V22Zm10.186-3.818a1.405,1.405,0,0,0,.742,1.011,3.347,3.347,0,0,0,1.68.366A6.917,6.917,0,0,0,53.209,19v2.637a9.9,9.9,0,0,1-3.672.605,5.794,5.794,0,0,1-4.072-1.338,4.753,4.753,0,0,1-1.455-3.682,6.074,6.074,0,0,1,.64-2.842,4.6,4.6,0,0,1,1.895-1.929,5.6,5.6,0,0,1,2.769-.7,5.447,5.447,0,0,1,2.656.605,4.033,4.033,0,0,1,1.675,1.7,5.452,5.452,0,0,1,.571,2.559v1.563ZM50.533,16q0-1.729-1.24-1.729a1.049,1.049,0,0,0-.869.474A2.364,2.364,0,0,0,48.014,16Zm12.637-.439a4,4,0,0,0-1.3-.283q-2.061,0-2.061,2.383V22h-4.16V12h4.16v1.758h.039a3.123,3.123,0,0,1,1.084-1.44,2.785,2.785,0,0,1,1.641-.493,1.409,1.409,0,0,1,.6.117Zm8.721,0a4,4,0,0,0-1.3-.283q-2.061,0-2.061,2.383V22h-4.16V12h4.16v1.758h.039a3.123,3.123,0,0,1,1.084-1.44,2.785,2.785,0,0,1,1.641-.493,1.409,1.409,0,0,1,.6.117ZM78.639,22V20.477H78.6a3.272,3.272,0,0,1-3.047,1.768,2.917,2.917,0,0,1-2.217-.84,3.12,3.12,0,0,1-.8-2.246q0-2.949,3.623-3.418l2.48-.322a.946.946,0,0,0-.439-.8,2,2,0,0,0-1.182-.312,7.783,7.783,0,0,0-3.545.957V12.557A9.484,9.484,0,0,1,75.5,11.98a11.822,11.822,0,0,1,2.09-.225,5.247,5.247,0,0,1,3.7,1.089,4.853,4.853,0,0,1,1.147,3.638V22Zm-2.461-3.4a.922.922,0,0,0,.259.674.987.987,0,0,0,.737.264,1.311,1.311,0,0,0,1.06-.488,1.892,1.892,0,0,0,.405-1.25V17.42l-1.406.2Q76.178,17.791,76.178,18.6Zm21.1,3.4V16.238a1.838,1.838,0,0,0-.259-1.079.973.973,0,0,0-.845-.356,1.055,1.055,0,0,0-.9.435,1.989,1.989,0,0,0-.322,1.206V22H90.8V16.336q0-1.533-1.045-1.533a1.106,1.106,0,0,0-.957.444,2.148,2.148,0,0,0-.322,1.274V22h-4.16V12h4.16v1.582h.039a3.224,3.224,0,0,1,.747-.854,4.385,4.385,0,0,1,1.157-.7,3.594,3.594,0,0,1,1.4-.269,3.535,3.535,0,0,1,1.792.42A3.256,3.256,0,0,1,94.821,13.5a3.564,3.564,0,0,1,1.406-1.294,4.191,4.191,0,0,1,1.953-.454,2.939,2.939,0,0,1,2.412,1.025,4.566,4.566,0,0,1,.84,2.959V22ZM107.721,9.3a1.787,1.787,0,0,1-.64,1.426,2.5,2.5,0,0,1-1.685.547,2.441,2.441,0,0,1-1.665-.566,1.791,1.791,0,0,1-.649-1.406,1.734,1.734,0,0,1,.63-1.392,2.932,2.932,0,0,1,3.369,0A1.723,1.723,0,0,1,107.721,9.3Zm-4.4,12.7V12h4.16V22Zm9.746-3.818a1.405,1.405,0,0,0,.742,1.011,3.347,3.347,0,0,0,1.68.366A6.917,6.917,0,0,0,118.239,19v2.637a9.9,9.9,0,0,1-3.672.605,5.794,5.794,0,0,1-4.072-1.338,4.753,4.753,0,0,1-1.455-3.682,6.074,6.074,0,0,1,.64-2.842,4.6,4.6,0,0,1,1.895-1.929,5.6,5.6,0,0,1,2.769-.7,5.447,5.447,0,0,1,2.656.605,4.033,4.033,0,0,1,1.675,1.7,5.452,5.452,0,0,1,.571,2.559v1.563Zm2.5-2.178q0-1.729-1.24-1.729a1.049,1.049,0,0,0-.869.474,2.364,2.364,0,0,0-.41,1.255Zm11.6,6V16.541a2.427,2.427,0,0,0-.278-1.333,1.017,1.017,0,0,0-.9-.405.978.978,0,0,0-.84.42,1.792,1.792,0,0,0-.3,1.074V22h-4.16V12h4.16v1.563h.039a3.53,3.53,0,0,1,1.338-1.333,3.655,3.655,0,0,1,1.826-.474q3.281,0,3.281,4.141V22Zm13.076-.137a4.053,4.053,0,0,1-.928.259,8.482,8.482,0,0,1-1.553.122,3.73,3.73,0,0,1-2.72-.957,3.632,3.632,0,0,1-.981-2.725V14.881h-1.572V12h1.572V10.037l4.1-1.133V12h2.08v2.881h-2.08v3q0,1.318,1.045,1.318a2.835,2.835,0,0,0,1.035-.215Zm6.846.137V20.477h-.039A3.272,3.272,0,0,1,144,22.244a2.917,2.917,0,0,1-2.217-.84,3.12,3.12,0,0,1-.8-2.246q0-2.949,3.623-3.418l2.48-.322a.946.946,0,0,0-.439-.8,2,2,0,0,0-1.182-.312,7.783,7.783,0,0,0-3.545.957V12.557a9.484,9.484,0,0,1,2.031-.576,11.822,11.822,0,0,1,2.09-.225,5.247,5.247,0,0,1,3.7,1.089,4.853,4.853,0,0,1,1.147,3.638V22Zm-2.461-3.4a.922.922,0,0,0,.259.674.987.987,0,0,0,.737.264,1.311,1.311,0,0,0,1.06-.488,1.892,1.892,0,0,0,.405-1.25V17.42l-1.406.2Q144.625,17.791,144.625,18.6Zm16.26.078a3.054,3.054,0,0,1-1.294,2.632,6.082,6.082,0,0,1-3.608.933,12.546,12.546,0,0,1-1.665-.137,10.286,10.286,0,0,1-1.616-.332v-2.92a7.958,7.958,0,0,0,3.086.82q1.221,0,1.221-.635a.5.5,0,0,0-.283-.435,10.01,10.01,0,0,0-1.484-.571,4.192,4.192,0,0,1-1.934-1.113,2.647,2.647,0,0,1-.605-1.807,2.883,2.883,0,0,1,1.235-2.456,5.8,5.8,0,0,1,3.472-.9,11.035,11.035,0,0,1,2.773.381v2.8a8.387,8.387,0,0,0-1.348-.439,5.443,5.443,0,0,0-1.23-.176,1.339,1.339,0,0,0-.654.137.421.421,0,0,0-.244.381.531.531,0,0,0,.264.459,4.664,4.664,0,0,0,1.055.42,4.894,4.894,0,0,1,2.2,1.152A2.525,2.525,0,0,1,160.885,18.68Zm20.791-3.721a7.753,7.753,0,0,1-.908,3.774,6.475,6.475,0,0,1-2.539,2.588,7.672,7.672,0,0,1-7.241.029,6.324,6.324,0,0,1-2.515-2.51,7.4,7.4,0,0,1-.9-3.657,8.07,8.07,0,0,1,.908-3.848,6.452,6.452,0,0,1,2.549-2.642,7.414,7.414,0,0,1,3.73-.933,7.206,7.206,0,0,1,3.6.894,6.092,6.092,0,0,1,2.451,2.549A7.991,7.991,0,0,1,181.676,14.959Zm-4.473.117a4.861,4.861,0,0,0-.664-2.725,2.075,2.075,0,0,0-1.816-1,2.3,2.3,0,0,0-1.963.957,4.5,4.5,0,0,0-.7,2.705,4.452,4.452,0,0,0,.7,2.666,2.228,2.228,0,0,0,1.9.957,2.175,2.175,0,0,0,1.318-.43,2.752,2.752,0,0,0,.908-1.23A5.091,5.091,0,0,0,177.2,15.076Zm13.779-4.854a3.665,3.665,0,0,0-1.2-.225,1.338,1.338,0,0,0-1.025.356,1.355,1.355,0,0,0-.332.962V12h2.314v2.881h-2.314V22h-4.16V14.881h-1.68V12h1.68v-.918a4.065,4.065,0,0,1,.566-2.153,3.778,3.778,0,0,1,1.646-1.45,6.025,6.025,0,0,1,2.622-.518,7.118,7.118,0,0,1,1.885.215ZM196.3,9.3a1.787,1.787,0,0,1-.64,1.426,2.5,2.5,0,0,1-1.685.547,2.441,2.441,0,0,1-1.665-.566,1.791,1.791,0,0,1-.649-1.406,1.734,1.734,0,0,1,.63-1.392,2.932,2.932,0,0,1,3.369,0A1.723,1.723,0,0,1,196.3,9.3ZM191.9,22V12h4.16V22Zm19.131,0V16.238a1.838,1.838,0,0,0-.259-1.079.973.973,0,0,0-.845-.356,1.055,1.055,0,0,0-.9.435,1.989,1.989,0,0,0-.322,1.206V22h-4.16V16.336q0-1.533-1.045-1.533a1.106,1.106,0,0,0-.957.444,2.148,2.148,0,0,0-.322,1.274V22h-4.16V12h4.16v1.582h.039a3.224,3.224,0,0,1,.747-.854,4.385,4.385,0,0,1,1.157-.7,3.6,3.6,0,0,1,1.4-.269,3.535,3.535,0,0,1,1.792.42,3.256,3.256,0,0,1,1.216,1.328,3.564,3.564,0,0,1,1.406-1.294,4.191,4.191,0,0,1,1.953-.454,2.939,2.939,0,0,1,2.412,1.025,4.566,4.566,0,0,1,.84,2.959V22Zm11.582,0V20.477h-.039a3.272,3.272,0,0,1-3.047,1.768,2.917,2.917,0,0,1-2.217-.84,3.12,3.12,0,0,1-.8-2.246q0-2.949,3.623-3.418l2.48-.322a.946.946,0,0,0-.439-.8,2,2,0,0,0-1.182-.312,7.783,7.783,0,0,0-3.545.957V12.557a9.484,9.484,0,0,1,2.031-.576,11.822,11.822,0,0,1,2.09-.225,5.247,5.247,0,0,1,3.7,1.089,4.853,4.853,0,0,1,1.147,3.638V22Zm-2.461-3.4a.922.922,0,0,0,.259.674.987.987,0,0,0,.737.264,1.311,1.311,0,0,0,1.06-.488,1.892,1.892,0,0,0,.405-1.25V17.42l-1.406.2Q220.153,17.791,220.153,18.6ZM222,10.418h-2.939l2.92-3.135h3.5Zm13.33,11.445a4.053,4.053,0,0,1-.928.259,8.482,8.482,0,0,1-1.553.122,3.73,3.73,0,0,1-2.72-.957,3.632,3.632,0,0,1-.981-2.725V14.881h-1.572V12h1.572V10.037l4.1-1.133V12h2.08v2.881h-2.08v3q0,1.318,1.045,1.318a2.835,2.835,0,0,0,1.035-.215Zm5.7-12.559a1.787,1.787,0,0,1-.64,1.426,2.5,2.5,0,0,1-1.685.547,2.441,2.441,0,0,1-1.665-.566,1.791,1.791,0,0,1-.649-1.406,1.734,1.734,0,0,1,.63-1.392,2.932,2.932,0,0,1,3.369,0A1.723,1.723,0,0,1,241.031,9.3Zm-4.4,12.7V12h4.16V22Zm14.4-.283a3.921,3.921,0,0,1-1.26.381,11.91,11.91,0,0,1-1.982.146,6.1,6.1,0,0,1-2.827-.64,4.667,4.667,0,0,1-1.929-1.792,4.975,4.975,0,0,1-.684-2.588,5.667,5.667,0,0,1,.728-2.944,4.743,4.743,0,0,1,2.075-1.875,7.119,7.119,0,0,1,3.125-.649,10.933,10.933,0,0,1,1.753.127,2.678,2.678,0,0,1,1,.293v3.242a2.889,2.889,0,0,0-.9-.43,3.609,3.609,0,0,0-1.084-.186,2.639,2.639,0,0,0-1.851.581,2.114,2.114,0,0,0-.63,1.636,2.075,2.075,0,0,0,.62,1.606,2.419,2.419,0,0,0,1.7.571,4.244,4.244,0,0,0,2.139-.557Zm7.207.283V20.477H258.2a3.272,3.272,0,0,1-3.047,1.768,2.917,2.917,0,0,1-2.217-.84,3.12,3.12,0,0,1-.8-2.246q0-2.949,3.623-3.418l2.48-.322a.946.946,0,0,0-.439-.8,2,2,0,0,0-1.182-.312,7.783,7.783,0,0,0-3.545.957V12.557a9.484,9.484,0,0,1,2.031-.576,11.822,11.822,0,0,1,2.09-.225,5.247,5.247,0,0,1,3.7,1.089,4.853,4.853,0,0,1,1.147,3.638V22Zm-2.461-3.4a.922.922,0,0,0,.259.674.987.987,0,0,0,.737.264,1.311,1.311,0,0,0,1.06-.488,1.892,1.892,0,0,0,.405-1.25V17.42l-1.406.2Q255.778,17.791,255.778,18.6Zm16.26.078a3.054,3.054,0,0,1-1.294,2.632,6.082,6.082,0,0,1-3.608.933,12.546,12.546,0,0,1-1.665-.137,10.286,10.286,0,0,1-1.616-.332v-2.92a7.958,7.958,0,0,0,3.086.82q1.221,0,1.221-.635a.5.5,0,0,0-.283-.435,10.011,10.011,0,0,0-1.484-.571,4.192,4.192,0,0,1-1.934-1.113,2.647,2.647,0,0,1-.605-1.807,2.883,2.883,0,0,1,1.235-2.456,5.8,5.8,0,0,1,3.472-.9,11.035,11.035,0,0,1,2.773.381v2.8a8.387,8.387,0,0,0-1.348-.439,5.443,5.443,0,0,0-1.23-.176,1.339,1.339,0,0,0-.654.137.421.421,0,0,0-.244.381.531.531,0,0,0,.264.459,4.664,4.664,0,0,0,1.055.42,4.894,4.894,0,0,1,2.2,1.152A2.525,2.525,0,0,1,272.037,18.68Z" transform="translate(659.79 569.042)" fill="#12263f"/>
    <g id="Grupo_949206" data-name="Grupo 949206">
      <g id="Trazado_658205" data-name="Trazado 658205" transform="translate(325 564)" fill="#ffebcb">
        <path d="M 82.5 164.5 C 76.93608093261719 164.5 71.37579345703125 163.9394989013672 65.97360229492188 162.8340454101562 C 60.70898056030273 161.7567443847656 55.53049850463867 160.1492462158203 50.58206176757812 158.0562438964844 C 45.72333145141602 156.0011596679688 41.03704071044922 153.4575347900391 36.65337371826172 150.4959716796875 C 32.31122970581055 147.5624847412109 28.22804260253906 144.1935424804688 24.51725006103516 140.4827575683594 C 20.80645751953125 136.7719573974609 17.43752098083496 132.6887969970703 14.50402069091797 128.3466186523438 C 11.54247951507568 123.9629592895508 8.998833656311035 119.2766876220703 6.943770885467529 114.4179611206055 C 4.850749969482422 109.4694976806641 3.243249893188477 104.2910232543945 2.165958404541016 99.02639770507812 C 1.060500025749207 93.62420654296875 0.5 88.06391906738281 0.5 82.5 C 0.5 76.93608093261719 1.060500025749207 71.37579345703125 2.165958404541016 65.97360229492188 C 3.243249893188477 60.70898056030273 4.850749969482422 55.53049850463867 6.943770885467529 50.58206176757812 C 8.998833656311035 45.72333145141602 11.54247951507568 41.03704071044922 14.50402069091797 36.65337371826172 C 17.43752098083496 32.31122970581055 20.80645751953125 28.22804260253906 24.51725006103516 24.51725006103516 C 28.22804260253906 20.80645751953125 32.31122970581055 17.43752098083496 36.65337371826172 14.50402069091797 C 41.03704071044922 11.54247951507568 45.72333145141602 8.998833656311035 50.58206176757812 6.943770885467529 C 55.53049850463867 4.850749969482422 60.70898056030273 3.243249893188477 65.97360229492188 2.165958404541016 C 71.37579345703125 1.060500025749207 76.93608093261719 0.5 82.5 0.5 C 88.06391906738281 0.5 93.62420654296875 1.060500025749207 99.02639770507812 2.165958404541016 C 104.2910232543945 3.243249893188477 109.4694976806641 4.850749969482422 114.4179611206055 6.943770885467529 C 119.2766876220703 8.998833656311035 123.9629592895508 11.54247951507568 128.3466186523438 14.50402069091797 C 132.6887969970703 17.43752098083496 136.7719573974609 20.80645751953125 140.4827575683594 24.51725006103516 C 144.1935424804688 28.22804260253906 147.5624847412109 32.31122970581055 150.4959716796875 36.65337371826172 C 153.4575347900391 41.03704071044922 156.0011596679688 45.72333145141602 158.0562438964844 50.58206176757812 C 160.1492462158203 55.53049850463867 161.7567443847656 60.70898056030273 162.8340454101562 65.97360229492188 C 163.9394989013672 71.37579345703125 164.5 76.93608093261719 164.5 82.5 C 164.5 88.06391906738281 163.9394989013672 93.62420654296875 162.8340454101562 99.02639770507812 C 161.7567443847656 104.2910232543945 160.1492462158203 109.4694976806641 158.0562438964844 114.4179611206055 C 156.0011596679688 119.2766876220703 153.4575347900391 123.9629592895508 150.4959716796875 128.3466186523438 C 147.5624847412109 132.6887969970703 144.1935424804688 136.7719573974609 140.4827575683594 140.4827575683594 C 136.7719573974609 144.1935424804688 132.6887969970703 147.5624847412109 128.3466186523438 150.4959716796875 C 123.9629592895508 153.4575347900391 119.2766876220703 156.0011596679688 114.4179611206055 158.0562438964844 C 109.4694976806641 160.1492462158203 104.2910232543945 161.7567443847656 99.02639770507812 162.8340454101562 C 93.62420654296875 163.9394989013672 88.06391906738281 164.5 82.5 164.5 Z" stroke="none"/>
        <path d="M 82.5 1 C 76.96967315673828 1 71.44310760498047 1.557083129882812 66.07384490966797 2.655807495117188 C 60.84154510498047 3.72650146484375 55.69486999511719 5.324111938476562 50.77682495117188 7.404266357421875 C 45.94782257080078 9.446762084960938 41.29019927978516 11.974853515625 36.93325805664062 14.91831970214844 C 32.61747741699219 17.83399963378906 28.55908203125 21.1824951171875 24.87080383300781 24.87080383300781 C 21.1824951171875 28.55908203125 17.83399963378906 32.61747741699219 14.91831970214844 36.93325805664062 C 11.974853515625 41.29019927978516 9.446762084960938 45.94782257080078 7.404266357421875 50.77682495117188 C 5.324111938476562 55.69486999511719 3.72650146484375 60.84154510498047 2.655807495117188 66.07384490966797 C 1.557083129882812 71.44310760498047 1 76.96967315673828 1 82.5 C 1 88.03032684326172 1.557083129882812 93.55689239501953 2.655807495117188 98.92615509033203 C 3.72650146484375 104.1584548950195 5.324111938476562 109.3051300048828 7.404266357421875 114.2231750488281 C 9.446762084960938 119.0521697998047 11.974853515625 123.7098083496094 14.91831970214844 128.0667419433594 C 17.83399963378906 132.3825225830078 21.1824951171875 136.44091796875 24.87080383300781 140.1291961669922 C 28.55908203125 143.8175048828125 32.61747741699219 147.1660003662109 36.93325805664062 150.0816802978516 C 41.29019927978516 153.025146484375 45.94782257080078 155.5532379150391 50.77682495117188 157.5957336425781 C 55.69486999511719 159.6758880615234 60.84154510498047 161.2734985351562 66.07384490966797 162.3441925048828 C 71.44310760498047 163.4429168701172 76.96967315673828 164 82.5 164 C 88.03032684326172 164 93.55689239501953 163.4429168701172 98.92615509033203 162.3441925048828 C 104.1584548950195 161.2734985351562 109.3051300048828 159.6758880615234 114.2231750488281 157.5957336425781 C 119.0521697998047 155.5532379150391 123.7098083496094 153.025146484375 128.0667419433594 150.0816802978516 C 132.3825225830078 147.1660003662109 136.44091796875 143.8175048828125 140.1291961669922 140.1291961669922 C 143.8175048828125 136.44091796875 147.1660003662109 132.3825225830078 150.0816802978516 128.0667419433594 C 153.025146484375 123.7098083496094 155.5532379150391 119.0521697998047 157.5957336425781 114.2231750488281 C 159.6758880615234 109.3051300048828 161.2734985351562 104.1584548950195 162.3441925048828 98.92615509033203 C 163.4429168701172 93.55689239501953 164 88.03032684326172 164 82.5 C 164 76.96967315673828 163.4429168701172 71.44310760498047 162.3441925048828 66.07384490966797 C 161.2734985351562 60.84154510498047 159.6758880615234 55.69486999511719 157.5957336425781 50.77682495117188 C 155.5532379150391 45.94782257080078 153.025146484375 41.29019927978516 150.0816802978516 36.93325805664062 C 147.1660003662109 32.61747741699219 143.8175048828125 28.55908203125 140.1291961669922 24.87080383300781 C 136.44091796875 21.1824951171875 132.3825225830078 17.83399963378906 128.0667419433594 14.91831970214844 C 123.7098083496094 11.974853515625 119.0521697998047 9.446762084960938 114.2231750488281 7.404266357421875 C 109.3051300048828 5.324111938476562 104.1584548950195 3.72650146484375 98.92615509033203 2.655807495117188 C 93.55689239501953 1.557083129882812 88.03032684326172 1 82.5 1 M 82.5 0 C 128.0635070800781 0 165 36.93649291992188 165 82.5 C 165 128.0635070800781 128.0635070800781 165 82.5 165 C 36.93649291992188 165 0 128.0635070800781 0 82.5 C 0 36.93649291992188 36.93649291992188 0 82.5 0 Z" stroke="none" fill="#eb6f2d"/>
      </g>
      <g id="Page-1" transform="translate(357.744 594.635)">
        <g id="_039---Positive-Interactions" data-name="039---Positive-Interactions" transform="translate(-0.001 -0.02)">
          <g id="Icons_copy" transform="translate(1.72 1.741)">
            <path id="Shape" d="M66.605,40.8a26.691,26.691,0,0,1-.533,5.281,26.171,26.171,0,0,1-3.458,8.5,25.006,25.006,0,0,1-3.87,4.73v.017a25.78,25.78,0,0,1-12.66,6.743,26.693,26.693,0,0,1-5.281.533A25.811,25.811,0,0,1,15,40.8a26.692,26.692,0,0,1,.533-5.281A25.959,25.959,0,0,1,35.522,15.533,26.692,26.692,0,0,1,40.8,15a25.811,25.811,0,0,1,25.8,25.8Z" transform="translate(9.084 9.097)" fill="#ade89b"/>
            <path id="Shape-2" data-name="Shape" d="M31.089,15c-.86,0-1.72.048-2.56.131A25.816,25.816,0,0,1,51.731,40.8a26.691,26.691,0,0,1-.533,5.281,26.171,26.171,0,0,1-3.458,8.5,25.006,25.006,0,0,1-3.87,4.73v.017a25.78,25.78,0,0,1-12.66,6.743c-.889.172-1.8.311-2.721.4.86.084,1.72.131,2.6.131a26.691,26.691,0,0,0,5.281-.533,25.78,25.78,0,0,0,12.66-6.743v-.017a25.006,25.006,0,0,0,3.87-4.73,26.171,26.171,0,0,0,3.458-8.5,26.692,26.692,0,0,0,.533-5.281A25.811,25.811,0,0,0,31.089,15Z" transform="translate(18.798 9.097)" fill="#549414"/>
            <circle id="Oval" cx="10.321" cy="10.321" r="10.321" transform="translate(12.043 6.895)" fill="#ffe0b2"/>
            <path id="Shape-3" data-name="Shape" d="M15.08,5a10.292,10.292,0,0,0-2.58.344,10.307,10.307,0,0,1,0,19.964A10.321,10.321,0,1,0,15.08,5Z" transform="translate(7.284 1.895)" fill="#dfc49c"/>
            <path id="Shape-4" data-name="Shape" d="M45.725,23.368a19.57,19.57,0,0,1-.12,2.253,25.646,25.646,0,0,0-11.646,5.814A10.177,10.177,0,0,0,26.8,28.529h-3.44A10.321,10.321,0,1,0,13.042,18.208,10.321,10.321,0,0,0,23.363,28.529h-3.44A10.321,10.321,0,0,0,9.6,38.85v2.133A22.362,22.362,0,1,1,45.725,23.368Z" transform="translate(-0.999 -0.992)" fill="#00bcd4"/>
            <path id="Shape-5" data-name="Shape" d="M15.08,1a22.417,22.417,0,0,0-2.58.16,22.362,22.362,0,0,1,19.782,22.2,19.571,19.571,0,0,1-.12,2.253,25.7,25.7,0,0,0-9.2,3.924,10.1,10.1,0,0,1,2.714,1.892,25.646,25.646,0,0,1,11.646-5.814,19.57,19.57,0,0,0,.12-2.255A22.362,22.362,0,0,0,15.08,1Z" transform="translate(7.284 -0.986)" fill="#00838f"/>
            <path id="Shape-6" data-name="Shape" d="M30.358,19.907a25.677,25.677,0,0,0-8.343,14.174,19.571,19.571,0,0,1-2.253.12A22.19,22.19,0,0,1,6,29.454V27.321A10.321,10.321,0,0,1,16.321,17H23.2A10.177,10.177,0,0,1,30.358,19.907Z" transform="translate(2.602 10.537)" fill="#ef314c"/>
            <path id="Shape-7" data-name="Shape" d="M18.648,17H13.488a10.177,10.177,0,0,1,7.156,2.907A25.663,25.663,0,0,0,12.323,34a22.458,22.458,0,0,0,2.885.2,19.57,19.57,0,0,0,2.253-.12A25.677,25.677,0,0,1,25.8,19.907,10.177,10.177,0,0,0,18.648,17Z" transform="translate(7.156 10.537)" fill="#bb193b"/>
            <path id="Shape-8" data-name="Shape" d="M55.362,54.927h-3.44A10.321,10.321,0,0,0,41.6,65.248v2.133A22.3,22.3,0,0,1,33,49.767a19.569,19.569,0,0,1,.12-2.253,25.78,25.78,0,0,0,12.66-6.743,10.149,10.149,0,0,0-.74,3.836A10.321,10.321,0,0,0,55.362,54.927Z" transform="translate(22.047 27.656)" fill="#00bcd4"/>
            <path id="Shape-9" data-name="Shape" d="M60.642,47.321a10.321,10.321,0,1,1-20.642,0,10.149,10.149,0,0,1,.74-3.836v-.017a25.006,25.006,0,0,0,3.87-4.73A10.173,10.173,0,0,1,50.321,37,10.321,10.321,0,0,1,60.642,47.321Z" transform="translate(27.088 24.94)" fill="#ffe0b2"/>
            <path id="Shape-10" data-name="Shape" d="M47.08,37a10.17,10.17,0,0,0-2.554.344A10.307,10.307,0,0,1,44.5,57.3,10.321,10.321,0,1,0,47.08,37Z" transform="translate(30.329 24.94)" fill="#dfc49c"/>
            <path id="Shape-11" data-name="Shape" d="M70.753,55.362a22.3,22.3,0,0,1-8.6,17.615V70.844A10.321,10.321,0,0,0,51.831,60.523h-3.44a10.321,10.321,0,1,0,0-20.642,10.173,10.173,0,0,0-5.711,1.737,26.171,26.171,0,0,0,3.458-8.5A19.57,19.57,0,0,1,48.391,33,22.362,22.362,0,0,1,70.753,55.362Z" transform="translate(29.018 22.06)" fill="#00bcd4"/>
            <path id="Shape-12" data-name="Shape" d="M46.953,33a19.569,19.569,0,0,0-2.253.12.4.4,0,0,1-.022.086A22.309,22.309,0,0,1,60.281,67.9a10.281,10.281,0,0,1,.433,2.945v2.133A22.362,22.362,0,0,0,46.953,33Z" transform="translate(30.457 22.06)" fill="#00838f"/>
            <path id="Shape-13" data-name="Shape" d="M65.523,59.321v2.133a22.318,22.318,0,0,1-27.523,0V59.321A10.321,10.321,0,0,1,48.321,49H55.2A10.321,10.321,0,0,1,65.523,59.321Z" transform="translate(25.648 33.583)" fill="#ff9801"/>
            <path id="Shape-14" data-name="Shape" d="M50.521,49H45.36A10.321,10.321,0,0,1,55.681,59.321v2.133A22.159,22.159,0,0,1,44.5,66.03a21.852,21.852,0,0,0,16.342-4.576V59.321A10.321,10.321,0,0,0,50.521,49Z" transform="translate(30.329 33.583)" fill="#f57c00"/>
          </g>
          <g id="Icons">
            <path id="Shape-15" data-name="Shape" d="M42.7,26.5,30.152,39.04l-2.224-2.224A1.72,1.72,0,0,0,25.5,39.249l3.44,3.44a1.72,1.72,0,0,0,2.432,0L45.129,28.927A1.72,1.72,0,0,0,42.7,26.5Z" transform="translate(16.295 17.048)"/>
            <path id="Shape-16" data-name="Shape" d="M80.129,56.06H79.89A27.351,27.351,0,0,0,49.166,25.336V25.1A24.082,24.082,0,1,0,10.1,43.916c.028.029.067.045.1.072a24.048,24.048,0,0,0,7.3,3.956c.034.015.071.026.107.04a23.972,23.972,0,0,0,7.481,1.2h.239A27.351,27.351,0,0,0,56.046,79.9v.239a24.039,24.039,0,0,0,9.1,18.819c.028.029.067.045.1.072a24.048,24.048,0,0,0,7.3,3.956c.034.015.071.026.107.04a23.842,23.842,0,0,0,14.966,0c.036-.014.072-.024.107-.04a24.019,24.019,0,0,0,7.3-3.956c.031-.028.071-.043.1-.072a24.06,24.06,0,0,0-14.99-42.9Zm0,27.523a8.558,8.558,0,0,1-8.085-11.5A27.6,27.6,0,0,0,75.6,67.7a8.468,8.468,0,0,1,4.531-1.314,8.6,8.6,0,0,1,0,17.2ZM4.441,25.1a20.642,20.642,0,0,1,41.284,0c0,.322-.01.619-.022.912a27.4,27.4,0,0,0-9.992,4.937,11.762,11.762,0,0,0-3.046-1.66,12.041,12.041,0,1,0-15.156,0,12.06,12.06,0,0,0-7.768,9.573A20.539,20.539,0,0,1,4.441,25.1Zm12.041-5.161a8.6,8.6,0,1,1,8.6,8.6A8.6,8.6,0,0,1,16.482,19.937Zm8.6,25.8a20.515,20.515,0,0,1-5.161-.679V40.579a1.72,1.72,0,1,0-3.44,0v3.268a20.642,20.642,0,0,1-3.44-2.009V40.579a8.611,8.611,0,0,1,8.6-8.6h6.881a8.468,8.468,0,0,1,4.526,1.306A27.5,27.5,0,0,0,26,45.717c-.3.012-.593.022-.913.022Zm3.44,6.881A24.082,24.082,0,1,1,52.606,76.7,24.082,24.082,0,0,1,28.523,52.62ZM59.487,80.143c0-.322.01-.619.022-.912a27.337,27.337,0,0,0,8.6-3.888,12.021,12.021,0,0,0,4.45,8.986A12.06,12.06,0,0,0,64.785,93.9,20.539,20.539,0,0,1,59.487,80.143ZM74.968,100.1V95.624a1.72,1.72,0,0,0-3.44,0v3.268a20.642,20.642,0,0,1-3.44-2.009V95.624a8.611,8.611,0,0,1,8.6-8.6h6.881a8.611,8.611,0,0,1,8.6,8.6v1.251a20.643,20.643,0,0,1-3.44,2.018V95.624a1.72,1.72,0,0,0-3.44,0V100.1a19.937,19.937,0,0,1-10.321,0Zm20.5-6.193A12.06,12.06,0,0,0,87.7,84.33a12.041,12.041,0,0,0-7.569-21.389,11.857,11.857,0,0,0-2.1.2,27.456,27.456,0,0,0,1.189-3.623c.294-.012.592-.022.912-.022A20.608,20.608,0,0,1,95.473,93.9Z" transform="translate(-0.999 -0.98)"/>
            <path id="Shape-17" data-name="Shape" d="M40.1,2.5a1.72,1.72,0,0,0-2.432,0L32.5,7.664a1.72,1.72,0,0,0,0,2.432l5.161,5.161A1.72,1.72,0,0,0,40.1,12.825l-2.14-2.14a41.332,41.332,0,0,1,38.768,41.2,1.72,1.72,0,0,0,3.44,0A44.78,44.78,0,0,0,37.809,7.224L40.1,4.936a1.72,1.72,0,0,0,0-2.432Z" transform="translate(21.327 -0.245)"/>
            <path id="Shape-18" data-name="Shape" d="M5.44,31.72a1.72,1.72,0,0,0-3.44,0A44.78,44.78,0,0,0,44.356,76.381l-2.288,2.288A1.72,1.72,0,1,0,44.5,81.1l5.161-5.161a1.72,1.72,0,0,0,0-2.432L44.5,68.348a1.72,1.72,0,0,0-2.432,2.432l2.14,2.14A41.332,41.332,0,0,1,5.44,31.72Z" transform="translate(-0.278 19.92)"/>
          </g>
        </g>
      </g>
      <g id="Trazado_658207" data-name="Trazado 658207" transform="translate(459 581)" fill="#ffb338">
        <path d="M 25.5 50.5 C 22.12479972839355 50.5 18.850830078125 49.83906936645508 15.76902961730957 48.53557968139648 C 12.79209995269775 47.27645111083984 10.11845016479492 45.47378921508789 7.822329998016357 43.17766952514648 C 5.526209831237793 40.88154983520508 3.723550081253052 38.20790100097656 2.464420080184937 35.2309684753418 C 1.160930037498474 32.149169921875 0.5 28.87520027160645 0.5 25.5 C 0.5 22.12479972839355 1.160930037498474 18.850830078125 2.464420080184937 15.76902961730957 C 3.723550081253052 12.79209995269775 5.526209831237793 10.11845016479492 7.822329998016357 7.822329998016357 C 10.11845016479492 5.526209831237793 12.79209995269775 3.723550081253052 15.76902961730957 2.464420080184937 C 18.850830078125 1.160930037498474 22.12479972839355 0.5 25.5 0.5 C 28.87520027160645 0.5 32.149169921875 1.160930037498474 35.2309684753418 2.464420080184937 C 38.20790100097656 3.723550081253052 40.88154983520508 5.526209831237793 43.17766952514648 7.822329998016357 C 45.47378921508789 10.11845016479492 47.27645111083984 12.79209995269775 48.53557968139648 15.76902961730957 C 49.83906936645508 18.850830078125 50.5 22.12479972839355 50.5 25.5 C 50.5 28.87520027160645 49.83906936645508 32.149169921875 48.53557968139648 35.2309684753418 C 47.27645111083984 38.20790100097656 45.47378921508789 40.88154983520508 43.17766952514648 43.17766952514648 C 40.88154983520508 45.47378921508789 38.20790100097656 47.27645111083984 35.2309684753418 48.53557968139648 C 32.149169921875 49.83906936645508 28.87520027160645 50.5 25.5 50.5 Z" stroke="none"/>
        <path d="M 25.5 1 C 22.19207954406738 1 18.98363876342773 1.647640228271484 15.96379852294922 2.924919128417969 C 13.04647827148438 4.158840179443359 10.42623901367188 5.925521850585938 8.175880432128906 8.175880432128906 C 5.925521850585938 10.42623901367188 4.158840179443359 13.04647827148438 2.924919128417969 15.96379852294922 C 1.647640228271484 18.98363876342773 1 22.19207954406738 1 25.5 C 1 28.80792045593262 1.647640228271484 32.016357421875 2.924919128417969 35.03620147705078 C 4.158840179443359 37.95352172851562 5.925521850585938 40.57376098632812 8.175880432128906 42.82411956787109 C 10.42623901367188 45.07447814941406 13.04647827148438 46.84115982055664 15.96379852294922 48.07508087158203 C 18.98363876342773 49.35235977172852 22.19207954406738 50 25.5 50 C 28.80792045593262 50 32.016357421875 49.35235977172852 35.03620147705078 48.07508087158203 C 37.95352172851562 46.84115982055664 40.57376098632812 45.07447814941406 42.82411956787109 42.82411956787109 C 45.07447814941406 40.57376098632812 46.84115982055664 37.95352172851562 48.07508087158203 35.03620147705078 C 49.35235977172852 32.016357421875 50 28.80792045593262 50 25.5 C 50 22.19207954406738 49.35235977172852 18.98363876342773 48.07508087158203 15.96379852294922 C 46.84115982055664 13.04647827148438 45.07447814941406 10.42623901367188 42.82411956787109 8.175880432128906 C 40.57376098632812 5.925521850585938 37.95352172851562 4.158840179443359 35.03620147705078 2.924919128417969 C 32.016357421875 1.647640228271484 28.80792045593262 1 25.5 1 M 25.5 0 C 39.58325958251953 0 51 11.41674041748047 51 25.5 C 51 39.58325958251953 39.58325958251953 51 25.5 51 C 11.41674041748047 51 0 39.58325958251953 0 25.5 C 0 11.41674041748047 11.41674041748047 0 25.5 0 Z" stroke="none" fill="#eb6f2d"/>
      </g>
      <path id="Trazado_658206" data-name="Trazado 658206" d="M2.373,0h-3.3V-10.508l-3.242.947v-2.5l6.24-2.158h.3Z" transform="translate(486 611.614)" fill="#12263f"/>
    </g>
  </g>
</svg>
