<svg xmlns="http://www.w3.org/2000/svg" width="955.228" height="196.894" viewBox="0 0 955.228 196.894">
  <g id="Grupo_949237" data-name="Grupo 949237" transform="translate(-347.248 -1046)">
    <path id="Rectángulo_33999" data-name="Rectángulo 33999" d="M0,0H888.609a0,0,0,0,1,0,0V155.321a0,0,0,0,1,0,0H94a94,94,0,0,1-94-94V0A0,0,0,0,1,0,0Z" transform="translate(347.248 1083.933)" fill="#fff4e1"/>
    <line id="Línea_168" data-name="Línea 168" x1="890.139" transform="translate(410.336 1240.894)" fill="none" stroke="#406834" stroke-linecap="round" stroke-width="4"/>
    <g id="Grupo_949209" data-name="Grupo 949209">
      <g id="Trazado_658213" data-name="Trazado 658213" transform="translate(1115 1046)" fill="#ffebcb">
        <path d="M 82.5 164.5 C 76.93608093261719 164.5 71.37579345703125 163.9394989013672 65.97360229492188 162.8340454101562 C 60.70898056030273 161.7567443847656 55.53049850463867 160.1492462158203 50.58206176757812 158.0562438964844 C 45.72333145141602 156.0011596679688 41.03704071044922 153.4575347900391 36.65337371826172 150.4959716796875 C 32.31122970581055 147.5624847412109 28.22804260253906 144.1935424804688 24.51725006103516 140.4827575683594 C 20.80645751953125 136.7719573974609 17.43752098083496 132.6887969970703 14.50402069091797 128.3466186523438 C 11.54247951507568 123.9629592895508 8.998833656311035 119.2766876220703 6.943770885467529 114.4179611206055 C 4.850749969482422 109.4694976806641 3.243249893188477 104.2910232543945 2.165958404541016 99.02639770507812 C 1.060500025749207 93.62420654296875 0.5 88.06391906738281 0.5 82.5 C 0.5 76.93608093261719 1.060500025749207 71.37579345703125 2.165958404541016 65.97360229492188 C 3.243249893188477 60.70898056030273 4.850749969482422 55.53049850463867 6.943770885467529 50.58206176757812 C 8.998833656311035 45.72333145141602 11.54247951507568 41.03704071044922 14.50402069091797 36.65337371826172 C 17.43752098083496 32.31122970581055 20.80645751953125 28.22804260253906 24.51725006103516 24.51725006103516 C 28.22804260253906 20.80645751953125 32.31122970581055 17.43752098083496 36.65337371826172 14.50402069091797 C 41.03704071044922 11.54247951507568 45.72333145141602 8.998833656311035 50.58206176757812 6.943770885467529 C 55.53049850463867 4.850749969482422 60.70898056030273 3.243249893188477 65.97360229492188 2.165958404541016 C 71.37579345703125 1.060500025749207 76.93608093261719 0.5 82.5 0.5 C 88.06391906738281 0.5 93.62420654296875 1.060500025749207 99.02639770507812 2.165958404541016 C 104.2910232543945 3.243249893188477 109.4694976806641 4.850749969482422 114.4179611206055 6.943770885467529 C 119.2766876220703 8.998833656311035 123.9629592895508 11.54247951507568 128.3466186523438 14.50402069091797 C 132.6887969970703 17.43752098083496 136.7719573974609 20.80645751953125 140.4827575683594 24.51725006103516 C 144.1935424804688 28.22804260253906 147.5624847412109 32.31122970581055 150.4959716796875 36.65337371826172 C 153.4575347900391 41.03704071044922 156.0011596679688 45.72333145141602 158.0562438964844 50.58206176757812 C 160.1492462158203 55.53049850463867 161.7567443847656 60.70898056030273 162.8340454101562 65.97360229492188 C 163.9394989013672 71.37579345703125 164.5 76.93608093261719 164.5 82.5 C 164.5 88.06391906738281 163.9394989013672 93.62420654296875 162.8340454101562 99.02639770507812 C 161.7567443847656 104.2910232543945 160.1492462158203 109.4694976806641 158.0562438964844 114.4179611206055 C 156.0011596679688 119.2766876220703 153.4575347900391 123.9629592895508 150.4959716796875 128.3466186523438 C 147.5624847412109 132.6887969970703 144.1935424804688 136.7719573974609 140.4827575683594 140.4827575683594 C 136.7719573974609 144.1935424804688 132.6887969970703 147.5624847412109 128.3466186523438 150.4959716796875 C 123.9629592895508 153.4575347900391 119.2766876220703 156.0011596679688 114.4179611206055 158.0562438964844 C 109.4694976806641 160.1492462158203 104.2910232543945 161.7567443847656 99.02639770507812 162.8340454101562 C 93.62420654296875 163.9394989013672 88.06391906738281 164.5 82.5 164.5 Z" stroke="none"/>
        <path d="M 82.5 1 C 76.96967315673828 1 71.44310760498047 1.557083129882812 66.07384490966797 2.655807495117188 C 60.84154510498047 3.72650146484375 55.69486999511719 5.324111938476562 50.77682495117188 7.404266357421875 C 45.94782257080078 9.446762084960938 41.29019927978516 11.974853515625 36.93325805664062 14.91831970214844 C 32.61747741699219 17.83399963378906 28.55908203125 21.1824951171875 24.87080383300781 24.87080383300781 C 21.1824951171875 28.55908203125 17.83399963378906 32.61747741699219 14.91831970214844 36.93325805664062 C 11.974853515625 41.29019927978516 9.446762084960938 45.94782257080078 7.404266357421875 50.77682495117188 C 5.324111938476562 55.69486999511719 3.72650146484375 60.84154510498047 2.655807495117188 66.07384490966797 C 1.557083129882812 71.44310760498047 1 76.96967315673828 1 82.5 C 1 88.03032684326172 1.557083129882812 93.55689239501953 2.655807495117188 98.92615509033203 C 3.72650146484375 104.1584548950195 5.324111938476562 109.3051300048828 7.404266357421875 114.2231750488281 C 9.446762084960938 119.0521697998047 11.974853515625 123.7098083496094 14.91831970214844 128.0667419433594 C 17.83399963378906 132.3825225830078 21.1824951171875 136.44091796875 24.87080383300781 140.1291961669922 C 28.55908203125 143.8175048828125 32.61747741699219 147.1660003662109 36.93325805664062 150.0816802978516 C 41.29019927978516 153.025146484375 45.94782257080078 155.5532379150391 50.77682495117188 157.5957336425781 C 55.69486999511719 159.6758880615234 60.84154510498047 161.2734985351562 66.07384490966797 162.3441925048828 C 71.44310760498047 163.4429168701172 76.96967315673828 164 82.5 164 C 88.03032684326172 164 93.55689239501953 163.4429168701172 98.92615509033203 162.3441925048828 C 104.1584548950195 161.2734985351562 109.3051300048828 159.6758880615234 114.2231750488281 157.5957336425781 C 119.0521697998047 155.5532379150391 123.7098083496094 153.025146484375 128.0667419433594 150.0816802978516 C 132.3825225830078 147.1660003662109 136.44091796875 143.8175048828125 140.1291961669922 140.1291961669922 C 143.8175048828125 136.44091796875 147.1660003662109 132.3825225830078 150.0816802978516 128.0667419433594 C 153.025146484375 123.7098083496094 155.5532379150391 119.0521697998047 157.5957336425781 114.2231750488281 C 159.6758880615234 109.3051300048828 161.2734985351562 104.1584548950195 162.3441925048828 98.92615509033203 C 163.4429168701172 93.55689239501953 164 88.03032684326172 164 82.5 C 164 76.96967315673828 163.4429168701172 71.44310760498047 162.3441925048828 66.07384490966797 C 161.2734985351562 60.84154510498047 159.6758880615234 55.69486999511719 157.5957336425781 50.77682495117188 C 155.5532379150391 45.94782257080078 153.025146484375 41.29019927978516 150.0816802978516 36.93325805664062 C 147.1660003662109 32.61747741699219 143.8175048828125 28.55908203125 140.1291961669922 24.87080383300781 C 136.44091796875 21.1824951171875 132.3825225830078 17.83399963378906 128.0667419433594 14.91831970214844 C 123.7098083496094 11.974853515625 119.0521697998047 9.446762084960938 114.2231750488281 7.404266357421875 C 109.3051300048828 5.324111938476562 104.1584548950195 3.72650146484375 98.92615509033203 2.655807495117188 C 93.55689239501953 1.557083129882812 88.03032684326172 1 82.5 1 M 82.5 0 C 128.0635070800781 0 165 36.93649291992188 165 82.5 C 165 128.0635070800781 128.0635070800781 165 82.5 165 C 36.93649291992188 165 0 128.0635070800781 0 82.5 C 0 36.93649291992188 36.93649291992188 0 82.5 0 Z" stroke="none" fill="#eb6f2d"/>
      </g>
      <g id="Trazado_658215" data-name="Trazado 658215" transform="translate(1249 1063)" fill="#ffb338">
        <path d="M 25.5 50.5 C 22.12479972839355 50.5 18.850830078125 49.83906936645508 15.76902961730957 48.53557968139648 C 12.79209995269775 47.27645111083984 10.11845016479492 45.47378921508789 7.822329998016357 43.17766952514648 C 5.526209831237793 40.88154983520508 3.723550081253052 38.20790100097656 2.464420080184937 35.2309684753418 C 1.160930037498474 32.149169921875 0.5 28.87520027160645 0.5 25.5 C 0.5 22.12479972839355 1.160930037498474 18.850830078125 2.464420080184937 15.76902961730957 C 3.723550081253052 12.79209995269775 5.526209831237793 10.11845016479492 7.822329998016357 7.822329998016357 C 10.11845016479492 5.526209831237793 12.79209995269775 3.723550081253052 15.76902961730957 2.464420080184937 C 18.850830078125 1.160930037498474 22.12479972839355 0.5 25.5 0.5 C 28.87520027160645 0.5 32.149169921875 1.160930037498474 35.2309684753418 2.464420080184937 C 38.20790100097656 3.723550081253052 40.88154983520508 5.526209831237793 43.17766952514648 7.822329998016357 C 45.47378921508789 10.11845016479492 47.27645111083984 12.79209995269775 48.53557968139648 15.76902961730957 C 49.83906936645508 18.850830078125 50.5 22.12479972839355 50.5 25.5 C 50.5 28.87520027160645 49.83906936645508 32.149169921875 48.53557968139648 35.2309684753418 C 47.27645111083984 38.20790100097656 45.47378921508789 40.88154983520508 43.17766952514648 43.17766952514648 C 40.88154983520508 45.47378921508789 38.20790100097656 47.27645111083984 35.2309684753418 48.53557968139648 C 32.149169921875 49.83906936645508 28.87520027160645 50.5 25.5 50.5 Z" stroke="none"/>
        <path d="M 25.5 1 C 22.19207954406738 1 18.98363876342773 1.647640228271484 15.96379852294922 2.924919128417969 C 13.04647827148438 4.158840179443359 10.42623901367188 5.925521850585938 8.175880432128906 8.175880432128906 C 5.925521850585938 10.42623901367188 4.158840179443359 13.04647827148438 2.924919128417969 15.96379852294922 C 1.647640228271484 18.98363876342773 1 22.19207954406738 1 25.5 C 1 28.80792045593262 1.647640228271484 32.016357421875 2.924919128417969 35.03620147705078 C 4.158840179443359 37.95352172851562 5.925521850585938 40.57376098632812 8.175880432128906 42.82411956787109 C 10.42623901367188 45.07447814941406 13.04647827148438 46.84115982055664 15.96379852294922 48.07508087158203 C 18.98363876342773 49.35235977172852 22.19207954406738 50 25.5 50 C 28.80792045593262 50 32.016357421875 49.35235977172852 35.03620147705078 48.07508087158203 C 37.95352172851562 46.84115982055664 40.57376098632812 45.07447814941406 42.82411956787109 42.82411956787109 C 45.07447814941406 40.57376098632812 46.84115982055664 37.95352172851562 48.07508087158203 35.03620147705078 C 49.35235977172852 32.016357421875 50 28.80792045593262 50 25.5 C 50 22.19207954406738 49.35235977172852 18.98363876342773 48.07508087158203 15.96379852294922 C 46.84115982055664 13.04647827148438 45.07447814941406 10.42623901367188 42.82411956787109 8.175880432128906 C 40.57376098632812 5.925521850585938 37.95352172851562 4.158840179443359 35.03620147705078 2.924919128417969 C 32.016357421875 1.647640228271484 28.80792045593262 1 25.5 1 M 25.5 0 C 39.58325958251953 0 51 11.41674041748047 51 25.5 C 51 39.58325958251953 39.58325958251953 51 25.5 51 C 11.41674041748047 51 0 39.58325958251953 0 25.5 C 0 11.41674041748047 11.41674041748047 0 25.5 0 Z" stroke="none" fill="#eb6f2d"/>
      </g>
      <path id="Trazado_658214" data-name="Trazado 658214" d="M3.77-5.557H5.215v2.539H3.77V0H.479V-3.018h-5.5l-.2-2.012,5.693-9.16v-.029H3.77Zm-5.85,0H.479V-9.932L.273-9.6Z" transform="translate(1276 1093.614)" fill="#12263f"/>
      <g id="carpeta_1_" data-name="carpeta (1)" transform="translate(1136.472 1087.1)">
        <path id="Trazado_656281" data-name="Trazado 656281" d="M154.833,253.827H129.744a2.922,2.922,0,0,1-2.066-.856l-3.7-3.7a4.383,4.383,0,0,0-3.1-1.284h-12.8a4.383,4.383,0,0,0-4.383,4.383v37.988a4.383,4.383,0,0,0,4.383,4.383h46.755a4.383,4.383,0,0,0,4.383-4.383V258.211a4.383,4.383,0,0,0-4.383-4.383Z" transform="translate(-71.685 -202.784)" fill="#ffe09f"/>
        <path id="Trazado_656282" data-name="Trazado 656282" d="M158.947,290.356H115.383a7.314,7.314,0,0,1-7.305-7.306V247.984a4.383,4.383,0,0,0-4.383,4.383v37.988a4.383,4.383,0,0,0,4.383,4.383h46.755a4.383,4.383,0,0,0,4.383-4.383h-.268Z" transform="translate(-71.684 -202.784)" fill="#f6d190"/>
        <path id="Trazado_656283" data-name="Trazado 656283" d="M163.282,344.182l10.049-30.146a1.461,1.461,0,0,0-1.386-1.923H121.61a4.383,4.383,0,0,0-4.158,3l-10.006,30.017a4.37,4.37,0,0,0,3.7,2.052h47.979A4.384,4.384,0,0,0,163.282,344.182Z" transform="translate(-74.752 -255.225)" fill="#ecbd83"/>
        <path id="Trazado_656284" data-name="Trazado 656284" d="M36.682,7.5H24.993a1.461,1.461,0,0,0-1.461,1.461V32.338A1.461,1.461,0,0,0,24.993,33.8H42.526a1.461,1.461,0,0,0,1.461-1.461V14.805Z" transform="translate(-6.133 -6.133)" fill="#eceaec"/>
        <circle id="Elipse_7635" data-name="Elipse 7635" cx="2.922" cy="2.922" r="2.922" transform="translate(56.848 33.511)" fill="#b6b1b7"/>
        <path id="Trazado_656285" data-name="Trazado 656285" d="M27.915,25.033V7.5H24.993a1.461,1.461,0,0,0-1.461,1.461V32.338A1.461,1.461,0,0,0,24.993,33.8H42.526a1.461,1.461,0,0,0,1.461-1.461V29.416H32.3a4.383,4.383,0,0,1-4.383-4.383Z" transform="translate(-6.133 -6.133)" fill="#dad8db"/>
        <path id="Trazado_656286" data-name="Trazado 656286" d="M95.677,13.344a1.461,1.461,0,0,0,1.461,1.461h5.844L95.677,7.5Z" transform="translate(-65.128 -6.133)" fill="#dad8db"/>
        <path id="Trazado_656287" data-name="Trazado 656287" d="M118.45,441.122a7.314,7.314,0,0,1-7.305-7.306v-1.461l-3.7,11.1a4.37,4.37,0,0,0,3.7,2.052h47.979a4.383,4.383,0,0,0,4.158-3l.462-1.386Z" transform="translate(-74.751 -353.55)" fill="#e2a975"/>
        <path id="Trazado_656288" data-name="Trazado 656288" d="M213.037,7.5H201.348a1.461,1.461,0,0,0-1.461,1.461V32.338a1.461,1.461,0,0,0,1.461,1.461h17.533a1.461,1.461,0,0,0,1.461-1.461V14.805Z" transform="translate(-150.344 -6.133)" fill="#eceaec"/>
        <path id="Trazado_656289" data-name="Trazado 656289" d="M204.27,25.033V7.5h-2.922a1.461,1.461,0,0,0-1.461,1.461V32.338a1.461,1.461,0,0,0,1.461,1.461h17.533a1.461,1.461,0,0,0,1.461-1.461V29.416H208.654A4.383,4.383,0,0,1,204.27,25.033Z" transform="translate(-150.344 -6.133)" fill="#dad8db"/>
        <path id="Trazado_656290" data-name="Trazado 656290" d="M272.032,13.344a1.461,1.461,0,0,0,1.461,1.461h5.844L272.032,7.5Z" transform="translate(-209.339 -6.133)" fill="#dad8db"/>
        <path id="Trazado_656291" data-name="Trazado 656291" d="M389.392,7.5H377.7a1.461,1.461,0,0,0-1.461,1.461V32.338A1.461,1.461,0,0,0,377.7,33.8h17.533a1.461,1.461,0,0,0,1.461-1.461V14.805Z" transform="translate(-294.555 -6.133)" fill="#eceaec"/>
        <path id="Trazado_656292" data-name="Trazado 656292" d="M380.625,25.033V7.5H377.7a1.461,1.461,0,0,0-1.461,1.461V32.338A1.461,1.461,0,0,0,377.7,33.8h17.533a1.461,1.461,0,0,0,1.461-1.461V29.416H385.009A4.383,4.383,0,0,1,380.625,25.033Z" transform="translate(-294.555 -6.133)" fill="#dad8db"/>
        <path id="Trazado_656293" data-name="Trazado 656293" d="M448.387,13.344a1.461,1.461,0,0,0,1.461,1.461h5.844L448.387,7.5Z" transform="translate(-353.55 -6.133)" fill="#dad8db"/>
        <path id="Trazado_656294" data-name="Trazado 656294" d="M324.224,456.919H314a1.367,1.367,0,0,0,0,2.734h10.228a1.367,1.367,0,1,0,0-2.734Z" transform="translate(-242.537 -373.637)"/>
        <path id="Trazado_656295" data-name="Trazado 656295" d="M340.256,424.854H330.028a1.367,1.367,0,0,0,0,2.734h10.228a1.367,1.367,0,0,0,0-2.734Z" transform="translate(-255.647 -347.417)"/>
        <path id="Trazado_656296" data-name="Trazado 656296" d="M49.464,74.879H56.77a1.367,1.367,0,1,0,0-2.734H49.464a1.367,1.367,0,0,0,0,2.734Z" transform="translate(-26.221 -58.995)"/>
        <path id="Trazado_656297" data-name="Trazado 656297" d="M58.136,105.576a1.367,1.367,0,0,0-1.367-1.367H49.464a1.367,1.367,0,1,0,0,2.734H56.77A1.367,1.367,0,0,0,58.136,105.576Z" transform="translate(-26.221 -85.215)"/>
        <path id="Trazado_656298" data-name="Trazado 656298" d="M225.819,74.879h7.305a1.367,1.367,0,0,0,0-2.734h-7.305a1.367,1.367,0,1,0,0,2.734Z" transform="translate(-170.432 -58.995)"/>
        <path id="Trazado_656299" data-name="Trazado 656299" d="M234.491,105.576a1.367,1.367,0,0,0-1.367-1.367h-7.305a1.367,1.367,0,0,0,0,2.734h7.305A1.367,1.367,0,0,0,234.491,105.576Z" transform="translate(-170.431 -85.215)"/>
        <path id="Trazado_656300" data-name="Trazado 656300" d="M103.109,7.706,95.8.4a1.366,1.366,0,0,0-.967-.4H83.148A2.831,2.831,0,0,0,80.32,2.828V26.205a2.831,2.831,0,0,0,2.828,2.828h7.4v4.477a1.557,1.557,0,0,1-1.555,1.555H63.835a4.308,4.308,0,0,0-2.7-2.7V29.033h7.4a2.831,2.831,0,0,0,2.828-2.828V8.672a1.366,1.366,0,0,0-.4-.967L63.659.4a1.366,1.366,0,0,0-.967-.4H51a2.831,2.831,0,0,0-2.828,2.828V26.205A2.831,2.831,0,0,0,51,29.033h7.4v3.335a4.308,4.308,0,0,0-2.7,2.7H30.549a1.557,1.557,0,0,1-1.555-1.555V29.034h7.4a2.831,2.831,0,0,0,2.828-2.828V8.672a1.366,1.366,0,0,0-.4-.967L31.515.4a1.366,1.366,0,0,0-.967-.4H18.86a2.831,2.831,0,0,0-2.828,2.828V26.205a2.831,2.831,0,0,0,2.828,2.828h7.4v4.477A4.294,4.294,0,0,0,30.549,37.8H55.706a4.308,4.308,0,0,0,2.7,2.7v9.167a2.991,2.991,0,0,1-1.872-.871l-3.277-3.277a5.713,5.713,0,0,0-4.066-1.684h-12.8a5.757,5.757,0,0,0-5.75,5.75V87.571a5.757,5.757,0,0,0,5.749,5.75h47.98a5.743,5.743,0,0,0,5.455-3.932L99.876,59.243a2.828,2.828,0,0,0-2.683-3.722H88.9v-.094a5.757,5.757,0,0,0-5.75-5.75H65.615a1.367,1.367,0,0,0,0,2.734H83.148a3.02,3.02,0,0,1,3.016,3.016v.094H61.138V40.5a4.308,4.308,0,0,0,2.7-2.7H88.992a4.294,4.294,0,0,0,4.289-4.289V29.033h7.4a2.831,2.831,0,0,0,2.828-2.828V8.672a1.367,1.367,0,0,0-.4-.967ZM64.06,4.667,66.7,7.305H64.154a.094.094,0,0,1-.094-.094ZM50.91,26.205V2.828A.094.094,0,0,1,51,2.734H61.326V7.211a2.831,2.831,0,0,0,2.828,2.828h4.477V26.205a.094.094,0,0,1-.094.094H51a.094.094,0,0,1-.094-.094ZM31.916,4.667l2.638,2.638H32.01a.094.094,0,0,1-.094-.094ZM18.766,26.205V2.828a.094.094,0,0,1,.094-.094H29.182V7.211a2.831,2.831,0,0,0,2.828,2.828h4.477V26.205a.094.094,0,0,1-.094.094H18.86A.094.094,0,0,1,18.766,26.205Zm41,8.673a1.557,1.557,0,0,1,1.555,1.553v.005a1.555,1.555,0,1,1-1.555-1.558Zm37.5,23.416a.085.085,0,0,1,.013.085L87.233,88.525a3.012,3.012,0,0,1-2.861,2.062H36.393a3.006,3.006,0,0,1-2.176-.933L44,60.317a3.012,3.012,0,0,1,2.861-2.062H97.193a.086.086,0,0,1,.076.039ZM46.858,55.521A5.743,5.743,0,0,0,41.4,59.453L33.377,83.53V49.583a3.019,3.019,0,0,1,3.016-3.016h12.8a3,3,0,0,1,2.133.883L54.6,50.727A5.709,5.709,0,0,0,58.4,52.4v3.117ZM96.2,4.667l2.638,2.638H96.3a.094.094,0,0,1-.094-.094ZM100.681,26.3H83.148a.094.094,0,0,1-.094-.094V2.828a.094.094,0,0,1,.094-.094H93.47V7.211A2.831,2.831,0,0,0,96.3,10.039h4.477V26.205a.094.094,0,0,1-.094.094Z"/>
        <path id="Trazado_656301" data-name="Trazado 656301" d="M409.479,72.145h-7.305a1.367,1.367,0,0,0,0,2.734h7.305a1.367,1.367,0,0,0,0-2.734Z" transform="translate(-314.642 -58.995)"/>
        <path id="Trazado_656302" data-name="Trazado 656302" d="M409.479,104.209h-7.305a1.367,1.367,0,0,0,0,2.734h7.305a1.367,1.367,0,0,0,0-2.734Z" transform="translate(-314.642 -85.215)"/>
      </g>
    </g>
  </g>
</svg>
