<svg xmlns="http://www.w3.org/2000/svg" width="71.34" height="89.784" viewBox="0 0 71.34 89.784">
  <g id="hoja-de-calculo" transform="translate(-52.59)">
    <path id="Trazado_658328" data-name="Trazado 658328" d="M350.746,27.87A20.37,20.37,0,0,0,330.376,7.5h-1.142a8.911,8.911,0,0,1,8.911,8.911v1.338A2.353,2.353,0,0,0,340.5,20.1h1.337a8.911,8.911,0,0,1,8.911,8.911Z" transform="translate(-228.132 -6.185)" fill="#e2dfe2"/>
    <path id="Trazado_658329" data-name="Trazado 658329" d="M84.213,62.5H63.648a3.558,3.558,0,0,0-3.558,3.558V79.233a3.557,3.557,0,0,1,3.557-3.557H84.213a3.558,3.558,0,0,0,3.558-3.558V66.058A3.558,3.558,0,0,0,84.213,62.5Z" transform="translate(-6.185 -51.54)" fill="#0387d0"/>
    <path id="Trazado_658330" data-name="Trazado 658330" d="M148.271,20.1h-1.337a2.353,2.353,0,0,1-2.353-2.353V16.412A8.91,8.91,0,0,0,135.67,7.5H96.861a2.353,2.353,0,0,0-2.353,2.353v7.291H112.6a3.558,3.558,0,0,1,3.558,3.558v6.061a3.558,3.558,0,0,1-3.558,3.558H94.508V92.3a2.353,2.353,0,0,0,2.353,2.353h57.967a2.353,2.353,0,0,0,2.353-2.353V29.013A8.911,8.911,0,0,0,148.271,20.1Z" transform="translate(-34.567 -6.186)" fill="#f9f6f9"/>
    <path id="Trazado_658331" data-name="Trazado 658331" d="M148.343,79.364a8.872,8.872,0,0,1,1.825,5.4v48.125a17.516,17.516,0,0,1-17.516,17.516H94.508v1.154a2.353,2.353,0,0,0,2.353,2.353h57.967a2.353,2.353,0,0,0,2.353-2.353V88.274A8.911,8.911,0,0,0,148.343,79.364Z" transform="translate(-34.567 -65.447)" fill="#efecef"/>
    <path id="Trazado_658332" data-name="Trazado 658332" d="M66.126,144.752H63.647a3.557,3.557,0,0,1,0-7.114h2.478Z" transform="translate(-6.185 -113.502)" fill="#86f1a7"/>
    <path id="Trazado_658333" data-name="Trazado 658333" d="M223.85,195.753v-6.9A1.754,1.754,0,0,0,222.1,187.1H183.859v8.654Z" transform="translate(-108.25 -154.289)" fill="#9ac8f5"/>
    <path id="Trazado_658334" data-name="Trazado 658334" d="M143.163,187.1h-6.9a1.754,1.754,0,0,0-1.754,1.754v6.9h8.654Z" transform="translate(-67.554 -154.289)" fill="#78d090"/>
    <path id="Trazado_658335" data-name="Trazado 658335" d="M134.508,236.449v38.237a1.754,1.754,0,0,0,1.754,1.754h6.9V236.449Z" transform="translate(-67.553 -194.986)" fill="#c9ecff"/>
    <path id="Trazado_658336" data-name="Trazado 658336" d="M183.859,236.449V276.44H222.1a1.754,1.754,0,0,0,1.754-1.754V236.449Z" transform="translate(-108.25 -194.986)" fill="#f7d090"/>
    <path id="Trazado_658337" data-name="Trazado 658337" d="M377.24,398.652a1.754,1.754,0,0,0,1.754-1.754V384.65a17.489,17.489,0,0,1-7,14Z" transform="translate(-263.394 -317.198)" fill="#86f1a7"/>
    <path id="Trazado_658338" data-name="Trazado 658338" d="M102.244,0H62.294a3.673,3.673,0,0,0-3.669,3.669V9.645H57.463a4.878,4.878,0,0,0-4.873,4.873V27.693a4.878,4.878,0,0,0,4.872,4.872h1.163v53.55a3.673,3.673,0,0,0,3.669,3.669h57.967a3.673,3.673,0,0,0,3.669-3.669V71a1.315,1.315,0,1,0-2.63,0V86.115a1.039,1.039,0,0,1-1.038,1.038H62.294a1.039,1.039,0,0,1-1.038-1.038V25.451h5.7a1.315,1.315,0,0,0,0-2.63H57.462a4.842,4.842,0,0,0-2.242.547V14.517a2.245,2.245,0,0,1,2.242-2.242H78.028a2.245,2.245,0,0,1,2.242,2.242v6.061a2.245,2.245,0,0,1-2.242,2.242H73.092a1.315,1.315,0,0,0,0,2.63h4.935A4.878,4.878,0,0,0,82.9,20.579V14.517a4.878,4.878,0,0,0-4.873-4.873H61.256V3.668A1.039,1.039,0,0,1,62.294,2.63H101.1a7.6,7.6,0,0,1,7.6,7.6v1.338a3.673,3.673,0,0,0,3.669,3.669H113.7a7.6,7.6,0,0,1,7.6,7.6V64.861a1.315,1.315,0,0,0,2.63,0V21.686A21.71,21.71,0,0,0,102.244,0ZM57.462,25.451h1.163v4.484H57.462a2.242,2.242,0,1,1,0-4.484ZM113.7,12.6h-1.337a1.039,1.039,0,0,1-1.038-1.038V10.226a10.175,10.175,0,0,0-2.176-6.3A19.16,19.16,0,0,1,120,14.778a10.175,10.175,0,0,0-6.3-2.177Z"/>
    <path id="Trazado_658339" data-name="Trazado 658339" d="M130.077,179.6a3.072,3.072,0,0,0-3.069,3.069v45.138a3.072,3.072,0,0,0,3.069,3.069h45.138a3.072,3.072,0,0,0,3.069-3.069V182.668a3.072,3.072,0,0,0-3.069-3.069Zm28.569,11.284h3.677v5.368h-10.7v-5.368h.886a1.315,1.315,0,1,0,0-2.63h-.886v-6.024h10.7v6.024h-3.677a1.315,1.315,0,0,0,0,2.63Zm-7.023,29.362v-5.368h10.7v5.368Zm10.7,2.63v5.368h-10.7v-5.368Zm-26.661-16v5.368h-6.024V206.88Zm-6.024-2.63v-5.368h6.024v5.368Zm8.654,2.63h10.7v5.368h-10.7Zm13.33,0h10.7v5.368h-10.7Zm13.33,0h10.7v5.368h-10.7Zm0-2.63v-5.368h10.7v5.368Zm-2.63,0h-10.7v-5.368h10.7Zm-13.33,0h-10.7v-5.368h10.7Zm-10.7-8v-5.368h10.7v5.368Zm0-8v-6.024h10.7v6.024Zm-2.63,8h-6.024v-5.368h6.024Zm-6.024,18.627h6.024v5.368h-6.024Zm8.654,0h10.7v5.368h-10.7Zm26.661,0h10.7v5.368h-10.7Zm10.7-18.627h-10.7v-5.368h10.7Zm-46.015-13.583a.439.439,0,0,1,.438-.438h5.585v6.024h-6.024Zm0,45.138v-4.929h6.024v5.368h-5.585A.439.439,0,0,1,129.638,227.805Zm8.654-4.929h10.7v5.368h-10.7Zm36.922,5.368H164.953v-5.368h10.7v4.929A.439.439,0,0,1,175.215,228.244Zm.438-45.576v5.585h-10.7v-6.024h10.262A.439.439,0,0,1,175.653,182.668Z" transform="translate(-61.368 -148.105)"/>
  </g>
</svg>
