<svg xmlns="http://www.w3.org/2000/svg" width="137" height="137" viewBox="0 0 137 137">
  <g id="Grupo_948582" data-name="Grupo 948582" transform="translate(4417 6549)">
    <g id="Elipse_7642" data-name="Elipse 7642" transform="translate(-4417 -6549)" fill="#c9ecff" stroke="#0387d0" stroke-width="1">
      <circle cx="68.5" cy="68.5" r="68.5" stroke="none"/>
      <circle cx="68.5" cy="68.5" r="68" fill="none"/>
    </g>
    <g id="XMLID_2019_" transform="translate(-4380.428 -6512.428)">
      <g id="XMLID_2163_" transform="translate(1.247 14.966)">
        <path id="XMLID_952_" d="M64.626,120l6.735,6.735v35.919a4.989,4.989,0,0,1-4.989,4.989H14.989A4.989,4.989,0,0,1,10,162.653V126.735L16.735,120Z" transform="translate(-10 -120)" fill="#98eaf9"/>
      </g>
      <g id="XMLID_2162_" transform="translate(2.708 42.155)">
        <path id="XMLID_519_" d="M25.244,358.454H76.627a4.973,4.973,0,0,0,3.528-1.461L61.162,338h-.089L50.879,348.283,40.787,338.056h-.135L21.716,356.993a4.973,4.973,0,0,0,3.528,1.461Z" transform="translate(-21.716 -338)" fill="#66dff6"/>
      </g>
      <g id="XMLID_2326_" transform="translate(1.247 14.966)">
        <path id="XMLID_518_" d="M40.624,157.471l30.737-30.737L64.626,120H16.735L10,126.735v.112Z" transform="translate(-10 -120)" fill="#66dff6"/>
      </g>
      <g id="XMLID_2161_" transform="translate(7.982 1.247)">
        <path id="XMLID_506_" d="M111.892,36.981V10H64V36.981L87.89,61.19Z" transform="translate(-64 -10)" fill="#fff3da"/>
      </g>
      <g id="XMLID_1056_" transform="translate(0 0)">
        <path id="XMLID_1322_" d="M63.49,20.819l-6.369-6.37V1.247A1.247,1.247,0,0,0,55.874,0H37.5a1.247,1.247,0,0,0,0,2.494H54.626V27.919L31.872,50.674,9.229,28.031V2.494H26.275a1.247,1.247,0,1,0,0-2.494H7.982A1.247,1.247,0,0,0,6.735,1.247v13.2L.365,20.819A1.247,1.247,0,0,0,0,21.7V57.62a6.243,6.243,0,0,0,6.236,6.236H57.62a6.243,6.243,0,0,0,6.236-6.236V21.7A1.247,1.247,0,0,0,63.49,20.819Zm-2.129,36.8A3.719,3.719,0,0,1,61,59.232L43.918,42.155,61.361,24.712Zm-4.24-39.643L60.845,21.7l-3.724,3.724ZM2.86,59.232a3.719,3.719,0,0,1-.366-1.612v-32.8L19.881,42.211ZM6.735,25.537l-3.78-3.78,3.78-3.78Zm-.5,35.824A3.718,3.718,0,0,1,4.624,61L21.645,43.974l9.345,9.345a1.247,1.247,0,0,0,1.764,0l9.4-9.4L59.232,61a3.719,3.719,0,0,1-1.612.366H6.236Z" transform="translate(0 0)"/>
        <path id="XMLID_1377_" d="M246.927,2.494a1.248,1.248,0,0,0,1.247-1.247,1.247,1.247,0,1,0-1.247,1.247Z" transform="translate(-215.039 0)"/>
        <path id="XMLID_1555_" d="M149.493,71.7a13.548,13.548,0,0,0,3.528,17.244A13.69,13.69,0,0,0,161,91.818h.035a1.247,1.247,0,0,0,.034-2.494,11.087,11.087,0,0,1-3.058-21.646,11.086,11.086,0,0,1,13.973,7.339,9.711,9.711,0,0,1-.6,6.464,3.405,3.405,0,0,1-3.137,2.316,1.291,1.291,0,0,1-.9-.413,1.959,1.959,0,0,1-.555-1.39V71.684a1.247,1.247,0,1,0-2.494,0v.4a5.446,5.446,0,0,0-3.538-1.275c-3.15,0-6.408,2.731-6.408,7.3a8.354,8.354,0,0,0,1.8,5.311,5.857,5.857,0,0,0,4.479,2.251,5.508,5.508,0,0,0,4.053-1.846,4.374,4.374,0,0,0,.9,1.321,3.763,3.763,0,0,0,2.67,1.148A5.9,5.9,0,0,0,173.7,82.4a12.165,12.165,0,0,0,.685-8.049l-.011-.039A13.562,13.562,0,0,0,149.493,71.7Zm11.135,11.472c-2.086,0-3.782-2.274-3.782-5.068,0-3.008,1.99-4.806,3.914-4.806,2.073,0,3.52,1.961,3.52,4.768S162.641,83.175,160.628,83.175Z" transform="translate(-129.363 -56.59)"/>
      </g>
    </g>
  </g>
</svg>
