<svg xmlns="http://www.w3.org/2000/svg" width="90.164" height="93.989" viewBox="0 0 90.164 93.989">
  <g id="cuenta" transform="translate(-10.418 0)">
    <g id="Grupo_949097" data-name="Grupo 949097" transform="translate(11.797 1.379)">
      <path id="Trazado_657823" data-name="Trazado 657823" d="M19.355,165.63c-.978,0-1.426.432-1.426,1.426v18.79a8.805,8.805,0,0,0,8.8,8.81l14.242-.3V165.63Z" transform="translate(-17.929 -136.604)" fill="#fcc843" fill-rule="evenodd"/>
      <path id="Trazado_657824" data-name="Trazado 657824" d="M54.695,194.412a8.747,8.747,0,0,0,1.707.234h.718l13.873-.286V165.63H61.475v20.206a8.813,8.813,0,0,1-6.78,8.576Z" transform="translate(-47.946 -136.604)" fill="#eb6f2d" fill-rule="evenodd"/>
      <path id="Trazado_657825" data-name="Trazado 657825" d="M94.992,65.564h-29.1a8.81,8.81,0,0,0,8.81-8.81V16.317a8.805,8.805,0,0,1,8.81-8.8l8.81.12Z" transform="translate(-57.088 -7.512)" fill="#fcc843" fill-rule="evenodd"/>
      <path id="Trazado_657826" data-name="Trazado 657826" d="M163.426,65.564H156.3V16.317a8.812,8.812,0,0,0-6.583-8.524,9.018,9.018,0,0,1,2.232-.281l8.81.12Z" transform="translate(-125.522 -7.512)" fill="#eb6f2d" fill-rule="evenodd"/>
      <path id="Trazado_657827" data-name="Trazado 657827" d="M222.861,97.322V16.317a8.805,8.805,0,0,0-8.81-8.8H161.874a8.8,8.8,0,0,1,8.8,8.8V97.322c0,.973.479,1.207,1.3.833l3.929-1.8a3.045,3.045,0,0,1,2.6,0l3.929,1.8a2.977,2.977,0,0,0,2.591,0l3.929-1.8a3.043,3.043,0,0,1,2.6,0l3.929,1.8a3.013,3.013,0,0,0,2.591,0l3.929-1.8a2.937,2.937,0,0,1,2.6,0l3.924,1.8a2.968,2.968,0,0,0,2.6,0l3.929-1.8a3.033,3.033,0,0,1,2.591,0l3.929,1.8C222.513,98.587,222.861,98.321,222.861,97.322Z" transform="translate(-135.45 -7.512)" fill="#f5faff" fill-rule="evenodd"/>
      <path id="Trazado_657828" data-name="Trazado 657828" d="M435.106,97.322V16.317a8.806,8.806,0,0,0-8.81-8.8h-4.454a8.8,8.8,0,0,1,8.8,8.8v80.4l3.159,1.441C434.758,98.587,435.106,98.321,435.106,97.322Z" transform="translate(-347.695 -7.512)" fill="#ecf4ff" fill-rule="evenodd"/>
      <path id="Trazado_657829" data-name="Trazado 657829" d="M253.3,262.514h5.167a1.428,1.428,0,0,1,1.426,1.426v5.167a1.428,1.428,0,0,1-1.426,1.426H253.3a1.428,1.428,0,0,1-1.426-1.426V263.94A1.428,1.428,0,0,1,253.3,262.514Zm0-28.511h5.167a1.428,1.428,0,0,1,1.426,1.426V240.6a1.431,1.431,0,0,1-1.426,1.426H253.3a1.431,1.431,0,0,1-1.426-1.426v-5.167A1.428,1.428,0,0,1,253.3,234Zm0,14.253h5.167a1.431,1.431,0,0,1,1.426,1.426v5.167a1.428,1.428,0,0,1-1.426,1.426H253.3a1.428,1.428,0,0,1-1.426-1.426v-5.167A1.431,1.431,0,0,1,253.3,248.256Z" transform="translate(-208.93 -192.426)" fill="#9ac8f5" fill-rule="evenodd"/>
    </g>
    <path id="Trazado_657830" data-name="Trazado 657830" d="M45.652,78.55a1.376,1.376,0,1,1,2.753,0V90.477l4.574-2.092a1.381,1.381,0,0,1,1.14,0l5.953,2.721,5.953-2.721a1.381,1.381,0,0,1,1.14,0l5.953,2.721,5.953-2.721a1.38,1.38,0,0,1,1.139,0l5.953,2.721,5.953-2.721a1.381,1.381,0,0,1,1.14,0l4.574,2.092V10.184A7.435,7.435,0,0,0,90.4,2.753H45.184A10.162,10.162,0,0,1,48.4,10.184V72.31a1.376,1.376,0,1,1-2.753,0V60.8H20.6A10.18,10.18,0,0,1,10.418,50.621V43.633a1.376,1.376,0,1,1,2.753,0v6.988a7.431,7.431,0,1,0,14.862,0V31.779H13.171v5.615a1.376,1.376,0,1,1-2.753,0V30.405A1.378,1.378,0,0,1,11.8,29.026H28.033V21.241a1.376,1.376,0,1,1,2.753,0v29.38a10.159,10.159,0,0,1-2.982,7.2c-.078.078-.156.151-.234.229H45.652V10.184a7.433,7.433,0,0,0-14.867,0V15a1.376,1.376,0,1,1-2.753,0V10.184A10.189,10.189,0,0,1,38.221,0H90.4a10.18,10.18,0,0,1,10.184,10.183V92.615a1.385,1.385,0,0,1-1.946,1.249l-5.953-2.721L86.73,93.859a1.361,1.361,0,0,1-1.14.005l-5.953-2.721-5.948,2.716a1.373,1.373,0,0,1-1.145.005l-5.953-2.721-5.948,2.716a1.373,1.373,0,0,1-1.145.005l-5.948-2.721-5.844,2.67a1.379,1.379,0,0,1-2.055-1.2Zm9.091-8.461h8.019a1.377,1.377,0,0,1,1.374,1.379v8.019a1.372,1.372,0,0,1-1.374,1.374H54.743a1.377,1.377,0,0,1-1.379-1.374V71.468a1.382,1.382,0,0,1,1.379-1.379Zm6.64,2.753H56.116v5.266h5.266Zm-6.64-17.006h8.019a1.372,1.372,0,0,1,1.374,1.374v8.019a1.377,1.377,0,0,1-1.374,1.379H54.743a1.381,1.381,0,0,1-1.379-1.379V57.209A1.377,1.377,0,0,1,54.743,55.835Zm6.64,2.753H56.116v5.266h5.266Zm-6.64-17.011h8.019a1.377,1.377,0,0,1,1.374,1.379v8.019a1.372,1.372,0,0,1-1.374,1.374H54.743a1.377,1.377,0,0,1-1.379-1.374V42.956A1.382,1.382,0,0,1,54.743,41.577Zm6.64,2.753H56.116V49.6h5.266Zm6.656,35.016a1.376,1.376,0,0,1,0-2.753h20.1a1.376,1.376,0,1,1,0,2.753Zm0-4.985a1.379,1.379,0,0,1,0-2.758H92.589a1.379,1.379,0,0,1,0,2.758Zm0-9.268a1.376,1.376,0,0,1,0-2.753h20.1a1.376,1.376,0,1,1,0,2.753Zm0-4.99a1.376,1.376,0,0,1,0-2.753H92.589a1.376,1.376,0,1,1,0,2.753Zm0-9.268a1.376,1.376,0,0,1,0-2.753h20.1a1.376,1.376,0,1,1,0,2.753Zm0-4.99a1.376,1.376,0,0,1,0-2.753H92.589a1.376,1.376,0,1,1,0,2.753ZM71.764,7.358a1.376,1.376,0,0,1,2.753,0V8.914A7.668,7.668,0,0,1,78.394,10.6a1.374,1.374,0,1,1-1.837,2.045,4.543,4.543,0,0,0-2.04-.952V19c.442.172.911.338,1.4.515a6.372,6.372,0,0,1,4.106,3.97,6.672,6.672,0,0,1,.219,3.4,7.442,7.442,0,0,1-1.41,3.128,7.06,7.06,0,0,1-4.314,2.649v1.847a1.376,1.376,0,0,1-2.753,0V32.773a9.467,9.467,0,0,1-1.852-.25,9.829,9.829,0,0,1-3.107-1.452,1.375,1.375,0,1,1,1.509-2.3,7.356,7.356,0,0,0,2.258,1.088,6.663,6.663,0,0,0,1.192.166V20.851a14.711,14.711,0,0,1-3.133-1.79,4.721,4.721,0,0,1-1.592-2.373,5.9,5.9,0,0,1-.115-2.846,6.371,6.371,0,0,1,1.218-2.669A5.661,5.661,0,0,1,71,9.211a7.438,7.438,0,0,1,.76-.193V7.358Zm2.753,14.575v7.9a4.333,4.333,0,0,0,2.144-1.5,4.639,4.639,0,0,0,.879-1.951,3.971,3.971,0,0,0-.12-2.009c-.494-1.442-1.587-1.962-2.9-2.441Zm-2.753-4.126V11.854A2.987,2.987,0,0,0,70.3,12.869a3.5,3.5,0,0,0-.676,1.5,3.17,3.17,0,0,0,.052,1.535,1.932,1.932,0,0,0,.64.989A9.508,9.508,0,0,0,71.764,17.807Z"/>
  </g>
</svg>
