<svg xmlns="http://www.w3.org/2000/svg" xmlns:xlink="http://www.w3.org/1999/xlink" width="1258" height="555" viewBox="0 0 1258 555">
  <defs>
    <filter id="Rectángulo_336482" x="295" y="0" width="648" height="90" filterUnits="userSpaceOnUse">
      <feOffset dy="3" input="SourceAlpha"/>
      <feGaussianBlur stdDeviation="3" result="blur"/>
      <feFlood flood-opacity="0.161"/>
      <feComposite operator="in" in2="blur"/>
      <feComposite in="SourceGraphic"/>
    </filter>
    <filter id="Rectángulo_335989" x="0" y="136" width="392" height="74" filterUnits="userSpaceOnUse">
      <feOffset dy="3" input="SourceAlpha"/>
      <feGaussianBlur stdDeviation="3" result="blur-2"/>
      <feFlood flood-opacity="0.161"/>
      <feComposite operator="in" in2="blur-2"/>
      <feComposite in="SourceGraphic"/>
    </filter>
    <filter id="Rectángulo_336483" x="433" y="136" width="392" height="74" filterUnits="userSpaceOnUse">
      <feOffset dy="3" input="SourceAlpha"/>
      <feGaussianBlur stdDeviation="3" result="blur-3"/>
      <feFlood flood-opacity="0.161"/>
      <feComposite operator="in" in2="blur-3"/>
      <feComposite in="SourceGraphic"/>
    </filter>
    <filter id="Rectángulo_336484" x="866" y="136" width="392" height="74" filterUnits="userSpaceOnUse">
      <feOffset dy="3" input="SourceAlpha"/>
      <feGaussianBlur stdDeviation="3" result="blur-4"/>
      <feFlood flood-opacity="0.161"/>
      <feComposite operator="in" in2="blur-4"/>
      <feComposite in="SourceGraphic"/>
    </filter>
    <filter id="Rectángulo_336487" x="0" y="436" width="192" height="119" filterUnits="userSpaceOnUse">
      <feOffset dy="3" input="SourceAlpha"/>
      <feGaussianBlur stdDeviation="3" result="blur-5"/>
      <feFlood flood-opacity="0.161"/>
      <feComposite operator="in" in2="blur-5"/>
      <feComposite in="SourceGraphic"/>
    </filter>
    <filter id="Rectángulo_336488" x="190" y="436" width="192" height="119" filterUnits="userSpaceOnUse">
      <feOffset dy="3" input="SourceAlpha"/>
      <feGaussianBlur stdDeviation="3" result="blur-6"/>
      <feFlood flood-opacity="0.161"/>
      <feComposite operator="in" in2="blur-6"/>
      <feComposite in="SourceGraphic"/>
    </filter>
    <filter id="Rectángulo_336489" x="420" y="278" width="192" height="119" filterUnits="userSpaceOnUse">
      <feOffset dy="3" input="SourceAlpha"/>
      <feGaussianBlur stdDeviation="3" result="blur-7"/>
      <feFlood flood-opacity="0.161"/>
      <feComposite operator="in" in2="blur-7"/>
      <feComposite in="SourceGraphic"/>
    </filter>
    <filter id="Rectángulo_336490" x="630" y="278" width="192" height="119" filterUnits="userSpaceOnUse">
      <feOffset dy="3" input="SourceAlpha"/>
      <feGaussianBlur stdDeviation="3" result="blur-8"/>
      <feFlood flood-opacity="0.161"/>
      <feComposite operator="in" in2="blur-8"/>
      <feComposite in="SourceGraphic"/>
    </filter>
    <filter id="Rectángulo_336491" x="856" y="278" width="192" height="119" filterUnits="userSpaceOnUse">
      <feOffset dy="3" input="SourceAlpha"/>
      <feGaussianBlur stdDeviation="3" result="blur-9"/>
      <feFlood flood-opacity="0.161"/>
      <feComposite operator="in" in2="blur-9"/>
      <feComposite in="SourceGraphic"/>
    </filter>
    <filter id="Rectángulo_336492" x="1066" y="278" width="192" height="158" filterUnits="userSpaceOnUse">
      <feOffset dy="3" input="SourceAlpha"/>
      <feGaussianBlur stdDeviation="3" result="blur-10"/>
      <feFlood flood-opacity="0.161"/>
      <feComposite operator="in" in2="blur-10"/>
      <feComposite in="SourceGraphic"/>
    </filter>
    <filter id="Rectángulo_336485" x="0" y="278" width="192" height="119" filterUnits="userSpaceOnUse">
      <feOffset dy="3" input="SourceAlpha"/>
      <feGaussianBlur stdDeviation="3" result="blur-11"/>
      <feFlood flood-opacity="0.161"/>
      <feComposite operator="in" in2="blur-11"/>
      <feComposite in="SourceGraphic"/>
    </filter>
    <filter id="Rectángulo_336486" x="190" y="278" width="192" height="119" filterUnits="userSpaceOnUse">
      <feOffset dy="3" input="SourceAlpha"/>
      <feGaussianBlur stdDeviation="3" result="blur-12"/>
      <feFlood flood-opacity="0.161"/>
      <feComposite operator="in" in2="blur-12"/>
      <feComposite in="SourceGraphic"/>
    </filter>
  </defs>
  <g id="Grupo_949225" data-name="Grupo 949225" transform="translate(-171.333 -379)">
    <g transform="matrix(1, 0, 0, 1, 171.33, 379)" filter="url(#Rectángulo_336482)">
      <rect id="Rectángulo_336482-2" data-name="Rectángulo 336482" width="630" height="72" rx="10" transform="translate(304 6)" fill="#ffd667"/>
    </g>
    <text id="Organización_del_servicios_de_guionaje" data-name="Organización del servicios de guionaje" transform="translate(645.333 424)" fill="#12263f" font-size="18" font-family="SegoeUIBlack, Segoe UI"><tspan x="0" y="0">Organización del servicios de guionaje</tspan></text>
    <g transform="matrix(1, 0, 0, 1, 171.33, 379)" filter="url(#Rectángulo_335989)">
      <rect id="Rectángulo_335989-2" data-name="Rectángulo 335989" width="374" height="56" rx="5" transform="translate(9 142)" fill="#406834"/>
    </g>
    <text id="Herramientas_para_la_organización_del_servicio" data-name="Herramientas para la organización del servicio" transform="translate(203.333 553)" fill="#fff" font-size="16" font-family="SegoeUI, Segoe UI"><tspan x="0" y="0">Herramientas para la organización del servicio</tspan></text>
    <g transform="matrix(1, 0, 0, 1, 171.33, 379)" filter="url(#Rectángulo_336483)">
      <rect id="Rectángulo_336483-2" data-name="Rectángulo 336483" width="374" height="56" rx="5" transform="translate(442 142)" fill="#406834"/>
    </g>
    <text id="Administración_de_recurso_físico" data-name="Administración de recurso físico" transform="translate(685.333 553)" fill="#fff" font-size="16" font-family="SegoeUI, Segoe UI"><tspan x="0" y="0">Administración de recurso físico</tspan></text>
    <g transform="matrix(1, 0, 0, 1, 171.33, 379)" filter="url(#Rectángulo_336484)">
      <rect id="Rectángulo_336484-2" data-name="Rectángulo 336484" width="374" height="56" rx="5" transform="translate(875 142)" fill="#406834"/>
    </g>
    <text id="Alistamiento_administrativo" data-name="Alistamiento administrativo" transform="translate(1136.333 553)" fill="#fff" font-size="16" font-family="SegoeUI, Segoe UI"><tspan x="0" y="0">Alistamiento administrativo</tspan></text>
    <g transform="matrix(1, 0, 0, 1, 171.33, 379)" filter="url(#Rectángulo_336487)">
      <rect id="Rectángulo_336487-2" data-name="Rectángulo 336487" width="174" height="101" rx="5" transform="translate(9 442)" fill="#f2f1f1"/>
    </g>
    <text id="Relacionadas_con_el_proceso_de_calidad." data-name="Relacionadas con el 
proceso de calidad." transform="translate(263.333 863)" fill="#12263f" font-size="16" font-family="SegoeUI, Segoe UI"><tspan x="-71.441" y="0">Relacionadas con el </tspan><tspan x="-68.277" y="24">proceso de calidad.</tspan></text>
    <g transform="matrix(1, 0, 0, 1, 171.33, 379)" filter="url(#Rectángulo_336488)">
      <rect id="Rectángulo_336488-2" data-name="Rectángulo 336488" width="174" height="101" rx="5" transform="translate(199 442)" fill="#f2f1f1"/>
    </g>
    <text id="De_mayor_uso_a_nivel_digital._" data-name="De mayor uso a nivel 
digital.
" transform="translate(457.333 863)" fill="#12263f" font-size="16" font-family="SegoeUI, Segoe UI"><tspan x="-76.148" y="0">De mayor uso a nivel </tspan><tspan x="-23.75" y="24">digital.</tspan><tspan font-family="Roboto-Regular, Roboto"><tspan x="0" y="48"></tspan></tspan></text>
    <g transform="matrix(1, 0, 0, 1, 171.33, 379)" filter="url(#Rectángulo_336489)">
      <rect id="Rectángulo_336489-2" data-name="Rectángulo 336489" width="174" height="101" rx="5" transform="translate(429 284)" fill="#f2f1f1"/>
    </g>
    <text id="Relacionados_con_el_seguimiento_y_control." data-name="Relacionados con el 
seguimiento y 
control." transform="translate(687.333 695)" fill="#12263f" font-size="16" font-family="SegoeUI, Segoe UI"><tspan x="-72.059" y="0">Relacionados con el </tspan><tspan x="-51.945" y="24">seguimiento y </tspan><tspan x="-26.762" y="48">control.</tspan></text>
    <g transform="matrix(1, 0, 0, 1, 171.33, 379)" filter="url(#Rectángulo_336490)">
      <rect id="Rectángulo_336490-2" data-name="Rectángulo 336490" width="174" height="101" rx="5" transform="translate(639 284)" fill="#f2f1f1"/>
    </g>
    <text id="Relacionados_con_el_almacenamiento_y_cuidado." data-name="Relacionados con el 
almacenamiento y 
cuidado." transform="translate(897.333 695)" fill="#12263f" font-size="16" font-family="SegoeUI, Segoe UI"><tspan x="-72.059" y="0">Relacionados con el </tspan><tspan x="-66.637" y="24">almacenamiento y </tspan><tspan x="-30.074" y="48">cuidado.</tspan></text>
    <g transform="matrix(1, 0, 0, 1, 171.33, 379)" filter="url(#Rectángulo_336491)">
      <rect id="Rectángulo_336491-2" data-name="Rectángulo 336491" width="174" height="101" rx="5" transform="translate(865 284)" fill="#f2f1f1"/>
    </g>
    <text id="Relacionado_con_lo_establecido_a_manera_tributaria." data-name="Relacionado con lo 
establecido 
a manera tributaria." transform="translate(1123.333 695)" fill="#12263f" font-size="16" font-family="SegoeUI, Segoe UI"><tspan x="-69.168" y="0">Relacionado con lo </tspan><tspan x="-42.406" y="24">establecido </tspan><tspan x="-68.941" y="48">a manera tributaria.</tspan></text>
    <g transform="matrix(1, 0, 0, 1, 171.33, 379)" filter="url(#Rectángulo_336492)">
      <rect id="Rectángulo_336492-2" data-name="Rectángulo 336492" width="174" height="140" rx="5" transform="translate(1075 284)" fill="#f2f1f1"/>
    </g>
    <text id="Relacionado_con_el_ingreso_y_permanencia_en_sitios_de_interés._" data-name="Relacionado con el 
ingreso y 
permanencia en 
sitios de interés. 
" transform="translate(1333.333 695)" fill="#12263f" font-size="16" font-family="SegoeUI, Segoe UI"><tspan x="-68.664" y="0">Relacionado con el </tspan><tspan x="-34.477" y="24">ingreso y </tspan><tspan x="-58.664" y="48">permanencia en </tspan><tspan x="-58.984" y="72">sitios de interés. </tspan><tspan font-family="Roboto-Regular, Roboto"><tspan x="0" y="96"></tspan></tspan></text>
    <path id="Trazado_658184" data-name="Trazado 658184" d="M-12389.333-9533v37.625h-105v205.06" transform="translate(12759.333 10110)" fill="none" stroke="#406834" stroke-width="1.5"/>
    <path id="Trazado_658186" data-name="Trazado 658186" d="M-12389.333-9533v37.625h-105v39.62" transform="translate(13189.333 10110)" fill="none" stroke="#406834" stroke-width="1.5"/>
    <path id="Trazado_658187" data-name="Trazado 658187" d="M-12494.333-9533v37.625h105v38.273" transform="translate(13294.333 10110)" fill="none" stroke="#406834" stroke-width="1.5"/>
    <path id="Trazado_658188" data-name="Trazado 658188" d="M-12389.333-9533v37.625h-105v27.729" transform="translate(13619.333 10110)" fill="none" stroke="#406834" stroke-width="1.5"/>
    <path id="Trazado_658189" data-name="Trazado 658189" d="M-12494.333-9533v37.625h105v27.729" transform="translate(13724.333 10110)" fill="none" stroke="#406834" stroke-width="1.5"/>
    <g transform="matrix(1, 0, 0, 1, 171.33, 379)" filter="url(#Rectángulo_336485)">
      <rect id="Rectángulo_336485-2" data-name="Rectángulo 336485" width="174" height="101" rx="5" transform="translate(9 284)" fill="#f2f1f1"/>
    </g>
    <text id="Herramientas_administrativas." data-name="Herramientas 
administrativas." transform="translate(263.333 705)" fill="#12263f" font-size="16" font-family="SegoeUI, Segoe UI"><tspan x="-49.402" y="0">Herramientas </tspan><tspan x="-54.711" y="24">administrativas.</tspan></text>
    <path id="Trazado_658185" data-name="Trazado 658185" d="M-12494.333-9533v37.625h105v205.638" transform="translate(12864.333 10110)" fill="none" stroke="#406834" stroke-width="1.5"/>
    <g transform="matrix(1, 0, 0, 1, 171.33, 379)" filter="url(#Rectángulo_336486)">
      <rect id="Rectángulo_336486-2" data-name="Rectángulo 336486" width="174" height="101" rx="5" transform="translate(199 284)" fill="#f2f1f1"/>
    </g>
    <text id="Herramientas_informáticas." data-name="Herramientas 
informáticas." transform="translate(453.333 705)" fill="#12263f" font-size="16" font-family="SegoeUI, Segoe UI"><tspan x="-49.402" y="0">Herramientas </tspan><tspan x="-44.941" y="24">informáticas.</tspan></text>
    <path id="Polígono_87" data-name="Polígono 87" d="M8,0l8,14H0Z" transform="translate(273.333 667) rotate(180)" fill="#406834"/>
    <path id="Polígono_88" data-name="Polígono 88" d="M8,0l8,14H0Z" transform="translate(483.333 667) rotate(180)" fill="#406834"/>
    <path id="Polígono_89" data-name="Polígono 89" d="M8,0l8,14H0Z" transform="translate(702.333 667) rotate(180)" fill="#406834"/>
    <path id="Polígono_90" data-name="Polígono 90" d="M8,0l8,14H0Z" transform="translate(913.333 667) rotate(180)" fill="#406834"/>
    <path id="Trazado_658345" data-name="Trazado 658345" d="M-12071.335-9533v16.9h-423v92.1" transform="translate(12871.333 9990)" fill="none" stroke="#406834" stroke-width="1.5"/>
    <path id="Polígono_91" data-name="Polígono 91" d="M8,0l8,14H0Z" transform="translate(386.333 517) rotate(180)" fill="#406834"/>
    <path id="Trazado_658346" data-name="Trazado 658346" d="M-12494.333-9533v16.9h430v92.1" transform="translate(13294.33 9990)" fill="none" stroke="#406834" stroke-width="1.5"/>
    <path id="Polígono_92" data-name="Polígono 92" d="M8,0l8,14H0Z" transform="translate(1238.333 518) rotate(180)" fill="#406834"/>
    <path id="Polígono_93" data-name="Polígono 93" d="M8,0l8,14H0Z" transform="translate(807.333 516) rotate(180)" fill="#406834"/>
    <path id="Polígono_94" data-name="Polígono 94" d="M8,0l8,14H0Z" transform="translate(1133.333 656) rotate(180)" fill="#406834"/>
    <path id="Polígono_95" data-name="Polígono 95" d="M8,0l8,14H0Z" transform="translate(1343.333 656) rotate(180)" fill="#406834"/>
    <line id="Línea_2731" data-name="Línea 2731" y2="28" transform="translate(799.833 474.5)" fill="none" stroke="#406834" stroke-width="1"/>
  </g>
</svg>
