<svg xmlns="http://www.w3.org/2000/svg" width="76.791" height="78.943" viewBox="0 0 76.791 78.943">
  <g id="bombilla" transform="translate(-6.963)">
    <g id="Grupo_948530" data-name="Grupo 948530" transform="translate(6.963 0)">
      <path id="Trazado_656177" data-name="Trazado 656177" d="M220.3,460.583v1.97a4.718,4.718,0,0,1-.028.515,4.638,4.638,0,0,1-4.608,4.122h-7.109a4.638,4.638,0,0,1-4.608-4.122,4.722,4.722,0,0,1-.028-.515v-1.97a4.921,4.921,0,0,0,2.009.425h12.363A4.921,4.921,0,0,0,220.3,460.583Z" transform="translate(-173.48 -389.405)" fill="#50758d"/>
      <g id="Grupo_948529" data-name="Grupo 948529" transform="translate(0 0)">
        <path id="Trazado_656178" data-name="Trazado 656178" d="M249.076,10.132a1.159,1.159,0,0,1-1.159-1.159V1.159a1.159,1.159,0,0,1,2.318,0V8.973A1.159,1.159,0,0,1,249.076,10.132Z" transform="translate(-210.68 0)" fill="#ffe7c9"/>
        <path id="Trazado_656179" data-name="Trazado 656179" d="M84.221,78.417a1.156,1.156,0,0,1-.82-.339l-5.525-5.526a1.159,1.159,0,0,1,1.639-1.639l5.525,5.526a1.159,1.159,0,0,1-.82,1.979Z" transform="translate(-66.63 -59.668)" fill="#ffe7c9"/>
        <path id="Trazado_656180" data-name="Trazado 656180" d="M15.936,243.271H8.122a1.159,1.159,0,0,1,0-2.318h7.814a1.159,1.159,0,0,1,0,2.318Z" transform="translate(-6.963 -203.716)" fill="#ffe7c9"/>
        <path id="Trazado_656181" data-name="Trazado 656181" d="M78.7,383.423a1.159,1.159,0,0,1-.82-1.979l5.525-5.525a1.159,1.159,0,1,1,1.639,1.639l-5.525,5.525a1.156,1.156,0,0,1-.82.339Z" transform="translate(-66.63 -317.538)" fill="#ffe7c9"/>
        <path id="Trazado_656182" data-name="Trazado 656182" d="M389.226,383.423a1.156,1.156,0,0,1-.82-.339l-5.525-5.525a1.159,1.159,0,1,1,1.639-1.639l5.525,5.525a1.159,1.159,0,0,1-.82,1.979Z" transform="translate(-324.5 -317.538)" fill="#ffe7c9"/>
        <path id="Trazado_656183" data-name="Trazado 656183" d="M447.28,243.271h-7.814a1.159,1.159,0,0,1,0-2.318h7.814a1.159,1.159,0,0,1,0,2.318Z" transform="translate(-371.648 -203.716)" fill="#ffe7c9"/>
        <path id="Trazado_656184" data-name="Trazado 656184" d="M383.7,78.417a1.159,1.159,0,0,1-.82-1.979l5.525-5.526a1.159,1.159,0,0,1,1.639,1.639l-5.525,5.526A1.156,1.156,0,0,1,383.7,78.417Z" transform="translate(-324.5 -59.668)" fill="#ffe7c9"/>
      </g>
      <path id="Trazado_656185" data-name="Trazado 656185" d="M212.108,453.333s-7.577,1.394-8.191,1.12v1.97a4.722,4.722,0,0,0,.028.515,4.638,4.638,0,0,0,4.608,4.122h2.009a4.639,4.639,0,0,1-4.37-3.085.465.465,0,0,1,.436-.624h11.661a4.92,4.92,0,0,0,1.981-.413,4.718,4.718,0,0,0,.028-.515v-1.97C219.685,454.727,212.108,453.333,212.108,453.333Z" transform="translate(-173.48 -383.276)" fill="#2b597f"/>
      <path id="Trazado_656186" data-name="Trazado 656186" d="M206.7,382.3a4.941,4.941,0,0,1-4.945,4.945H189.389a4.941,4.941,0,0,1-4.945-4.945s-.073-7.223-.087-7.412v-.006l11.213-1.545,11.085,1.545Z" transform="translate(-156.943 -315.639)" fill="#50758d"/>
      <path id="Trazado_656187" data-name="Trazado 656187" d="M193.252,395.7h-3.863a4.941,4.941,0,0,1-4.945-4.945s-.073-7.223-.087-7.412v-.006h3.863v.006c.014.189.087,7.412.087,7.412a4.941,4.941,0,0,0,4.945,4.945Z" transform="translate(-156.943 -324.093)" fill="#2b597f"/>
      <path id="Trazado_656188" data-name="Trazado 656188" d="M301.017,418.151h-3.941a1.159,1.159,0,0,1,0-2.318H301l.006,1.159Z" transform="translate(-251.262 -351.571)" fill="#2b597f"/>
      <path id="Trazado_656189" data-name="Trazado 656189" d="M198.828,416.992a1.159,1.159,0,0,1-1.159,1.159H184.763l-.026-2.318h12.932A1.159,1.159,0,0,1,198.828,416.992Z" transform="translate(-157.264 -351.571)" fill="#2b597f"/>
      <path id="Trazado_656190" data-name="Trazado 656190" d="M136.5,90.487h0c-11.935-.184-21.972,10.219-21.757,22.067a22.167,22.167,0,0,0,6.273,15.508c2.286,2.351,4.264,4.523,4.483,7.679l22.3.037c.125-3.248,1.972-5.443,4.273-7.846a22.165,22.165,0,0,0,6.148-15.378A21.9,21.9,0,0,0,136.5,90.487Z" transform="translate(-98.08 -76.501)" fill="#fad207"/>
      <path id="Trazado_656191" data-name="Trazado 656191" d="M147.792,135.774v.006l-22.3-.037c-.219-3.156-2.2-5.328-4.483-7.679a22.167,22.167,0,0,1-6.273-15.508c-.215-11.848,9.822-22.25,21.757-22.067.6,0,1.2.026,1.79.074a22.183,22.183,0,0,0-13.411,37.5c2.286,2.351,4.264,4.523,4.483,7.679Z" transform="translate(-98.079 -76.504)" fill="#faa515"/>
      <path id="Trazado_656192" data-name="Trazado 656192" d="M194.243,210.393a2.549,2.549,0,0,1-1.919.984l-.1,0a2.55,2.55,0,0,1-1.892-.84l-7.263-8.036a2.55,2.55,0,0,1,3.784-3.42l5.223,5.779,8.334-10.733a2.55,2.55,0,1,1,4.028,3.128Z" transform="translate(-155.302 -163.296)" fill="#faa515"/>
    </g>
    <g id="Grupo_948531" data-name="Grupo 948531" transform="translate(6.963 0)">
      <path id="Trazado_656193" data-name="Trazado 656193" d="M249.076,10.132a1.159,1.159,0,0,0,1.159-1.159V1.159a1.159,1.159,0,0,0-2.318,0V8.973a1.159,1.159,0,0,0,1.159,1.159Z" transform="translate(-210.68 0)"/>
      <path id="Trazado_656194" data-name="Trazado 656194" d="M83.4,78.078a1.159,1.159,0,0,0,1.639-1.639l-5.525-5.526a1.159,1.159,0,0,0-1.639,1.639Z" transform="translate(-66.63 -59.668)"/>
      <path id="Trazado_656195" data-name="Trazado 656195" d="M15.936,240.953H8.122a1.159,1.159,0,0,0,0,2.318h7.814a1.159,1.159,0,0,0,0-2.318Z" transform="translate(-6.963 -203.716)"/>
      <path id="Trazado_656196" data-name="Trazado 656196" d="M83.4,375.919l-5.525,5.525a1.159,1.159,0,0,0,1.639,1.639l5.525-5.525a1.159,1.159,0,0,0-1.639-1.639Z" transform="translate(-66.63 -317.538)"/>
      <path id="Trazado_656197" data-name="Trazado 656197" d="M384.521,375.918a1.159,1.159,0,1,0-1.639,1.639l5.525,5.525a1.159,1.159,0,0,0,1.639-1.639Z" transform="translate(-324.501 -317.538)"/>
      <path id="Trazado_656198" data-name="Trazado 656198" d="M447.28,240.953h-7.814a1.159,1.159,0,0,0,0,2.318h7.814a1.159,1.159,0,0,0,0-2.318Z" transform="translate(-371.648 -203.716)"/>
      <path id="Trazado_656199" data-name="Trazado 656199" d="M388.407,70.913l-5.525,5.526a1.159,1.159,0,1,0,1.639,1.639l5.525-5.526a1.159,1.159,0,0,0-1.639-1.639Z" transform="translate(-324.501 -59.668)"/>
      <path id="Trazado_656200" data-name="Trazado 656200" d="M153.048,106.226A23.089,23.089,0,0,0,130.152,83a22.581,22.581,0,0,0-12.413,3.706,23.176,23.176,0,0,0-8.295,9.6,1.159,1.159,0,1,0,2.1.98,20.53,20.53,0,0,1,39.186,8.943A20.972,20.972,0,0,1,144.9,120.8c-2.166,2.262-4.009,4.423-4.483,7.451H120.186c-.6-3.143-2.742-5.349-4.669-7.329a20.954,20.954,0,0,1-5.944-14.7,21.415,21.415,0,0,1,.389-4.066,1.159,1.159,0,1,0-2.276-.441,23.724,23.724,0,0,0-.431,4.507,23.26,23.26,0,0,0,6.6,16.316c2.445,2.512,4.175,4.517,4.175,7.457,0,.01,0,.021,0,.031l.066,6.8a6.107,6.107,0,0,0,2.936,5.216v1.275a5.8,5.8,0,0,0,5.8,5.8h7.109a5.8,5.8,0,0,0,5.8-5.8v-1.275a6.107,6.107,0,0,0,2.936-5.216s-.008-7.576-.024-7.652c.22-2.686,1.848-4.6,3.933-6.773A23.281,23.281,0,0,0,153.048,106.226Zm-15.633,37.1a3.481,3.481,0,0,1-3.477,3.477h-7.109a3.481,3.481,0,0,1-3.477-3.477v-.447a6.119,6.119,0,0,0,.85.06h12.363a6.144,6.144,0,0,0,.85-.06Zm-.85-2.7H124.2a3.79,3.79,0,0,1-3.786-3.786v-.077h11.745a1.159,1.159,0,1,0,0-2.318H120.416v-3.863h19.9l.036,3.863H137.57a1.159,1.159,0,1,0,0,2.318h2.782v.077A3.79,3.79,0,0,1,136.565,140.617Z" transform="translate(-91.756 -70.173)"/>
      <path id="Trazado_656201" data-name="Trazado 656201" d="M194.891,193.155a1.159,1.159,0,1,0,1.831,1.422l2.295-2.955a3.709,3.709,0,0,0-5.859-4.549l-7.486,9.641-4.3-4.753a3.709,3.709,0,0,0-5.5,4.974l7.263,8.036a3.732,3.732,0,0,0,5.681-.212l4.587-5.908a1.159,1.159,0,1,0-1.831-1.422l-4.587,5.908a1.4,1.4,0,0,1-2.13.08l-7.263-8.036a1.391,1.391,0,1,1,2.064-1.865l5.223,5.779a1.168,1.168,0,0,0,1.775-.066l8.334-10.733a1.391,1.391,0,1,1,2.2,1.706Z" transform="translate(-148.96 -156.949)"/>
    </g>
  </g>
</svg>
