<svg xmlns="http://www.w3.org/2000/svg" xmlns:xlink="http://www.w3.org/1999/xlink" width="402.172" height="279.209" viewBox="0 0 402.172 279.209">
  <defs>
    <linearGradient id="linear-gradient" x1="2.55" y1="0.804" x2="2.887" y2="0.218" gradientUnits="objectBoundingBox">
      <stop offset="0" stop-color="#bbb8b8"/>
      <stop offset="0.035" stop-color="#bcb9b9"/>
      <stop offset="0.655" stop-color="#dad9d9"/>
      <stop offset="1" stop-color="#e5e5e5"/>
    </linearGradient>
    <linearGradient id="linear-gradient-2" x1="20.706" y1="0.5" x2="21.706" y2="0.5" gradientUnits="objectBoundingBox">
      <stop offset="0" stop-color="#e2e2e2"/>
      <stop offset="0.453" stop-color="#d8d6d6"/>
      <stop offset="1" stop-color="#c7c2c2"/>
    </linearGradient>
    <linearGradient id="linear-gradient-3" x1="0.373" y1="0.99" x2="0.629" y2="-0.031" gradientUnits="objectBoundingBox">
      <stop offset="0" stop-color="#d9d9d9"/>
      <stop offset="0.002" stop-color="#d9d9d9"/>
      <stop offset="0.059" stop-color="#eaeaea"/>
      <stop offset="0.129" stop-color="#f6f6f6"/>
      <stop offset="0.227" stop-color="#fdfdfd"/>
      <stop offset="0.5" stop-color="#fff"/>
      <stop offset="0.666" stop-color="#fbfbfb"/>
      <stop offset="0.823" stop-color="#efefef"/>
      <stop offset="0.976" stop-color="#dcdcdc"/>
      <stop offset="1" stop-color="#d9d9d9"/>
    </linearGradient>
  </defs>
  <g id="Grupo_949123" data-name="Grupo 949123" transform="translate(-240.771 -316.025)">
    <path id="Trazado_657899" data-name="Trazado 657899" d="M547.153,384.447,375.06,483.619,299.63,440.07,480.988,335.448Z" transform="translate(94.681 31.244)" fill="#b9ada5" opacity="0.7" style="mix-blend-mode: multiply;isolation: isolate"/>
    <g id="Grupo_949115" data-name="Grupo 949115" transform="translate(240.771 359.984)">
      <g id="Grupo_949103" data-name="Grupo 949103">
        <path id="Trazado_657900" data-name="Trazado 657900" d="M361.014,550.014,245.359,483.242c-6.117-3.532-6.117-9.313,0-12.847l233.6-134.869c6.117-3.532,16.129-3.532,22.249,0L616.865,402.3c6.12,3.532,6.12,9.313,0,12.845l-233.6,134.87C377.145,553.549,367.133,553.549,361.014,550.014Z" transform="translate(-240.771 -332.876)" fill="#f7f4ef"/>
        <path id="Trazado_657901" data-name="Trazado 657901" d="M616.865,368.374l-233.6,134.87c-6.12,3.535-16.132,3.535-22.251,0L245.359,436.472c-3.06-1.766-4.589-4.1-4.589-6.422h0v15.459h0c0,2.329,1.529,4.659,4.589,6.425L361.014,518.7c6.12,3.535,16.131,3.535,22.251,0l233.6-134.869c3.06-1.766,4.591-4.093,4.591-6.422V361.952C621.456,364.281,619.925,366.608,616.865,368.374Z" transform="translate(-240.771 -286.106)" fill="url(#linear-gradient)"/>
      </g>
      <g id="Grupo_949106" data-name="Grupo 949106" transform="translate(56.055 156.527)">
        <g id="Grupo_949104" data-name="Grupo 949104">
          <path id="Trazado_657902" data-name="Trazado 657902" d="M264.272,399.544l5.835-3.37a10.846,10.846,0,0,1,9.777,0l23.681,13.672a4.229,4.229,0,0,1,1.763,1.758c.637-1.341.052-2.838-1.763-3.887l-23.681-13.672a10.846,10.846,0,0,0-9.777,0l-5.835,3.37c-1.816,1.046-2.4,2.546-1.763,3.887A4.2,4.2,0,0,1,264.272,399.544Z" transform="translate(-262.26 -392.881)" fill="#3a3a3a"/>
          <path id="Trazado_657903" data-name="Trazado 657903" d="M264.118,401.747,287.8,415.417a10.83,10.83,0,0,0,9.777,0l5.838-3.368a1.758,1.758,0,1,0,0-3.516l-23.681-13.672a10.846,10.846,0,0,0-9.777,0l-5.835,3.37a1.758,1.758,0,1,0,0,3.516Z" transform="translate(-262.106 -391.568)" fill="#3a3a3a"/>
        </g>
        <g id="Grupo_949105" data-name="Grupo 949105">
          <path id="Trazado_657904" data-name="Trazado 657904" d="M264.272,399.544l5.835-3.37a10.846,10.846,0,0,1,9.777,0l23.681,13.672a4.229,4.229,0,0,1,1.763,1.758c.637-1.341.052-2.838-1.763-3.887l-23.681-13.672a10.846,10.846,0,0,0-9.777,0l-5.835,3.37c-1.816,1.046-2.4,2.546-1.763,3.887A4.2,4.2,0,0,1,264.272,399.544Z" transform="translate(-262.26 -392.881)" fill="url(#linear-gradient-2)"/>
          <path id="Trazado_657905" data-name="Trazado 657905" d="M264.118,401.747,287.8,415.417a10.83,10.83,0,0,0,9.777,0l5.838-3.368a1.758,1.758,0,1,0,0-3.516l-23.681-13.672a10.846,10.846,0,0,0-9.777,0l-5.835,3.37a1.758,1.758,0,1,0,0,3.516Z" transform="translate(-262.106 -391.568)" fill="#a3a3a3"/>
        </g>
      </g>
      <g id="Grupo_949107" data-name="Grupo 949107" transform="translate(281.118 129.487)">
        <path id="Trazado_657906" data-name="Trazado 657906" d="M369.82,389.676l-17.138,9.9c-1.667.96-3.031.386-3.031-1.281h0a6.308,6.308,0,0,1,3.031-4.781l17.138-9.894c1.667-.963,3.031-.386,3.031,1.281h0A6.307,6.307,0,0,1,369.82,389.676Z" transform="translate(-346.747 -381.494)" fill="#cbcaca"/>
        <path id="Trazado_657907" data-name="Trazado 657907" d="M351.44,399.314a6.308,6.308,0,0,1,3.031-4.781l17.138-9.894a2.3,2.3,0,0,1,2.275-.261l.016-.01L371,382.7l-.016.013a2.3,2.3,0,0,0-2.275.258l-17.141,9.9a6.307,6.307,0,0,0-3.031,4.779,1.655,1.655,0,0,0,.756,1.542l-.016.01,2.9,1.664.013-.01A1.654,1.654,0,0,1,351.44,399.314Z" transform="translate(-348.537 -382.515)" fill="#f7f4ef"/>
      </g>
      <g id="Grupo_949108" data-name="Grupo 949108" transform="translate(316.715 108.936)">
        <path id="Trazado_657908" data-name="Trazado 657908" d="M383.467,381.8l-17.141,9.894c-1.667.963-3.031.386-3.031-1.281h0a6.307,6.307,0,0,1,3.031-4.779l17.141-9.9c1.667-.963,3.029-.386,3.029,1.281h0A6.309,6.309,0,0,1,383.467,381.8Z" transform="translate(-360.394 -373.617)" fill="#cbcaca"/>
        <path id="Trazado_657909" data-name="Trazado 657909" d="M365.084,391.434a6.307,6.307,0,0,1,3.031-4.779l17.141-9.9a2.3,2.3,0,0,1,2.275-.258l.016-.013-2.9-1.664-.016.01a2.308,2.308,0,0,0-2.275.261l-17.138,9.9a6.3,6.3,0,0,0-3.031,4.779,1.656,1.656,0,0,0,.754,1.542l-.013.01,2.9,1.664.016-.01A1.655,1.655,0,0,1,365.084,391.434Z" transform="translate(-362.183 -374.637)" fill="#f7f4ef"/>
      </g>
      <g id="Grupo_949114" data-name="Grupo 949114" transform="translate(285.997 28.379)">
        <g id="Grupo_949110" data-name="Grupo 949110" transform="translate(47.397 25.97)">
          <g id="Grupo_949109" data-name="Grupo 949109">
            <path id="Trazado_657910" data-name="Trazado 657910" d="M374.418,354.29c1.336.77,1.336,2.022,0,2.794a5.36,5.36,0,0,1-4.839,0c-1.336-.772-1.336-2.024,0-2.794A5.344,5.344,0,0,1,374.418,354.29Z" transform="translate(-368.577 -353.711)" fill="#3a3a3a"/>
          </g>
          <path id="Trazado_657911" data-name="Trazado 657911" d="M371.088,354.42a.391.391,0,0,1,0,.741,1.42,1.42,0,0,1-1.281,0,.391.391,0,0,1,0-.741A1.42,1.42,0,0,1,371.088,354.42Z" transform="translate(-367.026 -352.816)" fill="#3a3a3a"/>
        </g>
        <g id="Grupo_949113" data-name="Grupo 949113">
          <g id="Grupo_949112" data-name="Grupo 949112" transform="translate(35.137 18.892)">
            <g id="Grupo_949111" data-name="Grupo 949111">
              <path id="Trazado_657912" data-name="Trazado 657912" d="M372.464,351.849c1.964,1.132,1.964,2.971,0,4.106a7.858,7.858,0,0,1-7.114,0c-1.964-1.135-1.964-2.974,0-4.106A7.858,7.858,0,0,1,372.464,351.849Z" transform="translate(-363.877 -350.998)" fill="#3a3a3a"/>
              <path id="Trazado_657913" data-name="Trazado 657913" d="M367.232,352.055a.464.464,0,0,1,0,.879,1.686,1.686,0,0,1-1.523,0,.464.464,0,0,1,0-.879A1.685,1.685,0,0,1,367.232,352.055Z" transform="translate(-361.439 -349.589)" fill="#3a3a3a"/>
            </g>
          </g>
          <path id="Trazado_657914" data-name="Trazado 657914" d="M359.573,346.321a.561.561,0,0,1,0,1.062,2.034,2.034,0,0,1-1.836,0,.561.561,0,0,1,0-1.062A2.033,2.033,0,0,1,359.573,346.321Z" transform="translate(-339.228 -339.981)" fill="#3a3a3a"/>
          <path id="Trazado_657915" data-name="Trazado 657915" d="M377.076,360.961l-26.023-15.026a.956.956,0,0,1,0-1.808h0a3.481,3.481,0,0,1,3.13,0l26.026,15.025a.956.956,0,0,1,0,1.808h0A3.471,3.471,0,0,1,377.076,360.961Z" transform="translate(-350.407 -343.755)" fill="#3a3a3a"/>
        </g>
      </g>
      <path id="Trazado_657916" data-name="Trazado 657916" d="M576.281,405.432,376.27,520.822,256.907,451.908l200.01-115.391Z" transform="translate(-214.815 -327.02)" fill="#3b3b3b"/>
    </g>
    <path id="Trazado_657917" data-name="Trazado 657917" d="M284.091,370.924l106.595,61.542,5.954-3.438L290.045,367.487Z" transform="translate(69.685 82.781)" fill="#010101"/>
    <path id="Trazado_657918" data-name="Trazado 657918" d="M517.506,384.047l-146,86.255-75.43-43.549,146-86.256Z" transform="translate(88.968 39.366)" fill="#b9ada5" opacity="0.7" style="mix-blend-mode: multiply;isolation: isolate"/>
    <g id="Grupo_949122" data-name="Grupo 949122" transform="translate(365.237 316.025)">
      <g id="Grupo_949121" data-name="Grupo 949121">
        <g id="Grupo_949120" data-name="Grupo 949120" style="isolation: isolate">
          <g id="Grupo_949117" data-name="Grupo 949117" transform="translate(168.33 6.352)">
            <g id="Grupo_949116" data-name="Grupo 949116">
              <path id="Trazado_657919" data-name="Trazado 657919" d="M461.281,411.775l-93.847-54.538c-.036-13.393-5.332-33.494-14.42-38.777L446.861,373c9.088,5.282,14.381,14.739,14.42,28.131Z" transform="translate(-353.014 -318.46)" fill="#bbb8b8"/>
            </g>
          </g>
          <path id="Trazado_657920" data-name="Trazado 657920" d="M416.19,354.978c-50.688,29.266-91.835,83.965-91.729,121.949l1.111-.642c-.107-37.282,40.543-91.118,90.623-120.032s90.909-22.121,91.016,15.161v10.646l1.109-.746V370.776C508.213,332.792,466.88,325.712,416.19,354.978Z" transform="translate(-230.614 -282.394)" fill="#d2dbdf"/>
          <path id="Trazado_657921" data-name="Trazado 657921" d="M457.6,321.065c-.125-.073-.25-.143-.376-.214a32.264,32.264,0,0,0-3.412-1.662,36.7,36.7,0,0,0-3.91-1.375,42.664,42.664,0,0,0-4.56-1.046,49.968,49.968,0,0,0-5.392-.629,60.409,60.409,0,0,0-6.537-.05,74.682,74.682,0,0,0-8.087.817,95.559,95.559,0,0,0-10.414,2.228,125.43,125.43,0,0,0-15.2,5.241,167.534,167.534,0,0,0-19.494,9.7,219.1,219.1,0,0,0-43.553,33.4q-6.194,6.092-11.788,12.508-3.979,4.559-7.607,9.227-2.954,3.8-5.653,7.638-2.3,3.267-4.4,6.548-1.859,2.9-3.555,5.809-1.553,2.661-2.966,5.311-1.326,2.488-2.52,4.964-1.131,2.344-2.139,4.667-.986,2.274-1.852,4.526t-1.617,4.5q-.759,2.281-1.385,4.529-.7,2.516-1.221,4.977-.634,2.974-1,5.859a59.147,59.147,0,0,0-.477,7.487l93.847,54.538a58.2,58.2,0,0,1,.477-7.487q.364-2.884,1-5.859.524-2.461,1.223-4.977.622-2.246,1.385-4.531.743-2.234,1.615-4.5.869-2.25,1.855-4.523,1.006-2.324,2.139-4.667,1.193-2.477,2.52-4.967,1.409-2.649,2.963-5.308,1.7-2.9,3.558-5.809,2.1-3.279,4.4-6.548,2.7-3.835,5.653-7.638,3.623-4.66,7.607-9.227,5.58-6.4,11.791-12.511a219.238,219.238,0,0,1,43.55-33.4,167.52,167.52,0,0,1,19.5-9.7,125.279,125.279,0,0,1,15.2-5.241,94.943,94.943,0,0,1,10.411-2.228,74.693,74.693,0,0,1,8.089-.816,60.389,60.389,0,0,1,6.537.05,49.363,49.363,0,0,1,5.392.629,42.636,42.636,0,0,1,4.56,1.046,36.746,36.746,0,0,1,3.91,1.375,32.255,32.255,0,0,1,3.412,1.662c.125.07.25.141.373.214Z" transform="translate(-288.485 -316.025)" fill="url(#linear-gradient-3)"/>
          <g id="Grupo_949118" data-name="Grupo 949118" transform="translate(95.686 1.923)">
            <path id="Trazado_657922" data-name="Trazado 657922" d="M400.232,345.207c-38.359-22.293-38.359-22.293-39.622-22.431l.005.211c.115.086.274.193.394.269,38.153,22.17,38.153,22.17,39.648,22.392-.11-.256-.11-.256-.425-.441Z" transform="translate(-268.151 -307.089)" fill="#bbb8b8"/>
            <path id="Trazado_657923" data-name="Trazado 657923" d="M377.578,332.955c-23.889-13.88-23.889-13.88-24.622-12.9.1.214.112.248.457.459,23.887,13.88,23.887,13.88,24.635,12.886-.1-.193-.128-.237-.47-.443Z" transform="translate(-280.463 -312.061)" fill="#bbb8b8"/>
            <path id="Trazado_657924" data-name="Trazado 657924" d="M397.917,344.723c-33.325-19.366-33.325-19.366-34.368-18.625.081.271.081.271.443.509,33.432,19.429,33.432,19.429,34.4,18.558-.1-.19-.128-.237-.472-.441Z" transform="translate(-263.423 -302.104)" fill="#bbb8b8"/>
            <path id="Trazado_657925" data-name="Trazado 657925" d="M388.675,340.948c-42.765-24.852-42.765-24.852-44.346-23.9l-.052.261a1.94,1.94,0,0,0,.4.383c42.7,24.816,42.7,24.816,44.362,23.871l.044-.245a1.92,1.92,0,0,0-.412-.37Z" transform="translate(-294.424 -316.762)" fill="#bbb8b8"/>
            <path id="Trazado_657926" data-name="Trazado 657926" d="M379.347,335.505c-9.266-5.384-9.266-5.384-9.563-5.507-1.406-.584-3.769-.634-3.5.081a1.007,1.007,0,0,0,.407.383c9.242,5.371,9.242,5.371,9.4,5.434,1.445.605,3.722.636,3.691.047,0-.083-.081-.227-.43-.438Z" transform="translate(-259.059 -296.189)" fill="#bbb8b8"/>
            <path id="Trazado_657927" data-name="Trazado 657927" d="M389.59,341.463c-14.1-8.194-14.1-8.194-14.287-8.282-1.317-.61-3.743-.749-3.686-.06.016.2.269.357.42.454,14.081,8.181,14.081,8.181,14.29,8.28,1.106.511,3.78.728,3.7.047-.023-.193-.321-.373-.433-.438Z" transform="translate(-250.447 -291.188)" fill="#bbb8b8"/>
            <path id="Trazado_657928" data-name="Trazado 657928" d="M357.118,324.049c-11.29-6.561-11.29-6.561-11.449-6.626-1.6-.663-4.015-.464-3.85.316.037.175.287.336.394.4,11.272,6.55,11.272,6.55,11.447,6.623,1.294.537,3.905.472,3.871-.253-.01-.219-.3-.4-.412-.464Z" transform="translate(-298.391 -316.344)" fill="#bbb8b8"/>
            <path id="Trazado_657929" data-name="Trazado 657929" d="M360.675,326.117c-8.157-4.742-8.157-4.742-8.436-4.844-1.62-.6-3.889-.36-3.681.383.052.183.266.321.394.4,8.136,4.729,8.136,4.729,8.439,4.841,1.383.506,3.931.347,3.686-.391a.935.935,0,0,0-.4-.391Z" transform="translate(-287.559 -310.049)" fill="#bbb8b8"/>
            <path id="Trazado_657930" data-name="Trazado 657930" d="M366.917,329.737c-9-5.23-9-5.23-9.3-5.342-1.43-.548-3.905-.407-3.681.383.055.183.269.321.394.4,8.981,5.22,8.981,5.22,9.127,5.275,1.73.66,4.075.344,3.856-.326-.06-.185-.313-.339-.4-.391Z" transform="translate(-278.905 -305.014)" fill="#bbb8b8"/>
            <path id="Trazado_657931" data-name="Trazado 657931" d="M377.066,335.637c-9.266-5.382-9.266-5.382-9.568-5.5-1.432-.553-3.91-.415-3.681.383.052.182.266.321.394.4,9.247,5.374,9.247,5.374,9.4,5.434,1.568.6,4.09.389,3.858-.326-.063-.188-.316-.342-.4-.391Z" transform="translate(-263.016 -295.784)" fill="#bbb8b8"/>
            <path id="Trazado_657932" data-name="Trazado 657932" d="M384.264,339.822c-9.221-5.358-9.221-5.358-9.524-5.475-1.427-.55-3.9-.41-3.678.383.049.183.263.321.389.4,9.208,5.35,9.208,5.35,9.357,5.408,1.693.65,4.077.334,3.858-.326-.063-.185-.318-.342-.4-.391Z" transform="translate(-251.361 -289.01)" fill="#bbb8b8"/>
            <path id="Trazado_657933" data-name="Trazado 657933" d="M371.059,333.918c-9.214-5.355-18.038-11.379-27.646-16.059-1.471-.717-4.362-.331-4.179.556.021.1.083.23.383.423,9.214,5.355,18.036,11.381,27.643,16.059,1.286.626,4.4.357,4.184-.569a.766.766,0,0,0-.386-.409Z" transform="translate(-302.549 -315.599)" fill="#bbb8b8"/>
            <path id="Trazado_657934" data-name="Trazado 657934" d="M374.648,336.007c-9.263-5.384-9.263-5.384-9.574-5.494-1.453-.522-4.036-.19-3.845.689.044.2.256.339.383.423,9.247,5.374,9.247,5.374,9.4,5.428,1.706.61,4.2.089,4.023-.637-.05-.2-.3-.36-.386-.409Z" transform="translate(-267.171 -295.043)" fill="#bbb8b8"/>
            <path id="Trazado_657935" data-name="Trazado 657935" d="M384.7,341.849c-13.8-8.019-13.8-8.019-13.985-8.1-1.43-.592-4.155-.305-4.017.629.029.19.274.352.378.42,13.792,8.014,13.792,8.014,13.99,8.094,1.427.587,4.406.219,3.991-.717a.942.942,0,0,0-.357-.329Z" transform="translate(-258.369 -289.929)" fill="#bbb8b8"/>
            <path id="Trazado_657936" data-name="Trazado 657936" d="M381.44,342.028c-13.476-7.831-26.508-16.426-40.431-23.5-1.56-.793-4.424-.2-4.476.7-.016.277.222.433.381.537,13.476,7.831,26.506,16.432,40.431,23.5,1.5.762,4.445.136,4.482-.712.01-.245-.2-.409-.386-.524Z" transform="translate(-306.882 -314.511)" fill="#bbb8b8"/>
            <path id="Trazado_657937" data-name="Trazado 657937" d="M369.294,334.978c-4.855-2.823-4.855-2.823-5.415-2.937-1.513-.31-3.749.227-3.6,1.088a.73.73,0,0,0,.376.441c4.831,2.809,4.831,2.809,5.22,2.888,1.714.35,3.952-.269,3.8-1.049a.773.773,0,0,0-.381-.43Z" transform="translate(-268.699 -292.328)" fill="#bbb8b8"/>
            <path id="Trazado_657938" data-name="Trazado 657938" d="M380.327,341.387c-10.865-6.313-10.865-6.313-11.024-6.37-1.755-.629-4.3.091-4.166.934a.744.744,0,0,0,.376.443c10.854,6.308,10.854,6.308,11.024,6.368,1.576.563,4.343-.063,4.171-.942-.044-.224-.3-.381-.381-.433Z" transform="translate(-260.877 -287.781)" fill="#bbb8b8"/>
            <path id="Trazado_657939" data-name="Trazado 657939" d="M352.5,327.6c-14.264-8.29-14.264-8.29-14.454-8.361-1.651-.618-4.648.329-4.278,1.351a.751.751,0,0,0,.342.36c14.248,8.28,14.248,8.28,14.454,8.358,1.341.506,4.453-.24,4.307-1.257a.729.729,0,0,0-.37-.451Z" transform="translate(-311.382 -313.091)" fill="#bbb8b8"/>
            <path id="Trazado_657940" data-name="Trazado 657940" d="M377.669,342.225c-10.87-6.315-10.87-6.315-11.027-6.368-1.917-.629-4.617.417-4.278,1.351a.751.751,0,0,0,.342.36c10.857,6.31,10.857,6.31,11.027,6.365,1.589.53,4.448-.3,4.307-1.257a.746.746,0,0,0-.37-.451Z" transform="translate(-265.376 -286.353)" fill="#bbb8b8"/>
            <path id="Trazado_657941" data-name="Trazado 657941" d="M369.546,344.733c-9.224-5.358-9.224-5.358-9.542-5.431-1.578-.365-4.706,1-4.393,2.212a.656.656,0,0,0,.326.394c9.214,5.355,9.214,5.355,9.365,5.389,1.964.454,4.865-1.143,4.576-2.173a.7.7,0,0,0-.331-.391Z" transform="translate(-276.228 -280.602)" fill="#bbb8b8"/>
            <path id="Trazado_657942" data-name="Trazado 657942" d="M362.66,340.735c-9.219-5.358-9.219-5.358-9.54-5.434-1.583-.365-4.714,1-4.393,2.215a.682.682,0,0,0,.329.4c9.208,5.35,9.208,5.35,9.36,5.384,1.964.454,4.865-1.143,4.575-2.173a.685.685,0,0,0-.331-.389Z" transform="translate(-287.303 -287.038)" fill="#bbb8b8"/>
            <path id="Trazado_657943" data-name="Trazado 657943" d="M358.255,333.608q-11.328-6.585-22.658-13.168a1.516,1.516,0,0,0-.146-.073c-1.641-.7-4.935.464-4.576,1.615a.965.965,0,0,0,.336.376q11.328,6.585,22.658,13.168c.042.023.1.052.146.073,1.484.634,4.711-.428,4.6-1.518-.005-.065-.026-.263-.36-.472Z" transform="translate(-316.027 -311.303)" fill="#bbb8b8"/>
            <path id="Trazado_657944" data-name="Trazado 657944" d="M345.467,329.137c-12.858-7.471-12.858-7.471-13.04-7.528-1.714-.54-4.844.845-4.523,2a.685.685,0,0,0,.331.389c12.85,7.468,12.85,7.468,13.04,7.526,1.63.514,4.847-.913,4.523-2.006a.7.7,0,0,0-.331-.383Z" transform="translate(-320.8 -309.161)" fill="#bbb8b8"/>
            <path id="Trazado_657945" data-name="Trazado 657945" d="M338.483,331.4a1.23,1.23,0,0,1,.3.339l-13.614-7.912c1.07.185,13.215,7.5,13.317,7.573Z" transform="translate(-325.166 -305.403)" fill="#bbb8b8"/>
          </g>
          <g id="Grupo_949119" data-name="Grupo 949119" transform="translate(19.572 20.443)">
            <path id="Trazado_657946" data-name="Trazado 657946" d="M365.83,346.194c-8.11-4.711-8.11-4.711-8.408-4.763-1.789-.318-4.7,1.341-4.39,2.5a.691.691,0,0,0,.336.407c8.1,4.711,8.1,4.711,8.4,4.763,1.74.308,4.7-1.377,4.39-2.5a.7.7,0,0,0-.334-.4Z" transform="translate(-204.264 -295.665)" fill="#bbb8b8"/>
            <path id="Trazado_657947" data-name="Trazado 657947" d="M370.079,352.291q-9.888-5.744-19.778-11.493a1.1,1.1,0,0,0-.149-.07c-1.672-.61-5.014,1.273-4.641,2.619a.71.71,0,0,0,.342.415c19.859,11.543,19.859,11.543,19.924,11.567,1.617.587,5-1.323,4.641-2.622a.708.708,0,0,0-.339-.415Z" transform="translate(-216.371 -296.923)" fill="#bbb8b8"/>
            <path id="Trazado_657948" data-name="Trazado 657948" d="M360.219,350.306c-8.851-5.142-8.851-5.142-9.159-5.194-1.57-.271-4.56,1.549-4.182,2.9a.721.721,0,0,0,.342.423c8.846,5.142,8.846,5.142,9.161,5.2,1.529.263,4.552-1.594,4.182-2.9a.736.736,0,0,0-.344-.423Z" transform="translate(-214.179 -289.721)" fill="#bbb8b8"/>
            <path id="Trazado_657949" data-name="Trazado 657949" d="M341,331.539c-12.97-7.536-12.97-7.536-13.155-7.591-1.7-.493-4.912,1.223-4.581,2.447a.689.689,0,0,0,.337.409c12.965,7.534,12.965,7.534,13.152,7.588,1.643.477,4.9-1.265,4.581-2.449a.7.7,0,0,0-.334-.4Z" transform="translate(-252.156 -323.862)" fill="#bbb8b8"/>
            <path id="Trazado_657950" data-name="Trazado 657950" d="M327.134,327.224c-2.684-1.56-2.684-1.56-3.738-1.362-1.748.326-3.456,1.742-3.209,2.661a.7.7,0,0,0,.339.417c2.661,1.547,2.661,1.547,3.73,1.346,1.56-.292,3.469-1.683,3.214-2.65a.692.692,0,0,0-.337-.412Z" transform="translate(-257.099 -320.79)" fill="#bbb8b8"/>
            <path id="Trazado_657951" data-name="Trazado 657951" d="M334.718,335.491c-12.97-7.536-12.97-7.536-13.153-7.586-1.675-.451-4.732,1.555-4.362,2.864a.73.73,0,0,0,.344.425c12.965,7.534,12.965,7.534,13.153,7.583,1.62.438,4.716-1.6,4.359-2.867a.717.717,0,0,0-.342-.42Z" transform="translate(-261.91 -317.462)" fill="#bbb8b8"/>
            <path id="Trazado_657952" data-name="Trazado 657952" d="M331.694,337.684c-12.97-7.536-12.97-7.536-13.15-7.583-1.672-.436-4.635,1.7-4.231,3.042a.746.746,0,0,0,.352.43c12.967,7.536,12.967,7.536,13.15,7.583,1.607.42,4.609-1.74,4.226-3.042a.734.734,0,0,0-.347-.43Z" transform="translate(-266.571 -313.919)" fill="#bbb8b8"/>
            <path id="Trazado_657953" data-name="Trazado 657953" d="M323.632,344.545c-12.965-7.536-12.965-7.536-13.145-7.581-1.625-.4-4.268,2.011-3.772,3.436a.852.852,0,0,0,.37.449c12.967,7.534,12.967,7.534,13.145,7.578,1.557.381,4.234-2.061,3.769-3.435a.8.8,0,0,0-.368-.446Z" transform="translate(-278.83 -302.854)" fill="#bbb8b8"/>
            <path id="Trazado_657954" data-name="Trazado 657954" d="M325.3,349.9c-17.391-10.108-17.391-10.108-17.449-10.127-1.7-.545-4.072,1.878-3.756,3.334a.914.914,0,0,0,.423.6c17.389,10.106,17.389,10.106,17.446,10.124,1.628.522,4.036-1.928,3.751-3.336a.883.883,0,0,0-.415-.595Z" transform="translate(-282.986 -298.399)" fill="#bbb8b8"/>
            <path id="Trazado_657955" data-name="Trazado 657955" d="M315.722,348.68c-10.492-6.1-10.492-6.1-10.643-6.125-1.576-.3-3.759,1.936-3.386,3.464a.976.976,0,0,0,.438.605c10.489,6.1,10.489,6.1,10.641,6.125,1.625.308,3.694-2.1,3.378-3.464a.946.946,0,0,0-.428-.605Z" transform="translate(-286.879 -293.836)" fill="#bbb8b8"/>
            <path id="Trazado_657956" data-name="Trazado 657956" d="M352.154,361.123c-13.687-7.954-13.687-7.954-13.872-8-1.63-.423-4.273,1.985-3.769,3.436a.818.818,0,0,0,.365.446c13.69,7.956,13.69,7.956,13.878,8,1.568.407,4.244-2.035,3.767-3.435a.809.809,0,0,0-.368-.446Z" transform="translate(-234.12 -276.876)" fill="#bbb8b8"/>
            <path id="Trazado_657957" data-name="Trazado 657957" d="M346.7,362.327c-9.417-5.475-9.417-5.475-9.558-5.5-1.761-.284-3.9,2-3.6,3.381a.914.914,0,0,0,.423.6c9.417,5.473,9.417,5.473,9.558,5.494,1.74.279,3.876-2.009,3.595-3.383a.875.875,0,0,0-.417-.595Z" transform="translate(-235.617 -270.867)" fill="#bbb8b8"/>
            <path id="Trazado_657958" data-name="Trazado 657958" d="M354.618,371.293c-26.4-15.344-26.4-15.344-26.488-15.375-1.45-.579-3.931,1.816-3.54,3.415a.961.961,0,0,0,.436.608c26.4,15.344,26.4,15.344,26.488,15.375,1.427.569,3.905-1.826,3.535-3.417a.955.955,0,0,0-.43-.605Z" transform="translate(-250.045 -272.439)" fill="#bbb8b8"/>
            <path id="Trazado_657959" data-name="Trazado 657959" d="M334.284,391.22c-2.817-1.636-6.571-3.819-9.386-5.455-7.787-4.526-15.252-9.6-23.363-13.575-1.283-.629-1.907.929-1.557,2.223a2.366,2.366,0,0,0,.983,1.435q7.039,4.089,14.079,8.181c6.222,3.615,12.193,7.669,18.67,10.849,1.268.621,1.836-.916,1.521-2.212a2.347,2.347,0,0,0-.947-1.445Z" transform="translate(-289.724 -246.352)" fill="#bbb8b8"/>
            <path id="Trazado_657960" data-name="Trazado 657960" d="M315.753,353.032c-12.962-7.534-12.962-7.534-13.139-7.578-1.458-.365-3.571,2-3.141,3.509a1.043,1.043,0,0,0,.454.608c12.965,7.534,12.965,7.534,13.137,7.575,1.43.357,3.54-2,3.136-3.509a.988.988,0,0,0-.446-.605Z" transform="translate(-290.473 -289.189)" fill="#bbb8b8"/>
            <path id="Trazado_657961" data-name="Trazado 657961" d="M331.127,340.6C318.035,333,318.035,333,317.169,332.954c-3.143-.157-8.175,3.892-7.286,6.6a1.6,1.6,0,0,0,.725.884c13.069,7.6,13.069,7.6,13.567,7.62,3.861.19,8.389-4.21,7.659-6.579a1.511,1.511,0,0,0-.707-.871Z" transform="translate(-273.804 -309.244)" fill="#bbb8b8"/>
            <path id="Trazado_657962" data-name="Trazado 657962" d="M354.961,354.447c-7.948-4.617-7.948-4.617-9.349-4.432-3.182.423-7.275,4.067-6.467,6.534a1.588,1.588,0,0,0,.723.884c7.912,4.6,7.912,4.6,8.908,4.463,3.889-.519,7.539-4.482,6.892-6.576a1.538,1.538,0,0,0-.707-.874Z" transform="translate(-226.733 -281.883)" fill="#bbb8b8"/>
            <path id="Trazado_657963" data-name="Trazado 657963" d="M356.338,355.263c-18.959-11.019-18.959-11.019-19.6-11.123-3.021-.506-8.6,3.717-7.664,6.574a1.6,1.6,0,0,0,.725.884c18.951,11.013,18.951,11.013,19.238,11.063,3.749.623,8.775-4.049,8.008-6.524a1.541,1.541,0,0,0-.712-.874Z" transform="translate(-242.929 -291.31)" fill="#bbb8b8"/>
            <path id="Trazado_657964" data-name="Trazado 657964" d="M311.29,354.68l-1.769-1.028c-5.032,8.517-9.378,15.871-13.533,28.019l1.769,1.028A133.746,133.746,0,0,1,311.29,354.68Z" transform="translate(-295.988 -275.941)" fill="#bbb8b8"/>
            <path id="Trazado_657965" data-name="Trazado 657965" d="M312.45,355.354l-1.769-1.028c-5.032,8.517-9.378,15.871-13.533,28.021l1.769,1.028a133.817,133.817,0,0,1,13.533-28.021Z" transform="translate(-294.122 -274.857)" fill="#bbb8b8"/>
            <path id="Trazado_657966" data-name="Trazado 657966" d="M313.615,356.029,311.846,355c-5.032,8.517-9.378,15.873-13.536,28.021l1.769,1.028a133.721,133.721,0,0,1,13.536-28.022Z" transform="translate(-292.253 -273.771)" fill="#bbb8b8"/>
            <path id="Trazado_657967" data-name="Trazado 657967" d="M314.775,356.7l-1.769-1.028c-5.032,8.517-9.378,15.873-13.533,28.022l1.769,1.028A133.815,133.815,0,0,1,314.775,356.7Z" transform="translate(-290.382 -272.684)" fill="#bbb8b8"/>
            <path id="Trazado_657968" data-name="Trazado 657968" d="M315.935,357.379l-1.769-1.028c-5.032,8.517-9.378,15.873-13.533,28.021L302.4,385.4a133.813,133.813,0,0,1,13.533-28.022Z" transform="translate(-288.516 -271.6)" fill="#bbb8b8"/>
            <path id="Trazado_657969" data-name="Trazado 657969" d="M317.1,358.055l-1.769-1.028c-5.032,8.517-9.378,15.871-13.533,28.022l1.769,1.025A133.871,133.871,0,0,1,317.1,358.055Z" transform="translate(-286.645 -270.512)" fill="#bbb8b8"/>
            <path id="Trazado_657970" data-name="Trazado 657970" d="M318.255,358.727l-1.763-1.025c-5.032,8.517-9.378,15.873-13.533,28.021l1.763,1.025a133.813,133.813,0,0,1,13.533-28.022Z" transform="translate(-284.776 -269.427)" fill="#bbb8b8"/>
            <path id="Trazado_657971" data-name="Trazado 657971" d="M319.423,359.4l-1.769-1.028c-5.035,8.517-9.38,15.871-13.536,28.019l1.769,1.028A133.654,133.654,0,0,1,319.423,359.4Z" transform="translate(-282.91 -268.341)" fill="#bbb8b8"/>
            <path id="Trazado_657972" data-name="Trazado 657972" d="M320.583,360.08l-1.769-1.028c-5.032,8.517-9.378,15.873-13.533,28.021l1.769,1.028a133.81,133.81,0,0,1,13.533-28.021Z" transform="translate(-281.039 -267.255)" fill="#bbb8b8"/>
            <path id="Trazado_657973" data-name="Trazado 657973" d="M321.743,360.752l-1.769-1.025c-5.032,8.514-9.378,15.871-13.533,28.019l1.769,1.028a133.814,133.814,0,0,1,13.533-28.022Z" transform="translate(-279.173 -266.169)" fill="#bbb8b8"/>
            <path id="Trazado_657974" data-name="Trazado 657974" d="M322.906,361.43l-1.769-1.028c-5.032,8.517-9.378,15.873-13.533,28.022l1.769,1.028a133.681,133.681,0,0,1,13.533-28.022Z" transform="translate(-277.303 -265.083)" fill="#bbb8b8"/>
            <path id="Trazado_657975" data-name="Trazado 657975" d="M324.068,362.106l-1.769-1.028c-5.032,8.517-9.378,15.871-13.533,28.019l1.769,1.028a133.744,133.744,0,0,1,13.533-28.019Z" transform="translate(-275.433 -263.996)" fill="#bbb8b8"/>
            <path id="Trazado_657976" data-name="Trazado 657976" d="M325.231,362.78l-1.769-1.028c-5.035,8.517-9.38,15.871-13.536,28.021l1.769,1.028a133.72,133.72,0,0,1,13.536-28.021Z" transform="translate(-273.567 -262.912)" fill="#bbb8b8"/>
            <path id="Trazado_657977" data-name="Trazado 657977" d="M326.391,363.455l-1.769-1.028c-5.032,8.517-9.378,15.873-13.533,28.021l1.769,1.028a133.816,133.816,0,0,1,13.533-28.021Z" transform="translate(-271.697 -261.826)" fill="#bbb8b8"/>
            <path id="Trazado_657978" data-name="Trazado 657978" d="M327.553,364.131l-1.766-1.028c-5.032,8.517-9.378,15.873-13.536,28.022l1.769,1.028a133.816,133.816,0,0,1,13.533-28.021Z" transform="translate(-269.827 -260.739)" fill="#bbb8b8"/>
            <path id="Trazado_657979" data-name="Trazado 657979" d="M328.714,364.8l-1.769-1.028c-5.032,8.517-9.378,15.873-13.533,28.021l1.769,1.028A133.684,133.684,0,0,1,328.714,364.8Z" transform="translate(-267.96 -259.654)" fill="#bbb8b8"/>
            <path id="Trazado_657980" data-name="Trazado 657980" d="M329.876,365.481l-1.769-1.028c-5.032,8.517-9.378,15.871-13.533,28.022l1.769,1.028a133.813,133.813,0,0,1,13.533-28.021Z" transform="translate(-266.091 -258.567)" fill="#bbb8b8"/>
            <path id="Trazado_657981" data-name="Trazado 657981" d="M331.034,366.153l-1.763-1.025c-5.032,8.517-9.378,15.873-13.533,28.021l1.761,1.025a133.722,133.722,0,0,1,13.536-28.022Z" transform="translate(-264.22 -257.481)" fill="#bbb8b8"/>
            <path id="Trazado_657982" data-name="Trazado 657982" d="M332.2,366.831,330.43,365.8c-5.032,8.517-9.378,15.871-13.533,28.019l1.769,1.028A133.744,133.744,0,0,1,332.2,366.831Z" transform="translate(-262.354 -256.395)" fill="#bbb8b8"/>
            <path id="Trazado_657983" data-name="Trazado 657983" d="M333.361,367.506l-1.766-1.028c-5.035,8.517-9.38,15.873-13.536,28.021l1.769,1.028a133.816,133.816,0,0,1,13.533-28.021Z" transform="translate(-260.485 -255.31)" fill="#bbb8b8"/>
            <path id="Trazado_657984" data-name="Trazado 657984" d="M334.519,368.179l-1.763-1.025c-5.032,8.517-9.378,15.871-13.533,28.019l1.763,1.025a133.609,133.609,0,0,1,13.533-28.019Z" transform="translate(-258.614 -254.222)" fill="#bbb8b8"/>
          </g>
        </g>
      </g>
    </g>
  </g>
</svg>
