<svg xmlns="http://www.w3.org/2000/svg" width="368.526" height="504.157" viewBox="0 0 368.526 504.157">
  <g id="Grupo_949225" data-name="Grupo 949225" transform="translate(-616.182 -6901.951)">
    <path id="Trazado_658005" data-name="Trazado 658005" d="M431.759,392.769c-1.624-2.5-.837-6.065-3.606-8.089-.212-.153-.007-1.044.172-1.531.885-2.376.611-2.842-2.46-3.211-.111-2.275-.147-4.649-.381-7a4.339,4.339,0,0,0-1.031-2.413c-3.248-3.345-6.647-6.537-9.876-9.9a6.269,6.269,0,0,0-5.052-2.267c-.987.038-2.007-.55-3.613-1.032a33.893,33.893,0,0,1,2.971-3.255c3.035-2.518,6.194-4.892,9.229-7.415a20.136,20.136,0,0,0,3.3-3.425c.924-1.248,1.52-2.6-.449-3.778-.7-.42-1-1.656-1.3-2.579-.708-2.231-1.182-4.542-1.976-6.738-.518-1.416-1.42-2.4-3.306-1.487-1.75.842-2.945-.6-3.132-1.924-.716-5.111-4.017-9.614-3.262-15.088.341-2.514-.123-4.986-2.906-6.424-.554-.288-.9-2.345-.46-2.963,1.771-2.491,1.75-5.184,1.548-7.97-.241-3.348-.532-6.694-.74-10.044-.227-3.413,1.089-5.859,4.5-6.961a12.638,12.638,0,0,0,2.267-1.083c1.437-.812,1.9-1.727,1.042-3.472-1.8-3.645-.988-6.8,2.048-9.455,4.152-3.634,4.206-6.109.215-9.942-2.468-2.368-6.5-2.518-10.393-1.119-10.157,3.644-20.571,5.355-31.341,3.171-1.319-.267-2.626-.6-3.956-.755a4.9,4.9,0,0,0-5.313,2.542c-1.056,1.928-2.237,3.043-4.171.925-.165-.178-.481-.42-.633-.369-2.845,1.019-3.108-1.57-4.231-2.975q-8.963-11.215-17.934-22.427a2.6,2.6,0,0,0-3.819-.46c-2.9,1.933-5.565,1.166-8.274-.3a38.393,38.393,0,0,1-4.206-2.266c-2.821-2.02-5.468-1.695-8.142.2-.753.534-1.581.98-2.278,1.575-1.48,1.268-2.877,1.172-4.62.359a12.611,12.611,0,0,0-5.212-1.329c-7.12.07-14.242.413-21.362.6a1.791,1.791,0,0,1-1.408-.709c-1.279-2.6-2.569-5.218-3.6-7.926-.678-1.8-1.07-3.5-3.589-2.389a1.919,1.919,0,0,1-1.2-.138c-3.585-1.2-6.3-7-4.947-10.523,1.488-3.864,1.488-3.939-.169-6.127,4.944-2.794,4.85-3.8,3.165-9.708-1.023-3.585-3.082-5.757-5.69-7.887a13.125,13.125,0,0,1-5.105-10.465c-.054-2.347-1.264-4.753-2.321-6.954-.586-1.216-1.794-1.687-3.338-.547-1.786,1.318-2.558.694-2.673-1.638-.058-1.268-.319-2.526-.488-3.789l-.751-.206a15.832,15.832,0,0,1-2.141,2.479,31.8,31.8,0,0,1-3.621,2.117c-.607-1.581-1.715-3.172-1.672-4.734a9.347,9.347,0,0,1,1.991-4.53c2.149-3.1,4.476-6.081,6.79-9.064,1.1-1.421,1.782-2.645.556-4.5-.509-.776-.2-2.39.22-3.423,1.02-2.479,2.417-4.759,1.132-7.654-.295-.665.345-1.948.866-2.744,1.325-2.036,2.913-3.907,4.239-5.942,2.55-3.917,5.169-7.807,7.426-11.891a14.415,14.415,0,0,1,7.45-6.766,6.1,6.1,0,0,0,2.778-2.536c1.957-3.515,3.771-7.119,5.464-10.771a4.286,4.286,0,0,1,4.055-2.821c5.454-.078,10.048-2.961,15.016-4.585,1.1-.363,2.019-2.128,2.465-3.44.484-1.4.729-2.36,2.535-2.452.87-.043,1.854-1.038,2.429-1.851.173-.253-.8-1.361-1.307-2.034-.9-1.2-1.886-2.325-2.738-3.553-1.3-1.892-2.429-3.731-5.332-3.376-.894.107-1.969-1.279-2.964-1.979h-3.531c-1.174.936-2.329,1.909-3.546,2.794a3.9,3.9,0,0,1-1.587.649c-1.114.194-2.239.265-3.362.389.387,1,.768,2.006,1.256,3.285-.83,1.034-1.634,2.854-3.437.306a2.31,2.31,0,0,0-2.113-.684,3.026,3.026,0,0,0-1.559,1.943c-.89,4.966-2.892,8.843-7.961,10.952a28.467,28.467,0,0,1-9.165,2.188c-1.495.106-3.165,1.357-4.279,2.535-5.18,5.475-11.094,10.068-18.455,11.6-5.309,1.107-11,.981-16.118-1.989-3.138-1.819-7,.587-7.376,4.48a17.659,17.659,0,0,0,.04,2.01c.05,2.948-2.077,5.391-5,4.979a29.9,29.9,0,0,1-8.824-2.534c-3.592-1.748-5.159-1.619-7.969,1.015-3.358,3.146-6.683,6.656-10.69,8.715-6.494,3.344-7.955,9-8.742,15.214-.169,1.33.692,2.846,1.26,4.2.8,1.918,1.142,3.555-.719,5.2-1.892,1.666-2.015,3.947-1.279,6.274.357,1.118.873,2.2,1.115,3.337a4.582,4.582,0,0,1-5.845,5.471c-3.887-.992-6.794,1.039-9.771,3.066s-2.949,5.659-4.806,8.253a12.837,12.837,0,0,1-1.721,2.089,68.443,68.443,0,0,1-7.565,6.541c-2.578,1.72-5.6,2.775-8.462,4.062a11.889,11.889,0,0,1-2.569.306c1.02,1.484,1.516,2.845,2.49,3.478a5.425,5.425,0,0,1,2.8,4.747c0,4.176,2.447,8.408-.176,12.519-.476.745-1.447,1.941-1.866,1.819a8.546,8.546,0,0,1-3.559-2.082c-.323-.327.147-1.87.666-2.543,2.436-3.171,2.472-3.108-.862-5.194a10.257,10.257,0,0,1-2.318-1.905c-2.746-3.175-5.389-6.438-8.154-9.6-.56-.639-1.953-1.5-2.179-1.316a9.042,9.042,0,0,0-2.373,3.042c-.194.416.534,1.354.969,1.964,3.246,4.541,6.518,9.085,6.277,15.046a3.328,3.328,0,0,1-1.3,2.5c-3.419,1.621-4.614,4.956-6.5,7.777a8.7,8.7,0,0,1-2.174,2.317c-1.447,1-2.618.709-3.376-1.055a26.782,26.782,0,0,0-1.829-3.1c-.328.05-.656.094-.984.139a14.348,14.348,0,0,0-.141,3.86c.354,1.522.205,2.357-1.386,2.864-2.928.936-2.3,3.845-2.837,5.943-.182.72,1.363,2.011,2.294,2.849a26.467,26.467,0,0,0,2.939,1.933,3.715,3.715,0,0,1,1.658,4.559,1.635,1.635,0,0,0,.04.816c.005.023,0,.042,0,.064.013.05.043.1.059.15a5.4,5.4,0,0,0,.259.656c.032.068.059.131.094.2.134.264.275.523.406.756.924,1.629,1.994,3.177,3.134,4.963.324-.158.946-.46,1.571-.766.157.054.363.063.458.17a10.08,10.08,0,0,1,.3,13.552c-.448.538-.184,1.94.145,2.794.766,1.987,1.764,3.888,2.679,5.818a9.8,9.8,0,0,0,1.122,2.179c3.016,3.584,1.809,7.647-2.76,9.1-.559.176-1.153.237-1.7.438-1.971.729-1.865,1.3-.634,3a13.647,13.647,0,0,1,2.125,5.105,50.592,50.592,0,0,1,.457,6.21c.168,1.981.432,3.952.658,5.926a2.838,2.838,0,0,0,.153.989c2.61,5.007-.377,9.993-.082,15,.1,1.708-1.233,2.725-2.945,3.314-2.583.893-3.062,3.239-1.29,5.329,1.5,1.764,2.956,3.557,4.3,5.168.06-.741-.184-2.01.318-2.825a6.09,6.09,0,0,1,2.764-1.995c.307-.134,1.363.633,1.555,1.173.913,2.55-1.343,3-2.833,3.88.538,2.392,2.5,3.191,4.344,1.953a2.737,2.737,0,0,1,2.233-.449,2.611,2.611,0,0,1,.941,2.067c0,.409-1.024.747-1.473,1.223-.55.586-1.359,1.262-1.4,1.933a4.613,4.613,0,0,1-3.413,4.478c-2,.681-2.877,1.881-2.357,4.01.477,1.961-1,2.75-2.337,3.392a6.567,6.567,0,0,0-3.8,4.041,5.181,5.181,0,0,1-2.006,2.807c-2.578,1.41-3.024,3.644-3.35,6.234-.477,3.777-2.333,5.625-6.031,6.4a4.992,4.992,0,0,0-3.916,3.488c-.232.621-.945,1.059-1.436,1.579A7.475,7.475,0,0,1,93.51,365.6c-1.156-2.581-2.345-2.8-4.185-.648-.6.7-1.1,1.5-1.754,2.14a3.086,3.086,0,0,1-1.648,1.018c-4.791.306-7.51,4.5-6.144,9.119a6.836,6.836,0,0,1-.479,4.645c-.938,1.806-1.129,3.122.125,4.818.586.795.528,2.063.761,3.122a10.787,10.787,0,0,1-3.059.188c-5.845-1.353-7.1-.932-10.335,3.826v2.522c1.839,1.441,3.664,2.9,5.5,4.344.418.328.83.664,1.251.988h.047c.946.731,1.884,1.475,2.854,2.173,2.364,1.7,4.988,3.026,7.438,4.617,2.362,1.534,5.3,2.724,6.84,4.884,3.893,5.455,8.728,7.3,15.054,5.647,1.74-.453,2.5.026,3.075,1.811a7.077,7.077,0,0,0,2.629,3.156c1.626,1.182,2.606,2.355,2.382,4.558-.267,2.6,1.633,4.911,4.244,4.472,5.11-.861,9.213,1.107,13.758,2.861,3.538,1.363,7.891.713,11.882.716.554,0,1.4-1.308,1.611-2.138.766-2.984,2.274-4.3,5.222-3.361a29.293,29.293,0,0,1,6.782,3.625A14.2,14.2,0,0,1,160.81,438c1.961,2.586,4.608,3.622,7.647,4.381a38.51,38.51,0,0,1,7.1,3.008c2.031.979,3.8,1.775,5.977-.017,1.713-1.412,3.933-.787,5.286.983a9.357,9.357,0,0,0,7.013,3.929c1.739.113,2.389.93,2.892,2.522a7.7,7.7,0,0,0,2.342,3.251,22.2,22.2,0,0,0,3.895,2.294,9.1,9.1,0,0,1,5.171,6.906c.509,3.034,2.034,5.919,3.266,8.8a3.771,3.771,0,0,0,1.861,1.556c2.1.983,4.328,1.692,6.359,2.781,1.141.613,1.9,1.9,3,2.633a9.268,9.268,0,0,0,3.483,1.506c5.3.85,8.262,3.252,9.193,8.191a6.274,6.274,0,0,1-.823,4.125c-1.074,1.705-.426,2.747.963,3.118a23.9,23.9,0,0,0,6.174.728c3.149,0,4.015.521,4.644,3.632q.545,2.715.9,5.464c.216,1.626.639,3.207-1.778,3.92-1.613.475-1.469,2.2.1,2.972a4.84,4.84,0,0,0,1.914.566c2.321.06,4.393.278,4.509,3.365.011.264,1.362.818,1.936.661,2.286-.631,4.491-1.551,6.769-2.22a6.584,6.584,0,0,1,2.209.137c3.338.261,6.671.715,10.009.7,1.451,0,2.881-1.035,4.357-1.473a8.616,8.616,0,0,1,3.338-.58c2.468.311,3.909-.76,5.1-2.776,2.8-4.75,3.23-4.807,7.95-1.964,1.94,1.169,3.862,2.377,5.841,3.468a7.293,7.293,0,0,0,8.677-.808c3.294-2.6,9.686-2.059,12.57,1,1.4,1.491,2.54,3.235,5.163,2.821a3.956,3.956,0,0,1,3.061,1.487c2.023,2.744,5.045,3.77,7.879,5.173,3.8,1.884,4.3,3.5,1.548,6.77a99.876,99.876,0,0,0-12.9,20.069c-.909,1.839-2.645,3.25-3.744,5.022a15.428,15.428,0,0,0-1.16,3.64c1.26.286,2.562.92,3.764.774a18.533,18.533,0,0,0,5.785-1.577c2.443-1.174,4.041-.475,5.292,1.6,1.771,2.933,3.463,5.916,5.328,9.122-.586.058-1.031.139-1.477.139l3.813-.017c.219-2.032.3-3.79.614-5.507,2.654-14.347,5.27-28.7,8.055-43.022,2.252-11.594,4.85-23.126,7.041-34.73,1.009-5.367.517-10.67-2.856-15.33-.938-1.291-1.811-2.626-2.748-3.917a2.975,2.975,0,0,1-.126-3.869c1.645-2.5.941-4.269-1.767-5.7-2.656-1.4-5.27-2.89-7.907-4.336a5.745,5.745,0,0,1-3.291-5.026c-.173-6.116-.334-12.239-.255-18.356a4,4,0,0,1,1.951-2.894c2.975-1.452,6.19-3.612,9.2-3.447A6.652,6.652,0,0,0,356.9,421.3c.229-.243,1.465.173,1.994.593.9.717,1.487,2.136,2.453,2.425a7.649,7.649,0,0,0,4.444-.051c1.544-.542,1.621-2.1,1.157-3.659-.546-1.846-.879-3.756-1.39-5.615-.776-2.854-2.35-3.407-5.227-3.428a123.577,123.577,0,0,1-13.688-1.16,2.505,2.505,0,0,1-1.5-1.928c.18-2.347.4-4.692.638-7.037q.442-4.48.993-8.946c.054-.458,1.027-1.05,1.645-1.152a42.5,42.5,0,0,1,7.92-.964c3.762.1,7.491.968,11.249,1.079,8.795.265,17.6.287,26.4.365a6.3,6.3,0,0,0,1.739-.552,27.027,27.027,0,0,1-1.673-4.061,3.038,3.038,0,0,1,.452-2.532,2.642,2.642,0,0,1,2.49-.1,39.53,39.53,0,0,1,4.326,3.336c1.369,1.107,2.719,2.242,4.515,3.722.406-1.638.4-2.664.888-3.341.92-1.292,1.922-2.994,3.244-3.42a10.729,10.729,0,0,0,6.119-4.509c.952-1.483,2.071-2.709,4.1-2.081a3.638,3.638,0,0,1,2.752,4.246c-.479,3.94,1.519,6.652,3.592,9.771a14.608,14.608,0,0,1,1.232,2.329c.138.322.251.661.374.993.2.526.4,1.05.566,1.593.137.436.266.875.392,1.316.2.686.4,1.37.591,2.058.1.365.2.732.31,1.093h.016c.127.433.245.873.386,1.3a6.587,6.587,0,0,1,.115,1.754c.176,4.286.582,4.561,4.806,3.212v-6.554C435.176,398.088,433.476,395.421,431.759,392.769Z" transform="translate(549.389 6836.316)" fill="#ffd667"/>
    <g id="indio" transform="translate(685 6908.621)">
      <path id="Trazado_658006" data-name="Trazado 658006" d="M84.97,236.6H24.641a1.828,1.828,0,0,1-1.828-1.828V211.59H86.8v23.177A1.828,1.828,0,0,1,84.97,236.6Zm0,0" transform="translate(-18.854 -174.876)" fill="#3f444c"/>
      <path id="Trazado_658007" data-name="Trazado 658007" d="M347.764,7.5c-1.966,0-4.692,13.155-4.238,17.436s2.683,10.979,4.238,10.979,3.783-6.7,4.238-10.979S349.73,7.5,347.764,7.5Zm0,0" transform="translate(-283.878 -6.199)" fill="#e15f76"/>
      <path id="Trazado_658008" data-name="Trazado 658008" d="M350.035,177.224a5.967,5.967,0,1,1-5.967-5.967A5.968,5.968,0,0,1,350.035,177.224Zm0,0" transform="translate(-279.436 -141.542)" fill="#cc9883"/>
      <path id="Trazado_658009" data-name="Trazado 658009" d="M19.438,177.224a5.967,5.967,0,1,1-5.967-5.967A5.968,5.968,0,0,1,19.438,177.224Zm0,0" transform="translate(-6.202 -141.542)" fill="#cc9883"/>
      <path id="Trazado_658010" data-name="Trazado 658010" d="M45.711,371.039a28.019,28.019,0,1,1,56.039,0Zm0,0" transform="translate(-37.779 -283.5)" fill="#e3b098"/>
      <path id="Trazado_658011" data-name="Trazado 658011" d="M139.178,343.02a27.884,27.884,0,0,0-14.279,3.909,32.668,32.668,0,0,0,28.558,0A27.886,27.886,0,0,0,139.178,343.02Zm0,0" transform="translate(-103.227 -283.5)" fill="#cc9883"/>
      <path id="Trazado_658012" data-name="Trazado 658012" d="M238.826,347.852l-1.615,27.181H251.8V355.2A27.989,27.989,0,0,0,238.826,347.852Zm0,0" transform="translate(-196.051 -287.494)" fill="#9b6a57"/>
      <path id="Trazado_658013" data-name="Trazado 658013" d="M244.9,347.852l-.34,5.71a32.488,32.488,0,0,0,7.792-2.638A27.886,27.886,0,0,0,244.9,347.852Zm0,0" transform="translate(-202.127 -287.494)" fill="#845a4a"/>
      <path id="Trazado_658014" data-name="Trazado 658014" d="M76.334,343.141c-.857-.079-1.726-.121-2.6-.121a28.019,28.019,0,0,0-28.019,28.019h5.208A28.022,28.022,0,0,1,76.334,343.141Zm0,0" transform="translate(-37.779 -283.5)" fill="#cc9883"/>
      <path id="Trazado_658015" data-name="Trazado 658015" d="M93.121,355.2v19.832h14.584l-1.615-27.181A27.985,27.985,0,0,0,93.121,355.2Zm0,0" transform="translate(-76.963 -287.494)" fill="#9b6a57"/>
      <path id="Trazado_658016" data-name="Trazado 658016" d="M106.2,349.672l-.108-1.821A27.98,27.98,0,0,0,93.121,355.2v7.172A28.133,28.133,0,0,1,106.2,349.672Zm0,0" transform="translate(-76.963 -287.494)" fill="#845a4a"/>
      <path id="Trazado_658017" data-name="Trazado 658017" d="M132.366,347.852a27.855,27.855,0,0,0-7.452,3.072,32.462,32.462,0,0,0,7.791,2.638Zm0,0" transform="translate(-103.24 -287.494)" fill="#845a4a"/>
      <path id="Trazado_658018" data-name="Trazado 658018" d="M93.911,52.61a30.1,30.1,0,1,1-30.1-30.1A30.1,30.1,0,0,1,93.911,52.61Zm0,0" transform="translate(-27.858 -18.602)" fill="#fbc4ac"/>
      <path id="Trazado_658019" data-name="Trazado 658019" d="M33.707,115.755c0,.056,0,.111,0,.167h60.2c0-.056,0-.111,0-.167A29.959,29.959,0,0,0,88.759,98.91h-49.9A29.959,29.959,0,0,0,33.707,115.755Zm0,0" transform="translate(-27.858 -81.748)" fill="#e3b098"/>
      <path id="Trazado_658020" data-name="Trazado 658020" d="M38.916,52.61a30.1,30.1,0,0,1,27.5-29.989c-.859-.073-1.727-.113-2.6-.113a30.1,30.1,0,0,0,0,60.2c.877,0,1.745-.04,2.6-.114A30.1,30.1,0,0,1,38.916,52.61Zm0,0" transform="translate(-27.858 -18.602)" fill="#e3b098"/>
      <path id="Trazado_658021" data-name="Trazado 658021" d="M51.987,7.5A32.751,32.751,0,0,0,19.4,37.368S41.569,40.7,51.987,28.2C62.4,40.7,84.571,37.368,84.571,37.368A32.751,32.751,0,0,0,51.987,7.5Zm0,0" transform="translate(-16.036 -6.199)" fill="#5c626b"/>
      <path id="Trazado_658022" data-name="Trazado 658022" d="M24.611,37.369A32.761,32.761,0,0,1,54.591,7.6c-.859-.068-1.728-.1-2.6-.1A32.751,32.751,0,0,0,19.4,37.368a52.461,52.461,0,0,0,9.2.342C26.148,37.6,24.611,37.369,24.611,37.369Zm0,0" transform="translate(-16.036 -6.199)" fill="#535860"/>
      <path id="Trazado_658023" data-name="Trazado 658023" d="M77.547,125.717H13.318a1.846,1.846,0,0,1-1.846-1.846v-8.115a1.846,1.846,0,0,1,1.846-1.846H77.547a1.846,1.846,0,0,1,1.846,1.846v8.115A1.846,1.846,0,0,1,77.547,125.717Zm0,0" transform="translate(-9.482 -94.145)" fill="#9b6a57"/>
      <path id="Trazado_658024" data-name="Trazado 658024" d="M16.681,123.87v-8.115a1.846,1.846,0,0,1,1.846-1.846H13.318a1.846,1.846,0,0,0-1.846,1.846v8.115a1.846,1.846,0,0,0,1.846,1.846h5.209A1.847,1.847,0,0,1,16.681,123.87Zm0,0" transform="translate(-9.482 -94.145)" fill="#845a4a"/>
      <path id="Trazado_658025" data-name="Trazado 658025" d="M281.446,250.149l-4.269,4.27a1.133,1.133,0,0,0,0,1.6l7.247,7.247a30.283,30.283,0,0,0,5.489-6.255l-6.865-6.865A1.133,1.133,0,0,0,281.446,250.149Zm0,0" transform="translate(-228.808 -206.47)" fill="#e15f76"/>
      <path id="Trazado_658026" data-name="Trazado 658026" d="M62.219,257.014a30.284,30.284,0,0,0,5.489,6.255l7.247-7.247a1.133,1.133,0,0,0,0-1.6l-4.269-4.27a1.133,1.133,0,0,0-1.6,0Zm0,0" transform="translate(-51.423 -206.47)" fill="#e15f76"/>
      <path id="Trazado_658027" data-name="Trazado 658027" d="M68.112,125.056a.579.579,0,0,1,1,0l2.53,4.383,3.032,5.251H62.551l3.031-5.251Zm0,0" transform="translate(-51.697 -103.118)" fill="#ffe78c"/>
      <path id="Trazado_658028" data-name="Trazado 658028" d="M177.811,125.056a.579.579,0,0,1,1,0l2.53,4.383,3.032,5.251H172.25l3.031-5.251Zm0,0" transform="translate(-142.362 -103.118)" fill="#f9993e"/>
      <path id="Trazado_658029" data-name="Trazado 658029" d="M287.507,125.056a.579.579,0,0,1,1,0l2.53,4.383,3.031,5.251H281.945l3.032-5.251Zm0,0" transform="translate(-233.024 -103.118)" fill="#ffe78c"/>
      <path id="Trazado_658030" data-name="Trazado 658030" d="M65.534,272.191l-3.315,3.314a30.283,30.283,0,0,0,5.489,6.255l2.573-2.572A30.15,30.15,0,0,1,65.534,272.191Zm0,0" transform="translate(-51.423 -224.962)" fill="#bf5164"/>
      <path id="Trazado_658031" data-name="Trazado 658031" d="M261.011,237.013H259.04a1.3,1.3,0,0,1,0-2.6h1.971a1.3,1.3,0,0,1,0,2.6Zm0,0" transform="translate(-213.017 -193.736)" fill="#e15f76"/>
      <path id="Trazado_658032" data-name="Trazado 658032" d="M133.554,237.013h-1.972a1.3,1.3,0,1,1,0-2.6h1.971a1.3,1.3,0,0,1,0,2.6Zm0,0" transform="translate(-107.675 -193.736)" fill="#e15f76"/>
      <path id="Trazado_658033" data-name="Trazado 658033" d="M190.689,232.689a1.3,1.3,0,0,0-1.777.479,2.054,2.054,0,0,1-3.563,0,1.3,1.3,0,0,0-2.256,1.3,4.656,4.656,0,0,0,8.076,0A1.3,1.3,0,0,0,190.689,232.689Zm0,0" transform="translate(-151.181 -192.17)"/>
      <path id="Trazado_658034" data-name="Trazado 658034" d="M266.021,204.843v-1.971a1.3,1.3,0,1,0-2.6,0v1.971a1.3,1.3,0,0,0,2.6,0Zm0,0" transform="translate(-217.711 -166.595)"/>
      <path id="Trazado_658035" data-name="Trazado 658035" d="M137.262,201.566a1.3,1.3,0,0,0-1.3,1.3v1.972a1.3,1.3,0,0,0,2.6,0v-1.972A1.3,1.3,0,0,0,137.262,201.566Zm0,0" transform="translate(-112.37 -166.592)"/>
      <path id="Trazado_658036" data-name="Trazado 658036" d="M70.619,31.557a3.123,3.123,0,0,0,.593-1.832V21.611a3.147,3.147,0,0,0-1.785-2.833,39.008,39.008,0,0,0-1-9.523c-.519-2.5-1.6-6.932-2.994-8.485A2.06,2.06,0,0,0,63.886,0c-1.316,0-2.264,1.261-3.273,4.353-.128.392-.255.81-.38,1.248a.243.243,0,0,0-.007.024c-.319,1.124-.624,2.383-.894,3.693a.071.071,0,0,1,0,.012s0,0,0,.006a34.267,34.267,0,0,0-5.1-3.994A34,34,0,0,0,5.712,18.464H3.836A3.151,3.151,0,0,0,.689,21.611v8.115a3.128,3.128,0,0,0,.594,1.833,7.278,7.278,0,0,0,1.373,9.749V59.891a3.133,3.133,0,0,0,3.129,3.129h14.08a29.323,29.323,0,0,0-4.283,3.431,1.3,1.3,0,0,0-.59.589,29.371,29.371,0,0,0-8.363,20.5,1.3,1.3,0,0,0,1.3,1.3H63.97a1.3,1.3,0,0,0,1.3-1.3,29.376,29.376,0,0,0-8.546-20.685,1.275,1.275,0,0,0-.125-.125,29.29,29.29,0,0,0-4.565-3.708h14.08a3.133,3.133,0,0,0,3.129-3.129V41.309a7.283,7.283,0,0,0,1.374-9.752ZM14.857,86.237H9.264a26.749,26.749,0,0,1,5.592-15.083ZM57.045,71.154a26.751,26.751,0,0,1,5.592,15.083H57.045ZM68.609,21.611v8.115a.545.545,0,0,1-.544.545H61.8l-5.186-8.982a1.8,1.8,0,0,0-.152-.222h11.6A.545.545,0,0,1,68.609,21.611Zm-31.03-.323a1.925,1.925,0,0,0-.151-.221H53.508a1.847,1.847,0,0,0-.152.221L48.171,30.27H42.765Zm2.18,8.983H32.142l3.809-6.6Zm15.226-6.6,3.809,6.6H51.176Zm8.9-20.554a13.7,13.7,0,0,1,.642,1.572H63.248A13.76,13.76,0,0,1,63.885,3.119ZM62.471,7.294H65.3q.122.472.245.99H62.225Q62.348,7.771,62.471,7.294Zm-.8,3.593H66.1a33.741,33.741,0,0,1,.746,7.577h-.654a34.085,34.085,0,0,0-4.648-6.829Q61.607,11.254,61.676,10.887ZM35.951,2.6A31.643,31.643,0,0,1,63.23,18.464H28.774a1.3,1.3,0,0,0,0,2.6h5.7a1.842,1.842,0,0,0-.151.221L29.136,30.27H23.73l-5.186-8.983a1.926,1.926,0,0,0-.151-.221h5.471a1.3,1.3,0,1,0,0-2.6H8.671A31.642,31.642,0,0,1,35.951,2.6ZM20.725,30.27H13.107l3.809-6.6ZM3.292,21.611a.545.545,0,0,1,.545-.544h11.6a1.843,1.843,0,0,0-.151.221L10.1,30.27H3.836a.545.545,0,0,1-.544-.545ZM2.6,35.682a4.627,4.627,0,0,1,.952-2.824c.093.008.186.014.281.014h.732c-.014.378-.022.757-.022,1.135a31.442,31.442,0,0,0,.54,5.8A4.655,4.655,0,0,1,2.6,35.682ZM5.786,60.418a.527.527,0,0,1-.527-.527V42.669c.178.051.359.1.543.134a31.27,31.27,0,0,0,3.822,8.306,1.284,1.284,0,0,0,.189.286A31.644,31.644,0,0,0,15.3,57.642c.022.026.044.052.069.077a1.317,1.317,0,0,0,.232.183,31.569,31.569,0,0,0,3.381,2.516Zm6.7-9.726,5.974-5.974,4.032,4.032-6.245,6.245A29.072,29.072,0,0,1,12.488,50.692Zm4.972,35.545V68.259a26.638,26.638,0,0,1,7.212-4.944,31.021,31.021,0,0,0,3.392,1.093l1.3,21.83ZM54.442,68.259V86.237H42.54l.351-5.913a1.3,1.3,0,1,0-2.6-.155l-.361,6.068H31.968L30.7,64.97a31.459,31.459,0,0,0,10.493,0l-.619,10.409A1.3,1.3,0,0,0,41.8,76.755c.026,0,.053,0,.079,0a1.3,1.3,0,0,0,1.3-1.224l.661-11.126a31.068,31.068,0,0,0,3.392-1.093A26.641,26.641,0,0,1,54.442,68.259ZM35.951,62.808A28.659,28.659,0,0,1,18.229,56.7l6.224-6.224a2.435,2.435,0,0,0,0-3.443l-4.269-4.269a2.437,2.437,0,0,0-3.443,0l-5.7,5.7A28.63,28.63,0,0,1,7.15,34.008c0-.378.007-.756.022-1.135H64.729c.015.378.022.757.022,1.135a28.625,28.625,0,0,1-3.894,14.448l-5.7-5.7a2.438,2.438,0,0,0-3.443,0l-4.269,4.269a2.435,2.435,0,0,0,0,3.443L53.672,56.7A28.657,28.657,0,0,1,35.951,62.808ZM59.413,50.692a29.033,29.033,0,0,1-3.761,4.3L49.408,48.75l4.032-4.032Zm7.229,9.2a.527.527,0,0,1-.527.527H52.923A31.493,31.493,0,0,0,56.3,57.9a1.3,1.3,0,0,0,.233-.184c.024-.024.047-.05.069-.077A31.645,31.645,0,0,0,62.087,51.4a1.275,1.275,0,0,0,.19-.289A31.27,31.27,0,0,0,66.1,42.8c.184-.037.365-.082.544-.133Zm.171-20.079a31.444,31.444,0,0,0,.54-5.8c0-.378-.007-.756-.021-1.135h.732c.095,0,.189-.006.282-.014a4.671,4.671,0,0,1-1.533,6.953Zm0,0"/>
    </g>
    <g id="bosque" transform="translate(695 7041.701)">
      <g id="Grupo_949133" data-name="Grupo 949133" transform="translate(57.76 39.825)">
        <g id="Grupo_949132" data-name="Grupo 949132">
          <path id="Trazado_658037" data-name="Trazado 658037" d="M342.528,168.589a2.845,2.845,0,0,0-1.89-4.973h-6.15a5.869,5.869,0,0,0-9.029-4.068,7.869,7.869,0,0,0-12.846,9.042h29.915Z" transform="translate(-311.441 -156.587)" fill="#a6e7f0"/>
        </g>
      </g>
      <g id="Grupo_949135" data-name="Grupo 949135" transform="translate(10.773 20.632)">
        <g id="Grupo_949134" data-name="Grupo 949134" transform="translate(0 0)">
          <path id="Trazado_658038" data-name="Trazado 658038" d="M140.925,134.3l-28.9-79.625a2.486,2.486,0,0,0-4.607-.046L95.957,88.384a2.486,2.486,0,0,1-4.443.291l-1.181-2.033a2.486,2.486,0,0,0-4.354.1L58.088,134.3Z" transform="translate(-58.088 -53.097)" fill="#a8d3d8"/>
        </g>
      </g>
      <g id="Grupo_949137" data-name="Grupo 949137" transform="translate(59.635 20.632)">
        <g id="Grupo_949136" data-name="Grupo 949136" transform="translate(0 0)">
          <path id="Trazado_658039" data-name="Trazado 658039" d="M326.63,54.671a2.486,2.486,0,0,0-4.607-.046l-.471,1.386L349.964,134.3h5.564Z" transform="translate(-321.553 -53.097)" fill="#8ebac5"/>
        </g>
      </g>
      <g id="Grupo_949139" data-name="Grupo 949139" transform="translate(53.75 20.632)">
        <g id="Grupo_949138" data-name="Grupo 949138" transform="translate(0 0)">
          <path id="Trazado_658040" data-name="Trazado 658040" d="M307.559,73.342l-6.776-18.671a2.486,2.486,0,0,0-4.607-.046l-6.356,18.717,3.545,4.381,4.848-7.231L303.7,81.1Z" transform="translate(-289.821 -53.097)" fill="#fff9f0"/>
        </g>
      </g>
      <g id="Grupo_949141" data-name="Grupo 949141" transform="translate(59.635 20.632)">
        <g id="Grupo_949140" data-name="Grupo 949140" transform="translate(0 0)">
          <path id="Trazado_658041" data-name="Trazado 658041" d="M326.63,54.672a2.486,2.486,0,0,0-4.607-.046l-.471,1.386,6.29,17.33-1.133,2.274,2.833,5.482,3.864-7.756Z" transform="translate(-321.553 -53.097)" fill="#ffefe1"/>
        </g>
      </g>
      <g id="Grupo_949143" data-name="Grupo 949143" transform="translate(23.884 83.053)">
        <g id="Grupo_949142" data-name="Grupo 949142">
          <path id="Trazado_658042" data-name="Trazado 658042" d="M128.785,389.67h7.337v18.611h-7.337Z" transform="translate(-128.785 -389.67)" fill="#d6694b"/>
        </g>
      </g>
      <g id="Grupo_949145" data-name="Grupo 949145" transform="translate(10.245 36.314)">
        <g id="Grupo_949144" data-name="Grupo 949144">
          <path id="Trazado_658043" data-name="Trazado 658043" d="M81.205,169.471l-.728-1.272,6.111.025-6.979-12.2-1.7-2.973,3.519.014-4.408-7.706-4.408-7.706-4.47,7.67-4.47,7.67,3.605.015-1.725,2.96-7.077,12.144,6.2.025-.738,1.266-8.694,14.92,17.268.07,17.268.07Z" transform="translate(-55.243 -137.652)" fill="#46cc8d"/>
        </g>
      </g>
      <g id="Grupo_949147" data-name="Grupo 949147" transform="translate(30.531 66.867)">
        <g id="Grupo_949146" data-name="Grupo 949146">
          <path id="Trazado_658044" data-name="Trazado 658044" d="M170.3,303.661l-.715-1.25-4.111-.016a.846.846,0,0,0-.738,1.266l8.561,14.967,5.577.023Z" transform="translate(-164.622 -302.395)" fill="#08b865"/>
        </g>
      </g>
      <g id="Grupo_949149" data-name="Grupo 949149" transform="translate(24.808 36.314)">
        <g id="Grupo_949148" data-name="Grupo 949148">
          <path id="Trazado_658045" data-name="Trazado 658045" d="M135.418,145.358l3.534,6.178a1.016,1.016,0,0,1-.886,1.52,1.016,1.016,0,0,0-.886,1.52l.827,1.446,6.966,12.178,5.577.022-6.979-12.2-1.7-2.974,3.519.014-4.408-7.706-4.408-7.706-2.808,4.818Z" transform="translate(-133.766 -137.652)" fill="#08b865"/>
        </g>
      </g>
      <g id="Grupo_949151" data-name="Grupo 949151" transform="translate(8.935 14.631)">
        <g id="Grupo_949150" data-name="Grupo 949150">
          <path id="Trazado_658046" data-name="Trazado 658046" d="M79.266,32.743a2.837,2.837,0,0,0,.956-2.046A2.907,2.907,0,0,0,77.3,27.77h-6.07A5.869,5.869,0,0,0,62.2,23.7a7.868,7.868,0,0,0-14.017,5.042c0,.033,0,.067,0,.1a4.038,4.038,0,0,0,4.048,3.9H79.266Z" transform="translate(-48.178 -20.741)" fill="#a6e7f0"/>
        </g>
      </g>
      <g id="Grupo_949153" data-name="Grupo 949153" transform="translate(11.015 88.454)">
        <g id="Grupo_949152" data-name="Grupo 949152">
          <path id="Trazado_658047" data-name="Trazado 658047" d="M66.2,418.792v13.556H59.395V419.295" transform="translate(-59.395 -418.792)" fill="#d6694b"/>
        </g>
      </g>
      <g id="Grupo_949155" data-name="Grupo 949155" transform="translate(1.811 54.409)">
        <g id="Grupo_949154" data-name="Grupo 949154" transform="translate(0 0)">
          <path id="Trazado_658048" data-name="Trazado 658048" d="M28.676,258.4l-.53-.927,4.451.018L27.514,248.6l-1.239-2.166,2.564.01-3.21-5.613-3.211-5.613-3.256,5.587-3.256,5.587,2.626.011-1.256,2.156-5.155,8.846,4.514.018-.537.922L9.765,269.215l12.578.051,12.578.051Z" transform="translate(-9.765 -235.221)" fill="#46cc8d"/>
        </g>
      </g>
      <g id="Grupo_949157" data-name="Grupo 949157" transform="translate(11.656 54.409)">
        <g id="Grupo_949156" data-name="Grupo 949156">
          <path id="Trazado_658049" data-name="Trazado 658049" d="M63.3,240.835l2.681,4.686a.616.616,0,0,1-.537.922l-.429,0a.616.616,0,0,0-.537.922l.709,1.239,4.553,7.96a.616.616,0,0,1-.537.922l-2.317-.009a.616.616,0,0,0-.537.922l6.232,10.9,5.577.022L71.915,258.4l-.53-.927,4.452.018L70.753,248.6l-1.239-2.166,2.564.01-3.211-5.613-3.21-5.613-2.808,4.818Z" transform="translate(-62.849 -235.222)" fill="#08b865"/>
        </g>
      </g>
      <g id="Grupo_949159" data-name="Grupo 949159" transform="translate(79.597 90.182)">
        <g id="Grupo_949158" data-name="Grupo 949158">
          <path id="Trazado_658050" data-name="Trazado 658050" d="M429.187,428.112h5.937V439.94h-5.937Z" transform="translate(-429.187 -428.112)" fill="#d6694b"/>
        </g>
      </g>
      <g id="Grupo_949161" data-name="Grupo 949161" transform="translate(71.566 60.479)">
        <g id="Grupo_949160" data-name="Grupo 949160">
          <path id="Trazado_658051" data-name="Trazado 658051" d="M402.385,288.172l-.463-.809,3.884.016-4.435-7.754-1.081-1.89,2.237.009-2.8-4.9-2.8-4.9-2.841,4.874-2.84,4.874,2.291.009-1.1,1.881-4.5,7.718,3.939.016-.469.8-5.525,9.482,10.974.044,10.974.044Z" transform="translate(-385.885 -267.95)" fill="#46cc8d"/>
        </g>
      </g>
      <g id="Grupo_949163" data-name="Grupo 949163" transform="translate(79.797 60.478)">
        <g id="Grupo_949162" data-name="Grupo 949162">
          <path id="Trazado_658052" data-name="Trazado 658052" d="M430.313,272.846l2.246,3.926a.646.646,0,0,1-.563.966.646.646,0,0,0-.563.966l.526.919,2.969,5.191a1.7,1.7,0,0,1-1.486,2.551.538.538,0,0,0-.469.8l5.436,9.5,5.577.022-5.449-9.526-.462-.809,3.884.016-4.435-7.754-1.081-1.89,2.237.009-2.8-4.9-2.8-4.9-2.808,4.818Z" transform="translate(-430.268 -267.949)" fill="#08b865"/>
        </g>
      </g>
      <g id="Grupo_949165" data-name="Grupo 949165" transform="translate(32.851 95.559)">
        <g id="Grupo_949164" data-name="Grupo 949164">
          <path id="Trazado_658053" data-name="Trazado 658053" d="M190.217,463.555a6.544,6.544,0,0,0-13.086,0Z" transform="translate(-177.131 -457.104)" fill="#08b865"/>
        </g>
      </g>
      <g id="Grupo_949167" data-name="Grupo 949167" transform="translate(68.537 95.559)">
        <g id="Grupo_949166" data-name="Grupo 949166">
          <path id="Trazado_658054" data-name="Trazado 658054" d="M382.64,463.555a6.544,6.544,0,0,0-13.086,0Z" transform="translate(-369.554 -457.104)" fill="#46cc8d"/>
        </g>
      </g>
      <g id="Grupo_949169" data-name="Grupo 949169" transform="translate(16.18 93.353)">
        <g id="Grupo_949168" data-name="Grupo 949168">
          <path id="Trazado_658055" data-name="Trazado 658055" d="M104.548,453.742a8.654,8.654,0,0,0-17.307,0Z" transform="translate(-87.241 -445.211)" fill="#46cc8d"/>
        </g>
      </g>
      <g id="Grupo_949170" data-name="Grupo 949170" transform="translate(0 13.24)">
        <path id="Trazado_658056" data-name="Trazado 658056" d="M94.917,127.713l-3.538-9.748,2.129.009h.006a1.391,1.391,0,0,0,1.207-2.082l-4.715-8.243,1.475.006h.006a1.391,1.391,0,0,0,1.207-2.082l-4.326-7.562a1.391,1.391,0,0,0,1.046-2.072l-5.6-9.794a1.39,1.39,0,0,0-1.2-.7H82.6a1.391,1.391,0,0,0-1.2.691L80.432,87.8l-2.986-8.226h11.4a1.391,1.391,0,0,0,.925-.352,4.235,4.235,0,0,0-2.815-7.4h-5.05a7.262,7.262,0,0,0-8.99-4.726l-6.9-19c0-.012-.009-.024-.013-.035a3.876,3.876,0,0,0-7.184-.072q-.018.044-.034.088L50.579,72.245a1.391,1.391,0,0,0,2.634.894l1.042-3.069,1.958,2.42a1.391,1.391,0,0,0,2.237-.1l3.537-5.276,4.4,8.516a1.391,1.391,0,0,0,1.236.752h.01a1.391,1.391,0,0,0,1.235-.771l2.418-4.854L78.609,90.93l-2.886,4.953A1.391,1.391,0,0,0,76.8,97.97l-4.384,7.522a1.391,1.391,0,0,0,1.2,2.091l1.529.006-4.781,8.2a1.391,1.391,0,0,0,1.2,2.091l6.645.027v3.261A7.918,7.918,0,0,0,67.321,126.8H47.151a7.933,7.933,0,0,0-13.693-3.6,9.962,9.962,0,0,0-.846-1.206V110.821l12.163.049h.006a1.391,1.391,0,0,0,1.207-2.082l-8.105-14.17,3.7.015h.006A1.391,1.391,0,0,0,42.8,92.551l-4.7-8.21,1.761-3c.012-.02.023-.041.034-.062a1.095,1.095,0,0,1,1.918-.045L43,83.265a3.877,3.877,0,0,0,6.93-.455q.018-.044.033-.088l1.462-4.306a1.391,1.391,0,0,0-2.634-.894l-1.444,4.253a1.095,1.095,0,0,1-1.941.093L44.22,79.835a3.877,3.877,0,0,0-6.773.124l-.937,1.6-1.195-2.089,1.11,0h.006a1.391,1.391,0,0,0,1.207-2.082L28.823,61.979a1.391,1.391,0,0,0-1.2-.7h-.006a1.391,1.391,0,0,0-1.2.691L17.475,77.31a1.391,1.391,0,0,0,1.2,2.091l1.2,0-2.31,3.965-1.885-3.3a1.391,1.391,0,0,0-1.2-.7h-.006a1.391,1.391,0,0,0-1.2.691L6.751,91.239a1.391,1.391,0,0,0,1.2,2.091h.217l-5.2,8.92a1.391,1.391,0,0,0,1.2,2.091l2.1.009L.609,114.059a1.391,1.391,0,0,0,1.2,2.091l7.819.032v2.23a1.391,1.391,0,1,0,2.782,0v-2.219l4.023.016v6.631a10.014,10.014,0,0,0-1.518,3.956H12.406v-2.821a1.391,1.391,0,1,0-2.782,0V126.9H1.391a1.391,1.391,0,1,0,0,2.782H93.564a1.509,1.509,0,0,0,1.353-1.973ZM75,69.571a4.5,4.5,0,0,1,4.433,3.837A1.391,1.391,0,0,0,80.807,74.6h6.15a1.458,1.458,0,0,1,1.456,1.456,1.432,1.432,0,0,1-.2.735H76.471l-.033,0-2.569-7.079A4.472,4.472,0,0,1,75,69.571Zm-7.4,2.345-4.223-8.172a1.391,1.391,0,0,0-2.391-.136l-3.8,5.665-1.877-2.319L61.4,49.017a1.095,1.095,0,0,1,2.008.041l6.565,18.089ZM91.626,126.8h-4.7v-8.849l1.491.006ZM78.762,106.908a1.391,1.391,0,0,0-1.2-2.091l-1.529-.006,4.381-7.517a1.391,1.391,0,0,0-1.081-2.086l3.258-5.591,3.216,5.622a1.391,1.391,0,0,0-1.046,2.072l4.32,7.552-1.475-.006H87.6a1.391,1.391,0,0,0-1.207,2.082l.462.809h0l4.253,7.435-17.13-.069Zm5.381,11.028v8.86H82.837a7.888,7.888,0,0,0-1.85-3.619v-5.254Zm-9.062,5.371a5.184,5.184,0,0,1,4.877,3.49H70.2A5.137,5.137,0,0,1,75.08,123.306Zm-35.687,0a5.182,5.182,0,0,1,4.877,3.49H34.755c-.022-.141-.046-.282-.074-.421A5.154,5.154,0,0,1,39.394,123.306Zm-9.563-3.67a10.039,10.039,0,0,0-4.555-1.308v-2.084l1.686.007h.006a1.391,1.391,0,0,0,1.207-2.082l-1.93-3.375,3.586.014v8.827ZM23.484,78.725a1.391,1.391,0,0,0-1.2-2.091l-1.2,0L27.6,65.452l6.423,11.229-1.11,0h-.006A1.391,1.391,0,0,0,31.7,78.758l7.483,13.083-3.7-.015H35.48a1.391,1.391,0,0,0-1.207,2.082l8.105,14.17-17.729-.071-2.054-3.59,2.042.008h.006a1.391,1.391,0,0,0,1.207-2.082l-5.126-8.962h.16A1.391,1.391,0,0,0,22.092,91.3l-2.941-5.141ZM9.883,103.67a1.391,1.391,0,0,0-1.2-2.091l-2.1-.009,5.2-8.92a1.391,1.391,0,0,0-1.2-2.091h-.217l4.085-7.011,4.029,7.043h-.16a1.391,1.391,0,0,0-1.207,2.082l5.126,8.962-2.042-.008a1.369,1.369,0,0,0-1.207.691,1.391,1.391,0,0,0-.006,1.391l5.579,9.753-20.338-.082Zm12.61,12.564v2.356a9.994,9.994,0,0,0-3.282,1.434v-3.8Zm2.34,4.867a7.228,7.228,0,0,1,7.093,5.7H17.74A7.229,7.229,0,0,1,24.833,121.1Z" transform="translate(0 -39.597)"/>
        <path id="Trazado_658057" data-name="Trazado 658057" d="M46.12,28.024h8.829a1.391,1.391,0,1,0,0-2.782H46.12a2.662,2.662,0,0,1-2.658-2.55l0-.082a6.515,6.515,0,0,1,6.211-6.583A6.431,6.431,0,0,1,55,18.46a1.391,1.391,0,0,0,1.85.294,4.478,4.478,0,0,1,6.888,3.1,1.391,1.391,0,0,0,1.377,1.193h6.07a1.58,1.58,0,0,1,1.126.479,1.4,1.4,0,0,1,.41,1.019,1.432,1.432,0,0,1-.2.693H60.513a1.391,1.391,0,1,0,0,2.782H73.156a1.391,1.391,0,0,0,.925-.352A4.252,4.252,0,0,0,75.5,24.626a4.161,4.161,0,0,0-1.2-3.036,4.378,4.378,0,0,0-3.12-1.321h-4.97a7.263,7.263,0,0,0-9.831-4.417,9.177,9.177,0,0,0-6.825-2.6A9.314,9.314,0,0,0,40.68,22.66l0,.114A5.4,5.4,0,0,0,46.12,28.024Z" transform="translate(-33.134 -13.24)"/>
      </g>
    </g>
    <g id="Grupo_949175" data-name="Grupo 949175" transform="translate(0 199)">
      <g id="fotografo" transform="translate(822.096 6919.07)">
        <path id="Trazado_658058" data-name="Trazado 658058" d="M151.206,8h0A23.207,23.207,0,0,0,128,31.206V42.036h46.412V31.206A23.207,23.207,0,0,0,151.206,8Z" transform="translate(-86.385 -6.453)" fill="#d3a06c"/>
        <path id="Trazado_658059" data-name="Trazado 658059" d="M263.471,35.847v6.188h7.735V31.206A23.207,23.207,0,0,0,248,8S263.471,15.735,263.471,35.847Z" transform="translate(-183.179 -6.453)" fill="#b27946"/>
        <path id="Trazado_658060" data-name="Trazado 658060" d="M52.112,339.847H32l5.432-16.3a12.378,12.378,0,0,1,9.46-8.251L62.941,312H84.6l16.048,3.3a12.375,12.375,0,0,1,9.46,8.251l5.433,16.3H52.112Z" transform="translate(-8.95 -251.664)" fill="#92e0c0"/>
        <path id="Trazado_658061" data-name="Trazado 658061" d="M317.518,339.847h10.97l-5.432-16.3a12.377,12.377,0,0,0-9.46-8.251l-15.61-3.209L296,312l16.079,9.378a6.194,6.194,0,0,1,2.98,4.287Z" transform="translate(-221.897 -251.664)" fill="#48c397"/>
        <path id="Trazado_658062" data-name="Trazado 658062" d="M195.847,410.565H171.094A3.093,3.093,0,0,1,168,407.471V395.094A3.093,3.093,0,0,1,171.094,392h24.753a3.093,3.093,0,0,1,3.094,3.094v12.377A3.093,3.093,0,0,1,195.847,410.565Z" transform="translate(-118.65 -316.194)" fill="#ececec"/>
        <path id="Trazado_658063" data-name="Trazado 658063" d="M192,366.188,193.547,360h18.565l1.547,6.188Z" transform="translate(-138.009 -290.382)" fill="#b6c1ce"/>
        <g id="Grupo_949171" data-name="Grupo 949171" transform="translate(41.615 29.394)">
          <path id="Trazado_658064" data-name="Trazado 658064" d="M218.565,280v6.188l-9.282,9.282L200,286.188V280Z" transform="translate(-186.076 -255.247)" fill="#f9e0a6"/>
          <path id="Trazado_658065" data-name="Trazado 658065" d="M336,152v12.377A6.188,6.188,0,0,0,336,152Z" transform="translate(-295.776 -152)" fill="#f9e0a6"/>
          <path id="Trazado_658066" data-name="Trazado 658066" d="M134.188,162.829V152a6.188,6.188,0,0,0,0,12.377h.077C134.221,163.866,134.188,163.352,134.188,162.829Z" transform="translate(-128 -152)" fill="#f9e0a6"/>
        </g>
        <rect id="Rectángulo_336427" data-name="Rectángulo 336427" width="30.941" height="3.094" transform="translate(49.35 91.277)" fill="#b6c1ce"/>
        <circle id="Elipse_7649" data-name="Elipse 7649" cx="9.282" cy="9.282" r="9.282" transform="translate(55.538 75.806)" fill="#148ce0"/>
        <circle id="Elipse_7650" data-name="Elipse 7650" cx="3.094" cy="3.094" r="3.094" transform="translate(61.727 81.995)" fill="#1261c5"/>
        <path id="Trazado_658067" data-name="Trazado 658067" d="M191.848,136a2.189,2.189,0,0,0-1.547.64l-.077.077a18.678,18.678,0,0,1-13.206,5.47l1.317-2.632a2.2,2.2,0,0,0,.231-.979v-.39a2.188,2.188,0,0,0-3.735-1.547,18.941,18.941,0,0,1-13.393,5.548H160v7.735a17.018,17.018,0,1,0,34.036,0V138.188A2.187,2.187,0,0,0,191.848,136Z" transform="translate(-112.197 -109.7)" fill="#f9e0a6"/>
        <path id="Trazado_658068" data-name="Trazado 658068" d="M253.151,136a2.189,2.189,0,0,0-1.547.64l-.077.077c-.266.266-.551.5-.829.75v12.455A17.007,17.007,0,0,1,236,166.765a16.9,16.9,0,0,0,19.338-16.841V138.188A2.187,2.187,0,0,0,253.151,136Z" transform="translate(-173.5 -109.7)" fill="#eabd8c"/>
        <path id="Trazado_658069" data-name="Trazado 658069" d="M84.933,89.73h23.8L102.626,71.4a13.929,13.929,0,0,0-10.644-9.281L75.65,59.052V55.272a18.559,18.559,0,0,0,7.475-12.084,7.731,7.731,0,0,0,6.448-7.605V24.753a24.753,24.753,0,1,0-49.506,0V35.583A7.749,7.749,0,0,0,46.5,43.208a18.593,18.593,0,0,0,7.5,12.087v3.758L37.657,62.116A13.932,13.932,0,0,0,27.013,71.4L20.9,89.73h23.8V86.636H40.5l2.613-10.455-3-.749-2.8,11.2H25.2L29.95,72.375a10.839,10.839,0,0,1,8.278-7.22l9.855-1.847L50.6,74.645A4.644,4.644,0,0,0,47.8,78.9V91.277a4.647,4.647,0,0,0,4.641,4.641H77.2a4.647,4.647,0,0,0,4.641-4.641V78.9a4.645,4.645,0,0,0-2.8-4.256l2.52-11.337,9.855,1.847a10.841,10.841,0,0,1,8.278,7.22l4.753,14.261H92.329l-2.8-11.2-3,.749,2.613,10.455H84.933ZM83.386,39.939V31.228a4.613,4.613,0,0,1,0,8.712Zm-37.13.02a4.642,4.642,0,0,1,0-8.753ZM43.162,29.435V24.753a21.659,21.659,0,1,1,43.318,0v4.681A7.664,7.664,0,0,0,83.336,28a3.728,3.728,0,0,0-3.685-3.246,3.83,3.83,0,0,0-2.718,1.173,16.992,16.992,0,0,1-9.51,4.821l.1-.2a3.772,3.772,0,0,0,.393-1.671v-.39a3.735,3.735,0,0,0-6.375-2.641A17.288,17.288,0,0,1,49.35,30.941V27.847H47.8A7.655,7.655,0,0,0,43.162,29.435ZM49.35,40.224V34.036a20.356,20.356,0,0,0,14.375-6,.664.664,0,0,1,1.1.452v.39a.645.645,0,0,1-.068.288l-2.435,4.87h2.5a20.147,20.147,0,0,0,14.375-6,.664.664,0,0,1,1.1.452V40.224a15.471,15.471,0,1,1-30.941,0ZM64.821,58.789a18.435,18.435,0,0,0,7.735-1.71V59.7l-7.735,7.735L57.085,59.7V57.087A18.435,18.435,0,0,0,64.821,58.789Zm7.735,26.3a7.735,7.735,0,1,1-7.735-7.735A7.744,7.744,0,0,1,72.556,85.089Zm.339-13.924.774,3.094h-17.7l.774-3.094ZM55.022,62.007l6.065,6.065H54.33L53.261,72.35l-2.137-9.614ZM52.444,92.824A1.549,1.549,0,0,1,50.9,91.277V78.9a1.549,1.549,0,0,1,1.547-1.547h4.813a10.794,10.794,0,0,0,0,15.471Zm26.3-1.547A1.549,1.549,0,0,1,77.2,92.824H72.384a10.794,10.794,0,0,0,0-15.471H77.2A1.549,1.549,0,0,1,78.744,78.9ZM76.38,72.35l-1.069-4.279H68.555l6.065-6.065,3.9.73Z"/>
        <path id="Trazado_658070" data-name="Trazado 658070" d="M228.641,425.282A4.641,4.641,0,1,0,224,420.641,4.647,4.647,0,0,0,228.641,425.282Zm0-6.188a1.547,1.547,0,1,1-1.547,1.547A1.549,1.549,0,0,1,228.641,419.094Z" transform="translate(-163.821 -335.552)"/>
      </g>
    </g>
  </g>
</svg>
