<svg xmlns="http://www.w3.org/2000/svg" width="167" height="167" viewBox="0 0 167 167">
  <g id="Grupo_947844" data-name="Grupo 947844" transform="translate(7076 10827)">
    <g id="Layer_1" transform="translate(-7064.26 -10817.202)">
      <g id="Grupo_947843" data-name="Grupo 947843" transform="translate(5.26 3.49)">
        <path id="Trazado_655820" data-name="Trazado 655820" d="M59.889,43.245a8.875,8.875,0,0,0,8.866,8.877h2.859V69.86H53.877v2.859a8.875,8.875,0,0,1-17.749,0V69.86H18.39v-15.6h23.4a6.053,6.053,0,0,0,6.047-6.047V38.274a6.038,6.038,0,0,0-6.047-6.047h-10.8l1.121-2.395a3.423,3.423,0,1,0-6.205-2.893L23.44,32.228H18.39V16.63H71.614V34.373H68.755a8.866,8.866,0,0,0-8.866,8.872Z" transform="translate(-10.956 -9.191)" fill="#ffe1b1"/>
        <path id="Trazado_655821" data-name="Trazado 655821" d="M43.23,44.658V54.6a6.053,6.053,0,0,1-6.047,6.047H7.76V38.611H18.828L21.3,33.324A3.423,3.423,0,1,1,27.5,36.217l-1.121,2.395h10.8A6.038,6.038,0,0,1,43.23,44.658Z" transform="translate(-6.345 -15.575)" fill="#ffb69f"/>
        <path id="Trazado_655822" data-name="Trazado 655822" d="M48.252,107.58a4.63,4.63,0,0,1-4.627-4.622v-7.1H34.312a1.415,1.415,0,1,1,0-2.831H45.041a1.415,1.415,0,0,1,1.415,1.415v8.519a1.8,1.8,0,0,0,3.592,0V94.44a1.415,1.415,0,0,1,1.415-1.415H67.789V87.75a1.415,1.415,0,1,1,2.831,0V94.44A1.415,1.415,0,0,1,69.2,95.855H52.879v7.1a4.629,4.629,0,0,1-4.627,4.622Zm-19.6-11.725H27.3a1.415,1.415,0,1,1,0-2.831h1.351a1.415,1.415,0,1,1,0,2.831Z" transform="translate(-14.208 -39.432)" fill="#f8e5b0"/>
        <path id="Trazado_655823" data-name="Trazado 655823" d="M52.054,41.431v9.942A10.273,10.273,0,0,1,41.795,61.637H18.39V57.419h23.4a6.053,6.053,0,0,0,6.047-6.047V41.431a6.038,6.038,0,0,0-6.047-6.047h-10.8l1.121-2.395A3.423,3.423,0,1,0,25.909,30.1L23.44,35.385H18.39V31.172h2.367l1.336-2.859a7.635,7.635,0,0,1,14.545,2.859h5.158A10.271,10.271,0,0,1,52.054,41.431Z" transform="translate(-10.956 -12.348)" fill="#e8a61e"/>
        <path id="Trazado_655824" data-name="Trazado 655824" d="M188.5,16.62V69.844H170.752V66.985a8.875,8.875,0,0,0-17.749,0v2.859H135.265V52.107h-2.859a8.875,8.875,0,0,1,0-17.749h2.859V16.62h15.6v23.4a6.045,6.045,0,0,0,6.047,6.047h9.942a6.042,6.042,0,0,0,6.047-6.047v-10.8l2.395,1.121a3.423,3.423,0,1,0,2.893-6.205L172.9,21.67V16.62Z" transform="translate(-56.575 -9.186)" fill="#edaf8d"/>
        <path id="Trazado_655825" data-name="Trazado 655825" d="M200.782,24.073a3.43,3.43,0,0,1-4.552,1.659l-2.395-1.121v10.8a6.042,6.042,0,0,1-6.047,6.047h-9.942a6.045,6.045,0,0,1-6.047-6.047V5.99h22.035V17.058l5.288,2.468a3.424,3.424,0,0,1,1.659,4.546Z" transform="translate(-77.512 -4.575)" fill="#ffb69f"/>
        <path id="Trazado_655826" data-name="Trazado 655826" d="M150.866,68.85h-6.689a1.415,1.415,0,0,1-1.415-1.415V51.109h-7.1a4.627,4.627,0,0,1,0-9.254h7.1V32.542a1.415,1.415,0,1,1,2.831,0V43.271a1.415,1.415,0,0,1-1.415,1.415h-8.519a1.8,1.8,0,0,0,0,3.592h8.519a1.415,1.415,0,0,1,1.415,1.415V66.019h5.274a1.415,1.415,0,1,1,0,2.831ZM144.177,28.3a1.415,1.415,0,0,1-1.415-1.415V25.529a1.415,1.415,0,1,1,2.831,0v1.351A1.416,1.416,0,0,1,144.177,28.3Z" transform="translate(-59.827 -12.438)" fill="#ffcbc3"/>
        <path id="Trazado_655827" data-name="Trazado 655827" d="M194.815,34.867v5.158a10.271,10.271,0,0,1-10.259,10.259h-9.942A10.273,10.273,0,0,1,164.35,40.025V16.62h4.218v23.4a6.045,6.045,0,0,0,6.047,6.047h9.942a6.042,6.042,0,0,0,6.047-6.047v-10.8L193,30.344a3.423,3.423,0,1,0,2.893-6.205L190.6,21.67V16.62h4.212v2.367l2.859,1.336C204.876,23.686,202.719,34.471,194.815,34.867Z" transform="translate(-74.28 -9.186)" fill="#b34f33"/>
        <path id="Trazado_655828" data-name="Trazado 655828" d="M197.484,135.415v15.6h-23.4a6.053,6.053,0,0,0-6.047,6.047V167a6.045,6.045,0,0,0,6.047,6.047h10.8l-1.121,2.395a3.423,3.423,0,1,0,6.205,2.893l2.468-5.288h5.05v15.6H144.26V170.9h2.859a8.875,8.875,0,0,0,0-17.749H144.26V135.415H162v-2.859a8.875,8.875,0,0,1,17.749,0v2.859Z" transform="translate(-65.564 -55.638)" fill="#b2d6ea"/>
        <path id="Trazado_655829" data-name="Trazado 655829" d="M221.72,171.95v22.035H210.651l-2.468,5.288a3.423,3.423,0,1,1-6.205-2.893l1.121-2.395H192.3a6.045,6.045,0,0,1-6.047-6.047V178a6.053,6.053,0,0,1,6.047-6.047Z" transform="translate(-83.781 -76.575)" fill="#ffb69f"/>
        <path id="Trazado_655830" data-name="Trazado 655830" d="M153.175,152.436a1.415,1.415,0,0,1-1.415-1.415v-6.689a1.415,1.415,0,0,1,1.415-1.415H169.5v-7.1a4.627,4.627,0,0,1,9.254,0v7.1h9.312a1.415,1.415,0,0,1,0,2.831H177.339a1.415,1.415,0,0,1-1.415-1.415v-8.519a1.8,1.8,0,0,0-3.592,0v8.519a1.415,1.415,0,0,1-1.415,1.415H154.591v5.274a1.415,1.415,0,0,1-1.415,1.415Zm41.9-6.689h-1.351a1.415,1.415,0,1,1,0-2.831h1.351a1.415,1.415,0,0,1,0,2.831Z" transform="translate(-68.818 -58.892)" fill="#c5e5fe"/>
        <path id="Trazado_655831" data-name="Trazado 655831" d="M183.022,174.764v9.942a6.045,6.045,0,0,0,6.047,6.047h10.8l-1.121,2.395a3.423,3.423,0,1,0,6.205,2.893l2.468-5.288h5.05v4.212h-2.367l-1.336,2.859c-3.363,7.207-14.148,5.05-14.545-2.859h-5.158a10.271,10.271,0,0,1-10.259-10.259v-9.942A10.273,10.273,0,0,1,189.069,164.5h23.4v4.218h-23.4A6.053,6.053,0,0,0,183.022,174.764Z" transform="translate(-80.553 -73.343)" fill="#48a6c8"/>
        <path id="Trazado_655832" data-name="Trazado 655832" d="M83.335,171a8.87,8.87,0,0,1-8.866,8.872H71.61V197.6h-15.6V174.2a6.053,6.053,0,0,0-6.047-6.047H40.024a6.049,6.049,0,0,0-6.047,6.047V185l-2.395-1.121a3.423,3.423,0,1,0-2.893,6.205l5.288,2.468v5.05H18.38V144.38H36.123v2.859a8.875,8.875,0,0,0,17.749,0V144.38H71.61v17.738h2.859A8.871,8.871,0,0,1,83.335,171Z" transform="translate(-10.952 -64.614)" fill="#c3fdb1"/>
        <path id="Trazado_655833" data-name="Trazado 655833" d="M62.4,192.417V221.84H40.361V210.771L35.074,208.3a3.423,3.423,0,1,1,2.893-6.205l2.395,1.121v-10.8a6.049,6.049,0,0,1,6.047-6.047H56.35A6.053,6.053,0,0,1,62.4,192.417Z" transform="translate(-17.336 -82.831)" fill="#ffb69f"/>
        <path id="Trazado_655834" data-name="Trazado 655834" d="M96.193,196.618a1.415,1.415,0,0,1-1.415-1.415v-1.351a1.415,1.415,0,1,1,2.831,0V195.2A1.415,1.415,0,0,1,96.193,196.618Zm0-7.012a1.415,1.415,0,0,1-1.415-1.415V177.463a1.415,1.415,0,0,1,1.415-1.415h8.519a1.8,1.8,0,0,0,0-3.592H96.193a1.415,1.415,0,0,1-1.415-1.415V154.715H89.5a1.415,1.415,0,1,1,0-2.831h6.689a1.415,1.415,0,0,1,1.415,1.415v16.325h7.1a4.627,4.627,0,0,1,0,9.254h-7.1v9.312A1.415,1.415,0,0,1,96.193,189.606Z" transform="translate(-41.194 -67.87)" fill="#76ffbb"/>
        <path id="Trazado_655835" data-name="Trazado 655835" d="M63.387,189.189v23.4H59.169v-23.4a6.053,6.053,0,0,0-6.047-6.047H43.181a6.049,6.049,0,0,0-6.047,6.047v10.8L34.74,198.87a3.423,3.423,0,1,0-2.893,6.205l5.288,2.468v5.05H32.922v-2.367l-2.859-1.336a7.635,7.635,0,0,1,2.859-14.545v-5.158A10.271,10.271,0,0,1,43.181,178.93h9.942A10.273,10.273,0,0,1,63.387,189.189Z" transform="translate(-14.109 -79.603)" fill="#139d6d"/>
        <circle id="Elipse_7591" data-name="Elipse 7591" cx="1.415" cy="1.415" r="1.415" transform="translate(20.212 43.656)"/>
        <path id="Trazado_655836" data-name="Trazado 655836" d="M21.226,54.593a1.415,1.415,0,0,0,0-2.831H6.675a1.415,1.415,0,1,0,0,2.831h4.6V68.776a1.415,1.415,0,0,0,1.415,1.415H29.016v1.444a10.29,10.29,0,0,0,20.58,0V70.191H65.918a1.415,1.415,0,0,0,1.415-1.415V51.038a1.415,1.415,0,0,0-1.415-1.415H63.059a7.459,7.459,0,0,1,0-14.918h2.859a1.415,1.415,0,0,0,1.415-1.415V15.545a1.415,1.415,0,0,0-1.415-1.415H12.694a1.415,1.415,0,0,0-1.415,1.415V29.728h-4.6a1.415,1.415,0,0,0,0,2.831H17.744a1.428,1.428,0,0,0,1.285-.815L21.5,26.455a2.007,2.007,0,0,1,3.64,1.693l-1.121,2.395a1.415,1.415,0,0,0,1.28,2.016H36.1a4.631,4.631,0,0,1,4.631,4.663H29.944a1.415,1.415,0,1,0,0,2.831H40.73v4.221H29.944a1.415,1.415,0,0,0,0,2.831H40.73A4.628,4.628,0,0,1,36.1,51.763h-3.55a1.415,1.415,0,0,0,0,2.831H36.1a7.477,7.477,0,0,0,7.462-7.428V37.19A7.464,7.464,0,0,0,36.1,29.728H27.521l.176-.379a4.839,4.839,0,1,0-8.77-4.093l-2.083,4.473H14.109V16.961H64.5V31.873H63.059a10.29,10.29,0,0,0,0,20.58H64.5V67.36H48.18a1.415,1.415,0,0,0-1.415,1.415v2.859a7.459,7.459,0,0,1-14.918,0V68.776a1.415,1.415,0,0,0-1.415-1.415H14.109V54.593Z" transform="translate(-5.26 -8.106)"/>
        <circle id="Elipse_7592" data-name="Elipse 7592" cx="1.415" cy="1.415" r="1.415" transform="translate(92.872 20.206)"/>
        <path id="Trazado_655837" data-name="Trazado 655837" d="M132.762,47.826V64.148a1.415,1.415,0,0,0,1.415,1.415h17.738a1.415,1.415,0,0,0,1.415-1.415V61.289a7.459,7.459,0,0,1,14.918,0v2.859a1.415,1.415,0,0,0,1.415,1.415h17.743a1.415,1.415,0,0,0,1.415-1.415V10.924a1.415,1.415,0,0,0-1.415-1.415H173.227v-4.6a1.415,1.415,0,1,0-2.831,0V15.974a1.4,1.4,0,0,0,.815,1.28l5.288,2.474a2.007,2.007,0,0,1-1.693,3.64l-2.395-1.121a1.413,1.413,0,0,0-2.016,1.28v10.8a4.63,4.63,0,0,1-4.665,4.631V28.174a1.415,1.415,0,0,0-2.831,0V38.96h-4.22V28.174a1.415,1.415,0,0,0-2.831,0V38.96a4.631,4.631,0,0,1-4.658-4.631V30.773a1.415,1.415,0,1,0-2.831,0v3.555a7.465,7.465,0,0,0,7.383,7.462h10.021a7.469,7.469,0,0,0,7.462-7.462V25.751l.379.176a4.835,4.835,0,1,0,4.088-8.764l-4.467-2.089V12.339h12.765V62.733H171.08V61.289a10.29,10.29,0,0,0-20.58,0v1.444H135.593V46.41A1.415,1.415,0,0,0,134.177,45h-2.859a7.459,7.459,0,0,1,0-14.918h2.859a1.415,1.415,0,0,0,1.415-1.415V12.339h12.769V19.45a1.415,1.415,0,0,0,2.831,0V4.905a1.415,1.415,0,0,0-2.831,0v4.6H134.177a1.415,1.415,0,0,0-1.415,1.415V27.246h-1.444a10.29,10.29,0,0,0,0,20.58Z" transform="translate(-55.489 -3.49)"/>
        <path id="Trazado_655838" data-name="Trazado 655838" d="M187.868,148.514a1.415,1.415,0,0,0,0,2.831h14.55a1.415,1.415,0,1,0,0-2.831h-4.6V134.333a1.415,1.415,0,0,0-1.415-1.415H180.078v-1.444a10.29,10.29,0,0,0-20.58,0v1.444H143.175a1.415,1.415,0,0,0-1.415,1.415v17.738a1.415,1.415,0,0,0,1.415,1.415h2.859a7.459,7.459,0,0,1,0,14.918h-2.859a1.415,1.415,0,0,0-1.415,1.415v17.743a1.415,1.415,0,0,0,1.415,1.415H196.4a1.415,1.415,0,0,0,1.415-1.415V173.38h4.6a1.415,1.415,0,1,0,0-2.831H191.35a1.423,1.423,0,0,0-1.285.821l-2.468,5.282a2.006,2.006,0,1,1-3.64-1.687l1.121-2.4a1.418,1.418,0,0,0-1.279-2.016h-10.8a4.625,4.625,0,0,1-4.631-4.661h10.785a1.415,1.415,0,1,0,0-2.831H168.364v-4.22h10.785a1.415,1.415,0,1,0,0-2.831H168.364v-.03a4.628,4.628,0,0,1,4.631-4.631h3.555a1.415,1.415,0,0,0,0-2.831h-3.555a7.493,7.493,0,0,0-7.462,7.394v10.01a7.467,7.467,0,0,0,7.462,7.462h8.577l-.176.379a4.836,4.836,0,1,0,8.764,4.093l2.089-4.473h2.735v12.769H144.591V171.236h1.444a10.29,10.29,0,0,0,0-20.58h-1.444V135.749h16.322a1.415,1.415,0,0,0,1.415-1.415v-2.859a7.459,7.459,0,0,1,14.918,0v2.859a1.415,1.415,0,0,0,1.415,1.415h16.322v12.765Z" transform="translate(-64.48 -54.555)"/>
        <path id="Trazado_655839" data-name="Trazado 655839" d="M210.7,170.865a1.418,1.418,0,1,0,1.421-1.415A1.421,1.421,0,0,0,210.7,170.865Z" transform="translate(-94.389 -75.491)"/>
        <circle id="Elipse_7593" data-name="Elipse 7593" cx="1.415" cy="1.415" r="1.415" transform="translate(43.645 117.387)"/>
        <path id="Trazado_655840" data-name="Trazado 655840" d="M53.513,202.54a1.415,1.415,0,0,0,2.831,0v-4.6H70.528a1.415,1.415,0,0,0,1.415-1.415V180.2h1.444a10.29,10.29,0,0,0,0-20.58H71.943V143.3a1.415,1.415,0,0,0-1.415-1.415H52.79a1.415,1.415,0,0,0-1.415,1.415v2.859a7.459,7.459,0,0,1-14.918,0V143.3a1.415,1.415,0,0,0-1.415-1.415H17.3a1.415,1.415,0,0,0-1.415,1.415v53.224a1.415,1.415,0,0,0,1.415,1.415H31.479v4.6a1.415,1.415,0,0,0,2.831,0V191.471a1.416,1.416,0,0,0-.815-1.28l-5.288-2.468a2.009,2.009,0,0,1,1.687-3.646l2.4,1.127a1.42,1.42,0,0,0,2.016-1.285v-10.8a4.631,4.631,0,0,1,4.663-4.631v10.788a1.415,1.415,0,0,0,2.831,0V168.485h4.221v10.788a1.415,1.415,0,0,0,2.831,0V168.485a4.633,4.633,0,0,1,4.658,4.631v3.555a1.415,1.415,0,1,0,2.831,0v-3.555a7.474,7.474,0,0,0-7.394-7.462H38.94a7.464,7.464,0,0,0-7.462,7.462v8.577l-.379-.176a4.839,4.839,0,0,0-4.093,8.77l4.473,2.083v2.736H18.713V144.714H33.625v1.444a10.29,10.29,0,0,0,20.58,0v-1.444H69.112v16.322a1.415,1.415,0,0,0,1.415,1.415h2.859a7.459,7.459,0,0,1,0,14.918H70.528a1.415,1.415,0,0,0-1.415,1.415v16.322H56.344V188a1.415,1.415,0,0,0-2.831,0Z" transform="translate(-9.868 -63.531)"/>
      </g>
    </g>
    <rect id="Rectángulo_336212" data-name="Rectángulo 336212" width="167" height="167" transform="translate(-7076 -10827)" fill="none"/>
  </g>
</svg>
