<svg xmlns="http://www.w3.org/2000/svg" width="112" height="112" viewBox="0 0 112 112">
  <g id="Grupo_948525" data-name="Grupo 948525" transform="translate(6843 4412)">
    <rect id="Rectángulo_336259" data-name="Rectángulo 336259" width="112" height="112" transform="translate(-6843 -4412)" fill="#fff8ed"/>
    <g id="planificacion" transform="translate(-6818.594 -4395.602)">
      <g id="Grupo_948489" data-name="Grupo 948489" transform="translate(18.44 31.983)">
        <g id="Grupo_948487" data-name="Grupo 948487">
          <path id="Trazado_656109" data-name="Trazado 656109" d="M172.343,207.788H155.471a4.309,4.309,0,0,1-4.309-4.309v-7a4.309,4.309,0,0,1,4.309-4.309h16.872a4.309,4.309,0,0,1,4.309,4.309v7A4.309,4.309,0,0,1,172.343,207.788Z" transform="translate(-151.162 -192.169)" fill="#ffb338"/>
        </g>
        <g id="Grupo_948488" data-name="Grupo 948488" transform="translate(0 20.99)">
          <path id="Trazado_656110" data-name="Trazado 656110" d="M172.343,379.853H155.471a4.309,4.309,0,0,1-4.309-4.309v-7a4.309,4.309,0,0,1,4.309-4.309h16.872a4.309,4.309,0,0,1,4.309,4.309v7A4.309,4.309,0,0,1,172.343,379.853Z" transform="translate(-151.162 -364.234)" fill="#c1f7b1"/>
        </g>
      </g>
      <g id="Grupo_948491" data-name="Grupo 948491" transform="translate(18.44 10.947)">
        <g id="Grupo_948490" data-name="Grupo 948490" transform="translate(0 0)">
          <path id="Trazado_656111" data-name="Trazado 656111" d="M155.471,19.727a4.309,4.309,0,0,0-4.309,4.309v7a4.309,4.309,0,0,0,4.309,4.309h16.872a4.309,4.309,0,0,0,4.309-4.309v-7a4.309,4.309,0,0,0-4.309-4.309Z" transform="translate(-151.162 -19.727)" fill="#f9f6f4"/>
        </g>
      </g>
      <g id="Grupo_948492" data-name="Grupo 948492" transform="translate(0 9.727)">
        <path id="Trazado_656112" data-name="Trazado 656112" d="M163.563,182.17H146.691a5.535,5.535,0,0,0-5.529,5.528v7a5.535,5.535,0,0,0,5.529,5.528h16.872a5.535,5.535,0,0,0,5.529-5.528v-7A5.535,5.535,0,0,0,163.563,182.17Zm3.089,12.531a3.092,3.092,0,0,1-3.089,3.089H146.691A3.092,3.092,0,0,1,143.6,194.7v-7a3.092,3.092,0,0,1,3.089-3.089h16.872a3.092,3.092,0,0,1,3.089,3.089Z" transform="translate(-123.942 -161.134)"/>
        <path id="Trazado_656113" data-name="Trazado 656113" d="M163.563,354.234H146.691a5.535,5.535,0,0,0-5.529,5.529v7a5.535,5.535,0,0,0,5.529,5.529h16.872a5.535,5.535,0,0,0,5.529-5.529v-7A5.535,5.535,0,0,0,163.563,354.234Zm3.089,12.531a3.092,3.092,0,0,1-3.089,3.089H146.691a3.092,3.092,0,0,1-3.089-3.089v-7a3.092,3.092,0,0,1,3.089-3.089h16.872a3.092,3.092,0,0,1,3.089,3.089Z" transform="translate(-123.942 -312.208)"/>
        <path id="Trazado_656114" data-name="Trazado 656114" d="M163.563,9.727h-2.9a1.22,1.22,0,1,0,0,2.44h2.9a3.092,3.092,0,0,1,3.089,3.089v7a3.092,3.092,0,0,1-3.089,3.089H146.691a3.092,3.092,0,0,1-3.089-3.089v-7a3.092,3.092,0,0,1,3.089-3.089h3.221a1.22,1.22,0,0,0,0-2.44h-3.221a5.535,5.535,0,0,0-5.529,5.529v7a5.535,5.535,0,0,0,5.529,5.529h16.872a5.535,5.535,0,0,0,5.529-5.529v-7A5.535,5.535,0,0,0,163.563,9.727Z" transform="translate(-123.942 -9.727)"/>
        <path id="Trazado_656115" data-name="Trazado 656115" d="M396.824,246.188h-3.8a1.22,1.22,0,0,0,0,2.44h3.8a7.209,7.209,0,0,1,7.2,7.2v4.148a7.209,7.209,0,0,1-7.2,7.2h-.857l1.273-1.273a1.22,1.22,0,0,0-1.725-1.725l-3.355,3.356a1.234,1.234,0,0,0,0,1.725l3.355,3.355a1.22,1.22,0,0,0,1.725-1.725l-1.273-1.273h.857a9.652,9.652,0,0,0,9.641-9.641v-4.148A9.652,9.652,0,0,0,396.824,246.188Z" transform="translate(-344.007 -217.342)"/>
        <path id="Trazado_656116" data-name="Trazado 656116" d="M9.641,98.8H10.5l-1.273,1.273a1.22,1.22,0,0,0,0,1.725,1.238,1.238,0,0,0,1.725,0l3.355-3.356a1.236,1.236,0,0,0,0-1.725L10.95,93.366a1.22,1.22,0,1,0-1.725,1.725L10.5,96.364H9.641a7.209,7.209,0,0,1-7.2-7.2V85.015a7.209,7.209,0,0,1,7.2-7.2h3.8a1.22,1.22,0,1,0,0-2.44h-3.8A9.652,9.652,0,0,0,0,85.015v4.148A9.652,9.652,0,0,0,9.641,98.8Z" transform="translate(0 -67.366)"/>
        <path id="Trazado_656117" data-name="Trazado 656117" d="M30.929,394.1H24.047l1.273-1.273a1.22,1.22,0,1,0-1.725-1.725l-3.355,3.356a1.236,1.236,0,0,0,0,1.725l3.355,3.356a1.238,1.238,0,0,0,1.725,0,1.22,1.22,0,0,0,0-1.725l-1.273-1.273h6.882a1.22,1.22,0,1,0,0-2.44Z" transform="translate(-17.462 -344.267)"/>
        <path id="Trazado_656118" data-name="Trazado 656118" d="M391.891,44.857a1.232,1.232,0,0,0,.1,1.6l3.356,3.356a1.22,1.22,0,1,0,1.725-1.725L395.8,46.818h6.882a1.22,1.22,0,0,0,0-2.44H395.8l1.273-1.273a1.22,1.22,0,1,0-1.725-1.725L392,44.735A1.268,1.268,0,0,0,391.891,44.857Z" transform="translate(-343.867 -37.205)"/>
        <path id="Trazado_656119" data-name="Trazado 656119" d="M190.722,74.966a1.22,1.22,0,0,0,1.22,1.22h13.539a1.22,1.22,0,1,0,0-2.44H191.942a1.22,1.22,0,0,0-1.22,1.22Z" transform="translate(-167.456 -65.936)"/>
        <path id="Trazado_656120" data-name="Trazado 656120" d="M200.136,246.188h-8.194a1.22,1.22,0,0,0,0,2.44h8.194a1.22,1.22,0,0,0,0-2.44Z" transform="translate(-167.456 -217.342)"/>
        <path id="Trazado_656121" data-name="Trazado 656121" d="M205.481,418.632H191.942a1.22,1.22,0,1,0,0,2.44h13.539a1.22,1.22,0,1,0,0-2.44Z" transform="translate(-167.456 -368.75)"/>
        <path id="Trazado_656122" data-name="Trazado 656122" d="M304.067,246.995a1.219,1.219,0,1,0-.494,1.509A1.229,1.229,0,0,0,304.067,246.995Z" transform="translate(-264.916 -217.405)"/>
        <path id="Trazado_656123" data-name="Trazado 656123" d="M247.625,11.432a1.219,1.219,0,1,0,.66-1.593A1.231,1.231,0,0,0,247.625,11.432Z" transform="translate(-217.337 -9.746)"/>
      </g>
    </g>
  </g>
</svg>
