<svg xmlns="http://www.w3.org/2000/svg" xmlns:xlink="http://www.w3.org/1999/xlink" width="505" height="495" viewBox="0 0 505 495">
  <defs>
    <clipPath id="clip-path">
      <rect id="Rectángulo_335351" data-name="Rectángulo 335351" width="425.755" height="410.312" fill="none"/>
    </clipPath>
    <clipPath id="clip-path-6">
      <rect id="Rectángulo_335324" data-name="Rectángulo 335324" width="35.942" height="21.178" fill="none"/>
    </clipPath>
    <clipPath id="clip-path-7">
      <rect id="Rectángulo_335325" data-name="Rectángulo 335325" width="6.122" height="6.122" fill="none"/>
    </clipPath>
    <clipPath id="clip-path-8">
      <rect id="Rectángulo_335326" data-name="Rectángulo 335326" width="36.363" height="34.721" fill="none"/>
    </clipPath>
    <clipPath id="clip-path-9">
      <rect id="Rectángulo_335328" data-name="Rectángulo 335328" width="77.715" height="30.521" fill="none"/>
    </clipPath>
    <clipPath id="clip-path-10">
      <rect id="Rectángulo_335329" data-name="Rectángulo 335329" width="10.561" height="10.56" fill="none"/>
    </clipPath>
    <clipPath id="clip-path-11">
      <rect id="Rectángulo_335333" data-name="Rectángulo 335333" width="35.941" height="21.178" fill="none"/>
    </clipPath>
    <clipPath id="clip-path-12">
      <rect id="Rectángulo_335334" data-name="Rectángulo 335334" width="6.123" height="6.122" fill="none"/>
    </clipPath>
    <clipPath id="clip-path-13">
      <rect id="Rectángulo_335335" data-name="Rectángulo 335335" width="36.364" height="34.721" fill="none"/>
    </clipPath>
    <clipPath id="clip-path-15">
      <rect id="Rectángulo_335338" data-name="Rectángulo 335338" width="10.56" height="10.56" fill="none"/>
    </clipPath>
    <clipPath id="clip-path-17">
      <rect id="Rectángulo_335342" data-name="Rectángulo 335342" width="6.123" height="6.123" fill="none"/>
    </clipPath>
    <clipPath id="clip-path-18">
      <rect id="Rectángulo_335343" data-name="Rectángulo 335343" width="36.363" height="34.722" fill="none"/>
    </clipPath>
    <clipPath id="clip-path-22">
      <rect id="Rectángulo_335348" data-name="Rectángulo 335348" width="28.18" height="97.504" fill="none"/>
    </clipPath>
    <clipPath id="clip-path-23">
      <rect id="Rectángulo_335349" data-name="Rectángulo 335349" width="12.578" height="57.898" fill="none"/>
    </clipPath>
  </defs>
  <g id="Grupo_949204" data-name="Grupo 949204" transform="translate(-915 -900)">
    <rect id="Rectángulo_336216" data-name="Rectángulo 336216" width="505" height="495" transform="translate(915 900)" fill="#ddf3ff"/>
    <g id="Grupo_948001" data-name="Grupo 948001" transform="translate(954.623 982.688)">
      <g id="Grupo_927708" data-name="Grupo 927708" clip-path="url(#clip-path)">
        <rect id="Rectángulo_335290" data-name="Rectángulo 335290" width="151.611" height="272.358" transform="translate(259.909 20.28)" fill="#ebebeb"/>
        <rect id="Rectángulo_335291" data-name="Rectángulo 335291" width="137.933" height="256.346" transform="translate(265.967 28.178)" fill="#fafafa"/>
        <path id="Trazado_642507" data-name="Trazado 642507" d="M451.092,296.356l-6.412-2.455V16.923h6.412Z" transform="translate(-33.159 -1.262)" fill="#e0e0e0"/>
        <g id="Grupo_927648" data-name="Grupo 927648">
          <g id="Grupo_927647" data-name="Grupo 927647" clip-path="url(#clip-path)">
            <path id="Trazado_642508" data-name="Trazado 642508" d="M323.938,204.942l35.822-33.3c4.539-4.22,10.472-8.765,16.31-6.685,2.809,1,4.921,3.4,7.673,4.544,5.5,2.291,11.782-1.016,16.011-5.213s7.565-9.447,12.689-12.49,13.082-2.656,15.615,2.737v36.237L376,213.066Z" transform="translate(-24.156 -11.178)" fill="#f5f5f5"/>
            <path id="Trazado_642509" data-name="Trazado 642509" d="M287.4,186.689c13.2-5.375,26.373-.806,35.821,9.865,1.99,2.246,3.8,4.841,6.533,6.081,3.7,1.677,7.974.421,12.012-.036a30.211,30.211,0,0,1,28.413,13.772l-44.072,21.676-38.706-.281Z" transform="translate(-21.431 -13.753)" fill="#e0e0e0"/>
            <path id="Trazado_642510" data-name="Trazado 642510" d="M425.331,186.941c-8.694-4.2-16.348.881-24.368,6.255s-15.474,12.268-24.883,14.432c-6.286,1.446-13.023.644-19.1,2.809-12.381,4.409-19.54,20.132-32.662,20.881-7.125.407-13.516-3.912-19.875-7.152s-11.375-6.317-17.045-1.983V298.35H425.331Z" transform="translate(-21.431 -13.824)" fill="#ebebeb"/>
            <rect id="Rectángulo_335292" data-name="Rectángulo 335292" width="140.927" height="2.729" transform="translate(265.968 101.922)" fill="#e0e0e0"/>
            <rect id="Rectángulo_335293" data-name="Rectángulo 335293" width="140.927" height="2.729" transform="translate(265.968 162.968)" fill="#e0e0e0"/>
            <rect id="Rectángulo_335294" data-name="Rectángulo 335294" width="140.927" height="2.729" transform="translate(265.968 224.014)" fill="#e0e0e0"/>
            <rect id="Rectángulo_335295" data-name="Rectángulo 335295" width="6.969" height="188.507" transform="translate(331.449 103.287)" fill="#e0e0e0"/>
            <rect id="Rectángulo_335296" data-name="Rectángulo 335296" width="3.157" height="75.108" transform="translate(292.528 28.178)" fill="#e0e0e0"/>
            <rect id="Rectángulo_335297" data-name="Rectángulo 335297" width="3.157" height="75.108" transform="translate(319.757 28.178)" fill="#e0e0e0"/>
            <rect id="Rectángulo_335298" data-name="Rectángulo 335298" width="3.157" height="75.108" transform="translate(346.986 28.178)" fill="#e0e0e0"/>
            <rect id="Rectángulo_335299" data-name="Rectángulo 335299" width="3.157" height="75.108" transform="translate(374.215 28.178)" fill="#e0e0e0"/>
            <rect id="Rectángulo_335300" data-name="Rectángulo 335300" width="6.412" height="278.663" transform="translate(253.497 15.661)" fill="#e0e0e0"/>
            <rect id="Rectángulo_335301" data-name="Rectángulo 335301" width="164.435" height="7.431" transform="translate(253.497 12.85)" fill="#e0e0e0"/>
            <rect id="Rectángulo_335302" data-name="Rectángulo 335302" width="173.326" height="6.924" transform="translate(248.948 296.009)" fill="#e0e0e0"/>
            <path id="Trazado_642511" data-name="Trazado 642511" d="M431.58,316.218l10.753,3.371H269.007l10.962-3.371Z" transform="translate(-20.059 -23.58)" fill="#ebebeb"/>
            <rect id="Rectángulo_335303" data-name="Rectángulo 335303" width="93.819" height="93.819" transform="translate(0 24.133) rotate(-14.906)" fill="#d2d7df"/>
            <path id="Trazado_642512" data-name="Trazado 642512" d="M98.671,7.313,107.214,80.3,89.386,102.859,16.4,111.4,5.489,18.219Z" transform="translate(-0.409 -0.545)" fill="#eff1f4"/>
            <rect id="Rectángulo_335304" data-name="Rectángulo 335304" width="7.259" height="7.26" transform="translate(84.888 13.979) rotate(-6.677)" fill="#d2d7df"/>
            <rect id="Rectángulo_335305" data-name="Rectángulo 335305" width="7.259" height="7.26" transform="translate(70.42 15.673) rotate(-6.677)" fill="#d2d7df"/>
            <rect id="Rectángulo_335306" data-name="Rectángulo 335306" width="7.259" height="7.259" transform="translate(55.952 17.366) rotate(-6.677)" fill="#d2d7df"/>
            <rect id="Rectángulo_335307" data-name="Rectángulo 335307" width="7.259" height="7.26" transform="translate(41.484 19.059) rotate(-6.677)" fill="#d2d7df"/>
            <rect id="Rectángulo_335308" data-name="Rectángulo 335308" width="7.259" height="7.26" transform="translate(27.017 20.752) rotate(-6.677)" fill="#d2d7df"/>
            <rect id="Rectángulo_335309" data-name="Rectángulo 335309" width="7.259" height="7.26" transform="translate(12.549 22.446) rotate(-6.677)" fill="#d2d7df"/>
            <rect id="Rectángulo_335310" data-name="Rectángulo 335310" width="72.833" height="1.623" transform="matrix(0.993, -0.116, 0.116, 0.993, 18.906, 45.543)" fill="#e1e4e9"/>
            <rect id="Rectángulo_335311" data-name="Rectángulo 335311" width="72.833" height="1.623" transform="matrix(0.993, -0.116, 0.116, 0.993, 19.627, 51.699)" fill="#e1e4e9"/>
            <rect id="Rectángulo_335312" data-name="Rectángulo 335312" width="72.832" height="1.623" transform="matrix(0.993, -0.116, 0.116, 0.993, 20.348, 57.855)" fill="#e1e4e9"/>
            <rect id="Rectángulo_335313" data-name="Rectángulo 335313" width="72.833" height="1.623" transform="matrix(0.993, -0.116, 0.116, 0.993, 21.068, 64.012)" fill="#e1e4e9"/>
            <rect id="Rectángulo_335314" data-name="Rectángulo 335314" width="72.833" height="1.624" transform="translate(21.788 70.169) rotate(-6.676)" fill="#e1e4e9"/>
            <rect id="Rectángulo_335315" data-name="Rectángulo 335315" width="72.833" height="1.623" transform="matrix(0.993, -0.116, 0.116, 0.993, 22.509, 76.325)" fill="#e1e4e9"/>
            <rect id="Rectángulo_335316" data-name="Rectángulo 335316" width="72.833" height="1.623" transform="matrix(0.993, -0.116, 0.116, 0.993, 23.229, 82.481)" fill="#e1e4e9"/>
            <rect id="Rectángulo_335317" data-name="Rectángulo 335317" width="36.416" height="1.623" transform="matrix(0.993, -0.116, 0.116, 0.993, 23.95, 88.638)" fill="#e1e4e9"/>
            <path id="Trazado_642513" data-name="Trazado 642513" d="M113.784,86.185,95.956,108.741,93.593,88.548Z" transform="translate(-6.979 -6.427)" fill="#e1e4e9"/>
            <path id="Trazado_642514" data-name="Trazado 642514" d="M114.912,31.75l-9.066,1.061-.091-.773,9.066-1.061a2.951,2.951,0,1,0-.686-5.862l-5.971.7-.091-.772,5.971-.7a3.728,3.728,0,1,1,.867,7.406" transform="translate(-7.886 -1.813)" fill="#d2d7df"/>
            <path id="Trazado_642515" data-name="Trazado 642515" d="M111.9,32.174l-11.1,1.3a2.975,2.975,0,1,1-.692-5.91l11.1-1.3a2.975,2.975,0,0,1,.691,5.909m-11.7-3.838a2.2,2.2,0,1,0,.511,4.364l11.1-1.3a2.2,2.2,0,0,0-.511-4.365Z" transform="translate(-7.269 -1.957)" fill="#d2d7df"/>
          </g>
        </g>
        <g id="Grupo_927650" data-name="Grupo 927650">
          <g id="Grupo_927649" data-name="Grupo 927649" clip-path="url(#clip-path)">
            <path id="Trazado_642516" data-name="Trazado 642516" d="M425.934,443.076c0,.133-94.818.241-211.755.241C97.2,443.316,2.4,443.209,2.4,443.076s94.8-.241,211.775-.241c116.938,0,211.755.107,211.755.241" transform="translate(-0.179 -33.022)" fill="#263238"/>
          </g>
        </g>
        <path id="Trazado_642517" data-name="Trazado 642517" d="M32.565,393.469,39.2,439.653H63.328l6.063-46.184Z" transform="translate(-2.428 -29.34)" fill="#455a64"/>
        <g id="Grupo_927652" data-name="Grupo 927652">
          <g id="Grupo_927651" data-name="Grupo 927651" clip-path="url(#clip-path)">
            <path id="Trazado_642518" data-name="Trazado 642518" d="M29.694,392.848c.118-3.1.828-5.874,3.2-7.7h36.28c1.992,1.507,2.6,4.43,2.866,7.7Z" transform="translate(-2.214 -28.72)" fill="#455a64"/>
            <path id="Trazado_642519" data-name="Trazado 642519" d="M35.673,384.783l3.066-4.508H63.882l2.676,4.508Z" transform="translate(-2.66 -28.357)" fill="#455a64"/>
            <path id="Trazado_642520" data-name="Trazado 642520" d="M69.379,384.962c0,.132-7.794.239-17.406.239s-17.407-.106-17.407-.239,7.792-.239,17.407-.239,17.406.107,17.406.239" transform="translate(-2.577 -28.688)" fill="#263238"/>
            <path id="Trazado_642521" data-name="Trazado 642521" d="M72.073,393.45c0,.132-9.4.239-20.985.239S30.1,393.582,30.1,393.45s9.395-.239,20.987-.239,20.985.107,20.985.239" transform="translate(-2.245 -29.321)" fill="#263238"/>
            <path id="Trazado_642522" data-name="Trazado 642522" d="M34.183,404.738h33.96l-1.986,15.134h-29.8Z" transform="translate(-2.549 -30.181)" fill="#263238"/>
            <path id="Trazado_642523" data-name="Trazado 642523" d="M50.857,326.958a1.4,1.4,0,0,1,.492.162,2.817,2.817,0,0,1,1.1,1,4.244,4.244,0,0,1,.658,2.266,5.988,5.988,0,0,1-.9,2.992,31.734,31.734,0,0,1-2.176,3.057,8.255,8.255,0,0,0-1.749,3.742,6.405,6.405,0,0,0,1.3,4.283c.906,1.344,2.073,2.583,3.124,4a12.167,12.167,0,0,1,1.368,2.245,6.592,6.592,0,0,1,.582,2.519,7.49,7.49,0,0,1-1.738,4.474c-.924,1.228-1.984,2.215-2.873,3.206a11.779,11.779,0,0,0-2.112,2.994,5.144,5.144,0,0,0-.466,2.917,4.5,4.5,0,0,0,.8,2.1A3.788,3.788,0,0,0,49.8,370.07c0,.008-.046,0-.13-.019a2.158,2.158,0,0,1-.368-.119,3.071,3.071,0,0,1-1.183-.907,4.578,4.578,0,0,1-.921-2.172,5.39,5.39,0,0,1,.421-3.095,11.888,11.888,0,0,1,2.126-3.121c.892-1.017,1.931-2.009,2.815-3.206a7.076,7.076,0,0,0,1.621-4.2,6.175,6.175,0,0,0-.546-2.327,11.828,11.828,0,0,0-1.318-2.151c-1.026-1.384-2.2-2.635-3.13-4.023a6.819,6.819,0,0,1-1.347-4.6A8.558,8.558,0,0,1,49.71,336.2a33.758,33.758,0,0,0,2.2-2.991,5.8,5.8,0,0,0,.926-2.822,4.128,4.128,0,0,0-.548-2.165,3.262,3.262,0,0,0-1.434-1.266" transform="translate(-3.514 -24.381)" fill="#263238"/>
            <path id="Trazado_642524" data-name="Trazado 642524" d="M57.436,326.958a1.4,1.4,0,0,1,.492.162,2.817,2.817,0,0,1,1.1,1,4.244,4.244,0,0,1,.658,2.266,5.988,5.988,0,0,1-.9,2.992,31.894,31.894,0,0,1-2.176,3.057,8.255,8.255,0,0,0-1.749,3.742,6.405,6.405,0,0,0,1.3,4.283c.906,1.344,2.073,2.583,3.124,4a12.167,12.167,0,0,1,1.368,2.245,6.591,6.591,0,0,1,.581,2.519A7.483,7.483,0,0,1,59.5,357.7c-.925,1.228-1.984,2.215-2.873,3.206A11.779,11.779,0,0,0,54.51,363.9a5.144,5.144,0,0,0-.466,2.917,4.5,4.5,0,0,0,.8,2.1,3.787,3.787,0,0,0,1.533,1.161c0,.008-.046,0-.13-.019a2.158,2.158,0,0,1-.368-.119,3.071,3.071,0,0,1-1.183-.907,4.578,4.578,0,0,1-.921-2.172,5.39,5.39,0,0,1,.421-3.095,11.889,11.889,0,0,1,2.126-3.121c.892-1.017,1.931-2.009,2.815-3.206a7.076,7.076,0,0,0,1.621-4.2,6.174,6.174,0,0,0-.546-2.327,11.829,11.829,0,0,0-1.318-2.151c-1.026-1.384-2.2-2.635-3.13-4.023a6.819,6.819,0,0,1-1.347-4.6,8.558,8.558,0,0,1,1.868-3.925,33.761,33.761,0,0,0,2.2-2.991,5.8,5.8,0,0,0,.926-2.822,4.128,4.128,0,0,0-.548-2.165,3.262,3.262,0,0,0-1.434-1.266" transform="translate(-4.005 -24.381)" fill="#263238"/>
          </g>
        </g>
        <rect id="Rectángulo_335321" data-name="Rectángulo 335321" width="177.373" height="233.707" transform="translate(51.048 57.639)" fill="#fff"/>
        <g id="Grupo_927699" data-name="Grupo 927699">
          <g id="Grupo_927698" data-name="Grupo 927698" clip-path="url(#clip-path)">
            <path id="Trazado_642525" data-name="Trazado 642525" d="M232.514,295.97c0-1.913-.089-95.189-.217-233.706l.217.217-177.352.024h-.02l.242-.241c-.017,86.947-.031,167.581-.043,233.706l-.2-.2,177.373.2-177.373.2h-.2v-.2c-.012-66.125-.027-146.759-.043-233.706v-.242h.261l177.352.024h.217v.217c-.129,138.517-.216,231.794-.217,233.706" transform="translate(-4.094 -4.625)" fill="#263238"/>
            <path id="Trazado_642526" data-name="Trazado 642526" d="M232.534,80.722c0,.079-39.709.143-88.682.143-48.99,0-88.691-.064-88.691-.143s39.7-.143,88.691-.143c48.973,0,88.682.064,88.682.143" transform="translate(-4.113 -6.009)" fill="#263238"/>
            <line id="Línea_2718" data-name="Línea 2718" x2="60.509" transform="translate(113.556 66.725)" fill="#455a64"/>
            <path id="Trazado_642527" data-name="Trazado 642527" d="M183.215,72.09c0,.079-13.546.143-30.253.143s-30.256-.064-30.256-.143,13.544-.143,30.256-.143,30.253.064,30.253.143" transform="translate(-9.15 -5.365)" fill="#455a64"/>
            <path id="Trazado_642528" data-name="Trazado 642528" d="M64.426,71.944a1.961,1.961,0,1,1-1.961-1.961,1.961,1.961,0,0,1,1.961,1.961" transform="translate(-4.512 -5.219)" fill="#e0e0e0"/>
            <path id="Trazado_642529" data-name="Trazado 642529" d="M71.611,71.944a1.961,1.961,0,1,1-1.961-1.961,1.961,1.961,0,0,1,1.961,1.961" transform="translate(-5.047 -5.219)" fill="#e0e0e0"/>
            <path id="Trazado_642530" data-name="Trazado 642530" d="M78.8,71.944a1.961,1.961,0,1,1-1.962-1.961A1.962,1.962,0,0,1,78.8,71.944" transform="translate(-5.583 -5.219)" fill="#e0e0e0"/>
            <path id="Trazado_642531" data-name="Trazado 642531" d="M127.518,105.98h-4.064l-.776,1.876H120.6l3.9-8.754h2l3.914,8.754h-2.126Zm-.638-1.538-1.388-3.352-1.388,3.352Z" transform="translate(-8.993 -7.39)" fill="#455a64"/>
            <path id="Trazado_642532" data-name="Trazado 642532" d="M137.773,107.856l-1.688-2.438h-1.863v2.438H132.2V99.1h3.79c2.339,0,3.8,1.213,3.8,3.176a2.845,2.845,0,0,1-1.8,2.764l1.964,2.814Zm-1.9-7.1h-1.65V103.8h1.65c1.238,0,1.864-.575,1.864-1.526s-.626-1.525-1.864-1.525" transform="translate(-9.858 -7.39)" fill="#455a64"/>
            <path id="Trazado_642533" data-name="Trazado 642533" d="M143.724,100.752h-2.8V99.1h7.628v1.651h-2.8v7.1h-2.026Z" transform="translate(-10.508 -7.39)" fill="#455a64"/>
            <rect id="Rectángulo_335322" data-name="Rectángulo 335322" width="2.026" height="8.755" transform="translate(139.13 91.711)" fill="#455a64"/>
            <path id="Trazado_642534" data-name="Trazado 642534" d="M154.178,103.466a4.82,4.82,0,0,1,8.354-2.976l-1.3,1.2a2.818,2.818,0,0,0-2.2-1.025,2.8,2.8,0,0,0,0,5.6,2.789,2.789,0,0,0,2.2-1.037l1.3,1.2a4.812,4.812,0,0,1-8.354-2.964" transform="translate(-11.497 -7.378)" fill="#455a64"/>
            <path id="Trazado_642535" data-name="Trazado 642535" d="M164.676,99.1H166.7v7.1h4.389v1.651h-6.415Z" transform="translate(-12.28 -7.39)" fill="#455a64"/>
            <path id="Trazado_642536" data-name="Trazado 642536" d="M179.615,106.23v1.626h-6.778V99.1h6.615v1.626h-4.6v1.9h4.064V104.2H174.85v2.026Z" transform="translate(-12.888 -7.39)" fill="#455a64"/>
            <path id="Trazado_642537" data-name="Trazado 642537" d="M112.548,104.666c0,.079-9.389.143-20.968.143s-20.97-.064-20.97-.143,9.387-.143,20.97-.143,20.968.064,20.968.143" transform="translate(-5.265 -7.794)" fill="#263238"/>
            <path id="Trazado_642538" data-name="Trazado 642538" d="M232.874,104.666c0,.079-9.858.143-22.015.143s-22.018-.064-22.018-.143,9.856-.143,22.018-.143,22.015.064,22.015.143" transform="translate(-14.082 -7.794)" fill="#263238"/>
            <rect id="Rectángulo_335323" data-name="Rectángulo 335323" width="42.537" height="41.154" transform="translate(168.309 238.448)" fill="#455a64"/>
            <g id="Grupo_927655" data-name="Grupo 927655" transform="translate(171.607 254.903)" opacity="0.3">
              <g id="Grupo_927654" data-name="Grupo 927654">
                <g id="Grupo_927653" data-name="Grupo 927653" clip-path="url(#clip-path-6)">
                  <path id="Trazado_642539" data-name="Trazado 642539" d="M185.435,296.619,197.2,275.442l9.625,13.536,5.848-7.189,8.7,14.83Z" transform="translate(-185.435 -275.442)"/>
                </g>
              </g>
            </g>
            <g id="Grupo_927658" data-name="Grupo 927658" transform="translate(190.978 247.723)" opacity="0.3">
              <g id="Grupo_927657" data-name="Grupo 927657">
                <g id="Grupo_927656" data-name="Grupo 927656" clip-path="url(#clip-path-7)">
                  <path id="Trazado_642540" data-name="Trazado 642540" d="M211.67,268.5c2.5,3.277-1.209,6.981-4.486,4.485-2.495-3.277,1.209-6.98,4.486-4.485" transform="translate(-206.366 -267.684)"/>
                </g>
              </g>
            </g>
            <g id="Grupo_927661" data-name="Grupo 927661" transform="translate(171.36 241.65)" opacity="0.3">
              <g id="Grupo_927660" data-name="Grupo 927660">
                <g id="Grupo_927659" data-name="Grupo 927659" clip-path="url(#clip-path-8)">
                  <path id="Trazado_642541" data-name="Trazado 642541" d="M221.357,295.666a1.381,1.381,0,0,1-.01-.168c0-.124-.006-.28-.009-.48q-.007-.657-.02-1.852c-.01-1.632-.026-3.992-.045-6.989-.021-6.012-.052-14.572-.089-24.849l.174.173-35.937.03c-.049.043.38-.381.2-.2v2.333q0,1.167,0,2.324,0,2.313,0,4.582c0,3.024,0,5.986-.006,8.868-.006,5.764-.013,11.212-.019,16.226l-.177-.177,25.986.09,7.329.046,1.944.02.5.01a1.277,1.277,0,0,1,.177.01.954.954,0,0,1-.157.01l-.484.01-1.911.02-7.29.046-26.1.09h-.177v-.177c-.006-5.013-.012-10.462-.019-16.226,0-2.883,0-5.844,0-8.868q0-2.268,0-4.582,0-1.158,0-2.324v-2.333c-.18.178.246-.254.206-.208l35.937.028h.175v.174c-.037,10.323-.068,18.921-.089,24.959-.019,2.98-.035,5.328-.045,6.95q-.014,1.173-.02,1.818c0,.193-.007.342-.01.462a.74.74,0,0,1-.009.149" transform="translate(-185.168 -261.122)"/>
                </g>
              </g>
            </g>
            <path id="Trazado_642542" data-name="Trazado 642542" d="M111.79,121.5c0,.133-9.3.241-20.772.241s-20.773-.107-20.773-.241,9.3-.241,20.773-.241,20.772.107,20.772.241" transform="translate(-5.238 -9.042)" fill="#263238"/>
            <path id="Trazado_642543" data-name="Trazado 642543" d="M143.83,132.275c0,.133-16.474.241-36.791.241s-36.794-.107-36.794-.241,16.47-.241,36.794-.241,36.791.107,36.791.241" transform="translate(-5.238 -9.846)" fill="#263238"/>
            <path id="Trazado_642544" data-name="Trazado 642544" d="M175.335,131.488c0,.133-4.463.241-9.968.241s-9.97-.107-9.97-.241,4.463-.241,9.97-.241,9.968.107,9.968.241" transform="translate(-11.588 -9.787)" fill="#263238"/>
            <path id="Trazado_642545" data-name="Trazado 642545" d="M226.34,131.029c0,.133-9.212.241-20.572.241s-20.574-.107-20.574-.241,9.21-.241,20.574-.241,20.572.107,20.572.241" transform="translate(-13.81 -9.753)" fill="#263238"/>
            <path id="Trazado_642546" data-name="Trazado 642546" d="M217.3,140.2c0,.133-33.048.241-73.807.241s-73.813-.107-73.813-.241,33.042-.241,73.813-.241,73.807.107,73.807.241" transform="translate(-5.196 -10.436)" fill="#263238"/>
            <path id="Trazado_642547" data-name="Trazado 642547" d="M138.436,149.823c0,.133-15.29.241-34.147.241s-34.148-.107-34.148-.241,15.286-.241,34.148-.241,34.147.107,34.147.241" transform="translate(-5.23 -11.154)" fill="#263238"/>
            <path id="Trazado_642548" data-name="Trazado 642548" d="M169.479,149.823a90.588,90.588,0,0,1-9.332.241,90.6,90.6,0,0,1-9.333-.241,90.555,90.555,0,0,1,9.333-.241,90.545,90.545,0,0,1,9.332.241" transform="translate(-11.246 -11.154)" fill="#263238"/>
            <path id="Trazado_642549" data-name="Trazado 642549" d="M225.335,148.906c0,.133-10.731.241-23.966.241s-23.968-.107-23.968-.241,10.729-.241,23.968-.241,23.966.107,23.966.241" transform="translate(-13.229 -11.086)" fill="#263238"/>
            <path id="Trazado_642550" data-name="Trazado 642550" d="M142.826,232.3c0,.133-16.474.241-36.791.241s-36.794-.107-36.794-.241,16.47-.241,36.794-.241,36.791.107,36.791.241" transform="translate(-5.163 -17.305)" fill="#263238"/>
            <path id="Trazado_642551" data-name="Trazado 642551" d="M174.331,231.516c0,.133-4.463.241-9.968.241s-9.97-.107-9.97-.241,4.462-.241,9.97-.241,9.968.107,9.968.241" transform="translate(-11.513 -17.246)" fill="#263238"/>
            <path id="Trazado_642552" data-name="Trazado 642552" d="M225.336,231.057c0,.133-9.212.241-20.572.241s-20.574-.107-20.574-.241,9.21-.241,20.574-.241,20.572.107,20.572.241" transform="translate(-13.735 -17.212)" fill="#263238"/>
            <path id="Trazado_642553" data-name="Trazado 642553" d="M216.3,240.225c0,.133-33.048.241-73.806.241s-73.814-.107-73.814-.241,33.042-.241,73.814-.241,73.806.107,73.806.241" transform="translate(-5.121 -17.895)" fill="#263238"/>
            <path id="Trazado_642554" data-name="Trazado 642554" d="M137.432,249.851c0,.133-15.29.241-34.146.241s-34.149-.107-34.149-.241,15.286-.241,34.149-.241,34.146.107,34.146.241" transform="translate(-5.155 -18.613)" fill="#263238"/>
            <path id="Trazado_642555" data-name="Trazado 642555" d="M168.475,249.851a90.564,90.564,0,0,1-9.332.241,90.577,90.577,0,0,1-9.333-.241,90.6,90.6,0,0,1,9.333-.241,90.592,90.592,0,0,1,9.332.241" transform="translate(-11.171 -18.613)" fill="#263238"/>
            <path id="Trazado_642556" data-name="Trazado 642556" d="M224.331,248.934c0,.133-10.731.241-23.966.241s-23.968-.107-23.968-.241,10.729-.241,23.968-.241,23.966.107,23.966.241" transform="translate(-13.154 -18.545)" fill="#263238"/>
            <path id="Trazado_642557" data-name="Trazado 642557" d="M163.475,260.411c0,.134-20.859.242-46.584.242s-46.588-.107-46.588-.242,20.855-.24,46.588-.24,46.584.106,46.584.24" transform="translate(-5.242 -19.401)" fill="#263238"/>
            <path id="Trazado_642558" data-name="Trazado 642558" d="M162.487,270.972c0,.133-20.816.241-46.487.241s-46.492-.107-46.492-.241,20.811-.241,46.492-.241,46.487.107,46.487.241" transform="translate(-5.183 -20.188)" fill="#263238"/>
            <rect id="Rectángulo_335327" data-name="Rectángulo 335327" width="90.343" height="57.678" transform="translate(64.388 148.096)" fill="#ff725e"/>
            <path id="Trazado_642559" data-name="Trazado 642559" d="M156.384,213.4s-.013-.312-.02-.9-.011-1.469-.02-2.6c-.011-2.287-.027-5.627-.048-9.909-.023-8.569-.057-20.9-.1-36l.188.188-81.865.053h-.006l.241-.241c-.006,17.5-.012,34.207-.018,49.408l-.223-.223,58.882.108,16.906.061,4.511.027,1.169.014c.264,0,.4.013.4.013s-.123.009-.378.013l-1.143.014-4.465.027-16.856.061-59.03.108h-.223V213.4c-.006-15.2-.012-31.9-.018-49.408v-.242h.247l81.865.054h.189v.188c-.042,15.153-.076,27.521-.1,36.116-.021,4.264-.037,7.589-.048,9.867q-.014,1.673-.02,2.563c-.007.576-.02.862-.02.862" transform="translate(-5.538 -12.211)" fill="#263238"/>
            <g id="Grupo_927664" data-name="Grupo 927664" transform="translate(71.186 170.667)" opacity="0.2">
              <g id="Grupo_927663" data-name="Grupo 927663">
                <g id="Grupo_927662" data-name="Grupo 927662" clip-path="url(#clip-path-9)">
                  <path id="Trazado_642560" data-name="Trazado 642560" d="M76.922,214.94,100.6,184.419l17.115,19.548,13.1-11.789,23.821,22.762Z" transform="translate(-76.922 -184.419)"/>
                </g>
              </g>
            </g>
            <g id="Grupo_927667" data-name="Grupo 927667" transform="translate(106.719 161.755)" opacity="0.2">
              <g id="Grupo_927666" data-name="Grupo 927666">
                <g id="Grupo_927665" data-name="Grupo 927665" clip-path="url(#clip-path-10)">
                  <path id="Trazado_642561" data-name="Trazado 642561" d="M125.879,180.068a5.28,5.28,0,1,1-5.281-5.281,5.281,5.281,0,0,1,5.281,5.281" transform="translate(-115.318 -174.789)"/>
                </g>
              </g>
            </g>
            <path id="Trazado_642562" data-name="Trazado 642562" d="M225.116,159.467c0,.133-11.339.241-25.324.241s-25.326-.107-25.326-.241,11.337-.241,25.326-.241,25.324.107,25.324.241" transform="translate(-13.01 -11.873)" fill="#263238"/>
            <path id="Trazado_642563" data-name="Trazado 642563" d="M225.116,169.168c0,.133-11.339.241-25.324.241s-25.326-.107-25.326-.241,11.337-.241,25.326-.241,25.324.107,25.324.241" transform="translate(-13.01 -12.597)" fill="#263238"/>
            <path id="Trazado_642564" data-name="Trazado 642564" d="M223.154,211.387c0,.133-11.339.241-25.324.241s-25.326-.107-25.326-.241,11.337-.241,25.326-.241,25.324.107,25.324.241" transform="translate(-12.863 -15.745)" fill="#263238"/>
            <path id="Trazado_642565" data-name="Trazado 642565" d="M223.154,222.336c0,.133-11.339.242-25.324.242s-25.326-.108-25.326-.242,11.337-.241,25.326-.241,25.324.107,25.324.241" transform="translate(-12.863 -16.561)" fill="#263238"/>
            <path id="Trazado_642566" data-name="Trazado 642566" d="M208.572,178.869c0,.133-7.636.241-17.053.241s-17.054-.107-17.054-.241,7.634-.241,17.054-.241,17.053.107,17.053.241" transform="translate(-13.01 -13.32)" fill="#263238"/>
            <path id="Trazado_642567" data-name="Trazado 642567" d="M228.582,178.756a42.277,42.277,0,0,1-6.367.241,42.274,42.274,0,0,1-6.368-.241,42.277,42.277,0,0,1,6.368-.241,42.281,42.281,0,0,1,6.367.241" transform="translate(-16.095 -13.312)" fill="#263238"/>
            <path id="Trazado_642568" data-name="Trazado 642568" d="M226.87,189.508c0,.133-7.607.241-16.988.241s-16.989-.107-16.989-.241,7.605-.241,16.989-.241,16.988.107,16.988.241" transform="translate(-14.384 -14.113)" fill="#263238"/>
            <path id="Trazado_642569" data-name="Trazado 642569" d="M208.572,200.372c0,.133-7.636.241-17.053.241s-17.054-.107-17.054-.241,7.634-.241,17.054-.241,17.053.107,17.053.241" transform="translate(-13.01 -14.924)" fill="#263238"/>
            <path id="Trazado_642570" data-name="Trazado 642570" d="M228.582,200.26a42.279,42.279,0,0,1-6.367.241,42.276,42.276,0,0,1-6.368-.241,42.27,42.27,0,0,1,6.368-.241,42.273,42.273,0,0,1,6.367.241" transform="translate(-16.095 -14.915)" fill="#263238"/>
            <path id="Trazado_642571" data-name="Trazado 642571" d="M184.852,189.258a23.049,23.049,0,0,1-4.692.241,23.049,23.049,0,0,1-4.692-.241,23.054,23.054,0,0,1,4.692-.241,23.054,23.054,0,0,1,4.692.241" transform="translate(-13.084 -14.095)" fill="#263238"/>
            <path id="Trazado_642572" data-name="Trazado 642572" d="M163.416,281.314c0,.133-21.024.241-46.952.241s-46.956-.107-46.956-.241,21.019-.241,46.956-.241,46.952.107,46.952.241" transform="translate(-5.183 -20.959)" fill="#263238"/>
            <path id="Trazado_642573" data-name="Trazado 642573" d="M164.942,293.017c0,.133-21.024.241-46.952.241s-46.956-.107-46.956-.241,21.019-.241,46.956-.241,46.952.107,46.952.241" transform="translate(-5.297 -21.832)" fill="#263238"/>
            <rect id="Rectángulo_335330" data-name="Rectángulo 335330" width="177.373" height="233.707" transform="translate(41.882 51.545)" fill="#fff"/>
            <path id="Trazado_642574" data-name="Trazado 642574" d="M222.61,289.385c0-1.914-.089-95.189-.217-233.707l.217.217L45.258,55.92h-.02l.242-.242c-.017,86.948-.031,167.582-.044,233.707l-.2-.2,177.373.2-177.373.2h-.2v-.2C45.028,223.26,45.013,142.627,45,55.679v-.241h.261l177.352.024h.217v.217c-.129,138.518-.216,231.795-.217,233.707" transform="translate(-3.355 -4.134)" fill="#263238"/>
            <path id="Trazado_642575" data-name="Trazado 642575" d="M222.63,74.137c0,.079-39.709.143-88.682.143-48.99,0-88.691-.064-88.691-.143s39.7-.143,88.691-.143c48.973,0,88.682.064,88.682.143" transform="translate(-3.375 -5.518)" fill="#263238"/>
            <line id="Línea_2719" data-name="Línea 2719" x2="60.509" transform="translate(104.389 60.631)" fill="#455a64"/>
            <path id="Trazado_642576" data-name="Trazado 642576" d="M173.31,65.506c0,.079-13.546.143-30.253.143s-30.256-.064-30.256-.143,13.544-.143,30.256-.143,30.253.064,30.253.143" transform="translate(-8.411 -4.874)" fill="#455a64"/>
            <path id="Trazado_642577" data-name="Trazado 642577" d="M54.521,65.359A1.961,1.961,0,1,1,52.56,63.4a1.961,1.961,0,0,1,1.961,1.961" transform="translate(-3.773 -4.728)" fill="#e0e0e0"/>
            <path id="Trazado_642578" data-name="Trazado 642578" d="M61.706,65.359A1.961,1.961,0,1,1,59.745,63.4a1.961,1.961,0,0,1,1.961,1.961" transform="translate(-4.309 -4.728)" fill="#e0e0e0"/>
            <path id="Trazado_642579" data-name="Trazado 642579" d="M68.892,65.359A1.961,1.961,0,1,1,66.931,63.4a1.961,1.961,0,0,1,1.961,1.961" transform="translate(-4.845 -4.728)" fill="#e0e0e0"/>
            <path id="Trazado_642580" data-name="Trazado 642580" d="M117.613,99.395h-4.064l-.776,1.876H110.7l3.9-8.754h2l3.914,8.754h-2.126Zm-.638-1.538L115.587,94.5,114.2,97.857Z" transform="translate(-8.255 -6.899)" fill="#455a64"/>
            <path id="Trazado_642581" data-name="Trazado 642581" d="M127.868,101.271l-1.688-2.438h-1.864v2.438H122.29V92.516h3.79c2.339,0,3.8,1.213,3.8,3.176a2.845,2.845,0,0,1-1.8,2.764l1.964,2.814Zm-1.9-7.1h-1.651v3.051h1.651c1.238,0,1.864-.575,1.864-1.526s-.626-1.525-1.864-1.525" transform="translate(-9.119 -6.899)" fill="#455a64"/>
            <path id="Trazado_642582" data-name="Trazado 642582" d="M133.82,94.167h-2.8V92.516h7.628v1.651h-2.8v7.1H133.82Z" transform="translate(-9.77 -6.899)" fill="#455a64"/>
            <rect id="Rectángulo_335331" data-name="Rectángulo 335331" width="2.026" height="8.755" transform="translate(129.964 85.617)" fill="#455a64"/>
            <path id="Trazado_642583" data-name="Trazado 642583" d="M144.273,96.881a4.82,4.82,0,0,1,8.354-2.976l-1.3,1.2a2.817,2.817,0,0,0-2.2-1.025,2.8,2.8,0,1,0,0,5.6,2.789,2.789,0,0,0,2.2-1.037l1.3,1.2a4.812,4.812,0,0,1-8.354-2.964" transform="translate(-10.758 -6.887)" fill="#455a64"/>
            <path id="Trazado_642584" data-name="Trazado 642584" d="M154.772,92.516H156.8v7.1h4.389v1.651h-6.415Z" transform="translate(-11.541 -6.899)" fill="#455a64"/>
            <path id="Trazado_642585" data-name="Trazado 642585" d="M169.711,99.645v1.626h-6.778V92.516h6.615v1.626h-4.6v1.9h4.064v1.576h-4.064v2.026Z" transform="translate(-12.15 -6.899)" fill="#455a64"/>
            <path id="Trazado_642586" data-name="Trazado 642586" d="M102.643,98.081c0,.079-9.389.143-20.968.143s-20.97-.064-20.97-.143,9.387-.143,20.97-.143,20.968.064,20.968.143" transform="translate(-4.527 -7.303)" fill="#263238"/>
            <path id="Trazado_642587" data-name="Trazado 642587" d="M222.969,98.081c0,.079-9.858.143-22.015.143s-22.018-.064-22.018-.143,9.856-.143,22.018-.143,22.015.064,22.015.143" transform="translate(-13.343 -7.303)" fill="#263238"/>
            <rect id="Rectángulo_335332" data-name="Rectángulo 335332" width="42.537" height="41.154" transform="translate(159.144 232.354)" fill="#455a64"/>
            <g id="Grupo_927670" data-name="Grupo 927670" transform="translate(162.442 248.809)" opacity="0.3">
              <g id="Grupo_927669" data-name="Grupo 927669">
                <g id="Grupo_927668" data-name="Grupo 927668" clip-path="url(#clip-path-11)">
                  <path id="Trazado_642588" data-name="Trazado 642588" d="M175.531,290.034,187.3,268.857l9.625,13.536,5.848-7.189,8.7,14.83Z" transform="translate(-175.531 -268.857)"/>
                </g>
              </g>
            </g>
            <g id="Grupo_927673" data-name="Grupo 927673" transform="translate(181.811 241.629)" opacity="0.3">
              <g id="Grupo_927672" data-name="Grupo 927672">
                <g id="Grupo_927671" data-name="Grupo 927671" clip-path="url(#clip-path-12)">
                  <path id="Trazado_642589" data-name="Trazado 642589" d="M201.765,261.917c2.5,3.277-1.209,6.981-4.486,4.485-2.495-3.277,1.209-6.98,4.486-4.485" transform="translate(-196.461 -261.099)"/>
                </g>
              </g>
            </g>
            <g id="Grupo_927676" data-name="Grupo 927676" transform="translate(162.194 235.556)" opacity="0.3">
              <g id="Grupo_927675" data-name="Grupo 927675">
                <g id="Grupo_927674" data-name="Grupo 927674" clip-path="url(#clip-path-13)">
                  <path id="Trazado_642590" data-name="Trazado 642590" d="M211.452,289.081a1.371,1.371,0,0,1-.01-.168c0-.124-.006-.28-.009-.48q-.007-.657-.02-1.852c-.01-1.632-.026-3.992-.045-6.989-.021-6.012-.052-14.572-.089-24.849l.174.174-35.937.029c-.049.043.38-.381.2-.2v2.333q0,1.168,0,2.324,0,2.313,0,4.582c0,3.024,0,5.986-.006,8.868-.006,5.764-.013,11.213-.019,16.226l-.177-.177,25.986.09,7.329.046,1.944.02.5.01a1.273,1.273,0,0,1,.177.01.94.94,0,0,1-.157.01l-.484.01-1.911.02-7.29.046-26.1.09h-.177v-.178c-.006-5.013-.012-10.462-.019-16.226,0-2.883,0-5.844,0-8.868q0-2.268,0-4.582,0-1.156,0-2.324v-2.333c-.18.178.246-.254.206-.208l35.937.028h.175v.174c-.037,10.323-.068,18.921-.089,24.959-.019,2.98-.035,5.328-.045,6.95q-.014,1.173-.02,1.818c0,.193-.007.343-.01.462a.728.728,0,0,1-.009.149" transform="translate(-175.263 -254.537)"/>
                </g>
              </g>
            </g>
            <path id="Trazado_642591" data-name="Trazado 642591" d="M101.885,114.916c0,.133-9.3.241-20.772.241s-20.773-.107-20.773-.241,9.3-.241,20.773-.241,20.772.107,20.772.241" transform="translate(-4.499 -8.551)" fill="#263238"/>
            <path id="Trazado_642592" data-name="Trazado 642592" d="M133.925,125.69c0,.133-16.474.241-36.791.241s-36.794-.107-36.794-.241,16.47-.241,36.794-.241,36.791.107,36.791.241" transform="translate(-4.499 -9.355)" fill="#263238"/>
            <path id="Trazado_642593" data-name="Trazado 642593" d="M165.43,124.9c0,.133-4.463.241-9.968.241s-9.97-.107-9.97-.241,4.463-.241,9.97-.241,9.968.107,9.968.241" transform="translate(-10.849 -9.296)" fill="#263238"/>
            <path id="Trazado_642594" data-name="Trazado 642594" d="M216.435,124.444c0,.133-9.212.241-20.572.241s-20.574-.107-20.574-.241,9.21-.241,20.574-.241,20.572.107,20.572.241" transform="translate(-13.071 -9.262)" fill="#263238"/>
            <path id="Trazado_642595" data-name="Trazado 642595" d="M207.4,133.612c0,.133-33.048.241-73.807.241s-73.813-.107-73.813-.241,33.042-.241,73.813-.241,73.807.107,73.807.241" transform="translate(-4.457 -9.945)" fill="#263238"/>
            <path id="Trazado_642596" data-name="Trazado 642596" d="M128.531,143.238c0,.133-15.29.241-34.147.241s-34.149-.107-34.149-.241S75.522,143,94.384,143s34.147.107,34.147.241" transform="translate(-4.492 -10.663)" fill="#263238"/>
            <path id="Trazado_642597" data-name="Trazado 642597" d="M159.574,143.238a90.575,90.575,0,0,1-9.332.241,90.587,90.587,0,0,1-9.333-.241,90.587,90.587,0,0,1,9.333-.241,90.575,90.575,0,0,1,9.332.241" transform="translate(-10.507 -10.663)" fill="#263238"/>
            <path id="Trazado_642598" data-name="Trazado 642598" d="M215.43,142.321c0,.133-10.731.241-23.966.241s-23.968-.107-23.968-.241,10.729-.241,23.968-.241,23.966.107,23.966.241" transform="translate(-12.49 -10.595)" fill="#263238"/>
            <path id="Trazado_642599" data-name="Trazado 642599" d="M132.921,225.718c0,.133-16.474.241-36.791.241s-36.794-.107-36.794-.241,16.47-.241,36.794-.241,36.791.107,36.791.241" transform="translate(-4.425 -16.814)" fill="#263238"/>
            <path id="Trazado_642600" data-name="Trazado 642600" d="M164.426,224.93c0,.134-4.463.242-9.968.242s-9.97-.107-9.97-.242,4.462-.241,9.97-.241,9.968.107,9.968.241" transform="translate(-10.774 -16.755)" fill="#263238"/>
            <path id="Trazado_642601" data-name="Trazado 642601" d="M215.43,224.472c0,.133-9.212.241-20.572.241s-20.574-.107-20.574-.241,9.21-.241,20.574-.241,20.572.107,20.572.241" transform="translate(-12.996 -16.721)" fill="#263238"/>
            <path id="Trazado_642602" data-name="Trazado 642602" d="M206.393,233.64c0,.133-33.048.241-73.807.241s-73.813-.107-73.813-.241,33.042-.241,73.813-.241,73.807.107,73.807.241" transform="translate(-4.383 -17.404)" fill="#263238"/>
            <path id="Trazado_642603" data-name="Trazado 642603" d="M127.527,243.266c0,.133-15.29.241-34.146.241s-34.149-.107-34.149-.241,15.286-.241,34.149-.241,34.146.107,34.146.241" transform="translate(-4.417 -18.122)" fill="#263238"/>
            <path id="Trazado_642604" data-name="Trazado 642604" d="M158.57,243.266a90.581,90.581,0,0,1-9.332.241,90.593,90.593,0,0,1-9.333-.241,90.593,90.593,0,0,1,9.333-.241,90.581,90.581,0,0,1,9.332.241" transform="translate(-10.433 -18.122)" fill="#263238"/>
            <path id="Trazado_642605" data-name="Trazado 642605" d="M214.426,242.349c0,.133-10.731.241-23.966.241s-23.968-.107-23.968-.241,10.729-.241,23.968-.241,23.966.107,23.966.241" transform="translate(-12.415 -18.054)" fill="#263238"/>
            <path id="Trazado_642606" data-name="Trazado 642606" d="M153.57,253.826c0,.134-20.859.241-46.584.241S60.4,253.96,60.4,253.826s20.855-.241,46.588-.241,46.584.107,46.584.241" transform="translate(-4.504 -18.909)" fill="#263238"/>
            <path id="Trazado_642607" data-name="Trazado 642607" d="M152.582,264.387c0,.133-20.816.241-46.487.241S59.6,264.52,59.6,264.387s20.811-.241,46.492-.241,46.487.107,46.487.241" transform="translate(-4.444 -19.697)" fill="#263238"/>
            <rect id="Rectángulo_335336" data-name="Rectángulo 335336" width="90.343" height="57.678" transform="translate(55.221 142.002)" fill="#ff725e"/>
            <path id="Trazado_642608" data-name="Trazado 642608" d="M146.479,206.813s-.013-.312-.02-.9-.011-1.469-.02-2.6c-.011-2.288-.027-5.627-.048-9.909-.023-8.569-.057-20.9-.1-36l.188.188-81.866.053h-.007l.241-.241c-.006,17.5-.012,34.207-.018,49.408l-.223-.223,58.882.109,16.906.06,4.511.027,1.169.014c.264,0,.4.013.4.013s-.123.009-.379.013l-1.143.014-4.465.027-16.856.061-59.03.108h-.223v-.224c-.006-15.2-.012-31.9-.018-49.408v-.241h.247l81.866.053h.189v.188c-.042,15.153-.076,27.52-.1,36.116-.021,4.264-.037,7.589-.048,9.867q-.014,1.673-.02,2.563c-.007.576-.02.862-.02.862" transform="translate(-4.8 -11.72)" fill="#263238"/>
            <g id="Grupo_927679" data-name="Grupo 927679" transform="translate(62.019 164.573)" opacity="0.2">
              <g id="Grupo_927678" data-name="Grupo 927678">
                <g id="Grupo_927677" data-name="Grupo 927677" clip-path="url(#clip-path-9)">
                  <path id="Trazado_642609" data-name="Trazado 642609" d="M67.017,208.355,90.7,177.834l17.114,19.548,13.1-11.789,23.821,22.762Z" transform="translate(-67.017 -177.834)"/>
                </g>
              </g>
            </g>
            <g id="Grupo_927682" data-name="Grupo 927682" transform="translate(97.553 155.661)" opacity="0.2">
              <g id="Grupo_927681" data-name="Grupo 927681">
                <g id="Grupo_927680" data-name="Grupo 927680" clip-path="url(#clip-path-15)">
                  <path id="Trazado_642610" data-name="Trazado 642610" d="M115.974,173.483a5.28,5.28,0,1,1-5.281-5.281,5.281,5.281,0,0,1,5.281,5.281" transform="translate(-105.414 -168.204)"/>
                </g>
              </g>
            </g>
            <path id="Trazado_642611" data-name="Trazado 642611" d="M215.211,152.882c0,.133-11.339.241-25.324.241s-25.326-.107-25.326-.241,11.337-.241,25.326-.241,25.324.107,25.324.241" transform="translate(-12.271 -11.382)" fill="#263238"/>
            <path id="Trazado_642612" data-name="Trazado 642612" d="M215.211,162.583c0,.133-11.339.241-25.324.241s-25.326-.107-25.326-.241,11.337-.241,25.326-.241,25.324.107,25.324.241" transform="translate(-12.271 -12.106)" fill="#263238"/>
            <path id="Trazado_642613" data-name="Trazado 642613" d="M213.249,204.8c0,.134-11.339.242-25.324.242s-25.326-.107-25.326-.242,11.337-.24,25.326-.24,25.324.106,25.324.24" transform="translate(-12.125 -15.254)" fill="#263238"/>
            <path id="Trazado_642614" data-name="Trazado 642614" d="M213.249,215.751c0,.133-11.339.241-25.324.241s-25.326-.107-25.326-.241,11.337-.241,25.326-.241,25.324.107,25.324.241" transform="translate(-12.125 -16.07)" fill="#263238"/>
            <path id="Trazado_642615" data-name="Trazado 642615" d="M198.667,172.284c0,.133-7.636.241-17.052.241s-17.055-.107-17.055-.241,7.634-.241,17.055-.241,17.052.107,17.052.241" transform="translate(-12.271 -12.829)" fill="#263238"/>
            <path id="Trazado_642616" data-name="Trazado 642616" d="M218.677,172.171a42.283,42.283,0,0,1-6.367.241,42.28,42.28,0,0,1-6.368-.241,42.266,42.266,0,0,1,6.368-.241,42.269,42.269,0,0,1,6.367.241" transform="translate(-15.357 -12.821)" fill="#263238"/>
            <path id="Trazado_642617" data-name="Trazado 642617" d="M216.965,182.923c0,.133-7.607.241-16.988.241s-16.989-.107-16.989-.241,7.605-.241,16.989-.241,16.988.107,16.988.241" transform="translate(-13.645 -13.622)" fill="#263238"/>
            <path id="Trazado_642618" data-name="Trazado 642618" d="M198.667,193.787c0,.133-7.636.241-17.052.241s-17.055-.107-17.055-.241,7.634-.241,17.055-.241,17.052.107,17.052.241" transform="translate(-12.271 -14.433)" fill="#263238"/>
            <path id="Trazado_642619" data-name="Trazado 642619" d="M218.677,193.675a42.282,42.282,0,0,1-6.367.241,42.28,42.28,0,0,1-6.368-.241,42.277,42.277,0,0,1,6.368-.241,42.279,42.279,0,0,1,6.367.241" transform="translate(-15.357 -14.424)" fill="#263238"/>
            <path id="Trazado_642620" data-name="Trazado 642620" d="M174.947,182.673a23.052,23.052,0,0,1-4.692.241,23.052,23.052,0,0,1-4.692-.241,23.056,23.056,0,0,1,4.692-.241,23.056,23.056,0,0,1,4.692.241" transform="translate(-12.346 -13.604)" fill="#263238"/>
            <path id="Trazado_642621" data-name="Trazado 642621" d="M153.511,274.728c0,.133-21.024.241-46.952.241s-46.956-.107-46.956-.241,21.019-.241,46.956-.241,46.952.107,46.952.241" transform="translate(-4.445 -20.468)" fill="#263238"/>
            <path id="Trazado_642622" data-name="Trazado 642622" d="M155.037,286.432c0,.133-21.024.241-46.952.241s-46.956-.107-46.956-.241,21.019-.241,46.956-.241,46.952.107,46.952.241" transform="translate(-4.558 -21.341)" fill="#263238"/>
            <rect id="Rectángulo_335339" data-name="Rectángulo 335339" width="177.373" height="233.707" transform="translate(33.065 42.727)" fill="#fff"/>
            <path id="Trazado_642623" data-name="Trazado 642623" d="M213.082,279.857c0-1.913-.089-95.189-.217-233.707l.217.217L35.73,46.392h-.02l.242-.242c-.017,86.948-.031,167.582-.043,233.707l-.2-.2,177.373.2-177.373.2h-.2v-.2c-.012-66.125-.027-146.759-.043-233.707V45.91h.261l177.352.024h.217v.217c-.129,138.518-.216,231.795-.217,233.707" transform="translate(-2.645 -3.423)" fill="#263238"/>
            <path id="Trazado_642624" data-name="Trazado 642624" d="M213.1,64.609c0,.079-39.709.143-88.682.143-48.99,0-88.691-.064-88.691-.143s39.7-.143,88.691-.143c48.973,0,88.682.064,88.682.143" transform="translate(-2.664 -4.807)" fill="#263238"/>
            <line id="Línea_2720" data-name="Línea 2720" x2="60.509" transform="translate(95.572 51.814)" fill="#455a64"/>
            <path id="Trazado_642625" data-name="Trazado 642625" d="M163.782,55.978c0,.079-13.546.143-30.253.143s-30.256-.064-30.256-.143,13.544-.143,30.256-.143,30.253.064,30.253.143" transform="translate(-7.701 -4.164)" fill="#455a64"/>
            <path id="Trazado_642626" data-name="Trazado 642626" d="M44.993,55.831a1.961,1.961,0,1,1-1.961-1.961,1.961,1.961,0,0,1,1.961,1.961" transform="translate(-3.063 -4.017)" fill="#e0e0e0"/>
            <path id="Trazado_642627" data-name="Trazado 642627" d="M52.179,55.831a1.961,1.961,0,1,1-1.961-1.961,1.961,1.961,0,0,1,1.961,1.961" transform="translate(-3.598 -4.017)" fill="#e0e0e0"/>
            <path id="Trazado_642628" data-name="Trazado 642628" d="M59.364,55.831A1.961,1.961,0,1,1,57.4,53.87a1.961,1.961,0,0,1,1.961,1.961" transform="translate(-4.134 -4.017)" fill="#e0e0e0"/>
            <path id="Trazado_642629" data-name="Trazado 642629" d="M93.115,88.554c0,.079-9.389.143-20.968.143s-20.97-.064-20.97-.143,9.387-.143,20.97-.143,20.968.064,20.968.143" transform="translate(-3.816 -6.593)" fill="#263238"/>
            <path id="Trazado_642630" data-name="Trazado 642630" d="M213.442,88.554c0,.079-9.858.143-22.015.143s-22.018-.064-22.018-.143,9.856-.143,22.018-.143,22.015.064,22.015.143" transform="translate(-12.633 -6.593)" fill="#263238"/>
            <rect id="Rectángulo_335340" data-name="Rectángulo 335340" width="42.537" height="41.154" transform="translate(150.326 223.537)" fill="#455a64"/>
            <g id="Grupo_927685" data-name="Grupo 927685" transform="translate(153.624 239.991)" opacity="0.3">
              <g id="Grupo_927684" data-name="Grupo 927684">
                <g id="Grupo_927683" data-name="Grupo 927683" clip-path="url(#clip-path-11)">
                  <path id="Trazado_642631" data-name="Trazado 642631" d="M166,280.507l11.767-21.178,9.625,13.536,5.848-7.189,8.7,14.83Z" transform="translate(-166.003 -259.329)"/>
                </g>
              </g>
            </g>
            <g id="Grupo_927688" data-name="Grupo 927688" transform="translate(172.994 232.812)" opacity="0.3">
              <g id="Grupo_927687" data-name="Grupo 927687">
                <g id="Grupo_927686" data-name="Grupo 927686" clip-path="url(#clip-path-17)">
                  <path id="Trazado_642632" data-name="Trazado 642632" d="M192.237,252.389c2.5,3.277-1.209,6.981-4.486,4.485-2.495-3.277,1.209-6.98,4.486-4.485" transform="translate(-186.933 -251.571)"/>
                </g>
              </g>
            </g>
            <g id="Grupo_927691" data-name="Grupo 927691" transform="translate(153.377 226.739)" opacity="0.3">
              <g id="Grupo_927690" data-name="Grupo 927690">
                <g id="Grupo_927689" data-name="Grupo 927689" clip-path="url(#clip-path-18)">
                  <path id="Trazado_642633" data-name="Trazado 642633" d="M201.924,279.554a1.379,1.379,0,0,1-.01-.169c0-.124-.006-.28-.009-.48q-.007-.657-.02-1.852c-.01-1.632-.026-3.992-.045-6.989-.021-6.012-.052-14.571-.089-24.849l.174.174-35.937.029c-.049.043.38-.381.2-.2v2.333q0,1.167,0,2.324,0,2.313,0,4.582c0,3.024,0,5.986-.006,8.868-.006,5.764-.013,11.213-.019,16.226l-.177-.177,25.986.09,7.329.046,1.944.02.5.01a1.234,1.234,0,0,1,.177.01.857.857,0,0,1-.157.01l-.485.01-1.91.02-7.29.046-26.1.09h-.177v-.178c-.006-5.013-.012-10.462-.019-16.226,0-2.883,0-5.844,0-8.868q0-2.268,0-4.582,0-1.156,0-2.324v-2.333c-.18.178.246-.254.206-.208l35.937.028h.175v.174c-.037,10.323-.068,18.921-.089,24.959-.019,2.98-.035,5.328-.045,6.95q-.014,1.173-.02,1.819c0,.193-.007.343-.01.462a.722.722,0,0,1-.009.149" transform="translate(-165.736 -245.009)"/>
                </g>
              </g>
            </g>
            <path id="Trazado_642634" data-name="Trazado 642634" d="M92.357,105.388c0,.133-9.3.241-20.771.241s-20.774-.107-20.774-.241,9.3-.241,20.774-.241,20.771.107,20.771.241" transform="translate(-3.789 -7.841)" fill="#263238"/>
            <path id="Trazado_642635" data-name="Trazado 642635" d="M124.4,116.162c0,.133-16.474.241-36.791.241s-36.794-.107-36.794-.241,16.47-.241,36.794-.241,36.791.107,36.791.241" transform="translate(-3.789 -8.644)" fill="#263238"/>
            <path id="Trazado_642636" data-name="Trazado 642636" d="M155.9,115.375c0,.133-4.463.241-9.968.241s-9.97-.107-9.97-.241,4.463-.241,9.97-.241,9.968.107,9.968.241" transform="translate(-10.139 -8.585)" fill="#263238"/>
            <path id="Trazado_642637" data-name="Trazado 642637" d="M206.908,114.916c0,.133-9.212.241-20.572.241s-20.574-.107-20.574-.241,9.21-.24,20.574-.24,20.572.107,20.572.24" transform="translate(-12.361 -8.551)" fill="#263238"/>
            <path id="Trazado_642638" data-name="Trazado 642638" d="M197.869,124.084c0,.133-33.048.241-73.807.241s-73.813-.107-73.813-.241,33.042-.241,73.813-.241,73.807.107,73.807.241" transform="translate(-3.747 -9.235)" fill="#263238"/>
            <path id="Trazado_642639" data-name="Trazado 642639" d="M119,133.71c0,.133-15.29.241-34.147.241s-34.149-.107-34.149-.241,15.287-.241,34.149-.241,34.147.107,34.147.241" transform="translate(-3.781 -9.953)" fill="#263238"/>
            <path id="Trazado_642640" data-name="Trazado 642640" d="M150.047,133.71a90.565,90.565,0,0,1-9.332.241,90.576,90.576,0,0,1-9.333-.241,90.568,90.568,0,0,1,9.333-.241,90.557,90.557,0,0,1,9.332.241" transform="translate(-9.797 -9.953)" fill="#263238"/>
            <path id="Trazado_642641" data-name="Trazado 642641" d="M205.9,132.793c0,.133-10.731.241-23.966.241s-23.968-.107-23.968-.241,10.729-.241,23.968-.241,23.966.107,23.966.241" transform="translate(-11.779 -9.884)" fill="#263238"/>
            <path id="Trazado_642642" data-name="Trazado 642642" d="M123.393,216.19c0,.133-16.474.241-36.791.241s-36.794-.107-36.794-.241,16.47-.241,36.794-.241,36.791.107,36.791.241" transform="translate(-3.714 -16.103)" fill="#263238"/>
            <path id="Trazado_642643" data-name="Trazado 642643" d="M154.9,215.4c0,.133-4.463.241-9.968.241s-9.97-.107-9.97-.241,4.462-.241,9.97-.241,9.968.107,9.968.241" transform="translate(-10.064 -16.044)" fill="#263238"/>
            <path id="Trazado_642644" data-name="Trazado 642644" d="M205.9,214.944c0,.133-9.213.241-20.573.241s-20.573-.107-20.573-.241,9.209-.241,20.573-.241,20.573.107,20.573.241" transform="translate(-12.286 -16.01)" fill="#263238"/>
            <path id="Trazado_642645" data-name="Trazado 642645" d="M196.865,224.112c0,.133-33.048.241-73.807.241s-73.813-.107-73.813-.241,33.042-.241,73.813-.241,73.807.107,73.807.241" transform="translate(-3.672 -16.694)" fill="#263238"/>
            <path id="Trazado_642646" data-name="Trazado 642646" d="M118,233.738c0,.133-15.29.241-34.146.241s-34.149-.107-34.149-.241,15.286-.241,34.149-.241S118,233.6,118,233.738" transform="translate(-3.706 -17.412)" fill="#263238"/>
            <path id="Trazado_642647" data-name="Trazado 642647" d="M149.042,233.738a90.562,90.562,0,0,1-9.332.241,90.573,90.573,0,0,1-9.333-.241,90.592,90.592,0,0,1,9.333-.241,90.581,90.581,0,0,1,9.332.241" transform="translate(-9.722 -17.412)" fill="#263238"/>
            <path id="Trazado_642648" data-name="Trazado 642648" d="M204.9,232.821c0,.133-10.731.241-23.966.241s-23.968-.107-23.968-.241,10.729-.241,23.968-.241,23.966.107,23.966.241" transform="translate(-11.705 -17.343)" fill="#263238"/>
            <path id="Trazado_642649" data-name="Trazado 642649" d="M144.043,244.3c0,.133-20.859.241-46.584.241s-46.588-.107-46.588-.241,20.855-.241,46.588-.241,46.584.107,46.584.241" transform="translate(-3.793 -18.199)" fill="#263238"/>
            <path id="Trazado_642650" data-name="Trazado 642650" d="M143.054,254.86c0,.133-20.816.241-46.487.241s-46.492-.107-46.492-.241,20.811-.241,46.492-.241,46.487.107,46.487.241" transform="translate(-3.734 -18.987)" fill="#263238"/>
            <path id="Trazado_642716" data-name="Trazado 642716" d="M0,0H90.343V57.678H0Z" transform="translate(46.405 133.185)" fill="#f9a21b"/>
            <path id="Trazado_642651" data-name="Trazado 642651" d="M136.951,197.285s-.013-.312-.02-.9-.011-1.469-.02-2.6c-.011-2.288-.027-5.627-.048-9.909-.023-8.569-.057-20.9-.1-36l.188.188-81.866.053h-.006l.241-.241c-.006,17.5-.012,34.207-.018,49.408l-.223-.223,58.882.108,16.906.061,4.511.027,1.169.014c.264,0,.4.013.4.013s-.123.009-.378.013l-1.143.014-4.465.027-16.856.06-59.03.109h-.223v-.224c-.006-15.2-.012-31.9-.018-49.408v-.242h.247l81.866.054h.189v.188c-.042,15.152-.076,27.52-.1,36.116-.021,4.264-.037,7.589-.048,9.867q-.014,1.673-.02,2.563c-.007.576-.02.862-.02.862" transform="translate(-4.089 -11.009)" fill="#263238"/>
            <g id="Grupo_927694" data-name="Grupo 927694" transform="translate(53.202 155.756)" opacity="0.2">
              <g id="Grupo_927693" data-name="Grupo 927693">
                <g id="Grupo_927692" data-name="Grupo 927692" clip-path="url(#clip-path-9)">
                  <path id="Trazado_642652" data-name="Trazado 642652" d="M57.489,198.827l23.683-30.521,17.115,19.548,13.1-11.788L135.2,198.827Z" transform="translate(-57.489 -168.306)"/>
                </g>
              </g>
            </g>
            <g id="Grupo_927697" data-name="Grupo 927697" transform="translate(88.736 146.844)" opacity="0.2">
              <g id="Grupo_927696" data-name="Grupo 927696">
                <g id="Grupo_927695" data-name="Grupo 927695" clip-path="url(#clip-path-15)">
                  <path id="Trazado_642653" data-name="Trazado 642653" d="M106.446,163.957a5.28,5.28,0,1,1-5.28-5.281,5.281,5.281,0,0,1,5.28,5.281" transform="translate(-95.886 -158.676)"/>
                </g>
              </g>
            </g>
            <path id="Trazado_642654" data-name="Trazado 642654" d="M205.683,143.354c0,.133-11.339.241-25.324.241s-25.326-.107-25.326-.241,11.337-.241,25.326-.241,25.324.107,25.324.241" transform="translate(-11.561 -10.672)" fill="#263238"/>
            <path id="Trazado_642655" data-name="Trazado 642655" d="M205.683,153.055c0,.133-11.339.241-25.324.241s-25.326-.107-25.326-.241,11.337-.241,25.326-.241,25.324.107,25.324.241" transform="translate(-11.561 -11.395)" fill="#263238"/>
            <path id="Trazado_642656" data-name="Trazado 642656" d="M203.721,195.274c0,.133-11.339.241-25.324.241s-25.326-.107-25.326-.241,11.337-.241,25.326-.241,25.324.107,25.324.241" transform="translate(-11.414 -14.543)" fill="#263238"/>
            <path id="Trazado_642657" data-name="Trazado 642657" d="M203.721,206.224c0,.133-11.339.241-25.324.241s-25.326-.107-25.326-.241,11.337-.241,25.326-.241,25.324.107,25.324.241" transform="translate(-11.414 -15.36)" fill="#263238"/>
            <path id="Trazado_642658" data-name="Trazado 642658" d="M189.139,162.756c0,.133-7.636.241-17.053.241s-17.054-.107-17.054-.241,7.634-.241,17.054-.241,17.053.107,17.053.241" transform="translate(-11.561 -12.119)" fill="#263238"/>
            <path id="Trazado_642659" data-name="Trazado 642659" d="M209.149,162.644a42.275,42.275,0,0,1-6.367.241,42.272,42.272,0,0,1-6.368-.241,42.277,42.277,0,0,1,6.368-.241,42.28,42.28,0,0,1,6.367.241" transform="translate(-14.646 -12.11)" fill="#263238"/>
            <path id="Trazado_642660" data-name="Trazado 642660" d="M207.437,173.395c0,.133-7.607.241-16.988.241s-16.989-.107-16.989-.241,7.605-.241,16.989-.241,16.988.107,16.988.241" transform="translate(-12.935 -12.912)" fill="#263238"/>
            <path id="Trazado_642661" data-name="Trazado 642661" d="M189.139,184.259c0,.133-7.636.241-17.053.241s-17.054-.107-17.054-.241,7.634-.241,17.054-.241,17.053.107,17.053.241" transform="translate(-11.561 -13.722)" fill="#263238"/>
            <path id="Trazado_642662" data-name="Trazado 642662" d="M209.149,184.147a42.288,42.288,0,0,1-6.367.241,42.285,42.285,0,0,1-6.368-.241,42.274,42.274,0,0,1,6.368-.241,42.277,42.277,0,0,1,6.367.241" transform="translate(-14.646 -13.714)" fill="#263238"/>
            <path id="Trazado_642663" data-name="Trazado 642663" d="M165.42,173.145a22.972,22.972,0,0,1-4.692.241,22.972,22.972,0,0,1-4.692-.241,23.179,23.179,0,0,1,4.692-.24,23.178,23.178,0,0,1,4.692.24" transform="translate(-11.635 -12.893)" fill="#263238"/>
            <path id="Trazado_642664" data-name="Trazado 642664" d="M143.984,265.2c0,.133-21.024.241-46.952.241s-46.956-.107-46.956-.241,21.019-.241,46.956-.241,46.952.107,46.952.241" transform="translate(-3.734 -19.758)" fill="#263238"/>
            <path id="Trazado_642665" data-name="Trazado 642665" d="M145.509,276.9c0,.133-21.024.241-46.952.241S51.6,277.038,51.6,276.9s21.019-.241,46.956-.241,46.952.107,46.952.241" transform="translate(-3.848 -20.63)" fill="#263238"/>
            <path id="Trazado_642666" data-name="Trazado 642666" d="M43.313,176.708A12.388,12.388,0,1,1,30.925,164.32a12.388,12.388,0,0,1,12.388,12.388" transform="translate(-1.382 -12.253)" fill="#ebebeb"/>
            <path id="Trazado_642667" data-name="Trazado 642667" d="M43.293,176.692a22.368,22.368,0,0,0-.478-3,12.345,12.345,0,0,0-4.518-6.709,12.182,12.182,0,0,0-11.536-1.715,12.2,12.2,0,0,0-5.641,4.244,12.106,12.106,0,0,0,0,14.364,12.192,12.192,0,0,0,5.642,4.245,12.277,12.277,0,0,0,16.053-8.425,22.371,22.371,0,0,0,.478-3,4.783,4.783,0,0,1,.008.792,5.7,5.7,0,0,1-.074.96,8.7,8.7,0,0,1-.23,1.3,12.477,12.477,0,0,1-9.768,9.317,12.6,12.6,0,0,1-6.619-.521,12.613,12.613,0,0,1-5.872-4.383,12.537,12.537,0,0,1,0-14.923,12.6,12.6,0,0,1,5.871-4.382,12.6,12.6,0,0,1,6.618-.521A12.473,12.473,0,0,1,43,173.645a8.679,8.679,0,0,1,.23,1.3,5.7,5.7,0,0,1,.074.96,4.783,4.783,0,0,1-.008.792" transform="translate(-1.363 -12.238)" fill="#263238"/>
            <path id="Trazado_642668" data-name="Trazado 642668" d="M244.064,176.708a12.388,12.388,0,1,1-12.388-12.388,12.388,12.388,0,0,1,12.388,12.388" transform="translate(-16.352 -12.253)" fill="#ebebeb"/>
            <path id="Trazado_642669" data-name="Trazado 642669" d="M244.044,176.692a22.376,22.376,0,0,0-.478-3,12.345,12.345,0,0,0-4.518-6.709,12.182,12.182,0,0,0-11.535-1.715,12.2,12.2,0,0,0-5.641,4.244,12.106,12.106,0,0,0,0,14.364,12.2,12.2,0,0,0,5.642,4.245,12.277,12.277,0,0,0,16.053-8.425,22.378,22.378,0,0,0,.478-3,4.794,4.794,0,0,1,.008.792,5.693,5.693,0,0,1-.074.96,8.7,8.7,0,0,1-.23,1.3,12.474,12.474,0,0,1-9.768,9.317,12.6,12.6,0,0,1-6.619-.521,12.613,12.613,0,0,1-5.872-4.383,12.536,12.536,0,0,1,0-14.923,12.595,12.595,0,0,1,5.871-4.382,12.6,12.6,0,0,1,6.618-.521,12.473,12.473,0,0,1,9.769,9.317,8.679,8.679,0,0,1,.23,1.3,5.693,5.693,0,0,1,.074.96,4.793,4.793,0,0,1-.008.792" transform="translate(-16.333 -12.238)" fill="#263238"/>
            <path id="Trazado_642670" data-name="Trazado 642670" d="M231.05,181.45a.463.463,0,0,1-.3-.817l3.88-3.254-3.88-3.255a.463.463,0,1,1,.6-.71l4.3,3.609a.465.465,0,0,1,0,.71l-4.3,3.608a.465.465,0,0,1-.3.108" transform="translate(-17.195 -12.923)" fill="#263238"/>
            <path id="Trazado_642671" data-name="Trazado 642671" d="M33.864,181.45a.465.465,0,0,1-.3-.108l-4.3-3.608a.463.463,0,0,1,0-.71l4.3-3.609a.463.463,0,1,1,.6.71l-3.881,3.255,3.881,3.254a.463.463,0,0,1-.3.817" transform="translate(-2.17 -12.923)" fill="#263238"/>
          </g>
        </g>
        <g id="Grupo_927707" data-name="Grupo 927707">
          <g id="Grupo_927706" data-name="Grupo 927706" clip-path="url(#clip-path)">
            <path id="Trazado_642672" data-name="Trazado 642672" d="M279.365,309.371l-21.653,71.268-45.527,21.623,3.013,24.457,42.739-10.177c22.414-4.534,34.177-12.916,39.141-33.963l8.574-28.025Z" transform="translate(-15.822 -23.069)" fill="#2b6e17"/>
            <path id="Trazado_642673" data-name="Trazado 642673" d="M401.166,287.31a7.792,7.792,0,0,1-1.288.135,32.313,32.313,0,0,0-3.481.429,16.008,16.008,0,0,0-4.849,1.729,22.881,22.881,0,0,0-5.069,3.763,25,25,0,0,0-3.667,5.159,45.039,45.039,0,0,0-2.231,4.7c-.561,1.374-.97,2.505-1.251,3.288a7.545,7.545,0,0,1-.469,1.207,6.694,6.694,0,0,1,.3-1.26c.231-.8.6-1.954,1.123-3.352a40.182,40.182,0,0,1,2.163-4.784,24.29,24.29,0,0,1,3.706-5.271,22.367,22.367,0,0,1,5.2-3.817,15.63,15.63,0,0,1,4.99-1.677,24.669,24.669,0,0,1,3.529-.291,6.611,6.611,0,0,1,1.3.04" transform="translate(-28.251 -21.421)" fill="#263238"/>
            <path id="Trazado_642674" data-name="Trazado 642674" d="M230.743,413.671l13.477-8.932a6.686,6.686,0,0,1,4.52-.977l10.313,1.454,23.633,11.852,11.895-.913-.971,20.587s-10.532-.017-14.646-.942-9.673-4.94-9.673-4.94,1.268,2.154.485,3.73-6.462,3.8-6.462,3.8-4,1.164-4.535-1.644c0,0-6.973.534-7.354-5.041,0,0-10.477-2.387-8.7-7.171,1.322-3.554,2.612-6.131,2.612-6.131l3.508-6.745-3.47-.8s-6.6,4.375-9.4,4.681-5.233-1.866-5.233-1.866" transform="translate(-17.206 -30.103)" fill="#ffbe9d"/>
            <path id="Trazado_642675" data-name="Trazado 642675" d="M258.412,416.944c.042.077-1,.522-2.346,1.686a11.756,11.756,0,0,0-3.642,5.735,12.873,12.873,0,0,0-.153,3.782c.105,1.173.279,2.227.437,3.109a25.009,25.009,0,0,1,.494,2.871,2.6,2.6,0,0,1-.27-.739c-.144-.484-.335-1.188-.536-2.068a27.786,27.786,0,0,1-.539-3.134,12.494,12.494,0,0,1,.128-3.922,11.338,11.338,0,0,1,3.878-5.878,9.9,9.9,0,0,1,1.814-1.159,2.309,2.309,0,0,1,.736-.283" transform="translate(-18.774 -31.091)" fill="#eb996e"/>
            <path id="Trazado_642676" data-name="Trazado 642676" d="M264.2,423.53a5.475,5.475,0,0,1-.734-.021,3.888,3.888,0,0,0-1.853.545,4.936,4.936,0,0,0-1.938,2.077,7.277,7.277,0,0,0-.619,3.464,20.594,20.594,0,0,0,.559,3.578c.234,1.1.46,2.085.682,2.9.438,1.639.836,2.614.772,2.642a2.171,2.171,0,0,1-.361-.653,17.461,17.461,0,0,1-.716-1.9c-.264-.815-.525-1.8-.782-2.9a18.847,18.847,0,0,1-.6-3.651,7.4,7.4,0,0,1,.7-3.668,5.067,5.067,0,0,1,2.155-2.169,3.718,3.718,0,0,1,2.012-.441,1.545,1.545,0,0,1,.727.2" transform="translate(-19.283 -31.567)" fill="#eb996e"/>
            <path id="Trazado_642677" data-name="Trazado 642677" d="M268.564,433.053c-.045-.031.055-.275.372-.527a2.713,2.713,0,0,1,1.445-.538,2.008,2.008,0,0,1,1.508.421c.314.294.336.575.289.588-.066.032-.193-.168-.479-.332a2.219,2.219,0,0,0-1.281-.228,5.762,5.762,0,0,0-1.854.615" transform="translate(-20.026 -32.212)" fill="#eb996e"/>
            <path id="Trazado_642678" data-name="Trazado 642678" d="M269.454,428.7c.046-.036.243.155.361.544a3.7,3.7,0,0,1,.1,1.54,2.976,2.976,0,0,1-.557,1.452c-.26.327-.526.408-.55.36s.129-.218.283-.534a4.332,4.332,0,0,0,.378-1.339,6.6,6.6,0,0,0,.039-1.414c-.029-.362-.1-.571-.049-.609" transform="translate(-20.044 -31.967)" fill="#eb996e"/>
            <path id="Trazado_642679" data-name="Trazado 642679" d="M243.691,425.015a3.251,3.251,0,0,1,.294-.827c.217-.52.545-1.266.958-2.184.826-1.835,1.994-4.358,3.309-7.131l1.359-2.843.017-.034.024-.024a6.365,6.365,0,0,1,2.827-1.625,6.536,6.536,0,0,1,2.56-.192,5.647,5.647,0,0,1,1.621.442,1.608,1.608,0,0,1,.519.306,11.028,11.028,0,0,0-2.166-.478,6.487,6.487,0,0,0-5.052,1.847l.042-.058c-.423.895-.874,1.855-1.343,2.851-1.316,2.773-2.531,5.274-3.431,7.075-.45.9-.821,1.626-1.086,2.122a3.375,3.375,0,0,1-.453.752" transform="translate(-18.171 -30.581)" fill="#eb996e"/>
            <path id="Trazado_642680" data-name="Trazado 642680" d="M418.162,374.439s-2.1-63.563-4.769-72.347-5.944-13.613-12.556-17.887c-7.532-4.869-33.867-10.379-34.768-11.183l-44.3.878-2.662.294A39.036,39.036,0,0,0,286.181,300.4q-.275.831-.527,1.692c-5.367,18.369,15.682,44.781,15.681,43.62a67.492,67.492,0,0,0,1.35,14.489c3.055,12.227,29.79,32.741,31.317,38.715s2.3,31.507,2.3,31.507,41.749.318,60.432.224c15.187-.076,47.674-.224,47.674-.224Z" transform="translate(-21.236 -20.359)" fill="#2b6e17"/>
            <path id="Trazado_642681" data-name="Trazado 642681" d="M300.987,301.169a4.865,4.865,0,0,1,.244.725,21.734,21.734,0,0,1,.563,2.121,41.555,41.555,0,0,1,.962,8.008,104.237,104.237,0,0,1-.424,11.954c-.35,4.486-.892,9.4-1.15,14.576a74.2,74.2,0,0,0,.485,14.557,42.621,42.621,0,0,0,3.261,11.4,41.065,41.065,0,0,0,4.031,6.926c.561.764,1.034,1.332,1.333,1.733a4.918,4.918,0,0,1,.446.622,4.953,4.953,0,0,1-.516-.564c-.321-.384-.817-.935-1.4-1.686a38.434,38.434,0,0,1-4.18-6.9,42.008,42.008,0,0,1-3.382-11.47,72.744,72.744,0,0,1-.524-14.642c.259-5.193.814-10.11,1.186-14.588a110.453,110.453,0,0,0,.519-11.91,44.733,44.733,0,0,0-.816-7.981c-.157-.937-.367-1.644-.478-2.132a4.947,4.947,0,0,1-.156-.75" transform="translate(-22.415 -22.458)" fill="#263238"/>
            <g id="Grupo_927702" data-name="Grupo 927702" transform="translate(358.932 307.803)" opacity="0.3">
              <g id="Grupo_927701" data-name="Grupo 927701">
                <g id="Grupo_927700" data-name="Grupo 927700" clip-path="url(#clip-path-22)">
                  <path id="Trazado_642682" data-name="Trazado 642682" d="M414.261,332.6a647.6,647.6,0,0,0-21.492,88.807l-4.915,8.7c6.185-.862,11.354-5.433,14.5-10.826s4.6-11.582,6.007-17.666c5.247-22.677,10.516-46.2,5.9-69.012" transform="translate(-387.854 -332.605)"/>
                </g>
              </g>
            </g>
            <path id="Trazado_642683" data-name="Trazado 642683" d="M296.179,405.446l61.8-7.2s12.91-78.146,13.27-79.537,4.681-25.723,16.923-27.809,23.4,2.781,24.124,14.6c.576,9.454-13.139,77.34-21.783,108.779-2.486,9.041-12.4,17.046-22.085,17.23-25.256.476-71.962,0-71.962,0Z" transform="translate(-22.086 -21.657)" fill="#2b6e17"/>
            <path id="Trazado_642684" data-name="Trazado 642684" d="M371.248,319.926c-.246,1.5-5.159,31.367-13.088,79.567l-.021.129-.13.022c-18.2,3.12-38.965,3.536-61.573,7.411l.181-.218c.081,7.23-.016,18.071.072,25.886l-.221-.221,23.38.163c13.076.06,25.844.074,38.173-.022l9.162-.115a21.523,21.523,0,0,0,8.688-1.647,26.055,26.055,0,0,0,12.69-11.222l.5-.924.416-.96a16.569,16.569,0,0,0,.713-1.954c.4-1.33.729-2.687,1.094-4.015.726-2.662,1.373-5.306,2.034-7.906q1.946-7.81,3.635-15.184c2.264-9.817,4.252-18.99,6.013-27.374,3.482-16.777,6.062-30.4,7.577-39.865.379-2.365.715-4.466.951-6.295q.187-1.37.345-2.527.121-1.16.218-2.1a25.656,25.656,0,0,0,.193-2.858c.022-.646.045-.978.045-.978s.007.33,0,.977a23.569,23.569,0,0,1-.149,2.867q-.089.944-.2,2.107-.149,1.159-.324,2.532c-.222,1.832-.544,3.936-.911,6.3-1.462,9.474-4,23.114-7.438,39.9-1.742,8.391-3.713,17.569-5.961,27.393q-1.688,7.368-3.616,15.2c-.658,2.6-1.3,5.25-2.026,7.915-.364,1.334-.687,2.68-1.092,4.028a16.866,16.866,0,0,1-.726,2l-.425.98-.508.942a26.457,26.457,0,0,1-12.889,11.42,21.947,21.947,0,0,1-8.844,1.685l-9.165.12c-12.332.1-25.1.092-38.179.031l-23.383-.166-.219,0,0-.219c-.085-7.816.016-18.658-.062-25.886l0-.187.184-.031c22.611-3.85,43.38-4.243,61.584-7.342l-.15.152c4.037-24.139,7.362-44.018,9.678-57.874,1.183-6.914,2.107-12.322,2.737-16.013l.746-4.192c.177-.946.29-1.428.29-1.428" transform="translate(-22.086 -22.871)" fill="#263238"/>
            <g id="Grupo_927705" data-name="Grupo 927705" transform="translate(273.641 290.721)" opacity="0.3">
              <g id="Grupo_927704" data-name="Grupo 927704">
                <g id="Grupo_927703" data-name="Grupo 927703" clip-path="url(#clip-path-23)">
                  <path id="Trazado_642685" data-name="Trazado 642685" d="M299.982,344.6c-.157-9.711,2.613-19.9,2.573-30.456a107.252,107.252,0,0,0-6.36,25.908c-.707,6.075-.877,12.336.859,18.2s5.616,11.326,11.214,13.789c-5.8-7.789-8.129-17.729-8.286-27.441" transform="translate(-295.69 -314.146)"/>
                </g>
              </g>
            </g>
            <path id="Trazado_642686" data-name="Trazado 642686" d="M296.817,215a16.207,16.207,0,0,1-6.373-16.137,2.151,2.151,0,0,0-1.38-3.084,11.952,11.952,0,0,1-6.026-7.259,9.294,9.294,0,0,1,2.3-8.971c-4.719-1.623-6.775-7.957-4.61-12.47s7.564-6.9,12.524-6.366c-1.737-2.507-1.035-6.152.978-8.441s5.03-3.435,8.015-4.017c4.014-.785,8.852-.369,11.194,3,.19-2.51,2.678-4.233,5.1-4.864a13.7,13.7,0,0,1,15.945,8.955,12.486,12.486,0,0,1,7.008-2.924c2.571-.054,5.313,1.5,5.911,4.013,1.062-2.313,3.818-3.3,6.341-3.554a9.116,9.116,0,0,1,5.349.791,4.5,4.5,0,0,1,2.428,4.543,7.17,7.17,0,0,1,6.318,12.811,9.144,9.144,0,0,1,.816,15.538c1.536.111,2.327,2.178,1.656,3.568a4.88,4.88,0,0,1-3.778,2.345q1.005,7.937,2.007,15.876c.432,3.415.863,6.9.213,10.279s-2.571,6.7-5.686,8.134" transform="translate(-20.869 -10.888)" fill="#263238"/>
            <path id="Trazado_642687" data-name="Trazado 642687" d="M296.2,201.782c-.942-12.889,11.023-27.535,23.882-27.933l42.181,2.2.8,6.895,5.43,87.2-38.522,34.288-4.87-39.215s-16.623-.475-22.9-21.312c-3.12-10.362-4.96-27.8-6.007-42.123" transform="translate(-22.083 -12.964)" fill="#ffbe9d"/>
            <path id="Trazado_642688" data-name="Trazado 642688" d="M304.4,220.957a2.748,2.748,0,0,0,3,2.4,2.633,2.633,0,0,0,2.467-2.848,2.75,2.75,0,0,0-3-2.4,2.635,2.635,0,0,0-2.47,2.851" transform="translate(-22.698 -16.263)" fill="#263238"/>
            <path id="Trazado_642689" data-name="Trazado 642689" d="M301.584,212.943c.386.309,2.238-1.5,5.165-1.9,2.918-.437,5.271.78,5.54.376.134-.18-.3-.776-1.326-1.331a7.5,7.5,0,0,0-4.5-.742,7.21,7.21,0,0,0-4.049,1.957c-.806.816-1.023,1.5-.835,1.64" transform="translate(-22.484 -15.605)" fill="#263238"/>
            <path id="Trazado_642690" data-name="Trazado 642690" d="M334.138,218.112a2.748,2.748,0,0,0,3,2.4,2.632,2.632,0,0,0,2.467-2.848,2.749,2.749,0,0,0-3-2.4,2.634,2.634,0,0,0-2.47,2.85" transform="translate(-24.915 -16.051)" fill="#263238"/>
            <path id="Trazado_642691" data-name="Trazado 642691" d="M332.756,209.953c.386.31,2.24-1.506,5.165-1.9,2.918-.437,5.273.78,5.541.376.132-.18-.294-.776-1.326-1.331a7.489,7.489,0,0,0-4.495-.742,7.218,7.218,0,0,0-4.051,1.956c-.8.818-1.022,1.5-.835,1.641" transform="translate(-24.808 -15.382)" fill="#263238"/>
            <path id="Trazado_642692" data-name="Trazado 642692" d="M323.865,232.7c-.009-.169-1.872-.234-4.871-.207-.758.026-1.485-.027-1.681-.522a3.878,3.878,0,0,1,.2-2.293q.682-2.869,1.431-6.02c1.957-8.56,3.266-15.557,2.922-15.632s-2.21,6.8-4.168,15.359q-.7,3.162-1.332,6.042a4.406,4.406,0,0,0,.013,3,1.9,1.9,0,0,0,1.38.929,5.1,5.1,0,0,0,1.293,0c2.988-.248,4.83-.488,4.819-.656" transform="translate(-23.57 -15.512)" fill="#263238"/>
            <path id="Trazado_642693" data-name="Trazado 642693" d="M327.437,271.651A54.3,54.3,0,0,0,354.8,260.134s-5.07,16.987-26.565,17.914Z" transform="translate(-24.417 -19.398)" fill="#eb996e"/>
            <path id="Trazado_642694" data-name="Trazado 642694" d="M326.855,241.95a5.315,5.315,0,0,1,4.459-2.618,4.849,4.849,0,0,1,3.568,1.334,3.1,3.1,0,0,1,.71,3.471,3.566,3.566,0,0,1-3.7,1.5,11.182,11.182,0,0,1-4.046-1.728,3.3,3.3,0,0,1-.955-.755,1,1,0,0,1-.144-1.094" transform="translate(-24.357 -17.847)" fill="#eb996e"/>
            <path id="Trazado_642695" data-name="Trazado 642695" d="M333.431,235.607c-.48.037-.05,3.229-2.461,5.868s-5.838,2.753-5.8,3.2c-.018.205.837.515,2.273.358a7.968,7.968,0,0,0,4.868-2.493,7,7,0,0,0,1.859-4.893c-.06-1.35-.523-2.091-.738-2.043" transform="translate(-24.247 -17.569)" fill="#263238"/>
            <path id="Trazado_642696" data-name="Trazado 642696" d="M330.255,198.783c.4.759,3.268-.022,6.757-.079,3.49-.126,6.4.5,6.753-.278.156-.371-.428-1.056-1.654-1.676a11.7,11.7,0,0,0-10.293.271c-1.191.683-1.739,1.4-1.564,1.761" transform="translate(-24.624 -14.592)" fill="#263238"/>
            <path id="Trazado_642697" data-name="Trazado 642697" d="M301.488,203.579c.606.6,2.527-.374,4.947-.739,2.406-.452,4.537-.167,4.915-.931.16-.367-.254-.992-1.237-1.5a7.218,7.218,0,0,0-7.946,1.346c-.763.8-.951,1.531-.679,1.825" transform="translate(-22.473 -14.896)" fill="#263238"/>
            <path id="Trazado_642698" data-name="Trazado 642698" d="M302.013,174.891a10.725,10.725,0,0,0,4.459,10.84,10.616,10.616,0,0,0,11.675-.168c-1.223,1.545-.648,4,.84,5.294a7.575,7.575,0,0,0,5.558,1.463,14.423,14.423,0,0,0,10.482-5.888,10.514,10.514,0,0,0,15.908,6.109,9.663,9.663,0,1,0,17.125,7.018,10.851,10.851,0,0,0,1.951-17.11,6.5,6.5,0,0,0,3.408-5.506,13.179,13.179,0,0,0-1.583-6.536c-2.424-4.99-6.579-9.326-11.854-10.984s-11.645-.185-14.972,4.249a3.03,3.03,0,0,1-1.352,1.25,2.681,2.681,0,0,1-2.3-.849c-2.95-2.377-6.044-4.952-9.794-5.455a10.175,10.175,0,0,0-10.68,6.762c-3.117-4.019-8.912-6.046-13.557-4s-7.007,8.532-4.12,12.721" transform="translate(-22.506 -11.822)" fill="#263238"/>
            <path id="Trazado_642699" data-name="Trazado 642699" d="M362.653,208.116a46.005,46.005,0,0,0,4.2,12.362c.839,1.652,2.057,3.441,3.9,3.6a3.945,3.945,0,0,0,3.744-2.826,10.462,10.462,0,0,0,.121-5.011,135.67,135.67,0,0,0-4.255-17.468" transform="translate(-27.043 -14.822)" fill="#263238"/>
            <path id="Trazado_642700" data-name="Trazado 642700" d="M368.155,211.723c.246-.166,10.191-5.224,11.849,5.62s-9.522,10.28-9.588,9.972-2.261-15.592-2.261-15.592" transform="translate(-27.453 -15.689)" fill="#ffbe9d"/>
            <path id="Trazado_642701" data-name="Trazado 642701" d="M373.448,222.97c.043-.042.208.1.549.2a1.893,1.893,0,0,0,1.409-.189c1.077-.6,1.759-2.563,1.512-4.525a6.324,6.324,0,0,0-.94-2.624,2.2,2.2,0,0,0-1.636-1.232.969.969,0,0,0-1.031.689c-.1.326,0,.531-.051.559-.026.032-.26-.146-.241-.607a1.22,1.22,0,0,1,.32-.745,1.435,1.435,0,0,1,1-.437,2.674,2.674,0,0,1,2.221,1.379,6.5,6.5,0,0,1,1.114,2.922c.266,2.2-.536,4.413-2.027,5.107a2.029,2.029,0,0,1-1.764-.021c-.375-.217-.469-.451-.435-.476" transform="translate(-27.816 -15.962)" fill="#eb996e"/>
            <path id="Trazado_642702" data-name="Trazado 642702" d="M334.687,183.57a1.227,1.227,0,0,1-.325.133c-.218.077-.545.177-.977.29a15.213,15.213,0,0,1-3.84.515,10.633,10.633,0,0,1-2.762-.347,7.941,7.941,0,0,1-2.962-1.44,7.847,7.847,0,0,1-2.305-2.973,5.868,5.868,0,0,1-.241-4.173l.389.254a14.4,14.4,0,0,1-8.279,3.813,14.09,14.09,0,0,1-5.054-.33,8.751,8.751,0,0,1-2.46-1.01A5.025,5.025,0,0,1,304,176.28a7.211,7.211,0,0,1-.691-3.12,20.589,20.589,0,0,1,.2-3.058,10.155,10.155,0,0,1,.75-2.91,3.48,3.48,0,0,1,2.145-2.028l.186.492a8.628,8.628,0,0,1-5.6.542,9.35,9.35,0,0,1-4.513-2.466,7.851,7.851,0,0,1-2.166-4.034,9.093,9.093,0,0,1,.1-3.932,9,9,0,0,1,2.859-4.695,5.837,5.837,0,0,1,1.68-1.048,18.308,18.308,0,0,0-1.564,1.179,9.07,9.07,0,0,0-2.656,4.641,8.847,8.847,0,0,0-.037,3.773,7.478,7.478,0,0,0,2.1,3.8,8.936,8.936,0,0,0,4.306,2.3,8.166,8.166,0,0,0,5.263-.534l.186.491a2.946,2.946,0,0,0-1.8,1.746,9.705,9.705,0,0,0-.7,2.753c-.218,1.93-.445,4.058.442,5.856a5.764,5.764,0,0,0,3.974,2.749,13.623,13.623,0,0,0,4.858.331,14,14,0,0,0,8.011-3.63l.714-.668-.325.922a5.431,5.431,0,0,0,.193,3.842,7.475,7.475,0,0,0,2.146,2.838,7.636,7.636,0,0,0,2.808,1.421,10.561,10.561,0,0,0,2.677.393,16.644,16.644,0,0,0,3.8-.378c.868-.181,1.327-.307,1.335-.279" transform="translate(-21.934 -11.187)" fill="#fff"/>
            <path id="Trazado_642703" data-name="Trazado 642703" d="M299.823,185.676c.017.028-.206.215-.677.443a5.764,5.764,0,0,1-2.151.536,5.544,5.544,0,0,1-3.229-.768,2.74,2.74,0,0,1-1.235-1.655,2.06,2.06,0,0,1,.707-2.137l.279.478-.181.078a8.6,8.6,0,0,1-7.291-.209,7.353,7.353,0,0,1-1.845-1.3c-.376-.378-.544-.622-.52-.643a15.85,15.85,0,0,0,2.532,1.586,8.607,8.607,0,0,0,6.9.058l.167-.072,2.482-1.064-2.2,1.542a1.533,1.533,0,0,0-.5,1.566,2.253,2.253,0,0,0,.987,1.347,5.385,5.385,0,0,0,2.937.8,9.566,9.566,0,0,0,2.839-.59" transform="translate(-21.153 -13.459)" fill="#fff"/>
            <path id="Trazado_642704" data-name="Trazado 642704" d="M380.361,226.013a4.968,4.968,0,0,1,1.916,1.02,11.354,11.354,0,0,1,3.739,4.615,10.142,10.142,0,0,1-.353,8.766,9.837,9.837,0,0,1-9.3,5.135,9.056,9.056,0,0,1-5.312-2.175A11.637,11.637,0,0,1,367.9,239.1a10.233,10.233,0,0,1,.106-8.773,8.98,8.98,0,0,1,4.32-4.076,4.1,4.1,0,0,1,2.118-.491c.024.1-.746.223-1.932.874a9.063,9.063,0,0,0-3.815,4.038,9.585,9.585,0,0,0,.123,8.023c1.246,2.8,4.015,5.585,7.617,5.77a8.9,8.9,0,0,0,8.341-4.524,9.482,9.482,0,0,0,.526-7.994,11.916,11.916,0,0,0-3.29-4.576c-1.023-.9-1.7-1.27-1.651-1.352" transform="translate(-27.364 -16.833)" fill="#455a64"/>
            <path id="Trazado_642705" data-name="Trazado 642705" d="M313.211,225.961a22.587,22.587,0,0,0-.488-3.078A12.66,12.66,0,0,0,308.091,216a12.485,12.485,0,0,0-11.831-1.759,12.5,12.5,0,0,0-5.787,4.351,12.416,12.416,0,0,0,0,14.733,12.5,12.5,0,0,0,5.788,4.353,12.589,12.589,0,0,0,16.462-8.641,22.587,22.587,0,0,0,.488-3.078,5.108,5.108,0,0,1,.007.813,5.723,5.723,0,0,1-.077.983,8.836,8.836,0,0,1-.237,1.328,12.787,12.787,0,0,1-10.012,9.548,12.907,12.907,0,0,1-6.783-.535,12.919,12.919,0,0,1-6.016-4.49,12.848,12.848,0,0,1,0-15.293,12.91,12.91,0,0,1,6.015-4.49,12.912,12.912,0,0,1,6.782-.534,12.786,12.786,0,0,1,10.013,9.547,8.859,8.859,0,0,1,.237,1.328,5.733,5.733,0,0,1,.077.984,5.108,5.108,0,0,1-.007.813" transform="translate(-21.444 -15.888)" fill="#263238"/>
            <path id="Trazado_642706" data-name="Trazado 642706" d="M348.519,223.619a22.533,22.533,0,0,0-.489-3.078,12.653,12.653,0,0,0-4.631-6.882,12.485,12.485,0,0,0-11.831-1.759,12.5,12.5,0,0,0-5.787,4.351,12.416,12.416,0,0,0,0,14.733,12.5,12.5,0,0,0,5.788,4.353,12.589,12.589,0,0,0,16.462-8.641,22.594,22.594,0,0,0,.488-3.078,5.107,5.107,0,0,1,.007.813,5.725,5.725,0,0,1-.077.983,8.958,8.958,0,0,1-.237,1.328A12.787,12.787,0,0,1,338.2,236.29a12.907,12.907,0,0,1-6.783-.535,12.914,12.914,0,0,1-6.016-4.491,12.846,12.846,0,0,1,0-15.292,12.9,12.9,0,0,1,6.015-4.489,12.9,12.9,0,0,1,6.782-.535,12.786,12.786,0,0,1,10.013,9.548,8.948,8.948,0,0,1,.237,1.327,5.825,5.825,0,0,1,.077.984,5.107,5.107,0,0,1-.007.813" transform="translate(-24.077 -15.714)" fill="#263238"/>
            <path id="Trazado_642707" data-name="Trazado 642707" d="M322.979,221.637c-.056.062-.455-.28-1.2-.624a6.439,6.439,0,0,0-6.087.432c-.688.444-1.035.84-1.1.787-.041-.027.218-.514.9-1.064a5.914,5.914,0,0,1,6.442-.457c.752.449,1.078.894,1.041.926" transform="translate(-23.459 -16.403)" fill="#263238"/>
            <path id="Trazado_642708" data-name="Trazado 642708" d="M367.928,212.514a94.559,94.559,0,0,1-9.075,2.9,94.271,94.271,0,0,1-9.212,2.436,94.378,94.378,0,0,1,9.077-2.9,94.154,94.154,0,0,1,9.21-2.436" transform="translate(-26.072 -15.846)" fill="#263238"/>
            <path id="Trazado_642709" data-name="Trazado 642709" d="M299.816,236.089a1.487,1.487,0,0,1-.633-.006,7.628,7.628,0,0,1-1.676-.407,9.024,9.024,0,0,1-5.983-8.91,7.631,7.631,0,0,1,.257-1.7c.112-.391.205-.6.234-.589.084.019-.169.884-.151,2.3a9.316,9.316,0,0,0,5.767,8.588c1.3.553,2.2.646,2.184.73" transform="translate(-21.738 -16.739)" fill="#fff"/>
            <path id="Trazado_642710" data-name="Trazado 642710" d="M327.3,232.221c-.023.019-.217-.163-.522-.536a10.281,10.281,0,0,1-1.108-1.71,12.045,12.045,0,0,1,1.036-12.8,10.317,10.317,0,0,1,1.368-1.51c.36-.318.581-.467.6-.444.06.062-.748.757-1.691,2.152a12.547,12.547,0,0,0-1.008,12.457c.707,1.529,1.393,2.344,1.323,2.4" transform="translate(-24.183 -16.048)" fill="#fff"/>
            <path id="Trazado_642711" data-name="Trazado 642711" d="M332.017,236.059c-.059.119-.509.015-1-.232s-.848-.544-.788-.664.509-.015,1,.232.847.544.787.663" transform="translate(-24.624 -17.532)" fill="#fff"/>
            <path id="Trazado_642712" data-name="Trazado 642712" d="M231.274,435.315H103.165l-19.3-88.206a6.872,6.872,0,0,1,6.728-8.341l113.56.246a6.873,6.873,0,0,1,6.69,5.366Z" transform="translate(-6.242 -25.262)" fill="#0387d0"/>
            <path id="Trazado_642713" data-name="Trazado 642713" d="M242.609,442.467h60.632a7.79,7.79,0,0,0-7.79-7.79H235.709Z" transform="translate(-17.576 -32.413)" fill="#65a5c9"/>
            <path id="Trazado_642714" data-name="Trazado 642714" d="M233.874,435.335a.985.985,0,0,1-.085-.242l-.2-.722c-.179-.673-.427-1.6-.74-2.787-.637-2.423-1.521-5.937-2.591-10.285-2.142-8.7-4.96-20.742-8-34.061s-5.807-25.381-7.864-34.095l-2.441-10.318-.652-2.809-.158-.734a1,1,0,0,1-.037-.254,1.1,1.1,0,0,1,.085.242l.2.722c.179.673.426,1.6.74,2.787.636,2.422,1.52,5.936,2.59,10.283,2.142,8.7,4.96,20.744,8,34.067s5.806,25.375,7.863,34.089c1.024,4.33,1.856,7.846,2.441,10.319.278,1.192.5,2.131.653,2.809.064.3.116.541.157.734a.987.987,0,0,1,.038.254" transform="translate(-15.741 -25.281)" fill="#263238"/>
            <path id="Trazado_642715" data-name="Trazado 642715" d="M155.1,380.338c-2.039-.434-3.979,1.44-4.433,3.475a6,6,0,0,0,2.369,6.134,5.544,5.544,0,0,0,6.5-.273,5.154,5.154,0,0,0,1.157-6.321c-1.172-2.011-5.478-3.778-7.564-2.745" transform="translate(-11.225 -28.357)" fill="#fff"/>
          </g>
        </g>
      </g>
    </g>
  </g>
</svg>
