<svg xmlns="http://www.w3.org/2000/svg" width="112" height="112" viewBox="0 0 112 112">
  <g id="Grupo_948526" data-name="Grupo 948526" transform="translate(6843 4110)">
    <rect id="Rectángulo_336261" data-name="Rectángulo 336261" width="112" height="112" transform="translate(-6843 -4110)" fill="#fff8ed"/>
    <g id="responsabilidad_1_" data-name="responsabilidad (1)" transform="translate(-6865.311 -4096.685)">
      <g id="Grupo_948496" data-name="Grupo 948496" transform="translate(86.886 17.007)">
        <path id="Trazado_656137" data-name="Trazado 656137" d="M320.637,113.157l1.476,2.991a.9.9,0,0,0,.676.491l3.3.48a.9.9,0,0,1,.5,1.531l-2.388,2.328a.9.9,0,0,0-.258.794l.564,3.287a.9.9,0,0,1-1.3.946l-2.952-1.552a.9.9,0,0,0-.835,0l-2.952,1.552a.9.9,0,0,1-1.3-.946l.564-3.287a.9.9,0,0,0-.258-.794l-2.389-2.328a.9.9,0,0,1,.5-1.531l3.3-.48a.9.9,0,0,0,.676-.491l1.476-2.991a.9.9,0,0,1,1.609,0Z" transform="translate(-312.806 -112.657)" fill="#fed402"/>
      </g>
      <g id="Grupo_948498" data-name="Grupo 948498" transform="translate(86.886 20.978)">
        <g id="Grupo_948497" data-name="Grupo 948497">
          <path id="Trazado_656138" data-name="Trazado 656138" d="M319.252,145.786l.564-3.287a.9.9,0,0,0-.258-.794l-2.389-2.328a.887.887,0,0,1-.241-.413c-.017,0-.035.008-.053.011l-3.3.48a.9.9,0,0,0-.5,1.531l2.389,2.328a.9.9,0,0,1,.258.794l-.564,3.287a.9.9,0,0,0,1.3.946l2.952-1.552a.892.892,0,0,1,.255-.087A.887.887,0,0,1,319.252,145.786Z" transform="translate(-312.805 -138.963)" fill="#fac600"/>
        </g>
      </g>
      <g id="Grupo_948499" data-name="Grupo 948499" transform="translate(78.493 1.132)">
        <path id="Trazado_656139" data-name="Trazado 656139" d="M263.081,7.875l1.107,2.243a.673.673,0,0,0,.507.368l2.476.36a.673.673,0,0,1,.373,1.148l-1.791,1.746a.673.673,0,0,0-.194.6l.423,2.466a.673.673,0,0,1-.977.71l-2.214-1.164a.673.673,0,0,0-.626,0l-2.214,1.164a.673.673,0,0,1-.977-.71l.423-2.466a.673.673,0,0,0-.194-.6l-1.791-1.746a.673.673,0,0,1,.373-1.148l2.476-.36a.673.673,0,0,0,.507-.368l1.107-2.243a.673.673,0,0,1,1.207,0Z" transform="translate(-257.207 -7.5)" fill="#fed402"/>
      </g>
      <g id="Grupo_948500" data-name="Grupo 948500" transform="translate(70.225 35.476)">
        <path id="Trazado_656140" data-name="Trazado 656140" d="M206.8,256.029h8.062a3.367,3.367,0,0,1,3.114,2.086,11.852,11.852,0,1,0-11.176-2.086Z" transform="translate(-202.44 -235)" fill="#ffb338"/>
        <path id="Trazado_656141" data-name="Trazado 656141" d="M206.795,256.029h6.128a11.848,11.848,0,0,1,4.428-20.627,11.85,11.85,0,0,0-10.557,20.627Z" transform="translate(-202.439 -235)" fill="#eb6f2d"/>
      </g>
      <g id="Grupo_948504" data-name="Grupo 948504" transform="translate(47.849 52.542)">
        <g id="Grupo_948501" data-name="Grupo 948501" transform="translate(37.534 2.112)">
          <path id="Trazado_656142" data-name="Trazado 656142" d="M307.106,373.483a3.367,3.367,0,0,0,2.381-.986l9.4-9.4c-.022-.024-.042-.049-.065-.072a3.367,3.367,0,0,0-4.762,0l-9.554,9.554a3.364,3.364,0,0,1-1.652.9h4.253Z" transform="translate(-302.853 -362.039)" fill="#ffe5c2"/>
        </g>
        <path id="Trazado_656143" data-name="Trazado 656143" d="M226.708,374.115a2.264,2.264,0,0,0,2.264,2.232H243.9a3.367,3.367,0,0,0,2.381-.986l9.554-9.554a3.368,3.368,0,0,1,4.249-.42,3.365,3.365,0,0,0-5.7-2.908l-9.554,9.554a3.367,3.367,0,0,1-2.381.986h-15.75Z" transform="translate(-200.655 -359.463)" fill="#fed2a4"/>
        <path id="Trazado_656144" data-name="Trazado 656144" d="M187.938,376.681a3.367,3.367,0,0,0-4.762,0l-9.554,9.554a3.367,3.367,0,0,1-2.381.986H156.316a2.264,2.264,0,0,1-2.264-2.232l-.023-1.658a2.264,2.264,0,0,1,2.264-2.3h6.412a3.425,3.425,0,0,0,3.453-3.252,3.367,3.367,0,0,0-3.365-3.482H141.118v16.306l4.457,1.781a21.951,21.951,0,0,0,8.148,1.568H172.64a6.725,6.725,0,0,0,4.756-1.97l10.543-10.543A3.367,3.367,0,0,0,187.938,376.681Z" transform="translate(-127.999 -370.337)" fill="#ffe5c2"/>
        <path id="Trazado_656145" data-name="Trazado 656145" d="M177.352,390.861H158.435a21.95,21.95,0,0,1-8.148-1.568l-2.709-1.083a3.019,3.019,0,0,1-1.9-2.8V374.3h-4.561v16.306l4.457,1.781a21.951,21.951,0,0,0,8.148,1.568h18.917a6.725,6.725,0,0,0,4.756-1.97l1.251-1.251A6.733,6.733,0,0,1,177.352,390.861Z" transform="translate(-128 -370.337)" fill="#fed2a4"/>
        <g id="Grupo_948502" data-name="Grupo 948502" transform="translate(0)">
          <path id="Trazado_656146" data-name="Trazado 656146" d="M55.193,371.609H66.36a.976.976,0,0,0,.976-.976V349.026a.976.976,0,0,0-.976-.976H55.193a.976.976,0,0,0-.976.976v21.607A.976.976,0,0,0,55.193,371.609Z" transform="translate(-54.217 -348.05)" fill="#bae3fa"/>
        </g>
        <g id="Grupo_948503" data-name="Grupo 948503" transform="translate(0)">
          <path id="Trazado_656147" data-name="Trazado 656147" d="M60.54,370.633V349.026a.976.976,0,0,1,.976-.976H55.193a.976.976,0,0,0-.976.976v21.607a.976.976,0,0,0,.976.976h6.324A.976.976,0,0,1,60.54,370.633Z" transform="translate(-54.217 -348.05)" fill="#8ac9fe"/>
        </g>
      </g>
      <g id="Grupo_948511" data-name="Grupo 948511" transform="translate(48.185 6.793)">
        <g id="Grupo_948505" data-name="Grupo 948505" transform="translate(0 0)">
          <path id="Trazado_656148" data-name="Trazado 656148" d="M86.5,62.013V58.047a.829.829,0,0,0-.829-.829H82.783a.833.833,0,0,1-.791-.582,11,11,0,0,0-.682-1.643.833.833,0,0,1,.147-.972L83.5,51.977a.829.829,0,0,0,0-1.173L80.7,48a.829.829,0,0,0-1.173,0l-2.044,2.044a.833.833,0,0,1-.972.147,10.976,10.976,0,0,0-1.643-.682.833.833,0,0,1-.582-.791V45.829A.829.829,0,0,0,73.453,45H69.487a.829.829,0,0,0-.829.829v2.888a.833.833,0,0,1-.582.791,10.977,10.977,0,0,0-1.643.682.833.833,0,0,1-.972-.147L63.417,48a.829.829,0,0,0-1.173,0l-2.8,2.8a.829.829,0,0,0,0,1.173l2.044,2.044a.833.833,0,0,1,.147.972,10.956,10.956,0,0,0-.682,1.643.833.833,0,0,1-.791.582H57.269a.829.829,0,0,0-.829.829v3.966a.829.829,0,0,0,.829.829h2.888a.833.833,0,0,1,.791.582,10.977,10.977,0,0,0,.682,1.643.833.833,0,0,1-.147.972L59.44,68.083a.829.829,0,0,0,0,1.173l2.8,2.8a.829.829,0,0,0,1.173,0l2.044-2.044a.833.833,0,0,1,.972-.147,10.977,10.977,0,0,0,1.643.682.833.833,0,0,1,.582.791v2.888a.829.829,0,0,0,.829.829h3.966a.829.829,0,0,0,.829-.829V71.342a.833.833,0,0,1,.582-.791,10.978,10.978,0,0,0,1.643-.682.833.833,0,0,1,.972.147l2.044,2.044a.829.829,0,0,0,1.173,0l2.8-2.8a.829.829,0,0,0,0-1.173l-2.044-2.044a.833.833,0,0,1-.147-.972,10.978,10.978,0,0,0,.682-1.643.833.833,0,0,1,.791-.582h2.888A.829.829,0,0,0,86.5,62.013Z" transform="translate(-56.44 -45)" fill="#baafb9"/>
        </g>
        <g id="Grupo_948507" data-name="Grupo 948507" transform="translate(0)">
          <g id="Grupo_948506" data-name="Grupo 948506">
            <path id="Trazado_656149" data-name="Trazado 656149" d="M64.828,60.03A11.324,11.324,0,0,1,74.3,48.861a.824.824,0,0,1-.013-.144V45.829A.829.829,0,0,0,73.453,45H69.487a.829.829,0,0,0-.829.829v2.888a.833.833,0,0,1-.582.791,10.977,10.977,0,0,0-1.643.682.833.833,0,0,1-.972-.147L63.417,48a.829.829,0,0,0-1.173,0l-2.8,2.8a.829.829,0,0,0,0,1.173l2.044,2.044a.833.833,0,0,1,.147.972,10.956,10.956,0,0,0-.682,1.643.833.833,0,0,1-.791.582H57.269a.829.829,0,0,0-.829.829v3.966a.829.829,0,0,0,.829.829h2.888a.833.833,0,0,1,.791.582,10.977,10.977,0,0,0,.682,1.643.833.833,0,0,1-.147.972L59.44,68.083a.829.829,0,0,0,0,1.173l2.8,2.8a.829.829,0,0,0,1.173,0l2.044-2.044a.833.833,0,0,1,.972-.147,10.977,10.977,0,0,0,1.643.683.833.833,0,0,1,.582.791v2.888a.829.829,0,0,0,.829.829h3.966a.829.829,0,0,0,.829-.829V71.342A.824.824,0,0,1,74.3,71.2,11.324,11.324,0,0,1,64.828,60.03Z" transform="translate(-56.44 -45)" fill="#aa9ea9"/>
          </g>
        </g>
        <g id="Grupo_948508" data-name="Grupo 948508" transform="translate(8.509 8.509)">
          <circle id="Elipse_7621" data-name="Elipse 7621" cx="6.521" cy="6.521" r="6.521" fill="#e5e1e5"/>
        </g>
        <g id="Grupo_948509" data-name="Grupo 948509" transform="translate(12.828 12.828)">
          <circle id="Elipse_7622" data-name="Elipse 7622" cx="2.202" cy="2.202" r="2.202" fill="#baafb9"/>
        </g>
        <g id="Grupo_948510" data-name="Grupo 948510" transform="translate(12.828 12.828)">
          <path id="Trazado_656150" data-name="Trazado 656150" d="M143.438,132.175a2.2,2.2,0,0,1,1.19-1.954,2.2,2.2,0,1,0,0,3.909A2.2,2.2,0,0,1,143.438,132.175Z" transform="translate(-141.413 -129.973)" fill="#aa9ea9"/>
        </g>
      </g>
      <g id="Grupo_948512" data-name="Grupo 948512" transform="translate(46.717 0)">
        <path id="Trazado_656151" data-name="Trazado 656151" d="M305.4,111.012a2.017,2.017,0,0,0,.514,2.081l2.3,2.242-.543,3.166a2.027,2.027,0,0,0,2.945,2.14l2.843-1.495,2.843,1.495a2.03,2.03,0,0,0,2.945-2.139l-.543-3.166,2.3-2.242a2.03,2.03,0,0,0-1.125-3.462l-3.179-.462-1.422-2.88a2.03,2.03,0,0,0-3.64,0l-1.422,2.88-3.179.462A2.017,2.017,0,0,0,305.4,111.012Zm5.265.38a2.029,2.029,0,0,0,1.528-1.11l1.266-2.565,1.266,2.565a2.029,2.029,0,0,0,1.528,1.11l2.83.411-2.048,2a2.029,2.029,0,0,0-.584,1.8l.484,2.819-2.531-1.331a2.03,2.03,0,0,0-1.889,0l-2.531,1.331.483-2.818a2.029,2.029,0,0,0-.584-1.8l-2.048-2Z" transform="translate(-266.266 -89.282)"/>
        <path id="Trazado_656152" data-name="Trazado 656152" d="M251.869,8.015l-.382,2.228a1.8,1.8,0,0,0,2.619,1.9l2-1.052,2,1.052a1.805,1.805,0,0,0,2.619-1.9l-.382-2.228,1.618-1.578a1.805,1.805,0,0,0-1-3.079l-2.237-.325-1-2.027a1.805,1.805,0,0,0-3.238,0l-1,2.027-2.237.325a1.805,1.805,0,0,0-1,3.079Zm3.826-6.007v0Zm-1.643,3.231a1.805,1.805,0,0,0,1.359-.988l.7-1.409.7,1.409a1.805,1.805,0,0,0,1.359.988l1.555.226-1.125,1.1a1.805,1.805,0,0,0-.519,1.6l.266,1.549-1.391-.731a1.8,1.8,0,0,0-1.68,0l-1.391.731.266-1.549a1.8,1.8,0,0,0-.519-1.6l-1.125-1.1Z" transform="translate(-219.061 0)"/>
        <path id="Trazado_656153" data-name="Trazado 656153" d="M247.41,286.761l-5.7,5.7-4.1-4.1a1.132,1.132,0,0,0-1.6,1.6l4.9,4.9a1.132,1.132,0,0,0,1.6,0l6.5-6.5a1.132,1.132,0,1,0-1.6-1.6Z" transform="translate(-207.152 -243.19)"/>
        <path id="Trazado_656154" data-name="Trazado 656154" d="M108.589,251.241c-.046-.046-.092-.089-.139-.133a4.5,4.5,0,0,0-7.049-3.719,4.5,4.5,0,0,0-5.61.606l-9.554,9.554a2.223,2.223,0,0,1-.983.572H75.146a1.138,1.138,0,0,1,.19-.257,1.124,1.124,0,0,1,.806-.337h6.412a4.5,4.5,0,0,0,4.55-5.082,12.99,12.99,0,0,0,7.5-8.573,1.132,1.132,0,0,0-2.186-.59,10.724,10.724,0,0,1-6.166,7.066,4.577,4.577,0,0,0-.379-.447,4.463,4.463,0,0,0-3.234-1.372H75a10.715,10.715,0,1,1,17.6-10.027,1.132,1.132,0,1,0,2.226-.416A12.981,12.981,0,1,0,71.9,248.529H62.1v-1.855a2.111,2.111,0,0,0-2.108-2.108H48.825a2.111,2.111,0,0,0-2.108,2.108v21.607a2.111,2.111,0,0,0,2.108,2.108H59.992a2.111,2.111,0,0,0,2.108-2.108v-.643L65,268.8a22.985,22.985,0,0,0,8.568,1.649H92.49a7.806,7.806,0,0,0,5.556-2.3l3.682-3.682a1.132,1.132,0,1,0-1.6-1.6l-3.682,3.682a5.557,5.557,0,0,1-3.955,1.638H73.572a20.729,20.729,0,0,1-7.727-1.487L62.1,265.2V250.793H82.643a2.235,2.235,0,0,1,2.234,2.312,2.3,2.3,0,0,1-2.322,2.157H76.143a3.4,3.4,0,0,0-3.4,3.445l.023,1.658a3.411,3.411,0,0,0,3.4,3.349H91.092a4.47,4.47,0,0,0,3.181-1.318l9.554-9.554A2.235,2.235,0,1,1,106.988,256l-3.125,3.125a1.132,1.132,0,0,0,1.6,1.6l3.125-3.125a4.5,4.5,0,0,0,0-6.363ZM59.836,268.125H48.981V246.831H59.836Zm44.117-19.265a2.236,2.236,0,0,1,1.92,1.091,4.492,4.492,0,0,0-3.646,1.291L92.672,260.8a2.22,2.22,0,0,1-1.58.655H76.166a1.136,1.136,0,0,1-1.129-1.064h14.6a4.471,4.471,0,0,0,3.182-1.318l9.554-9.554A2.22,2.22,0,0,1,103.952,248.86Zm-6.562.737a2.236,2.236,0,0,1,2.249-.552l-8.423,8.423a2.221,2.221,0,0,1-1.58.655h-.771Z" transform="translate(-46.717 -193.156)"/>
        <path id="Trazado_656155" data-name="Trazado 656155" d="M50.9,57.607h2.669a12.171,12.171,0,0,0,.59,1.42l-1.888,1.888a1.961,1.961,0,0,0,0,2.774l2.8,2.8a1.964,1.964,0,0,0,2.774,0L59.737,64.6a12.172,12.172,0,0,0,1.42.59v2.669a1.964,1.964,0,0,0,1.961,1.961h3.966a1.964,1.964,0,0,0,1.961-1.961V65.195a12.145,12.145,0,0,0,1.42-.59l1.888,1.888a1.964,1.964,0,0,0,2.774,0l2.8-2.8a1.961,1.961,0,0,0,0-2.774l-1.888-1.888a12.169,12.169,0,0,0,.59-1.42H79.3a1.964,1.964,0,0,0,1.961-1.961V51.68A1.964,1.964,0,0,0,79.3,49.718H76.634a12.168,12.168,0,0,0-.59-1.42l1.888-1.888a1.963,1.963,0,0,0,0-2.774l-2.8-2.8a1.964,1.964,0,0,0-2.774,0L70.466,42.72a12.175,12.175,0,0,0-1.42-.59V39.461A1.964,1.964,0,0,0,67.085,37.5H63.119a1.964,1.964,0,0,0-1.961,1.961V42.13a12.175,12.175,0,0,0-1.42.59l-1.888-1.888a1.964,1.964,0,0,0-2.774,0l-2.8,2.8a1.963,1.963,0,0,0,0,2.774L54.159,48.3a12.161,12.161,0,0,0-.59,1.42H50.9a1.964,1.964,0,0,0-1.961,1.961v3.966A1.964,1.964,0,0,0,50.9,57.607Zm.3-5.624h2.585a1.961,1.961,0,0,0,1.868-1.366,9.862,9.862,0,0,1,.612-1.474,1.961,1.961,0,0,0-.353-2.29l-1.83-1.829,2.376-2.376,1.83,1.829a1.961,1.961,0,0,0,2.29.353,9.872,9.872,0,0,1,1.473-.612,1.961,1.961,0,0,0,1.366-1.868V39.764h3.36v2.585a1.961,1.961,0,0,0,1.366,1.868,9.891,9.891,0,0,1,1.474.612,1.96,1.96,0,0,0,2.29-.353l1.829-1.829,2.376,2.376-1.829,1.829a1.961,1.961,0,0,0-.353,2.29,9.887,9.887,0,0,1,.612,1.474,1.961,1.961,0,0,0,1.868,1.366H79v3.36H76.414a1.961,1.961,0,0,0-1.868,1.366,9.888,9.888,0,0,1-.612,1.474,1.961,1.961,0,0,0,.353,2.29L76.116,62.3l-2.376,2.376-1.829-1.829a1.961,1.961,0,0,0-2.29-.353,9.874,9.874,0,0,1-1.474.612,1.961,1.961,0,0,0-1.366,1.868V67.56h-3.36V64.975a1.961,1.961,0,0,0-1.366-1.868,9.871,9.871,0,0,1-1.473-.612,1.961,1.961,0,0,0-2.29.353l-1.83,1.829L54.086,62.3l1.829-1.829a1.961,1.961,0,0,0,.353-2.29,9.874,9.874,0,0,1-.612-1.474,1.961,1.961,0,0,0-1.868-1.366H51.2Z" transform="translate(-48.604 -31.839)"/>
        <path id="Trazado_656156" data-name="Trazado 656156" d="M112.957,109.171a7.66,7.66,0,0,0,7-4.563,1.132,1.132,0,0,0-2.071-.915,5.389,5.389,0,1,1-.007-4.365,1.132,1.132,0,0,0,2.068-.922,7.653,7.653,0,1,0-6.992,10.766Z" transform="translate(-96.46 -79.694)"/>
        <path id="Trazado_656157" data-name="Trazado 656157" d="M133.913,125.808a3.334,3.334,0,1,0,3.334-3.334A3.338,3.338,0,0,0,133.913,125.808Zm4.4,0a1.07,1.07,0,1,1-1.07-1.07A1.071,1.071,0,0,1,138.318,125.808Z" transform="translate(-120.75 -103.985)"/>
      </g>
    </g>
  </g>
</svg>
