<svg xmlns="http://www.w3.org/2000/svg" width="190" height="144" viewBox="0 0 190 144">
  <g id="Grupo_949131" data-name="Grupo 949131" transform="translate(-1056 -6153)">
    <rect id="Rectángulo_336413" data-name="Rectángulo 336413" width="190" height="144" transform="translate(1056 6153)" fill="#fff"/>
    <g id="escudo-seguro" transform="translate(1067.319 6171.667)">
      <g id="Grupo_949129" data-name="Grupo 949129" transform="translate(39.925 2.243)">
        <path id="Trazado_657997" data-name="Trazado 657997" d="M115.718,51.6,88.059,79.258a5.052,5.052,0,0,1-7.145,0L67.665,66.01a5.053,5.053,0,0,1,7.145-7.146l9.677,9.676,24.085-24.086a5.053,5.053,0,1,1,7.145,7.145ZM91.69,10.768a175.41,175.41,0,0,1-43.238,18.34V52.033c0,43.011,37.2,60.913,43.238,60.913s43.24-17.9,43.24-60.913V29.108A180.886,180.886,0,0,1,91.69,10.768Z" transform="translate(-48.452 -10.768)" fill="#b3d594"/>
        <path id="Trazado_657998" data-name="Trazado 657998" d="M155.449,201.649l27.659-27.658a5.053,5.053,0,0,0-7.145-7.145l-24.085,24.086-9.677-9.676a5.053,5.053,0,1,0-7.145,7.146L148.3,201.649A5.052,5.052,0,0,0,155.449,201.649Z" transform="translate(-115.841 -133.158)" fill="#ffb338"/>
      </g>
      <g id="Grupo_949130" data-name="Grupo 949130" transform="translate(37.681 0)">
        <path id="Trazado_657999" data-name="Trazado 657999" d="M127,18.419A177.432,177.432,0,0,1,84.3.311a2.243,2.243,0,0,0-2.281,0A172.574,172.574,0,0,1,39.332,18.419a2.243,2.243,0,0,0-1.651,2.164V43.509A65.955,65.955,0,0,0,57.709,91.7c9.837,9.638,21.295,14.969,25.455,14.969s15.618-5.33,25.455-14.969a65.955,65.955,0,0,0,20.028-48.188V20.583A2.243,2.243,0,0,0,127,18.419Zm-2.837,25.09a61.556,61.556,0,0,1-18.681,44.983c-9.673,9.478-20.015,13.686-22.314,13.686S70.523,97.97,60.85,88.492A61.557,61.557,0,0,1,42.169,43.509V22.286a176.709,176.709,0,0,0,41-17.442,182.3,182.3,0,0,0,40.994,17.442Z" transform="translate(-37.681 0)" fill="#000003"/>
        <path id="Trazado_658000" data-name="Trazado 658000" d="M97.037,100.365a2.244,2.244,0,0,0-2.91-1.265c-4.008,1.579-8.122,3.033-12.228,4.321a2.244,2.244,0,0,0-1.572,2.141v8.665a2.244,2.244,0,1,0,4.487,0V107.2c3.683-1.192,7.362-2.51,10.958-3.927A2.243,2.243,0,0,0,97.037,100.365Z" transform="translate(-71.442 -78.33)" fill="#000003"/>
        <path id="Trazado_658001" data-name="Trazado 658001" d="M172.451,90.706a2.245,2.245,0,0,0,.9-.189l.041-.018a2.244,2.244,0,1,0-1.812-4.105l-.036.016a2.243,2.243,0,0,0,.907,4.3Z" transform="translate(-142.594 -68.246)" fill="#000003"/>
        <path id="Trazado_658002" data-name="Trazado 658002" d="M320.2,345.894a2.244,2.244,0,0,0-3.106.651,54.611,54.611,0,0,1-6.448,8.054,57.315,57.315,0,0,1-6.436,5.726,2.244,2.244,0,1,0,2.721,3.568,61.845,61.845,0,0,0,6.941-6.175A59.042,59.042,0,0,0,320.855,349,2.244,2.244,0,0,0,320.2,345.894Z" transform="translate(-247.988 -273.544)" fill="#000003"/>
        <path id="Trazado_658003" data-name="Trazado 658003" d="M277.812,432.274l-.129.076a2.243,2.243,0,1,0,2.248,3.883l.149-.087a2.244,2.244,0,1,0-2.268-3.872Z" transform="translate(-226.797 -341.974)" fill="#000003"/>
        <path id="Trazado_658004" data-name="Trazado 658004" d="M135.273,171.145a7.3,7.3,0,1,0-10.318,10.319L138.2,194.712a7.3,7.3,0,0,0,10.318,0l27.658-27.658a7.3,7.3,0,0,0-10.319-10.318l-22.5,22.5Zm33.762-11.236a2.809,2.809,0,1,1,3.972,3.972l-27.658,27.658a2.811,2.811,0,0,1-3.973,0L128.128,178.29a2.809,2.809,0,0,1,3.972-3.972l9.676,9.676a2.244,2.244,0,0,0,3.173,0Z" transform="translate(-105.084 -122.391)" fill="#000003"/>
      </g>
    </g>
  </g>
</svg>
