<svg xmlns="http://www.w3.org/2000/svg" width="167" height="167" viewBox="0 0 167 167">
  <g id="Grupo_947999" data-name="Grupo 947999" transform="translate(7076 9850)">
    <rect id="Rectángulo_336212" data-name="Rectángulo 336212" width="167" height="167" transform="translate(-7076 -9850)" fill="none"/>
    <g id="Layer_22" transform="translate(-7067.885 -9836.645)">
      <g id="Grupo_947998" data-name="Grupo 947998" transform="translate(18.305)">
        <g id="Grupo_947886" data-name="Grupo 947886" transform="translate(0 106.502)">
          <g id="Grupo_947885" data-name="Grupo 947885" transform="translate(0 0)">
            <circle id="Elipse_7608" data-name="Elipse 7608" cx="14.824" cy="14.824" r="14.824" transform="translate(0 29.44) rotate(-82.996)" fill="#f2d19d"/>
          </g>
        </g>
        <g id="Grupo_947888" data-name="Grupo 947888" transform="translate(5.774 128.925)">
          <g id="Grupo_947887" data-name="Grupo 947887">
            <path id="Trazado_655885" data-name="Trazado 655885" d="M44.328,236.759H34.889a6.266,6.266,0,0,0-5.98,4.4,14.81,14.81,0,0,0,21.4,0A6.265,6.265,0,0,0,44.328,236.759Z" transform="translate(-28.909 -236.759)" fill="#70d6f9"/>
          </g>
        </g>
        <g id="Grupo_947890" data-name="Grupo 947890" transform="translate(45.47 108.242)">
          <g id="Grupo_947889" data-name="Grupo 947889">
            <circle id="Elipse_7609" data-name="Elipse 7609" cx="14.824" cy="14.824" r="14.824" fill="#93cbea"/>
          </g>
        </g>
        <g id="Grupo_947892" data-name="Grupo 947892" transform="translate(49.595 128.925)">
          <g id="Grupo_947891" data-name="Grupo 947891">
            <path id="Trazado_655886" data-name="Trazado 655886" d="M124.8,236.759h-9.439a6.266,6.266,0,0,0-5.98,4.4,14.81,14.81,0,0,0,21.4,0A6.266,6.266,0,0,0,124.8,236.759Z" transform="translate(-109.382 -236.759)" fill="#70d6f9"/>
          </g>
        </g>
        <g id="Grupo_947894" data-name="Grupo 947894" transform="translate(89.29 108.242)">
          <g id="Grupo_947893" data-name="Grupo 947893">
            <circle id="Elipse_7610" data-name="Elipse 7610" cx="14.824" cy="14.824" r="14.824" fill="#cbfabd"/>
          </g>
        </g>
        <g id="Grupo_947896" data-name="Grupo 947896" transform="translate(93.415 128.925)">
          <g id="Grupo_947895" data-name="Grupo 947895">
            <path id="Trazado_655887" data-name="Trazado 655887" d="M205.273,236.759h-9.439a6.266,6.266,0,0,0-5.98,4.4,14.81,14.81,0,0,0,21.4,0A6.265,6.265,0,0,0,205.273,236.759Z" transform="translate(-189.854 -236.759)" fill="#70d6f9"/>
          </g>
        </g>
        <g id="Grupo_947898" data-name="Grupo 947898" transform="translate(26.323 1.361)">
          <g id="Grupo_947897" data-name="Grupo 947897">
            <circle id="Elipse_7611" data-name="Elipse 7611" cx="33.41" cy="33.41" r="33.41" fill="#fcb48e"/>
          </g>
        </g>
        <g id="Grupo_947900" data-name="Grupo 947900" transform="translate(36.311 54.521)">
          <g id="Grupo_947899" data-name="Grupo 947899">
            <path id="Trazado_655888" data-name="Trazado 655888" d="M129.87,103.194l-7.227-1.819a24.6,24.6,0,0,1-3.691-1.25.951.951,0,0,1-.273.6l-5.069,5.069a.96.96,0,0,1-1.358,0l-2.269-2.269a.955.955,0,0,1-.272-.774h-2.6a.952.952,0,0,1-.272.774l-2.269,2.269a.96.96,0,0,1-1.358,0l-5.069-5.069a.951.951,0,0,1-.273-.595,24.624,24.624,0,0,1-3.683,1.244l-7.236,1.822a4.945,4.945,0,0,0-1.96,1,33.39,33.39,0,0,0,46.841,0,4.948,4.948,0,0,0-1.959-1Z" transform="translate(-84.988 -100.124)" fill="#70d6f9"/>
          </g>
        </g>
        <g id="Grupo_947903" data-name="Grupo 947903" transform="translate(24.962)">
          <g id="Grupo_947902" data-name="Grupo 947902">
            <g id="Grupo_947901" data-name="Grupo 947901">
              <path id="Trazado_655889" data-name="Trazado 655889" d="M98.917,0a34.772,34.772,0,1,0,34.772,34.772A34.811,34.811,0,0,0,98.917,0Zm0,66.821a32.049,32.049,0,1,1,32.049-32.049A32.085,32.085,0,0,1,98.917,66.821Z" transform="translate(-64.145 0)"/>
            </g>
          </g>
        </g>
        <g id="Grupo_947905" data-name="Grupo 947905" transform="translate(49.184 51.213)">
          <g id="Grupo_947904" data-name="Grupo 947904">
            <path id="Trazado_655890" data-name="Trazado 655890" d="M117.6,99.4l-5.069-5.069a.96.96,0,0,0-1.358,0L108.908,96.6a.96.96,0,0,0,0,1.358l5.069,5.069a.96.96,0,0,0,1.358,0l2.269-2.269A.959.959,0,0,0,117.6,99.4Z" transform="translate(-108.627 -94.049)" fill="#9be5f9"/>
          </g>
        </g>
        <g id="Grupo_947907" data-name="Grupo 947907" transform="translate(61.025 51.213)">
          <g id="Grupo_947906" data-name="Grupo 947906">
            <path id="Trazado_655891" data-name="Trazado 655891" d="M139.348,96.6,137.08,94.33a.96.96,0,0,0-1.358,0L130.653,99.4a.96.96,0,0,0,0,1.358l2.269,2.269a.96.96,0,0,0,1.358,0l5.069-5.069A.959.959,0,0,0,139.348,96.6Z" transform="translate(-130.372 -94.049)" fill="#9be5f9"/>
          </g>
        </g>
        <g id="Grupo_947909" data-name="Grupo 947909" transform="translate(53.329 47.476)">
          <g id="Grupo_947908" data-name="Grupo 947908">
            <path id="Trazado_655892" data-name="Trazado 655892" d="M128.444,89.235V87.186a12.488,12.488,0,0,1-11.6,0v2.049a4.338,4.338,0,0,1-.6,2.208l4.831,4.831a.954.954,0,0,1,.272.583h2.6a.949.949,0,0,1,.272-.583l4.836-4.836a4.322,4.322,0,0,1-.609-2.2Z" transform="translate(-116.239 -87.186)" fill="#f9d0b4"/>
          </g>
        </g>
        <g id="Grupo_947911" data-name="Grupo 947911" transform="translate(47.143 20.781)">
          <g id="Grupo_947910" data-name="Grupo 947910">
            <path id="Trazado_655893" data-name="Trazado 655893" d="M130.058,42.283a.674.674,0,0,0-.65-.662c-5.23-.154-7.986-2.226-9.045-3.265a.678.678,0,0,0-1.007.063c-4.6,5.783-11.383,4.967-13.664,4.49a.672.672,0,0,0-.812.649V53.7a12.59,12.59,0,1,0,25.181,0V42.48c0-.066,0-.132,0-.2Z" transform="translate(-104.879 -38.162)" fill="#f9d0b4"/>
          </g>
        </g>
        <g id="Grupo_947913" data-name="Grupo 947913" transform="translate(43.055 9.052)">
          <g id="Grupo_947912" data-name="Grupo 947912">
            <path id="Trazado_655894" data-name="Trazado 655894" d="M123.9,19.119a7.122,7.122,0,0,0-3.674,1.025,7.2,7.2,0,0,0-6.167-3.52h-3.693a13.034,13.034,0,0,0-13,13v5.823a5.218,5.218,0,0,1,4.088-1.089v-.6a.672.672,0,0,1,.812-.649c2.281.478,9.065,1.293,13.664-4.49a.677.677,0,0,1,1.007-.063c1.059,1.038,3.815,3.111,9.045,3.265a.675.675,0,0,1,.65.662c0,.065,0,.131,0,.2v1.684a5.221,5.221,0,0,1,4.454,1.411V26.31a7.214,7.214,0,0,0-7.192-7.192Z" transform="translate(-97.372 -16.624)" fill="#754e34"/>
          </g>
        </g>
        <g id="Grupo_947915" data-name="Grupo 947915" transform="translate(72.292 26.719)">
          <g id="Grupo_947914" data-name="Grupo 947914">
            <path id="Trazado_655895" data-name="Trazado 655895" d="M151.9,49.067a5.271,5.271,0,0,0-.808.064v9.532c0,.284-.013.565-.032.845a5.254,5.254,0,1,0,.84-10.44Z" transform="translate(-151.063 -49.067)" fill="#f9d0b4"/>
          </g>
        </g>
        <g id="Grupo_947917" data-name="Grupo 947917" transform="translate(41.078 26.718)">
          <g id="Grupo_947916" data-name="Grupo 947916">
            <path id="Trazado_655896" data-name="Trazado 655896" d="M99.807,58.662V49.13a5.259,5.259,0,1,0,.032,10.375C99.82,59.227,99.807,58.946,99.807,58.662Z" transform="translate(-93.742 -49.066)" fill="#f9d0b4"/>
          </g>
        </g>
        <g id="Grupo_947920" data-name="Grupo 947920" transform="translate(47.822 49.853)">
          <g id="Grupo_947919" data-name="Grupo 947919">
            <g id="Grupo_947918" data-name="Grupo 947918">
              <path id="Trazado_655897" data-name="Trazado 655897" d="M117.427,97.3l-5.07-5.07a2.324,2.324,0,0,0-3.282,0L106.807,94.5a2.32,2.32,0,0,0,0,3.282l5.069,5.069a2.324,2.324,0,0,0,3.282,0l2.269-2.269A2.324,2.324,0,0,0,117.427,97.3Zm-3.91,3.342-4.5-4.5,1.7-1.7,4.5,4.5Z" transform="translate(-106.127 -91.551)"/>
            </g>
          </g>
        </g>
        <g id="Grupo_947923" data-name="Grupo 947923" transform="translate(59.665 49.853)">
          <g id="Grupo_947922" data-name="Grupo 947922">
            <g id="Grupo_947921" data-name="Grupo 947921">
              <path id="Trazado_655898" data-name="Trazado 655898" d="M139.173,94.5,136.9,92.229a2.324,2.324,0,0,0-3.282,0L128.553,97.3a2.324,2.324,0,0,0,0,3.283l2.268,2.268a2.321,2.321,0,0,0,3.283,0l5.069-5.069a2.321,2.321,0,0,0,0-3.283Zm-6.71,6.143-1.7-1.7,4.5-4.5,1.7,1.7Z" transform="translate(-127.874 -91.551)"/>
            </g>
          </g>
        </g>
        <g id="Grupo_947925" data-name="Grupo 947925" transform="translate(64.172 46.323)">
          <g id="Grupo_947924" data-name="Grupo 947924">
            <path id="Trazado_655899" data-name="Trazado 655899" d="M139.231,89.67a2.978,2.978,0,0,1-.357-1.4V86.429a1.361,1.361,0,1,0-2.723,0V88.27a5.705,5.705,0,0,0,.68,2.687,1.361,1.361,0,1,0,2.4-1.287Z" transform="translate(-136.152 -85.068)"/>
          </g>
        </g>
        <g id="Grupo_947927" data-name="Grupo 947927" transform="translate(57.241 55.785)">
          <g id="Grupo_947926" data-name="Grupo 947926">
            <path id="Trazado_655900" data-name="Trazado 655900" d="M126.923,102.445h-2.137a1.361,1.361,0,0,0,0,2.723h2.137a1.361,1.361,0,0,0,0-2.723Z" transform="translate(-123.424 -102.445)"/>
          </g>
        </g>
        <g id="Grupo_947929" data-name="Grupo 947929" transform="translate(52.079 46.433)">
          <g id="Grupo_947928" data-name="Grupo 947928">
            <path id="Trazado_655901" data-name="Trazado 655901" d="M115.8,85.271a1.361,1.361,0,0,0-1.361,1.361v1.731a2.987,2.987,0,0,1-.338,1.376A1.361,1.361,0,1,0,116.514,91a5.728,5.728,0,0,0,.645-2.634V86.632A1.361,1.361,0,0,0,115.8,85.271Z" transform="translate(-113.945 -85.271)"/>
          </g>
        </g>
        <g id="Grupo_947931" data-name="Grupo 947931" transform="translate(69.232 53.294)">
          <g id="Grupo_947930" data-name="Grupo 947930">
            <path id="Trazado_655902" data-name="Trazado 655902" d="M159.886,101.848a6.283,6.283,0,0,0-2.148-1l-7.228-1.819a23.277,23.277,0,0,1-3.185-1.054,1.361,1.361,0,0,0-1.038,2.517,26.028,26.028,0,0,0,3.559,1.177l7.227,1.819a3.569,3.569,0,0,1,1.22.57,1.361,1.361,0,0,0,1.593-2.208Z" transform="translate(-145.445 -97.869)"/>
          </g>
        </g>
        <g id="Grupo_947933" data-name="Grupo 947933" transform="translate(35.247 53.239)">
          <g id="Grupo_947932" data-name="Grupo 947932">
            <path id="Trazado_655903" data-name="Trazado 655903" d="M98.058,98.6a1.362,1.362,0,0,0-1.782-.73,23.417,23.417,0,0,1-3.314,1.105L85.727,100.8a6.287,6.287,0,0,0-2.123.983A1.361,1.361,0,1,0,85.186,104a3.565,3.565,0,0,1,1.206-.56l7.236-1.821a26.086,26.086,0,0,0,3.7-1.234,1.361,1.361,0,0,0,.73-1.781Z" transform="translate(-83.034 -97.768)"/>
          </g>
        </g>
        <g id="Grupo_947936" data-name="Grupo 947936" transform="translate(45.781 19.42)">
          <g id="Grupo_947935" data-name="Grupo 947935">
            <g id="Grupo_947934" data-name="Grupo 947934">
              <path id="Trazado_655904" data-name="Trazado 655904" d="M130.28,41.118a2.032,2.032,0,0,0-1.971-2c-4.837-.142-7.3-2.058-8.132-2.876a2.04,2.04,0,0,0-3.027.188c-4.051,5.094-9.965,4.5-12.319,4a2.034,2.034,0,0,0-2.453,1.991V52.558a13.952,13.952,0,0,0,27.9,0V41.342Zm-2.721,11.44a11.229,11.229,0,1,1-22.458,0v-9.3c2.814.431,9.127.666,13.715-4.567a14.621,14.621,0,0,0,8.743,3.128V52.557Z" transform="translate(-102.378 -35.663)"/>
            </g>
          </g>
        </g>
        <g id="Grupo_947938" data-name="Grupo 947938" transform="translate(41.693 7.691)">
          <g id="Grupo_947937" data-name="Grupo 947937">
            <path id="Trazado_655905" data-name="Trazado 655905" d="M122.763,16.618a8.471,8.471,0,0,0-3.239.647,8.6,8.6,0,0,0-6.6-3.143h-3.693A14.374,14.374,0,0,0,94.871,28.48v5.553a1.361,1.361,0,1,0,2.723,0V28.481a11.648,11.648,0,0,1,11.635-11.635h3.693a5.87,5.87,0,0,1,5,2.858,1.361,1.361,0,0,0,1.868.468,5.809,5.809,0,0,1,8.8,5V34.38a1.361,1.361,0,0,0,2.723,0V25.171A8.562,8.562,0,0,0,122.763,16.618Z" transform="translate(-94.871 -14.123)"/>
          </g>
        </g>
        <g id="Grupo_947940" data-name="Grupo 947940" transform="translate(71.282 25.357)">
          <g id="Grupo_947939" data-name="Grupo 947939">
            <path id="Trazado_655906" data-name="Trazado 655906" d="M151.058,46.566c-.184,0-.366.008-.546.023a1.362,1.362,0,0,0,.228,2.713c.1-.009.211-.014.317-.014a3.9,3.9,0,1,1,0,7.79,3.321,3.321,0,0,1-.347-.019,1.361,1.361,0,0,0-.283,2.708,6,6,0,0,0,.629.034,6.618,6.618,0,0,0,0-13.236Z" transform="translate(-149.208 -46.566)"/>
          </g>
        </g>
        <g id="Grupo_947942" data-name="Grupo 947942" transform="translate(39.717 25.358)">
          <g id="Grupo_947941" data-name="Grupo 947941">
            <path id="Trazado_655907" data-name="Trazado 655907" d="M98.154,57.066c-.1.009-.195.014-.294.014a3.9,3.9,0,0,1,0-7.79c.1,0,.2,0,.3.013a1.361,1.361,0,0,0,.223-2.713c-.173-.014-.348-.022-.524-.022a6.618,6.618,0,1,0,0,13.236c.18,0,.357-.009.533-.024a1.361,1.361,0,0,0-.238-2.712Z" transform="translate(-91.242 -46.567)"/>
          </g>
        </g>
        <g id="Grupo_947945" data-name="Grupo 947945" transform="translate(44.109 106.881)">
          <g id="Grupo_947944" data-name="Grupo 947944">
            <g id="Grupo_947943" data-name="Grupo 947943">
              <path id="Trazado_655908" data-name="Trazado 655908" d="M115.492,196.277a16.185,16.185,0,1,0,16.185,16.185,16.2,16.2,0,0,0-16.185-16.185Zm0,29.648a13.463,13.463,0,1,1,13.463-13.463A13.478,13.478,0,0,1,115.492,225.925Z" transform="translate(-99.307 -196.277)"/>
            </g>
          </g>
        </g>
        <g id="Grupo_947947" data-name="Grupo 947947" transform="translate(54.81 114.236)">
          <g id="Grupo_947946" data-name="Grupo 947946">
            <circle id="Elipse_7612" data-name="Elipse 7612" cx="5.244" cy="5.244" r="5.244" fill="#f9d0b4"/>
          </g>
        </g>
        <g id="Grupo_947949" data-name="Grupo 947949" transform="translate(48.341 127.563)">
          <g id="Grupo_947948" data-name="Grupo 947948">
            <path id="Trazado_655909" data-name="Trazado 655909" d="M130.852,239.1a7.581,7.581,0,0,0-7.1-4.843h-9.439a7.658,7.658,0,0,0-7.147,4.965,1.361,1.361,0,1,0,2.552.95,4.925,4.925,0,0,1,4.6-3.192h9.439a4.875,4.875,0,0,1,4.565,3.114,1.361,1.361,0,1,0,2.535-.994Z" transform="translate(-107.079 -234.259)"/>
          </g>
        </g>
        <g id="Grupo_947952" data-name="Grupo 947952" transform="translate(53.449 112.874)">
          <g id="Grupo_947951" data-name="Grupo 947951">
            <g id="Grupo_947950" data-name="Grupo 947950">
              <path id="Trazado_655910" data-name="Trazado 655910" d="M123.065,207.284a6.606,6.606,0,1,0,6.606,6.606A6.613,6.613,0,0,0,123.065,207.284Zm0,10.489a3.883,3.883,0,1,1,3.883-3.883A3.888,3.888,0,0,1,123.065,217.773Z" transform="translate(-116.459 -207.284)"/>
            </g>
          </g>
        </g>
        <g id="Grupo_947955" data-name="Grupo 947955" transform="translate(0.288 106.881)">
          <g id="Grupo_947954" data-name="Grupo 947954">
            <g id="Grupo_947953" data-name="Grupo 947953">
              <path id="Trazado_655911" data-name="Trazado 655911" d="M35.019,196.277A16.185,16.185,0,1,0,51.2,212.462a16.2,16.2,0,0,0-16.185-16.185Zm0,29.648a13.463,13.463,0,1,1,13.463-13.463A13.478,13.478,0,0,1,35.019,225.925Z" transform="translate(-18.834 -196.277)"/>
            </g>
          </g>
        </g>
        <g id="Grupo_947957" data-name="Grupo 947957" transform="translate(10.989 114.236)">
          <g id="Grupo_947956" data-name="Grupo 947956">
            <circle id="Elipse_7613" data-name="Elipse 7613" cx="5.244" cy="5.244" r="5.244" fill="#f9d0b4"/>
          </g>
        </g>
        <g id="Grupo_947959" data-name="Grupo 947959" transform="translate(4.509 127.563)">
          <g id="Grupo_947958" data-name="Grupo 947958">
            <path id="Trazado_655912" data-name="Trazado 655912" d="M50.462,239.35a7.636,7.636,0,0,0-7.193-5.091H33.83a7.652,7.652,0,0,0-7.162,5,1.361,1.361,0,1,0,2.557.936,4.919,4.919,0,0,1,4.605-3.218H43.27a4.91,4.91,0,0,1,4.625,3.273,1.361,1.361,0,1,0,2.568-.9Z" transform="translate(-26.585 -234.259)"/>
          </g>
        </g>
        <g id="Grupo_947962" data-name="Grupo 947962" transform="translate(9.628 112.874)">
          <g id="Grupo_947961" data-name="Grupo 947961">
            <g id="Grupo_947960" data-name="Grupo 947960">
              <path id="Trazado_655913" data-name="Trazado 655913" d="M42.592,207.284A6.606,6.606,0,1,0,49.2,213.89,6.613,6.613,0,0,0,42.592,207.284Zm0,10.489a3.883,3.883,0,1,1,3.883-3.883A3.888,3.888,0,0,1,42.592,217.773Z" transform="translate(-35.986 -207.284)"/>
            </g>
          </g>
        </g>
        <g id="Grupo_947965" data-name="Grupo 947965" transform="translate(87.929 106.881)">
          <g id="Grupo_947964" data-name="Grupo 947964">
            <g id="Grupo_947963" data-name="Grupo 947963">
              <path id="Trazado_655914" data-name="Trazado 655914" d="M195.964,196.277a16.185,16.185,0,1,0,16.185,16.185,16.2,16.2,0,0,0-16.185-16.185Zm0,29.648a13.463,13.463,0,1,1,13.463-13.463,13.478,13.478,0,0,1-13.463,13.463Z" transform="translate(-179.779 -196.277)"/>
            </g>
          </g>
        </g>
        <g id="Grupo_947967" data-name="Grupo 947967" transform="translate(98.63 114.236)">
          <g id="Grupo_947966" data-name="Grupo 947966">
            <circle id="Elipse_7614" data-name="Elipse 7614" cx="5.244" cy="5.244" r="5.244" fill="#f9d0b4"/>
          </g>
        </g>
        <g id="Grupo_947969" data-name="Grupo 947969" transform="translate(92.166 127.563)">
          <g id="Grupo_947968" data-name="Grupo 947968">
            <path id="Trazado_655915" data-name="Trazado 655915" d="M211.388,239.258a7.652,7.652,0,0,0-7.16-5h-9.438a7.661,7.661,0,0,0-7.143,4.952,1.361,1.361,0,0,0,2.55.955,4.926,4.926,0,0,1,4.593-3.184h9.438a4.921,4.921,0,0,1,4.6,3.214,1.361,1.361,0,1,0,2.556-.938Z" transform="translate(-187.56 -234.259)"/>
          </g>
        </g>
        <g id="Grupo_947972" data-name="Grupo 947972" transform="translate(97.269 112.874)">
          <g id="Grupo_947971" data-name="Grupo 947971">
            <g id="Grupo_947970" data-name="Grupo 947970">
              <path id="Trazado_655916" data-name="Trazado 655916" d="M203.537,207.284a6.606,6.606,0,1,0,6.606,6.606A6.613,6.613,0,0,0,203.537,207.284Zm0,10.489a3.883,3.883,0,1,1,3.883-3.883A3.888,3.888,0,0,1,203.537,217.773Z" transform="translate(-196.931 -207.284)"/>
            </g>
          </g>
        </g>
        <g id="Grupo_947977" data-name="Grupo 947977" transform="translate(52.793 76.826)">
          <g id="Grupo_947974" data-name="Grupo 947974" transform="translate(5.579)">
            <g id="Grupo_947973" data-name="Grupo 947973">
              <path id="Trazado_655917" data-name="Trazado 655917" d="M126.861,141.085a1.361,1.361,0,0,0-1.361,1.361V164.98a1.361,1.361,0,0,0,2.723,0V142.446A1.361,1.361,0,0,0,126.861,141.085Z" transform="translate(-125.5 -141.085)"/>
            </g>
          </g>
          <g id="Grupo_947976" data-name="Grupo 947976" transform="translate(0 18.223)">
            <g id="Grupo_947975" data-name="Grupo 947975">
              <path id="Trazado_655918" data-name="Trazado 655918" d="M128.736,174.949a1.36,1.36,0,0,0-1.925,0l-4.616,4.616-4.616-4.616a1.361,1.361,0,1,0-1.925,1.925l5.579,5.578a1.362,1.362,0,0,0,1.925,0l5.579-5.578A1.361,1.361,0,0,0,128.736,174.949Z" transform="translate(-115.255 -174.55)"/>
            </g>
          </g>
        </g>
        <g id="Grupo_947982" data-name="Grupo 947982" transform="translate(74.206 74.023)">
          <g id="Grupo_947979" data-name="Grupo 947979">
            <g id="Grupo_947978" data-name="Grupo 947978">
              <path id="Trazado_655919" data-name="Trazado 655919" d="M173.618,158.323l-16.593-21.849a1.361,1.361,0,0,0-2.168,1.647l16.593,21.849a1.361,1.361,0,0,0,2.168-1.647Z" transform="translate(-154.579 -135.936)"/>
            </g>
          </g>
          <g id="Grupo_947981" data-name="Grupo 947981" transform="translate(9.543 15.041)">
            <g id="Grupo_947980" data-name="Grupo 947980">
              <path id="Trazado_655920" data-name="Trazado 655920" d="M182.535,163.57A1.36,1.36,0,0,0,181,164.734l-.884,6.468-6.468-.884a1.361,1.361,0,0,0-.369,2.7l7.817,1.068a1.361,1.361,0,0,0,1.533-1.165L183.7,165.1A1.361,1.361,0,0,0,182.535,163.57Z" transform="translate(-172.104 -163.557)"/>
            </g>
          </g>
        </g>
        <g id="Grupo_947987" data-name="Grupo 947987" transform="translate(24.109 74.023)">
          <g id="Grupo_947984" data-name="Grupo 947984" transform="translate(1.835)">
            <g id="Grupo_947983" data-name="Grupo 947983">
              <path id="Trazado_655921" data-name="Trazado 655921" d="M84.727,136.214a1.361,1.361,0,0,0-1.908.261L66.226,158.323a1.361,1.361,0,0,0,2.168,1.647l16.593-21.849A1.361,1.361,0,0,0,84.727,136.214Z" transform="translate(-65.949 -135.936)"/>
            </g>
          </g>
          <g id="Grupo_947986" data-name="Grupo 947986" transform="translate(0 15.04)">
            <g id="Grupo_947985" data-name="Grupo 947985">
              <path id="Trazado_655922" data-name="Trazado 655922" d="M74.174,171.482a1.359,1.359,0,0,0-1.533-1.164l-6.468.884-.884-6.468a1.361,1.361,0,0,0-2.7.369l1.068,7.816a1.362,1.362,0,0,0,1.347,1.177,1.429,1.429,0,0,0,.186-.013l7.817-1.068a1.362,1.362,0,0,0,1.165-1.534Z" transform="translate(-62.579 -163.557)"/>
            </g>
          </g>
        </g>
        <g id="Grupo_947989" data-name="Grupo 947989" transform="translate(95.918 9.802)">
          <g id="Grupo_947988" data-name="Grupo 947988">
            <path id="Trazado_655923" data-name="Trazado 655923" d="M204.442,22.819a6.043,6.043,0,0,1-4.846-4.737c0-.109-.218-.109-.218,0a6.043,6.043,0,0,1-4.846,4.737c-.109,0-.109.163,0,.218a6.043,6.043,0,0,1,4.846,4.737c0,.109.218.109.218,0a6.043,6.043,0,0,1,4.846-4.737C204.551,22.983,204.551,22.819,204.442,22.819Z" transform="translate(-194.45 -18)" fill="#f5c84c"/>
          </g>
        </g>
        <g id="Grupo_947991" data-name="Grupo 947991" transform="translate(87.36 64.256)">
          <g id="Grupo_947990" data-name="Grupo 947990">
            <path id="Trazado_655924" data-name="Trazado 655924" d="M185.745,121.382a4.24,4.24,0,0,1-3.4-3.324c0-.076-.153-.076-.153,0a4.239,4.239,0,0,1-3.4,3.324c-.076,0-.076.115,0,.153a4.24,4.24,0,0,1,3.4,3.324c0,.076.153.076.153,0a4.239,4.239,0,0,1,3.4-3.324C185.822,121.5,185.822,121.382,185.745,121.382Z" transform="translate(-178.734 -118.001)" fill="#70d6f9"/>
          </g>
        </g>
        <g id="Grupo_947993" data-name="Grupo 947993" transform="translate(2.284 87.998)">
          <g id="Grupo_947992" data-name="Grupo 947992">
            <path id="Trazado_655925" data-name="Trazado 655925" d="M30.232,164.595H28.98v-1.252a1.755,1.755,0,0,0-1.743-1.743,1.72,1.72,0,0,0-1.743,1.743v1.252H24.243a1.755,1.755,0,0,0-1.743,1.743,1.72,1.72,0,0,0,1.743,1.743h1.252v1.252a1.755,1.755,0,0,0,1.743,1.743,1.72,1.72,0,0,0,1.743-1.743V168.08h1.252a1.755,1.755,0,0,0,1.743-1.743A1.72,1.72,0,0,0,30.232,164.595Z" transform="translate(-22.5 -161.6)" fill="#fc657e"/>
          </g>
        </g>
        <g id="Grupo_947995" data-name="Grupo 947995" transform="translate(87.722)">
          <g id="Grupo_947994" data-name="Grupo 947994">
            <path id="Trazado_655926" data-name="Trazado 655926" d="M181.251,0A1.851,1.851,0,1,0,183.1,1.851,1.851,1.851,0,0,0,181.251,0Z" transform="translate(-179.4)" fill="#87d147"/>
          </g>
        </g>
        <g id="Grupo_947997" data-name="Grupo 947997" transform="translate(13.665 77.325)">
          <g id="Grupo_947996" data-name="Grupo 947996">
            <path id="Trazado_655927" data-name="Trazado 655927" d="M45.251,142a1.851,1.851,0,1,0,1.851,1.851A1.851,1.851,0,0,0,45.251,142Z" transform="translate(-43.4 -142)" fill="#f5c84c"/>
          </g>
        </g>
      </g>
    </g>
  </g>
</svg>
