<svg xmlns="http://www.w3.org/2000/svg" width="89.648" height="106.25" viewBox="0 0 89.648 106.25">
  <g id="_10-Invoice" data-name="10-Invoice" transform="translate(-5)">
    <path id="Trazado_657840" data-name="Trazado 657840" d="M46,15H59.281v9.961H46Z" transform="translate(27.066 9.902)" fill="#96e8ff"/>
    <path id="Trazado_657841" data-name="Trazado 657841" d="M50,15h6.641v9.961H50Z" transform="translate(29.707 9.902)" fill="#80dbff"/>
    <path id="Trazado_657842" data-name="Trazado 657842" d="M84.406,11V97.328H18V20.961h9.961V11ZM77.766,77.406V34.242H24.641V64.125H64.484V77.406Zm0-49.8V17.641H64.484V27.6Z" transform="translate(8.582 7.262)" fill="#fff"/>
    <path id="Trazado_657843" data-name="Trazado 657843" d="M46,39H59.281v6.641H46Z" transform="translate(27.066 25.746)" fill="#96e8ff"/>
    <path id="Trazado_657844" data-name="Trazado 657844" d="M22,35H61.844v6.641H22Z" transform="translate(11.223 23.105)" fill="#96e8ff"/>
    <path id="Trazado_657845" data-name="Trazado 657845" d="M46,31H59.281v6.641H46Z" transform="translate(27.066 20.465)" fill="#96e8ff"/>
    <path id="Trazado_657846" data-name="Trazado 657846" d="M50,31h6.641v6.641H50Z" transform="translate(29.707 20.465)" fill="#80dbff"/>
    <path id="Trazado_657847" data-name="Trazado 657847" d="M50,39h6.641v6.641H50Z" transform="translate(29.707 25.746)" fill="#80dbff"/>
    <path id="Trazado_657848" data-name="Trazado 657848" d="M46,35H59.281v6.641H46Z" transform="translate(27.066 23.105)" fill="#cff9ff"/>
    <path id="Trazado_657849" data-name="Trazado 657849" d="M22,39H61.844v6.641H22Z" transform="translate(11.223 25.746)" fill="#cff9ff"/>
    <path id="Trazado_657850" data-name="Trazado 657850" d="M22,31H61.844v6.641H22Z" transform="translate(11.223 20.465)" fill="#cff9ff"/>
    <path id="Trazado_657851" data-name="Trazado 657851" d="M46,43H59.281V56.281H46Z" transform="translate(27.066 28.387)" fill="#1ea1e3"/>
    <path id="Trazado_657852" data-name="Trazado 657852" d="M46,25H59.281v9.961H46Z" transform="translate(27.066 16.504)" fill="#1ea1e3"/>
    <path id="Trazado_657853" data-name="Trazado 657853" d="M22,25H61.844v9.961H22Z" transform="translate(11.223 16.504)" fill="#19cffc"/>
    <path id="Trazado_657854" data-name="Trazado 657854" d="M10,17H23.281V41.9H10Z" transform="translate(3.301 11.223)" fill="#f0f0f0"/>
    <path id="Trazado_657855" data-name="Trazado 657855" d="M15.961,1v9.961H6Z" transform="translate(0.66 0.66)" fill="#fc9942"/>
    <path id="Trazado_657856" data-name="Trazado 657856" d="M72.406,1V17.6H35.883l-9.961,9.961H12.641v24.9H25.922V87.328H6V10.961h9.961V1Z" transform="translate(0.66 0.66)" fill="#ffc170"/>
    <path id="Trazado_657857" data-name="Trazado 657857" d="M50,25h6.641v9.961H50Z" transform="translate(29.707 16.504)" fill="#368dcf"/>
    <path id="Trazado_657858" data-name="Trazado 657858" d="M50,43h6.641V56.281H50Z" transform="translate(29.707 28.387)" fill="#368dcf"/>
    <path id="Trazado_657859" data-name="Trazado 657859" d="M50,35h6.641v6.641H50Z" transform="translate(29.707 23.105)" fill="#b5efff"/>
    <path id="Trazado_657860" data-name="Trazado 657860" d="M15,6h3.32V9.32H15Z" transform="translate(6.602 3.961)" fill="#ff873c"/>
    <path id="Trazado_657861" data-name="Trazado 657861" d="M19,6H58.844V9.32H19Z" transform="translate(9.242 3.961)" fill="#ff873c"/>
    <path id="Trazado_657862" data-name="Trazado 657862" d="M9,10H27.262v3.32H9Z" transform="translate(2.641 6.602)" fill="#ff873c"/>
    <g id="Grupo_949101" data-name="Grupo 949101" transform="translate(31.563 33.203)">
      <path id="Trazado_657863" data-name="Trazado 657863" d="M21,20h3.32v3.32H21Z" transform="translate(-21 -20)" fill="#9c9c9c"/>
      <path id="Trazado_657864" data-name="Trazado 657864" d="M25,20H54.883v3.32H25Z" transform="translate(-18.359 -20)" fill="#9c9c9c"/>
      <path id="Trazado_657865" data-name="Trazado 657865" d="M21,50h3.32v3.32H21Z" transform="translate(-21 -0.195)" fill="#9c9c9c"/>
      <path id="Trazado_657866" data-name="Trazado 657866" d="M25,50H54.883v3.32H25Z" transform="translate(-18.359 -0.195)" fill="#9c9c9c"/>
      <path id="Trazado_657867" data-name="Trazado 657867" d="M21,54H50.883v3.32H21Z" transform="translate(-21 2.445)" fill="#9c9c9c"/>
      <path id="Trazado_657868" data-name="Trazado 657868" d="M21,58h3.32v3.32H21Z" transform="translate(-21 5.086)" fill="#9c9c9c"/>
      <path id="Trazado_657869" data-name="Trazado 657869" d="M25,58H74.8v3.32H25Z" transform="translate(-18.359 5.086)" fill="#9c9c9c"/>
      <path id="Trazado_657870" data-name="Trazado 657870" d="M41,54h3.32v3.32H41Z" transform="translate(-7.797 2.445)" fill="#9c9c9c"/>
    </g>
    <path id="Trazado_657871" data-name="Trazado 657871" d="M9,35h3.32v3.32H9Z" transform="translate(2.641 23.105)" fill="#ff873c"/>
    <path id="Trazado_657872" data-name="Trazado 657872" d="M13,35h4.98v3.32H13Z" transform="translate(5.281 23.105)" fill="#ff873c"/>
    <path id="Trazado_657873" data-name="Trazado 657873" d="M9,39H20.621v3.32H9Z" transform="translate(2.641 25.746)" fill="#ff873c"/>
    <path id="Trazado_657874" data-name="Trazado 657874" d="M9,43H20.621v3.32H9Z" transform="translate(2.641 28.387)" fill="#ff873c"/>
    <path id="Trazado_657875" data-name="Trazado 657875" d="M27.961,11v9.961H18Z" transform="translate(8.582 7.262)" fill="#9c9c9c"/>
    <path id="Trazado_657876" data-name="Trazado 657876" d="M16,17h3.32V41.9H16Z" transform="translate(7.262 11.223)" fill="#d9d9d9"/>
    <path id="Trazado_657877" data-name="Trazado 657877" d="M16,22.281,29.281,9v3.32L19.32,22.281Z" transform="translate(7.262 5.941)" fill="#ffac5a"/>
    <path id="Trazado_657878" data-name="Trazado 657878" d="M24,9H60.523v3.32H24Z" transform="translate(12.543 5.941)" fill="#ffac5a"/>
    <path id="Trazado_657879" data-name="Trazado 657879" d="M16,32h3.32V66.863H16Z" transform="translate(7.262 21.125)" fill="#ffac5a"/>
    <path id="Trazado_657880" data-name="Trazado 657880" d="M92.988,16.6H74.727V1.66A1.66,1.66,0,0,0,73.066,0H16.621a1.66,1.66,0,0,0-1.173.486L5.486,10.447A1.66,1.66,0,0,0,5,11.621V87.988a1.66,1.66,0,0,0,1.66,1.66H24.922V104.59a1.66,1.66,0,0,0,1.66,1.66H92.988a1.66,1.66,0,0,0,1.66-1.66V18.262A1.66,1.66,0,0,0,92.988,16.6ZM14.961,5.668V9.961H10.668ZM8.32,86.328V13.281h8.3a1.66,1.66,0,0,0,1.66-1.66V3.32H71.406V16.6H36.543a1.66,1.66,0,0,0-1.173.486l-9.961,9.961a1.66,1.66,0,0,0-.486,1.174V86.328ZM34.883,22.269v4.293H30.59Zm56.445,80.66H28.242V29.883h8.3a1.66,1.66,0,0,0,1.66-1.66v-8.3H91.328Z" transform="translate(0 0)"/>
    <path id="Trazado_657881" data-name="Trazado 657881" d="M15,6h3.32V9.32H15Z" transform="translate(6.602 3.961)"/>
    <path id="Trazado_657882" data-name="Trazado 657882" d="M19,6H58.844V9.32H19Z" transform="translate(9.242 3.961)"/>
    <path id="Trazado_657883" data-name="Trazado 657883" d="M9,10H27.262v3.32H9Z" transform="translate(2.641 6.602)"/>
    <path id="Trazado_657884" data-name="Trazado 657884" d="M75.785,24H22.66A1.66,1.66,0,0,0,21,25.66V55.543a1.66,1.66,0,0,0,1.66,1.66H60.844V68.824a1.66,1.66,0,0,0,1.66,1.66H75.785a1.66,1.66,0,0,0,1.66-1.66V25.66A1.66,1.66,0,0,0,75.785,24Zm-1.66,23.242H64.164v-3.32h9.961Zm0,3.32v3.32H64.164v-3.32ZM60.844,43.922v3.32H24.32v-3.32ZM24.32,40.6v-3.32H60.844V40.6Zm49.8,0H64.164v-3.32h9.961Zm0-6.641H64.164V27.32h9.961ZM60.844,27.32v6.641H24.32V27.32ZM24.32,53.883v-3.32H60.844v3.32ZM64.164,67.164V57.2h9.961v9.961Z" transform="translate(10.563 15.844)"/>
    <path id="Trazado_657885" data-name="Trazado 657885" d="M21,20h3.32v3.32H21Z" transform="translate(10.563 13.203)"/>
    <path id="Trazado_657886" data-name="Trazado 657886" d="M25,20H54.883v3.32H25Z" transform="translate(13.203 13.203)"/>
    <path id="Trazado_657887" data-name="Trazado 657887" d="M21,50h3.32v3.32H21Z" transform="translate(10.563 33.008)"/>
    <path id="Trazado_657888" data-name="Trazado 657888" d="M25,50H54.883v3.32H25Z" transform="translate(13.203 33.008)"/>
    <path id="Trazado_657889" data-name="Trazado 657889" d="M21,54H50.883v3.32H21Z" transform="translate(10.563 35.648)"/>
    <path id="Trazado_657890" data-name="Trazado 657890" d="M21,58h3.32v3.32H21Z" transform="translate(10.563 38.289)"/>
    <path id="Trazado_657891" data-name="Trazado 657891" d="M25,58H74.8v3.32H25Z" transform="translate(13.203 38.289)"/>
    <path id="Trazado_657892" data-name="Trazado 657892" d="M46.66,27.281H59.941a1.66,1.66,0,0,0,1.66-1.66V15.66A1.66,1.66,0,0,0,59.941,14H46.66A1.66,1.66,0,0,0,45,15.66v9.961A1.66,1.66,0,0,0,46.66,27.281Zm1.66-9.961h9.961v6.641H48.32Z" transform="translate(26.406 9.242)"/>
    <path id="Trazado_657893" data-name="Trazado 657893" d="M41,54h3.32v3.32H41Z" transform="translate(23.766 35.648)"/>
    <path id="Trazado_657894" data-name="Trazado 657894" d="M9,17.66v24.9a1.66,1.66,0,0,0,1.66,1.66h9.961V40.9h-8.3V19.32h8.3V16H10.66A1.66,1.66,0,0,0,9,17.66Z" transform="translate(2.641 10.563)"/>
    <path id="Trazado_657895" data-name="Trazado 657895" d="M9,35h3.32v3.32H9Z" transform="translate(2.641 23.105)"/>
    <path id="Trazado_657896" data-name="Trazado 657896" d="M13,35h4.98v3.32H13Z" transform="translate(5.281 23.105)"/>
    <path id="Trazado_657897" data-name="Trazado 657897" d="M9,39H20.621v3.32H9Z" transform="translate(2.641 25.746)"/>
    <path id="Trazado_657898" data-name="Trazado 657898" d="M9,43H20.621v3.32H9Z" transform="translate(2.641 28.387)"/>
  </g>
</svg>
