<svg xmlns="http://www.w3.org/2000/svg" width="190" height="144" viewBox="0 0 190 144">
  <g id="Grupo_949128" data-name="Grupo 949128" transform="translate(-180 -4664)">
    <rect id="Rect치ngulo_336413" data-name="Rect치ngulo 336413" width="190" height="144" transform="translate(180 4664)" fill="#ffebcb"/>
    <g id="travel_Insurance" data-name="travel Insurance" transform="translate(217.5 4676.527)">
      <path id="Trazado_657985" data-name="Trazado 657985" d="M55.484,25.89H26.1a2.1,2.1,0,0,1-2.1-2.1V14.7A7.724,7.724,0,0,1,31.7,7H49.879a7.724,7.724,0,0,1,7.7,7.7v9.088A2.1,2.1,0,0,1,55.484,25.89ZM28.2,21.692H53.385V14.7A3.505,3.505,0,0,0,49.879,11.2H31.7A3.505,3.505,0,0,0,28.2,14.7Z" transform="translate(18.681 0)" fill="#8d8d8d"/>
      <path id="Trazado_657986" data-name="Trazado 657986" d="M22.692,15V88.462h-5.5A9.172,9.172,0,0,1,8,79.268V24.193A9.193,9.193,0,0,1,16.4,15Z" transform="translate(1.099 8.791)" fill="#5b97c4"/>
      <path id="Trazado_657987" data-name="Trazado 657987" d="M16.4,15V69.571A10.5,10.5,0,0,1,8,79.857c0-.336,0,3.211,0-55.663A9.193,9.193,0,0,1,16.4,15Z" transform="translate(1.098 8.791)" fill="#8cbce7"/>
      <path id="Trazado_657988" data-name="Trazado 657988" d="M70.374,15V54.564c-4.618,1.343-1.7.483-12.593,3.589,0,16.938-.945,22.815,3.148,30.308H20V15Z" transform="translate(14.286 8.791)" fill="#5b97c4"/>
      <path id="Trazado_657989" data-name="Trazado 657989" d="M20.049,82.165c-.21,0,0,2.519,0-67.165H64.126V38.088A44.077,44.077,0,0,1,20.049,82.165Z" transform="translate(14.237 8.791)" fill="#8cbce7"/>
      <path id="Trazado_657990" data-name="Trazado 657990" d="M63.692,24.193v33.96L49,53.956V15h5.541a9.172,9.172,0,0,1,9.151,9.193Z" transform="translate(46.154 8.791)" fill="#5b97c4"/>
      <path id="Trazado_657991" data-name="Trazado 657991" d="M57.4,15.47V42.294a8.4,8.4,0,0,1-8.4,8.4V15.008C54.646,15.008,55.528,14.861,57.4,15.47Z" transform="translate(46.154 8.783)" fill="#8cbce7"/>
      <path id="Trazado_657992" data-name="Trazado 657992" d="M54.495,16.1V55.076C49.226,53.564,51.7,53.459,44,55.663V16.1A2.1,2.1,0,0,1,46.1,14h6.3a2.1,2.1,0,0,1,2.1,2.1Z" transform="translate(40.659 7.692)" fill="silver"/>
      <path id="Trazado_657993" data-name="Trazado 657993" d="M75.841,38.373c0,18.554.378,20.779-1.133,25.5a25.838,25.838,0,0,1-17.757,17.4,25.963,25.963,0,0,1-8.522-4.2,26.32,26.32,0,0,1-7.22-8.4c-4.2-7.724-3.148-13.664-3.148-30.308L56.951,33Z" transform="translate(34.005 28.571)" fill="#f79341"/>
      <path id="Trazado_657994" data-name="Trazado 657994" d="M69.553,36.589v13.5a25.9,25.9,0,0,1-18.89,24.893A26.005,26.005,0,0,1,42.75,71.2c-6.045-8.668-4.681-15.763-4.681-32.827L56.959,33Z" transform="translate(33.997 28.571)" fill="#ffb248"/>
      <rect id="Rect치ngulo_336412" data-name="Rect치ngulo 336412" width="10" height="77" rx="1" transform="translate(24 22)" fill="silver"/>
      <g id="Grupo_949125" data-name="Grupo 949125" transform="translate(7 19.531)">
        <path id="Trazado_657995" data-name="Trazado 657995" d="M106.488,16.769a2.1,2.1,0,0,0-2.1,3.61,6.968,6.968,0,0,1,3.358,6.045v31.19l-10.495-3V19.33a2.1,2.1,0,0,0,0-4.2h-.588a4.2,4.2,0,0,0-3.61-2.1c-5.814,0-8.4-.63-9.907,2.1H35.8a4.2,4.2,0,0,0-3.61-2.1c-5.814,0-8.4-.63-9.907,2.1H18.292A11.292,11.292,0,0,0,7,26.424v7.6a2.1,2.1,0,0,0,4.2,0v-7.6a7.115,7.115,0,0,1,7.094-7.094h3.4V88.593h-3.4A7.115,7.115,0,0,1,11.2,81.5V42.418a2.1,2.1,0,1,0-4.2,0V81.5A11.292,11.292,0,0,0,18.292,92.791h3.4a2.1,2.1,0,0,0,2.1,2.1H34.286a2.1,2.1,0,0,0,2.1-2.1H74A28.356,28.356,0,0,0,78.552,98.5a26.992,26.992,0,0,0,12.4,6.884,27.664,27.664,0,0,0,19.751-18.89A36.6,36.6,0,0,0,111.945,73.9a2.1,2.1,0,0,0-4.2,0A33.436,33.436,0,0,1,106.7,85.277a23.76,23.76,0,0,1-15.742,15.91A23.927,23.927,0,0,1,77.061,89.769c-3.82-7.052-2.9-12.048-2.9-27.81L90.956,57.11,107.747,61.9v3.61a2.1,2.1,0,0,0,4.2,0V26.424a11.25,11.25,0,0,0-5.457-9.655Zm-70.1,71.824V84.4a2.1,2.1,0,1,0-4.2,0v6.3h-6.3V17.231h6.3V76a2.1,2.1,0,1,0,4.2,0V19.33H82.56V55.221L71.5,58.369a2.1,2.1,0,0,0-1.532,2.1c0,18.89-.525,21.976,1.931,28.209ZM86.758,54.024V17.231h6.3V53.416C90.452,52.681,91.586,52.66,86.758,54.024Z" transform="translate(-7 -12.97)" fill="#2b2b4c"/>
        <path id="Trazado_657996" data-name="Trazado 657996" d="M58.855,41.613l-9,9.025L46.094,46.86a2.107,2.107,0,0,0-2.98,2.98C48.78,55.508,48.7,55.7,49.851,55.7s.735.126,11.985-11.1a2.107,2.107,0,1,0-2.98-2.98Z" transform="translate(32.007 17.828)" fill="#2b2b4c"/>
      </g>
    </g>
  </g>
</svg>
