<svg xmlns="http://www.w3.org/2000/svg" width="112" height="112" viewBox="0 0 112 112">
  <g id="Grupo_948524" data-name="Grupo 948524" transform="translate(6843 4656)">
    <rect id="Rectángulo_336257" data-name="Rectángulo 336257" width="112" height="112" transform="translate(-6843 -4656)" fill="#fff8ed"/>
    <g id="objetivo" transform="translate(-6818.594 -4631.653)">
      <g id="Grupo_948482" data-name="Grupo 948482">
        <g id="Grupo_948470" data-name="Grupo 948470" transform="translate(1.322 8.247)">
          <g id="Grupo_948469" data-name="Grupo 948469" transform="translate(0 0)">
            <ellipse id="Elipse_7617" data-name="Elipse 7617" cx="26.901" cy="26.9" rx="26.901" ry="26.9" transform="translate(0 0.054) rotate(-0.057)" fill="#e5ecec"/>
          </g>
        </g>
        <g id="Grupo_948472" data-name="Grupo 948472" transform="translate(7.872 14.787)">
          <g id="Grupo_948471" data-name="Grupo 948471">
            <path id="Trazado_656101" data-name="Trazado 656101" d="M84.053,160.361a20.375,20.375,0,0,1-12.391-36.556q.205-.158.415-.311a20.38,20.38,0,1,1,11.976,36.866Z" transform="translate(-63.67 -119.597)" fill="#f5737f"/>
          </g>
        </g>
        <g id="Grupo_948473" data-name="Grupo 948473" transform="translate(7.872 14.787)">
          <path id="Trazado_656102" data-name="Trazado 656102" d="M77.146,120.8a20.419,20.419,0,1,1-9.563,7.182" transform="translate(-63.67 -119.597)" fill="#ffb338"/>
        </g>
        <g id="Grupo_948476" data-name="Grupo 948476">
          <g id="Grupo_948474" data-name="Grupo 948474">
            <path id="Trazado_656103" data-name="Trazado 656103" fill="#f5737f"/>
          </g>
          <g id="Grupo_948475" data-name="Grupo 948475" transform="translate(15.045 17.452)">
            <path id="Trazado_656104" data-name="Trazado 656104" d="M122.915,143.616a1.236,1.236,0,1,1,1.213-.994A1.246,1.246,0,0,1,122.915,143.616Z" transform="translate(-121.681 -141.147)"/>
          </g>
        </g>
        <g id="Grupo_948478" data-name="Grupo 948478" transform="translate(14.356 21.269)">
          <g id="Grupo_948477" data-name="Grupo 948477" transform="translate(0)">
            <ellipse id="Elipse_7618" data-name="Elipse 7618" cx="13.865" cy="13.865" rx="13.865" ry="13.865" transform="translate(0 27.73) rotate(-89.885)" fill="#e5ecec"/>
          </g>
        </g>
        <g id="Grupo_948480" data-name="Grupo 948480" transform="translate(37.641 42.842)">
          <g id="Grupo_948479" data-name="Grupo 948479">
            <path id="Trazado_656105" data-name="Trazado 656105" d="M305.663,348.963a1.236,1.236,0,1,1,1.221-1.043A1.248,1.248,0,0,1,305.663,348.963Z" transform="translate(-304.427 -346.494)"/>
          </g>
        </g>
        <g id="Grupo_948481" data-name="Grupo 948481" transform="translate(20.873 27.786)">
          <ellipse id="Elipse_7619" data-name="Elipse 7619" cx="7.347" cy="7.348" rx="7.347" ry="7.348" transform="translate(0 14.695) rotate(-89.771)" fill="#f5737f"/>
        </g>
      </g>
      <g id="Grupo_948486" data-name="Grupo 948486" transform="translate(0.118 0)">
        <g id="Grupo_948483" data-name="Grupo 948483" transform="translate(46.965 1.236)">
          <path id="Trazado_656106" data-name="Trazado 656106" d="M387.281,10l-5.388,5.388A3.744,3.744,0,0,0,380.8,17.9l.122,6.858,6.944-6.955Z" transform="translate(-380.799 -10.001)" fill="#ffcb7c"/>
        </g>
        <g id="Grupo_948485" data-name="Grupo 948485">
          <g id="Grupo_948484" data-name="Grupo 948484" transform="translate(47.087 9.038)">
            <path id="Trazado_656107" data-name="Trazado 656107" d="M396.531,73.681l-7.8-.584-6.944,6.955,6.847.111a3.744,3.744,0,0,0,2.511-1.094Z" transform="translate(-381.785 -73.097)" fill="#ffd89e"/>
          </g>
          <path id="Trazado_656108" data-name="Trazado 656108" d="M63.948,9.192a1.236,1.236,0,0,0-1.067-.8l-6.741-.5-.5-6.74A1.236,1.236,0,0,0,53.529.363L48.141,5.75a4.964,4.964,0,0,0-1.455,3.34q0,.034,0,.067l.073,4.128a28.166,28.166,0,1,0,4.032,3.989l4.08.066h.065a4.965,4.965,0,0,0,3.34-1.455L63.663,10.5a1.236,1.236,0,0,0,.285-1.3ZM49.89,7.5l3.482-3.482.34,4.548-4.484,4.491L49.158,9.15A2.5,2.5,0,0,1,49.89,7.5Zm-20.8,53.334A25.663,25.663,0,1,1,46.217,16.071l-2.864,2.864a21.6,21.6,0,0,0-21.587-4.1,1.236,1.236,0,0,0,.84,2.326,19.13,19.13,0,0,1,19,3.53l-2.869,2.868a15.1,15.1,0,1,0-2.778,25.067,1.236,1.236,0,1,0-1.127-2.2A12.466,12.466,0,0,1,29.093,47.8a12.628,12.628,0,1,1,7.883-22.487L34.092,28.2a8.595,8.595,0,1,0,1.782,1.716l2.874-2.874a12.616,12.616,0,0,1,2.336,12.1,1.237,1.237,0,0,0,2.347.78A15.089,15.089,0,0,0,40.5,25.284l2.864-2.864A19.146,19.146,0,1,1,13.622,23.9a1.236,1.236,0,0,0-2-1.458,21.621,21.621,0,1,0,33.49-1.775l2.861-2.861A25.65,25.65,0,0,1,29.094,60.833ZM35.2,35.17a6.116,6.116,0,1,1-2.894-5.193L28.366,33.92a1.236,1.236,0,1,0,1.749,1.749l3.991-3.99A6.076,6.076,0,0,1,35.2,35.17ZM56.527,14.136a2.5,2.5,0,0,1-1.652.731L50.981,14.8l2.375-2.375c.026-.026.051-.054.075-.082l2.03-2.033,4.547.34Z" transform="translate(-0.956 -0.001)"/>
        </g>
      </g>
    </g>
  </g>
</svg>
