<svg xmlns="http://www.w3.org/2000/svg" width="167" height="167" viewBox="0 0 167 167">
  <g id="Grupo_947882" data-name="Grupo 947882" transform="translate(7076 10173)">
    <rect id="Rectángulo_336212" data-name="Rectángulo 336212" width="167" height="167" transform="translate(-7076 -10173)" fill="none"/>
    <g id="piramide-de-maslow" transform="translate(-7058.355 -10174.123)">
      <g id="Grupo_947881" data-name="Grupo 947881" transform="translate(1.873 27.137)">
        <path id="Trazado_655849" data-name="Trazado 655849" d="M56.458,40.32,9.551,121.565a15.143,15.143,0,0,0,13.114,22.714h93.814a15.143,15.143,0,0,0,13.114-22.714L82.686,40.32a15.143,15.143,0,0,0-26.228,0Z" transform="translate(-7.5 -32.748)" fill="#edf8f8"/>
        <path id="Trazado_655850" data-name="Trazado 655850" d="M289.836,144.283h-8.705a15.142,15.142,0,0,0,13.114-22.713L247.34,40.323a14.941,14.941,0,0,0-8.763-6.943,15.113,15.113,0,0,1,17.465,6.943L302.95,121.57a15.142,15.142,0,0,1-13.114,22.713Z" transform="translate(-180.856 -32.752)" fill="#dbf0f4"/>
        <g id="Grupo_947876" data-name="Grupo 947876" transform="translate(16.159 87.71)">
          <g id="Grupo_947868" data-name="Grupo 947868">
            <path id="Trazado_655851" data-name="Trazado 655851" d="M92.6,448.6a10.2,10.2,0,1,0-20.406,0Z" transform="translate(-72.191 -424.78)" fill="#b2e4a0"/>
            <path id="Trazado_655852" data-name="Trazado 655852" d="M86.136,439.1a10.209,10.209,0,0,0-6.461,9.5H72.191a10.209,10.209,0,0,1,13.945-9.5Z" transform="translate(-72.191 -424.776)" fill="#93d5a3"/>
            <circle id="Elipse_7597" data-name="Elipse 7597" cx="7.487" cy="7.487" r="7.487" transform="translate(2.716 0.001)" fill="#ffddce"/>
            <path id="Trazado_655853" data-name="Trazado 655853" d="M93.317,398.331a7.487,7.487,0,1,1,0-13.915,7.486,7.486,0,0,0,0,13.915Z" transform="translate(-80.349 -383.886)" fill="#ffcbbe"/>
          </g>
          <g id="Grupo_947869" data-name="Grupo 947869" transform="translate(10.201 0)">
            <path id="Trazado_655854" data-name="Trazado 655854" d="M133.438,448.6a10.2,10.2,0,1,0-20.406,0Z" transform="translate(-113.032 -424.781)" fill="#b2e4a0"/>
            <path id="Trazado_655855" data-name="Trazado 655855" d="M126.976,439.1a10.209,10.209,0,0,0-6.461,9.5h-7.485a10.209,10.209,0,0,1,13.945-9.5Z" transform="translate(-113.031 -424.776)" fill="#93d5a3"/>
            <circle id="Elipse_7598" data-name="Elipse 7598" cx="7.487" cy="7.487" r="7.487" transform="translate(2.716 0.001)" fill="#ffddce"/>
            <path id="Trazado_655856" data-name="Trazado 655856" d="M134.158,398.332a7.487,7.487,0,1,1,0-13.915,7.486,7.486,0,0,0,0,13.915Z" transform="translate(-121.19 -383.887)" fill="#ffcbbe"/>
          </g>
          <g id="Grupo_947870" data-name="Grupo 947870" transform="translate(20.404 0)">
            <path id="Trazado_655857" data-name="Trazado 655857" d="M174.284,448.6a10.2,10.2,0,1,0-20.406,0Z" transform="translate(-153.878 -424.781)" fill="#b2e4a0"/>
            <path id="Trazado_655858" data-name="Trazado 655858" d="M167.822,439.1a10.209,10.209,0,0,0-6.461,9.5h-7.485a10.209,10.209,0,0,1,13.945-9.5Z" transform="translate(-153.877 -424.776)" fill="#93d5a3"/>
            <circle id="Elipse_7599" data-name="Elipse 7599" cx="7.487" cy="7.487" r="7.487" transform="translate(2.716 0.001)" fill="#ffddce"/>
            <path id="Trazado_655859" data-name="Trazado 655859" d="M175,398.332a7.487,7.487,0,1,1,0-13.915,7.486,7.486,0,0,0,0,13.915Z" transform="translate(-162.036 -383.887)" fill="#ffcbbe"/>
          </g>
          <g id="Grupo_947871" data-name="Grupo 947871" transform="translate(30.605)">
            <path id="Trazado_655860" data-name="Trazado 655860" d="M215.122,448.6a10.2,10.2,0,1,0-20.406,0Z" transform="translate(-194.716 -424.78)" fill="#b2e4a0"/>
            <path id="Trazado_655861" data-name="Trazado 655861" d="M208.66,439.1a10.209,10.209,0,0,0-6.461,9.5h-7.485a10.209,10.209,0,0,1,13.945-9.5Z" transform="translate(-194.715 -424.776)" fill="#93d5a3"/>
            <circle id="Elipse_7600" data-name="Elipse 7600" cx="7.487" cy="7.487" r="7.487" transform="translate(2.716 0.001)" fill="#ffddce"/>
            <path id="Trazado_655862" data-name="Trazado 655862" d="M215.841,398.331a7.487,7.487,0,1,1,0-13.915,7.486,7.486,0,0,0,0,13.915Z" transform="translate(-202.873 -383.886)" fill="#ffcbbe"/>
          </g>
          <g id="Grupo_947875" data-name="Grupo 947875" transform="translate(40.81 0)">
            <g id="Grupo_947872" data-name="Grupo 947872">
              <path id="Trazado_655863" data-name="Trazado 655863" d="M255.976,448.6a10.2,10.2,0,1,0-20.406,0Z" transform="translate(-235.57 -424.781)" fill="#b2e4a0"/>
              <path id="Trazado_655864" data-name="Trazado 655864" d="M249.515,439.1a10.209,10.209,0,0,0-6.461,9.5H235.57a10.209,10.209,0,0,1,13.945-9.5Z" transform="translate(-235.57 -424.776)" fill="#93d5a3"/>
              <circle id="Elipse_7601" data-name="Elipse 7601" cx="7.487" cy="7.487" r="7.487" transform="translate(2.716 0.001)" fill="#ffddce"/>
              <path id="Trazado_655865" data-name="Trazado 655865" d="M256.7,398.332a7.487,7.487,0,1,1,0-13.915,7.486,7.486,0,0,0,0,13.915Z" transform="translate(-243.728 -383.887)" fill="#ffcbbe"/>
            </g>
            <g id="Grupo_947873" data-name="Grupo 947873" transform="translate(10.204)">
              <path id="Trazado_655866" data-name="Trazado 655866" d="M296.828,448.6a10.2,10.2,0,0,0-20.406,0Z" transform="translate(-276.422 -424.781)" fill="#b2e4a0"/>
              <path id="Trazado_655867" data-name="Trazado 655867" d="M290.367,439.1a10.209,10.209,0,0,0-6.461,9.5h-7.485a10.209,10.209,0,0,1,13.945-9.5Z" transform="translate(-276.422 -424.776)" fill="#93d5a3"/>
              <circle id="Elipse_7602" data-name="Elipse 7602" cx="7.487" cy="7.487" r="7.487" transform="translate(2.716 0.001)" fill="#ffddce"/>
              <path id="Trazado_655868" data-name="Trazado 655868" d="M297.548,398.332a7.487,7.487,0,1,1,0-13.915,7.486,7.486,0,0,0,0,13.915Z" transform="translate(-284.58 -383.887)" fill="#ffcbbe"/>
            </g>
            <g id="Grupo_947874" data-name="Grupo 947874" transform="translate(20.407)">
              <path id="Trazado_655869" data-name="Trazado 655869" d="M337.674,448.6a10.2,10.2,0,0,0-20.406,0Z" transform="translate(-317.268 -424.781)" fill="#b2e4a0"/>
              <path id="Trazado_655870" data-name="Trazado 655870" d="M331.213,439.1a10.209,10.209,0,0,0-6.461,9.5h-7.485a10.209,10.209,0,0,1,13.945-9.5Z" transform="translate(-317.268 -424.776)" fill="#93d5a3"/>
              <circle id="Elipse_7603" data-name="Elipse 7603" cx="7.487" cy="7.487" r="7.487" transform="translate(2.716 0.001)" fill="#ffddce"/>
              <path id="Trazado_655871" data-name="Trazado 655871" d="M338.394,398.332a7.487,7.487,0,1,1,0-13.915,7.486,7.486,0,0,0,0,13.915Z" transform="translate(-325.426 -383.887)" fill="#ffcbbe"/>
            </g>
            <path id="Trazado_655872" data-name="Trazado 655872" d="M378.52,448.6a10.2,10.2,0,0,0-20.406,0Z" transform="translate(-327.504 -424.781)" fill="#b2e4a0"/>
            <path id="Trazado_655873" data-name="Trazado 655873" d="M372.059,439.1a10.209,10.209,0,0,0-6.461,9.5h-7.485a10.209,10.209,0,0,1,13.945-9.5Z" transform="translate(-327.504 -424.776)" fill="#93d5a3"/>
            <circle id="Elipse_7604" data-name="Elipse 7604" cx="7.487" cy="7.487" r="7.487" transform="translate(33.326 0.001)" fill="#ffddce"/>
            <path id="Trazado_655874" data-name="Trazado 655874" d="M379.24,398.332a7.487,7.487,0,1,1,0-13.915,7.486,7.486,0,0,0,0,13.915Z" transform="translate(-335.662 -383.887)" fill="#ffcbbe"/>
          </g>
        </g>
        <g id="Grupo_947879" data-name="Grupo 947879" transform="translate(33.517 50.535)">
          <g id="Grupo_947877" data-name="Grupo 947877">
            <path id="Trazado_655875" data-name="Trazado 655875" d="M162.086,299.771a10.2,10.2,0,1,0-20.406,0Z" transform="translate(-141.68 -275.952)" fill="#dd636e"/>
            <path id="Trazado_655876" data-name="Trazado 655876" d="M155.625,290.27a10.209,10.209,0,0,0-6.461,9.5H141.68a10.209,10.209,0,0,1,13.945-9.5Z" transform="translate(-141.68 -275.947)" fill="#da4a54"/>
            <circle id="Elipse_7605" data-name="Elipse 7605" cx="7.487" cy="7.487" r="7.487" transform="translate(2.716 0.001)" fill="#ffddce"/>
            <path id="Trazado_655877" data-name="Trazado 655877" d="M162.806,249.5a7.487,7.487,0,1,1,0-13.915,7.486,7.486,0,0,0,0,13.915Z" transform="translate(-149.838 -235.058)" fill="#ffcbbe"/>
          </g>
          <g id="Grupo_947878" data-name="Grupo 947878" transform="translate(36.705)">
            <path id="Trazado_655878" data-name="Trazado 655878" d="M309.032,299.771a10.2,10.2,0,0,0-20.406,0Z" transform="translate(-288.626 -275.952)" fill="#dd636e"/>
            <path id="Trazado_655879" data-name="Trazado 655879" d="M302.57,290.27a10.209,10.209,0,0,0-6.461,9.5h-7.485a10.209,10.209,0,0,1,13.945-9.5Z" transform="translate(-288.625 -275.947)" fill="#da4a54"/>
            <circle id="Elipse_7606" data-name="Elipse 7606" cx="7.487" cy="7.487" r="7.487" transform="translate(2.716 0.001)" fill="#ffddce"/>
            <path id="Trazado_655880" data-name="Trazado 655880" d="M309.751,249.5a7.487,7.487,0,1,1,0-13.915,7.486,7.486,0,0,0,0,13.915Z" transform="translate(-296.783 -235.058)" fill="#ffcbbe"/>
          </g>
        </g>
        <g id="Grupo_947880" data-name="Grupo 947880" transform="translate(51.869 13.356)">
          <path id="Trazado_655881" data-name="Trazado 655881" d="M235.559,150.932a10.2,10.2,0,1,0-20.406,0Z" transform="translate(-215.153 -127.113)" fill="#8b808f"/>
          <path id="Trazado_655882" data-name="Trazado 655882" d="M229.1,141.431a10.209,10.209,0,0,0-6.461,9.5h-7.485a10.209,10.209,0,0,1,13.945-9.5Z" transform="translate(-215.152 -127.108)" fill="#766c78"/>
          <circle id="Elipse_7607" data-name="Elipse 7607" cx="7.487" cy="7.487" r="7.487" transform="translate(2.716 0.001)" fill="#ffddce"/>
          <path id="Trazado_655883" data-name="Trazado 655883" d="M236.278,100.664a7.487,7.487,0,1,1,0-13.915,7.486,7.486,0,0,0,0,13.915Z" transform="translate(-223.31 -86.219)" fill="#ffcbbe"/>
        </g>
      </g>
      <path id="Trazado_655884" data-name="Trazado 655884" d="M125.586,115.015,85.45,45.5a1.873,1.873,0,0,0-3.245,1.873l8.7,15.069H75.874a12.1,12.1,0,0,0-5.088-8.079,9.359,9.359,0,1,0-13.68,0,12.1,12.1,0,0,0-5.088,8.079H36.986L52.455,35.648a13.269,13.269,0,0,1,22.982,0l3.022,5.235A1.873,1.873,0,1,0,81.7,39.01l-3.022-5.235a17.016,17.016,0,0,0-29.471,0l-46.9,81.24a17.015,17.015,0,0,0,14.735,25.522H110.85a17.016,17.016,0,0,0,14.736-25.522ZM63.945,42.37a5.613,5.613,0,1,1-5.613,5.613,5.619,5.619,0,0,1,5.613-5.613ZM60.559,56.706a9.324,9.324,0,0,0,6.772,0,8.337,8.337,0,0,1,4.729,5.735H55.831a8.336,8.336,0,0,1,4.729-5.735Zm32.509,9.482,19.3,33.429H94.225a12.1,12.1,0,0,0-5.088-8.079,9.36,9.36,0,1,0-13.68,0,12.1,12.1,0,0,0-5.088,8.079H57.521a12.1,12.1,0,0,0-5.088-8.079,9.359,9.359,0,1,0-13.68,0,12.1,12.1,0,0,0-5.088,8.079H15.522l19.3-33.429ZM82.3,90.771a5.613,5.613,0,1,1,5.613-5.613A5.619,5.619,0,0,1,82.3,90.771Zm-3.386,3.11a9.326,9.326,0,0,0,6.772,0,8.338,8.338,0,0,1,4.729,5.735H74.182A8.338,8.338,0,0,1,78.911,93.881Zm-33.317-3.11a5.613,5.613,0,1,1,5.613-5.613A5.619,5.619,0,0,1,45.594,90.771Zm-3.386,3.11a9.325,9.325,0,0,0,6.772,0,8.337,8.337,0,0,1,4.729,5.735H37.479a8.338,8.338,0,0,1,4.729-5.735Zm-7.155,37.173a9.308,9.308,0,0,0,3.386.636c.117,0,.234,0,.35-.008a12.082,12.082,0,0,0-2.076,5.106H30.325a8.336,8.336,0,0,1,4.728-5.735Zm20.4,0a9.308,9.308,0,0,0,3.386.636c.118,0,.235,0,.353-.008a12.08,12.08,0,0,0-2.076,5.107H50.727a8.337,8.337,0,0,1,4.728-5.735Zm32.27,5.735H81.337a8.336,8.336,0,0,1,4.728-5.735,9.308,9.308,0,0,0,3.386.636c.117,0,.234,0,.35-.008A12.077,12.077,0,0,0,87.725,136.789Zm-10.2,0H71.135a8.337,8.337,0,0,1,4.728-5.735,9.307,9.307,0,0,0,3.386.636c.117,0,.234,0,.351-.008A12.074,12.074,0,0,0,77.524,136.789Zm-10.2,0h-6.39a8.337,8.337,0,0,1,4.728-5.735,9.307,9.307,0,0,0,3.386.636c.118,0,.235,0,.352-.008A12.073,12.073,0,0,0,67.322,136.789Zm32.331,0H91.539a8.336,8.336,0,0,1,4.729-5.734,9.325,9.325,0,0,0,6.772,0,8.336,8.336,0,0,1,4.729,5.735Zm0-8.845a5.613,5.613,0,1,1,5.613-5.613A5.619,5.619,0,0,1,99.653,127.944ZM91.8,127.42a5.612,5.612,0,1,1,0-10.177,9.326,9.326,0,0,0,0,10.177Zm-10.2,0a5.612,5.612,0,1,1,0-10.177,9.325,9.325,0,0,0,0,10.177Zm-10.2,0a5.612,5.612,0,1,1,0-10.176,9.326,9.326,0,0,0,0,10.176Zm-10.2,0a5.612,5.612,0,1,1,0-10.176,9.326,9.326,0,0,0,0,10.176Zm-14.282,9.369H40.527a8.336,8.336,0,0,1,4.729-5.735,9.315,9.315,0,0,0,3.387.636c.116,0,.232,0,.348-.008a12.08,12.08,0,0,0-2.077,5.107Zm-6.122-9.369a5.612,5.612,0,1,1,0-10.177,9.323,9.323,0,0,0,0,10.177Zm-10.2,0a5.612,5.612,0,1,1,0-10.178,9.326,9.326,0,0,0,0,10.178Zm-5.738,3.633a9.31,9.31,0,0,0,3.387.636c.117,0,.233,0,.349-.008a12.079,12.079,0,0,0-2.076,5.107H20.124A8.336,8.336,0,0,1,24.852,131.054Zm97.488-.9a13.119,13.119,0,0,1-10.762,6.614,12.1,12.1,0,0,0-5.085-8.059,9.353,9.353,0,0,0-11.94-14.221,9.334,9.334,0,0,0-10.2,0,9.333,9.333,0,0,0-10.2,0,9.333,9.333,0,0,0-10.2,0,9.334,9.334,0,0,0-10.2,0c-.186-.121-.375-.237-.568-.344a1.873,1.873,0,0,0-2.146,3.042,9.328,9.328,0,0,0-.035,10.232,5.609,5.609,0,0,1-5.071-10,1.873,1.873,0,0,0-1.816-3.277q-.291.161-.567.342a9.334,9.334,0,0,0-10.2,0A9.353,9.353,0,0,0,21.4,128.71a12.1,12.1,0,0,0-5.084,8.059A13.268,13.268,0,0,1,5.551,116.888l7.809-13.525H114.532l7.809,13.525a13.133,13.133,0,0,1,0,13.267Z" transform="translate(0 0)"/>
    </g>
  </g>
</svg>
