<svg xmlns="http://www.w3.org/2000/svg" width="137" height="137" viewBox="0 0 137 137">
  <g id="Grupo_948583" data-name="Grupo 948583" transform="translate(-1093 -5151)">
    <g id="Elipse_7640" data-name="Elipse 7640" transform="translate(1093 5151)" fill="#c9ecff" stroke="#0387d0" stroke-width="1">
      <circle cx="68.5" cy="68.5" r="68.5" stroke="none"/>
      <circle cx="68.5" cy="68.5" r="68" fill="none"/>
    </g>
    <g id="adjunto-archivo" transform="translate(1104.527 5182)">
      <g id="Grupo_948577" data-name="Grupo 948577" transform="translate(24.564 1.092)">
        <path id="Trazado_656324" data-name="Trazado 656324" d="M176.94,58.3H140.288a1.95,1.95,0,0,1-1.95-1.95V9.45a1.95,1.95,0,0,1,1.95-1.95H176.94a1.95,1.95,0,0,1,1.95,1.95v46.9A1.95,1.95,0,0,1,176.94,58.3Z" transform="translate(-122.71 -7.5)" fill="#c8effe"/>
        <path id="Trazado_656325" data-name="Trazado 656325" d="M384.88,9.45v46.9a1.951,1.951,0,0,1-1.951,1.95H379.42a1.951,1.951,0,0,0,1.951-1.95V9.45A1.951,1.951,0,0,0,379.42,7.5h3.509a1.951,1.951,0,0,1,1.951,1.95Z" transform="translate(-328.7 -7.5)" fill="#99e6fc"/>
        <path id="Trazado_656326" data-name="Trazado 656326" d="M102.135,101.982H65.483a1.95,1.95,0,0,1-1.95-1.95v-46.9a1.95,1.95,0,0,1,1.95-1.95h36.652a1.95,1.95,0,0,1,1.95,1.95v46.9A1.95,1.95,0,0,1,102.135,101.982Z" transform="translate(-58.793 -44.821)" fill="#eaf6ff"/>
        <path id="Trazado_656327" data-name="Trazado 656327" d="M310.5,53.129v46.9a1.951,1.951,0,0,1-1.951,1.951H305.11a1.951,1.951,0,0,0,1.951-1.951v-46.9a1.95,1.95,0,0,0-1.951-1.949h3.438A1.95,1.95,0,0,1,310.5,53.129Z" transform="translate(-265.206 -44.822)" fill="#c8effe"/>
        <path id="Trazado_656328" data-name="Trazado 656328" d="M91.889,168.1v37.3a4.971,4.971,0,0,1-4.971,4.971H35.942A4.971,4.971,0,0,1,30.97,205.4V176.8a4.971,4.971,0,0,1,4.972-4.971H58.786a4.781,4.781,0,0,0,4.338-2.771l.916-1.975a4.781,4.781,0,0,1,4.338-2.771H88.1A3.788,3.788,0,0,1,91.889,168.1Z" transform="translate(-30.97 -141.485)" fill="#ffd15b"/>
        <path id="Trazado_656329" data-name="Trazado 656329" d="M399.138,168.1v37.3a4.971,4.971,0,0,1-4.971,4.971H390.56a4.971,4.971,0,0,0,4.971-4.971V168.1a3.788,3.788,0,0,0-3.787-3.789h3.605A3.788,3.788,0,0,1,399.138,168.1Z" transform="translate(-338.218 -141.485)" fill="#feb137"/>
        <path id="Trazado_656330" data-name="Trazado 656330" d="M269.869,290.19v20.323a4.971,4.971,0,0,1-4.971,4.971H239.937a6.245,6.245,0,0,1-.667-2.817V293.6a6.274,6.274,0,0,1,6.274-6.274h19.062a6.264,6.264,0,0,1,5.263,2.86Z" transform="translate(-208.95 -246.598)" fill="#feb137"/>
        <path id="Trazado_656331" data-name="Trazado 656331" d="M289.2,318.944H270.134a6.274,6.274,0,0,1-6.274-6.274V293.607a6.274,6.274,0,0,1,6.274-6.274H289.2a6.274,6.274,0,0,1,6.274,6.274V312.67a6.274,6.274,0,0,1-6.274,6.274Z" transform="translate(-229.961 -246.601)" fill="#0593fc"/>
        <path id="Trazado_656332" data-name="Trazado 656332" d="M416.914,287.333h-3.58a6.274,6.274,0,0,1,6.274,6.274V312.67a6.274,6.274,0,0,1-6.274,6.274h3.58a6.274,6.274,0,0,0,6.274-6.274V293.607A6.274,6.274,0,0,0,416.914,287.333Z" transform="translate(-357.677 -246.601)" fill="#0181fa"/>
        <path id="Trazado_656333" data-name="Trazado 656333" d="M330.54,336.888l-5.661,7.055a2.871,2.871,0,0,1-4.478,0l-5.661-7.055a2.681,2.681,0,0,1,2.078-4.333h2.2v-7.009a1.433,1.433,0,0,1,1.433-1.433h4.387a1.433,1.433,0,0,1,1.433,1.433v7.009h2.2A2.681,2.681,0,0,1,330.54,336.888Z" transform="translate(-272.935 -278.028)" fill="#c8effe"/>
        <path id="Trazado_656334" data-name="Trazado 656334" d="M365.357,336.888l-5.661,7.055a2.871,2.871,0,0,1-4.478,0l-.314-.391a2.854,2.854,0,0,0,2.3-1.071l4.569-5.593a2.681,2.681,0,0,0-2.078-4.333h-.959a1.237,1.237,0,0,1-1.237-1.237v-5.772a1.433,1.433,0,0,0-1.433-1.433h3.58a1.433,1.433,0,0,1,1.433,1.433v7.009h2.2A2.681,2.681,0,0,1,365.357,336.888Z" transform="translate(-307.752 -278.028)" fill="#99e6fc"/>
        <path id="Trazado_656335" data-name="Trazado 656335" d="M92.65,293.286H76.857a1.8,1.8,0,0,1-1.8-1.8v-2.352a1.8,1.8,0,0,1,1.8-1.8H92.65a1.8,1.8,0,0,1,1.8,1.8v2.352A1.8,1.8,0,0,1,92.65,293.286Z" transform="translate(-68.639 -246.601)" fill="#eaf6ff"/>
        <path id="Trazado_656336" data-name="Trazado 656336" d="M180.727,289.131v2.352a1.8,1.8,0,0,1-1.8,1.8h-2.9a1.8,1.8,0,0,0,1.8-1.8v-2.352a1.8,1.8,0,0,0-1.8-1.8h2.9A1.8,1.8,0,0,1,180.727,289.131Z" transform="translate(-154.915 -246.598)" fill="#c8effe"/>
        <path id="Trazado_656337" data-name="Trazado 656337" d="M113.084,96.353h-6.957a1.985,1.985,0,1,1,0-3.97h6.957a1.985,1.985,0,1,1,0,3.97Z" transform="translate(-93.491 -80.027)" fill="#0593fc"/>
        <path id="Trazado_656338" data-name="Trazado 656338" d="M150.236,94.365a1.985,1.985,0,0,1-1.984,1.985H145.3a1.985,1.985,0,1,0,0-3.971h2.952A1.985,1.985,0,0,1,150.236,94.365Z" transform="translate(-128.658 -80.025)" fill="#0181fa"/>
      </g>
      <g id="Grupo_948578" data-name="Grupo 948578" transform="translate(23.473 0)">
        <path id="Trazado_656339" data-name="Trazado 656339" d="M86.575,41.277V27.705a4.886,4.886,0,0,0-4.88-4.88H70.948V9.4a3.045,3.045,0,0,0-3.042-3.042H41.284V3.042a.859.859,0,0,1,.858-.858H78.794a.859.859,0,0,1,.858.858V18.771a1.092,1.092,0,1,0,2.183,0V3.042A3.045,3.045,0,0,0,78.794,0H42.142A3.045,3.045,0,0,0,39.1,3.042V6.358H31.254A3.045,3.045,0,0,0,28.212,9.4V30.49a6.072,6.072,0,0,0-4.739,5.916v28.6a6.07,6.07,0,0,0,6.063,6.063H53.627a1.092,1.092,0,1,0,0-2.183H29.536a3.884,3.884,0,0,1-3.88-3.88v-28.6a3.884,3.884,0,0,1,3.879-3.88H52.38a5.891,5.891,0,0,0,5.328-3.4l.916-1.976a3.7,3.7,0,0,1,3.347-2.138H81.7a2.7,2.7,0,0,1,2.7,2.7V40.758c-.2-.016-.392-.026-.592-.026H64.737A7.374,7.374,0,0,0,57.372,48.1V67.161a7.374,7.374,0,0,0,7.366,7.366H83.8a7.374,7.374,0,0,0,7.366-7.366V48.1A7.376,7.376,0,0,0,86.575,41.277ZM56.643,26.229,55.728,28.2a3.7,3.7,0,0,1-3.347,2.138H30.4V9.4a.859.859,0,0,1,.858-.858H67.906a.859.859,0,0,1,.858.858V22.825H61.972a5.892,5.892,0,0,0-5.328,3.4ZM88.982,67.161A5.188,5.188,0,0,1,83.8,72.343H64.737a5.188,5.188,0,0,1-5.182-5.182V48.1a5.188,5.188,0,0,1,5.182-5.182H83.8A5.261,5.261,0,0,1,88.983,48.1V67.161Z" transform="translate(-23.473 0)"/>
        <path id="Trazado_656340" data-name="Trazado 656340" d="M322.019,325.055H320.93v-5.917a2.527,2.527,0,0,0-2.524-2.524h-4.387a2.527,2.527,0,0,0-2.525,2.524v5.917H310.4a3.772,3.772,0,0,0-2.936,6.118l5.653,7.044a3.943,3.943,0,0,0,3.09,1.482h0a3.944,3.944,0,0,0,3.09-1.482l5.653-7.044a3.772,3.772,0,0,0-2.936-6.118Zm1.26,4.719-.019.022-5.661,7.055a1.779,1.779,0,0,1-2.775,0l-5.661-7.055-.018-.022a1.595,1.595,0,0,1,1.17-2.537h2.271a1.092,1.092,0,0,0,1.092-1.092v-7.009a.342.342,0,0,1,.341-.341h4.387a.341.341,0,0,1,.341.341v7.009a1.091,1.091,0,0,0,1.092,1.092h2.227a1.492,1.492,0,0,1,1.366.9,1.509,1.509,0,0,1-.152,1.64Z" transform="translate(-265.416 -270.528)"/>
        <path id="Trazado_656341" data-name="Trazado 656341" d="M70.449,279.833a2.9,2.9,0,0,0-2.892,2.892v2.352a2.9,2.9,0,0,0,2.892,2.892H86.243a2.9,2.9,0,0,0,2.892-2.892v-2.352a2.9,2.9,0,0,0-2.892-2.892Zm16.5,2.892v2.352a.71.71,0,0,1-.709.709H70.449a.71.71,0,0,1-.709-.709v-2.352a.71.71,0,0,1,.709-.709H86.243A.71.71,0,0,1,86.952,282.725Z" transform="translate(-61.14 -239.101)"/>
        <path id="Trazado_656342" data-name="Trazado 656342" d="M99.719,91.037h6.957a3.077,3.077,0,0,0,0-6.154H99.719a3.077,3.077,0,0,0,0,6.154Zm0-3.97h6.957a.893.893,0,0,1,0,1.787H99.719a.893.893,0,0,1,0-1.787Z" transform="translate(-85.992 -72.527)"/>
        <path id="Trazado_656343" data-name="Trazado 656343" d="M215.834,98.521H202.009a1.092,1.092,0,1,0,0,2.183h13.825a1.092,1.092,0,1,0,0-2.183Z" transform="translate(-175.088 -84.18)"/>
        <path id="Trazado_656344" data-name="Trazado 656344" d="M163.482,141.1h-9.057a1.092,1.092,0,0,0,0,2.183h9.057a1.092,1.092,0,0,0,0-2.183Z" transform="translate(-134.431 -120.563)"/>
        <path id="Trazado_656345" data-name="Trazado 656345" d="M97.735,143.285h3.086a1.092,1.092,0,1,0,0-2.183H97.735a1.092,1.092,0,1,0,0,2.183Z" transform="translate(-85.992 -120.563)"/>
        <path id="Trazado_656346" data-name="Trazado 656346" d="M115.044,171.682H97.735a1.092,1.092,0,1,0,0,2.183h17.309a1.092,1.092,0,1,0,0-2.183Z" transform="translate(-85.992 -146.692)"/>
      </g>
    </g>
  </g>
</svg>
