<svg xmlns="http://www.w3.org/2000/svg" width="137" height="137" viewBox="0 0 137 137">
  <g id="Grupo_948584" data-name="Grupo 948584" transform="translate(-735 -5151)">
    <g id="Elipse_7639" data-name="Elipse 7639" transform="translate(735 5151)" fill="#c9ecff" stroke="#0387d0" stroke-width="1">
      <circle cx="68.5" cy="68.5" r="68.5" stroke="none"/>
      <circle cx="68.5" cy="68.5" r="68" fill="none"/>
    </g>
    <g id="programador" transform="translate(738.464 5174.825)">
      <path id="Trazado_656347" data-name="Trazado 656347" d="M93.344,308.75c-.056-.281-3.462-17.394-3.5-17.57A6.633,6.633,0,0,0,86.7,286.7a7.549,7.549,0,0,0-2.161-.876l-11.616-4.06a1.7,1.7,0,0,1-1.146-1.6v-3.557a14.594,14.594,0,0,1-13.256.063v3.494a1.7,1.7,0,0,1-1.146,1.6L52.6,283.405h0l-6.831,2.421-.9.265a6.874,6.874,0,0,0-3.824,3.367c-.547,1.109-.384.719-3.037,14.035-.982,5.086-1.2,5.457-1.076,6.593.342,3.176,3.609,2.845,3.7,2.883H89.677A3.364,3.364,0,0,0,93.344,308.75Z" transform="translate(-6.324 -232.467)" fill="#6c7d87"/>
      <path id="Trazado_656348" data-name="Trazado 656348" d="M40.945,354.378l3.5-19.166a6.681,6.681,0,0,1,2.891-4.314c-2.938,1.041-2.028.625-2.931,1.012a6.7,6.7,0,0,0-3.679,3.922c-.261.74-.092.09-2.724,13.291-.982,5.086-1.2,5.457-1.076,6.593.342,3.176,3.609,2.845,3.7,2.883h3.99C41.8,358.6,40.58,356.954,40.945,354.378Z" transform="translate(-6.322 -278.095)" fill="#566a75"/>
      <path id="Trazado_656349" data-name="Trazado 656349" d="M47.86,453.093H40.638c-.093-.04-3.817.334-3.723-3.548.02-.828.124-.863,1.1-5.928l.056-.284H47.86Z" transform="translate(-6.339 -372.588)" fill="#dd9a5e"/>
      <path id="Trazado_656350" data-name="Trazado 656350" d="M41.974,443.332h-3.9l-.056.284c-.982,5.083-1.082,5.1-1.1,5.928-.093,3.869,3.65,3.517,3.723,3.548h3.99c-2.593,0-3.776-1.364-3.723-3.548C40.913,449.291,41.008,448.761,41.974,443.332Z" transform="translate(-6.34 -372.588)" fill="#d18c54"/>
      <path id="Trazado_656351" data-name="Trazado 656351" d="M172.409,276.068c0,9.922,0-1.595,0,6.22h0v.239a3.693,3.693,0,0,0,2.519,3.5,13.448,13.448,0,0,0,8.209,0,3.693,3.693,0,0,0,2.519-3.5v-.239h0c0-1.555,0-5.388,0-6.22A13.9,13.9,0,0,1,172.409,276.068Z" transform="translate(-120.213 -232.015)" fill="#dd9a5e"/>
      <path id="Trazado_656352" data-name="Trazado 656352" d="M176.4,283.614H176.4c0-8.307,0-5.539,0-6.119a14.535,14.535,0,0,1-3.99-1.427c0,9.922,0-1.595,0,6.22h0v.239a3.693,3.693,0,0,0,2.519,3.5,12.3,12.3,0,0,0,2.347.533A4.723,4.723,0,0,1,176.4,283.614Z" transform="translate(-120.213 -232.014)" fill="#d18c54"/>
      <path id="Trazado_656353" data-name="Trazado 656353" d="M99.208,418.8a1.2,1.2,0,0,0-1.2,1.2v12.479h2.394V419.993A1.2,1.2,0,0,0,99.208,418.8Z" transform="translate(-57.687 -351.967)" fill="#566a75"/>
      <path id="Trazado_656354" data-name="Trazado 656354" d="M237.278,480.243H198.526a2.928,2.928,0,0,1-2.928-2.928h0a1.678,1.678,0,0,1,1.678-1.678h41.252a1.678,1.678,0,0,1,1.678,1.678h0A2.928,2.928,0,0,1,237.278,480.243Z" transform="translate(-139.702 -399.738)" fill="#c6c6c6"/>
      <path id="Trazado_656355" data-name="Trazado 656355" d="M203.139,477.316h0a1.678,1.678,0,0,1,1.678-1.678h-7.541a1.678,1.678,0,0,0-1.678,1.678h0a2.927,2.927,0,0,0,2.928,2.928h7.541A2.927,2.927,0,0,1,203.139,477.316Z" transform="translate(-139.702 -399.739)" fill="#b7b7b7"/>
      <path id="Trazado_656356" data-name="Trazado 656356" d="M253.441,315.049H219.765a1.921,1.921,0,0,0-1.915,1.915v21.8a1.921,1.921,0,0,0,1.915,1.915h33.676a1.921,1.921,0,0,0,1.915-1.915v-21.8A1.921,1.921,0,0,0,253.441,315.049Z" transform="translate(-158.403 -264.776)" fill="#ededed"/>
      <g id="Grupo_948579" data-name="Grupo 948579" transform="translate(59.447 50.273)">
        <path id="Trazado_656357" data-name="Trazado 656357" d="M221.84,338.759v-21.8a1.921,1.921,0,0,1,1.915-1.915h-3.99a1.921,1.921,0,0,0-1.915,1.915v21.8a1.921,1.921,0,0,0,1.915,1.915h3.99A1.921,1.921,0,0,1,221.84,338.759Z" transform="translate(-217.85 -315.049)" fill="#dadada"/>
        <circle id="Elipse_7641" data-name="Elipse 7641" cx="2.766" cy="2.766" r="2.766" transform="translate(15.986 10.046)" fill="#dadada"/>
      </g>
      <path id="Trazado_656358" data-name="Trazado 656358" d="M320.781,378.02a2.765,2.765,0,1,0,2.393,4.145A2.763,2.763,0,0,1,320.781,378.02Z" transform="translate(-242.579 -317.698)" fill="#c6c6c6"/>
      <path id="Trazado_656359" data-name="Trazado 656359" d="M111.54,7.556A19.155,19.155,0,0,0,92.525,26.705v7.257h38.3V23.106c0-7.416-4.562-9.124-4.562-9.124-5.674-7-14.719-6.426-14.719-6.426" transform="translate(-53.076 -6.341)" fill="#4c4846"/>
      <path id="Trazado_656360" data-name="Trazado 656360" d="M114.122,7.631a19.214,19.214,0,0,0-21.585,18.28c-.03.776-.01.486-.016,8.012h4.562V26.666A19.153,19.153,0,0,1,114.122,7.631Z" transform="translate(-53.072 -6.301)" fill="#3d3938"/>
      <g id="Grupo_948580" data-name="Grupo 948580" transform="translate(39.001 25.108)">
        <path id="Trazado_656361" data-name="Trazado 656361" d="M94.73,157.58c-2.4-.856-5.01.736-5.01,3.059s2.607,3.915,5.01,3.059Z" transform="translate(-89.72 -157.345)" fill="#dd9a5e"/>
        <path id="Trazado_656362" data-name="Trazado 656362" d="M303.974,157.58c2.4-.856,5.01.736,5.01,3.059s-2.607,3.915-5.01,3.059Z" transform="translate(-269.785 -157.345)" fill="#dd9a5e"/>
      </g>
      <g id="Grupo_948581" data-name="Grupo 948581" transform="translate(38.993 26.995)">
        <path id="Trazado_656363" data-name="Trazado 656363" d="M90.028,169.17c-1.4,2.664,1.551,5.572,4.659,4.465v-2.813A3.832,3.832,0,0,1,90.028,169.17Z" transform="translate(-89.669 -169.17)" fill="#d18c54"/>
        <path id="Trazado_656364" data-name="Trazado 656364" d="M303.974,170.822v2.813c3.108,1.107,6.062-1.8,4.659-4.465A4.3,4.3,0,0,1,303.974,170.822Z" transform="translate(-269.777 -169.17)" fill="#d18c54"/>
      </g>
      <path id="Trazado_656365" data-name="Trazado 656365" d="M149.628,100.795a.724.724,0,0,1,.658.718c0,12.283.008,11.356-.021,11.927a14.551,14.551,0,0,1-4.386,9.7c-9.107,8.879-24.3,2.582-24.76-9.873-.021-.549-.012-6.911-.012-6.893a4.689,4.689,0,0,1,5.37-4.634,20.527,20.527,0,0,0,16.647-4.461,1.205,1.205,0,0,1,1.842.334A5.9,5.9,0,0,0,149.628,100.795Z" transform="translate(-77.095 -81.512)" fill="#edae6b"/>
      <path id="Trazado_656366" data-name="Trazado 656366" d="M125.11,138.322c-.018-.471-.014-9.089-.013-11.524a4.684,4.684,0,0,0-3.991,4.63c0-.018-.009,6.344.012,6.893a14.656,14.656,0,0,0,16.7,13.891A14.56,14.56,0,0,1,125.11,138.322Z" transform="translate(-77.094 -106.564)" fill="#dd9a5e"/>
      <path id="Trazado_656367" data-name="Trazado 656367" d="M310.522,374.468a3.963,3.963,0,1,0,3.963-3.963A3.968,3.968,0,0,0,310.522,374.468Zm5.533,0a1.569,1.569,0,1,1-1.57-1.569A1.571,1.571,0,0,1,316.055,374.468Z" transform="translate(-236.287 -311.382)"/>
      <path id="Trazado_656368" data-name="Trazado 656368" d="M98.825,74.7h-.763c.164-.69.055-.185.087-12.38a1.2,1.2,0,1,0-2.394,0V73.984a.728.728,0,0,1-.718.718H61.361a.728.728,0,0,1-.718-.718v-21.8a.728.728,0,0,1,.718-.718H95.036a.728.728,0,0,1,.718.718v4.547a1.2,1.2,0,1,0,2.394,0V52.189a3.116,3.116,0,0,0-3.112-3.112H69.654l-2.669-.908a.5.5,0,0,1-.337-.472V44.763a15.771,15.771,0,0,0,7.646-11.878c3.663.17,6.174-3.328,4.654-6.361V16.765c0-7.057-3.838-9.512-5.01-10.1-6.762-8.073-20.7-9.247-29.266-1.134a1.2,1.2,0,0,0,.82,2.07c.882,0,.747-.617,3.472-2.389.2-.131.593-.362.577-.352C56.6.626,67.01,1.923,72.259,8.4a1.15,1.15,0,0,0,.5.362c.155.062,3.8,1.6,3.8,8.008V24.32a5.153,5.153,0,0,0-2.168-.4V20a1.914,1.914,0,0,0-1.74-1.91,4.728,4.728,0,0,1-3.73-2.57,2.4,2.4,0,0,0-3.666-.662,19.363,19.363,0,0,1-15.7,4.186,5.889,5.889,0,0,0-6.661,4.873,5.176,5.176,0,0,0-2.245.4c.075-3.728-.558-7.763,2.395-12.912a1.2,1.2,0,0,0-2.077-1.191,20.484,20.484,0,0,0-2.7,9.347c-.03.772-.012.489-.017,6.959-1.522,3.037,1,6.531,4.654,6.361A15.8,15.8,0,0,0,51,45.02V47.7a.5.5,0,0,1-.337.472c-4.745,1.659.847-.358-11.593,4.053a8.2,8.2,0,0,0-1.274.413,7.932,7.932,0,0,0-4.85,5.9c-3.734,18.754-3.592,17.691-3.567,18.711h0C29.495,80.2,31.386,81.7,34.3,81.7H62.745a1.2,1.2,0,1,0,0-2.394H58.822c-1.673,0-2.227-2.211-1.25-2.211H98.825c.979,0,.419,2.211-1.25,2.211H68.331a1.2,1.2,0,1,0,0,2.394H97.575a4.129,4.129,0,0,0,4.124-4.125A2.878,2.878,0,0,0,98.825,74.7ZM53.391,46.086a15.7,15.7,0,0,0,9.308.343l0-.01.016,0,0,.01a14.743,14.743,0,0,0,1.538-.5v3.154H61.361a3.116,3.116,0,0,0-3.112,3.112v1.258a11.2,11.2,0,0,1-3.15-.567,2.493,2.493,0,0,1-1.7-2.368C53.393,47.608,53.4,49.381,53.391,46.086ZM77,28.4a2.334,2.334,0,0,1-2.616,2.091V26.311A2.334,2.334,0,0,1,77,28.4Zm-4.586-7.928ZM40.2,28.4a2.334,2.334,0,0,1,2.616-2.091v4.181A2.334,2.334,0,0,1,40.2,28.4Zm5.029,3.464c-.03-.554-.015-.354-.019-6.523a3.694,3.694,0,0,1,1.2-3.11,3.509,3.509,0,0,1,2.8-.819,21.692,21.692,0,0,0,17.6-4.736l.018,0h0a7.1,7.1,0,0,0,5.17,3.737c0,10.82.14,11.874-.4,14.016A13.649,13.649,0,0,1,70,38.218C62.973,49.32,45.88,44.956,45.226,31.866ZM34.3,79.308c-2.049,0-2.416-.97-2.507-1.815-.095-.881.1-1.276.925-5.552h7.607v7.367ZM57.573,74.7a2.978,2.978,0,0,0-2.641,4.241c.034.1.092.246.147.364H42.716V68.026a1.2,1.2,0,0,0-2.394,0v1.521h-7.13c2.258-11.333,2.128-10.859,2.375-11.512a5.369,5.369,0,0,1,2.28-2.746,6.242,6.242,0,0,1,1.922-.779c.063-.018-.36.129,6.9-2.443h0L51,50.581a4.883,4.883,0,0,0,3.333,4.569,13.608,13.608,0,0,0,3.91.691c.076,18.214-.109,18.049.084,18.862h-.76Z" transform="translate(0 0)"/>
    </g>
  </g>
</svg>
