<svg xmlns="http://www.w3.org/2000/svg" width="76.243" height="78.705" viewBox="0 0 76.243 78.705">
  <g id="teclado" transform="translate(-1.001)">
    <path id="Trazado_658221" data-name="Trazado 658221" d="M73.319,1H4.465A2.467,2.467,0,0,0,2,3.46V34.2a2.467,2.467,0,0,0,2.46,2.46H73.318a2.467,2.467,0,0,0,2.46-2.46V3.46A2.465,2.465,0,0,0,73.319,1Z" transform="translate(0.231 0.23)" fill="#e6e9ed"/>
    <g id="Grupo_949217" data-name="Grupo 949217" transform="translate(7.142 6.149)">
      <path id="Trazado_658222" data-name="Trazado 658222" d="M16.671,25.472v1.217H12.995V23h3.689v2.227A1.4,1.4,0,0,0,16.671,25.472Z" transform="translate(-4.387 -0.864)" fill="#fff"/>
      <path id="Trazado_658223" data-name="Trazado 658223" d="M5.995,23H9.684v3.689H5.995Z" transform="translate(-5.995 -0.864)" fill="#fff"/>
      <path id="Trazado_658224" data-name="Trazado 658224" d="M47.995,11h3.689v3.689H47.995Z" transform="translate(3.655 -3.621)" fill="#fff"/>
      <path id="Trazado_658225" data-name="Trazado 658225" d="M47.995,17h3.689v3.689H47.995Z" transform="translate(3.655 -2.243)" fill="#fff"/>
      <path id="Trazado_658226" data-name="Trazado 658226" d="M54.995,23h3.689v3.689H54.995Z" transform="translate(5.263 -0.864)" fill="#fff"/>
      <path id="Trazado_658227" data-name="Trazado 658227" d="M51.684,23v3.689H48.02V25.472a3.014,3.014,0,0,0-.025-.332V23Z" transform="translate(3.655 -0.864)" fill="#fff"/>
      <path id="Trazado_658228" data-name="Trazado 658228" d="M56.84,5a1.845,1.845,0,1,1-1.845,1.845A1.842,1.842,0,0,1,56.84,5Z" transform="translate(5.263 -5)" fill="#fff"/>
      <path id="Trazado_658229" data-name="Trazado 658229" d="M7.84,5A1.845,1.845,0,1,1,5.995,6.845,1.842,1.842,0,0,1,7.84,5Z" transform="translate(-5.995 -5)" fill="#fff"/>
      <path id="Trazado_658230" data-name="Trazado 658230" d="M14.84,5a1.845,1.845,0,1,1-1.845,1.845A1.842,1.842,0,0,1,14.84,5Z" transform="translate(-4.387 -5)" fill="#fff"/>
      <path id="Trazado_658231" data-name="Trazado 658231" d="M49.509,23v3.689H19.995V23Z" transform="translate(-2.778 -0.864)" fill="#fff"/>
      <path id="Trazado_658232" data-name="Trazado 658232" d="M5.995,11H9.684v3.689H5.995Z" transform="translate(-5.995 -3.621)" fill="#fff"/>
      <path id="Trazado_658233" data-name="Trazado 658233" d="M12.995,11h3.689v3.689H12.995Z" transform="translate(-4.387 -3.621)" fill="#fff"/>
      <path id="Trazado_658234" data-name="Trazado 658234" d="M5.995,17h12.3v3.689H5.995Z" transform="translate(-5.995 -2.243)" fill="#fff"/>
      <path id="Trazado_658235" data-name="Trazado 658235" d="M21.84,5a1.845,1.845,0,1,1-1.845,1.845A1.842,1.842,0,0,1,21.84,5Z" transform="translate(-2.778 -5)" fill="#fff"/>
      <path id="Trazado_658236" data-name="Trazado 658236" d="M19.995,11h3.689v3.689H19.995Z" transform="translate(-2.778 -3.621)" fill="#fff"/>
      <path id="Trazado_658237" data-name="Trazado 658237" d="M19.995,17h3.689v3.689H19.995Z" transform="translate(-2.778 -2.243)" fill="#fff"/>
      <path id="Trazado_658238" data-name="Trazado 658238" d="M28.84,5A1.845,1.845,0,1,1,27,6.845,1.842,1.842,0,0,1,28.84,5Z" transform="translate(-1.17 -5)" fill="#fff"/>
      <path id="Trazado_658239" data-name="Trazado 658239" d="M35.84,5a1.845,1.845,0,1,1-1.845,1.845A1.842,1.842,0,0,1,35.84,5Z" transform="translate(0.438 -5)" fill="#fff"/>
      <path id="Trazado_658240" data-name="Trazado 658240" d="M33.995,11h3.689v3.689H33.995Z" transform="translate(0.438 -3.621)" fill="#fff"/>
      <path id="Trazado_658241" data-name="Trazado 658241" d="M27,11h3.689v3.689H27Z" transform="translate(-1.17 -3.621)" fill="#fff"/>
      <path id="Trazado_658242" data-name="Trazado 658242" d="M27,17h3.689v3.689H27Z" transform="translate(-1.17 -2.243)" fill="#fff"/>
      <path id="Trazado_658243" data-name="Trazado 658243" d="M33.995,17h3.689v3.689H33.995Z" transform="translate(0.438 -2.243)" fill="#fff"/>
      <path id="Trazado_658244" data-name="Trazado 658244" d="M40.995,11h3.689v3.689H40.995Z" transform="translate(2.047 -3.621)" fill="#fff"/>
      <path id="Trazado_658245" data-name="Trazado 658245" d="M40.995,17h3.689v3.689H40.995Z" transform="translate(2.047 -2.243)" fill="#fff"/>
      <path id="Trazado_658246" data-name="Trazado 658246" d="M54.995,11h3.689V22.068H54.995Z" transform="translate(5.263 -3.621)" fill="#fff"/>
      <path id="Trazado_658247" data-name="Trazado 658247" d="M49.84,5a1.845,1.845,0,1,1-1.845,1.845A1.842,1.842,0,0,1,49.84,5Z" transform="translate(3.655 -5)" fill="#fff"/>
      <path id="Trazado_658248" data-name="Trazado 658248" d="M42.84,5a1.845,1.845,0,1,1-1.845,1.845A1.842,1.842,0,0,1,42.84,5Z" transform="translate(2.047 -5)" fill="#fff"/>
    </g>
    <path id="Trazado_658249" data-name="Trazado 658249" d="M56.772,60v3.689H42.015V60H56.772Z" transform="translate(9.423 13.786)" fill="#656d78"/>
    <path id="Trazado_658250" data-name="Trazado 658250" d="M55.293,57v3.689h-12.3V57h12.3Z" transform="translate(9.649 13.096)" fill="#e6e9ed"/>
    <path id="Trazado_658251" data-name="Trazado 658251" d="M38.136,42.034l3.259,3.11V29.159a2.459,2.459,0,1,1,4.918,0V25.47a2.458,2.458,0,0,1,4.894-.332v1.549h.025v2.472a2.46,2.46,0,0,1,4.919,0v3.689a2.455,2.455,0,0,1,4.576-1.242,2.39,2.39,0,0,1,.343,1.242V52.524a9.851,9.851,0,0,1-4.919,8.523V64.81H46.3V60.887a13.46,13.46,0,0,1-3.788-3.812l-7.858-11.56a2.679,2.679,0,0,1,0-3.479,2.5,2.5,0,0,1,3.481,0Z" transform="translate(7.584 5.287)" fill="#eac6bb"/>
    <path id="Trazado_658252" data-name="Trazado 658252" d="M23.293,57v3.689h-12.3V57h12.3Z" transform="translate(2.296 13.096)" fill="#e6e9ed"/>
    <path id="Trazado_658253" data-name="Trazado 658253" d="M34.4,45.515l-7.858,11.56a13.475,13.475,0,0,1-3.788,3.812V64.81H12.9V61.046a9.856,9.856,0,0,1-4.919-8.523V32.847A2.5,2.5,0,0,1,8.317,31.6,2.462,2.462,0,0,1,12.9,32.847V29.158a2.46,2.46,0,0,1,4.919,0V26.687h.014V25.225a2.459,2.459,0,0,1,4.906.245v3.689a2.46,2.46,0,0,1,4.919,0V45.146l3.259-3.11a2.5,2.5,0,0,1,3.48,0,2.677,2.677,0,0,1,0,3.479Z" transform="translate(1.604 5.287)" fill="#eac6bb"/>
    <path id="Trazado_658254" data-name="Trazado 658254" d="M23.522,60h1.23v3.689H10V60H23.522Z" transform="translate(2.066 13.786)" fill="#656d78"/>
    <path id="Trazado_658255" data-name="Trazado 658255" d="M57.162,32.925a1.229,1.229,0,0,1-1.23-1.23,1.23,1.23,0,1,0-2.46,0,1.23,1.23,0,0,1-2.46,0,3.689,3.689,0,0,1,7.379,0A1.23,1.23,0,0,1,57.162,32.925Z" transform="translate(11.491 6.435)"/>
    <path id="Trazado_658256" data-name="Trazado 658256" d="M56.243,52.143a1.229,1.229,0,0,1-1.23-1.23V31.236a1.23,1.23,0,1,1,2.46,0V50.913A1.229,1.229,0,0,1,56.243,52.143Z" transform="translate(12.41 6.894)"/>
    <path id="Trazado_658257" data-name="Trazado 658257" d="M52.243,41.764a1.229,1.229,0,0,1-1.23-1.23v-12.3a1.23,1.23,0,0,1,2.46,0v12.3A1.229,1.229,0,0,1,52.243,41.764Z" transform="translate(11.491 6.205)"/>
    <path id="Trazado_658258" data-name="Trazado 658258" d="M53.162,29.926a1.229,1.229,0,0,1-1.23-1.23,1.23,1.23,0,1,0-2.46,0,1.23,1.23,0,0,1-2.46,0,3.689,3.689,0,0,1,7.379,0A1.23,1.23,0,0,1,53.162,29.926Z" transform="translate(10.572 5.746)"/>
    <path id="Trazado_658259" data-name="Trazado 658259" d="M40.243,45.453a1.229,1.229,0,0,1-1.23-1.23V28.237a1.23,1.23,0,0,1,2.46,0V44.224A1.229,1.229,0,0,1,40.243,45.453Z" transform="translate(8.734 6.205)"/>
    <path id="Trazado_658260" data-name="Trazado 658260" d="M45.162,29.926a1.229,1.229,0,0,1-1.23-1.23,1.23,1.23,0,1,0-2.46,0,1.23,1.23,0,1,1-2.46,0,3.689,3.689,0,0,1,7.379,0A1.23,1.23,0,0,1,45.162,29.926Z" transform="translate(8.734 5.746)"/>
    <path id="Trazado_658261" data-name="Trazado 658261" d="M48.243,42.453a1.229,1.229,0,0,1-1.23-1.23V25.237a1.23,1.23,0,0,1,2.46,0V41.224A1.229,1.229,0,0,1,48.243,42.453Z" transform="translate(10.572 5.516)"/>
    <path id="Trazado_658262" data-name="Trazado 658262" d="M49.162,26.926a1.229,1.229,0,0,1-1.23-1.23,1.23,1.23,0,1,0-2.46,0,1.23,1.23,0,1,1-2.46,0,3.689,3.689,0,0,1,7.379,0A1.23,1.23,0,0,1,49.162,26.926Z" transform="translate(9.653 5.056)"/>
    <path id="Trazado_658263" data-name="Trazado 658263" d="M44.243,42.453a1.229,1.229,0,0,1-1.23-1.23V25.237a1.23,1.23,0,0,1,2.46,0V41.224A1.229,1.229,0,0,1,44.243,42.453Z" transform="translate(9.653 5.516)"/>
    <path id="Trazado_658264" data-name="Trazado 658264" d="M52.244,56.989a1.23,1.23,0,0,1-.617-2.294,8.646,8.646,0,0,0,4.305-7.457,1.23,1.23,0,0,1,2.46,0,11.112,11.112,0,0,1-5.533,9.586,1.231,1.231,0,0,1-.615.165Z" transform="translate(11.491 10.571)"/>
    <path id="Trazado_658265" data-name="Trazado 658265" d="M44.942,55.979a1.229,1.229,0,0,1-.66-.193,14.561,14.561,0,0,1-4.147-4.153,1.229,1.229,0,0,1,2.033-1.383,12.16,12.16,0,0,0,3.438,3.463,1.23,1.23,0,0,1-.664,2.266Z" transform="translate(8.942 11.421)"/>
    <path id="Trazado_658266" data-name="Trazado 658266" d="M34.889,43.55a1.226,1.226,0,0,1-1.017-.539,3.837,3.837,0,0,1,.146-5.04,3.716,3.716,0,0,1,5.187-.028,1.229,1.229,0,0,1-1.679,1.8,1.268,1.268,0,0,0-1.768-.028c-.655.655.007,1.712.146,1.917a1.229,1.229,0,0,1-1.016,1.921Z" transform="translate(7.354 8.479)"/>
    <path id="Trazado_658267" data-name="Trazado 658267" d="M42.619,54.331a1.227,1.227,0,0,1-1.018-.539L33.749,42.229a1.23,1.23,0,0,1,2.035-1.381l7.852,11.563a1.229,1.229,0,0,1-1.017,1.92Z" transform="translate(7.475 9.261)"/>
    <path id="Trazado_658268" data-name="Trazado 658268" d="M40.851,43.047A1.227,1.227,0,0,1,40,42.708L36.746,39.6a1.23,1.23,0,0,1,1.7-1.779L41.7,40.928a1.229,1.229,0,0,1-.85,2.119Z" transform="translate(8.125 8.612)"/>
    <path id="Trazado_658269" data-name="Trazado 658269" d="M13.136,32.925a1.229,1.229,0,0,1-1.23-1.23,1.23,1.23,0,0,0-2.46,0,1.23,1.23,0,0,1-2.46,0,3.689,3.689,0,0,1,7.379,0A1.229,1.229,0,0,1,13.136,32.925Z" transform="translate(1.375 6.435)"/>
    <path id="Trazado_658270" data-name="Trazado 658270" d="M8.217,52.143a1.229,1.229,0,0,1-1.23-1.23V31.236a1.23,1.23,0,0,1,2.46,0V50.913a1.229,1.229,0,0,1-1.23,1.23Z" transform="translate(1.375 6.894)"/>
    <path id="Trazado_658271" data-name="Trazado 658271" d="M12.217,41.764a1.229,1.229,0,0,1-1.23-1.23v-12.3a1.23,1.23,0,0,1,2.46,0v12.3A1.229,1.229,0,0,1,12.217,41.764Z" transform="translate(2.294 6.205)"/>
    <path id="Trazado_658272" data-name="Trazado 658272" d="M17.136,29.926a1.229,1.229,0,0,1-1.23-1.23,1.23,1.23,0,0,0-2.46,0,1.23,1.23,0,0,1-2.46,0,3.689,3.689,0,0,1,7.379,0,1.229,1.229,0,0,1-1.23,1.23Z" transform="translate(2.294 5.746)"/>
    <path id="Trazado_658273" data-name="Trazado 658273" d="M24.217,45.453a1.229,1.229,0,0,1-1.23-1.23V28.237a1.23,1.23,0,0,1,2.46,0V44.224A1.229,1.229,0,0,1,24.217,45.453Z" transform="translate(5.052 6.205)"/>
    <path id="Trazado_658274" data-name="Trazado 658274" d="M25.136,29.926a1.229,1.229,0,0,1-1.23-1.23,1.23,1.23,0,0,0-2.46,0,1.23,1.23,0,0,1-2.46,0,3.689,3.689,0,0,1,7.379,0A1.229,1.229,0,0,1,25.136,29.926Z" transform="translate(4.132 5.746)"/>
    <path id="Trazado_658275" data-name="Trazado 658275" d="M16.217,42.453a1.229,1.229,0,0,1-1.23-1.23V25.237a1.23,1.23,0,1,1,2.46,0V41.224a1.229,1.229,0,0,1-1.23,1.23Z" transform="translate(3.213 5.516)"/>
    <path id="Trazado_658276" data-name="Trazado 658276" d="M21.136,26.926a1.229,1.229,0,0,1-1.23-1.23,1.23,1.23,0,0,0-2.46,0,1.23,1.23,0,0,1-2.46,0,3.689,3.689,0,0,1,7.379,0A1.229,1.229,0,0,1,21.136,26.926Z" transform="translate(3.213 5.056)"/>
    <path id="Trazado_658277" data-name="Trazado 658277" d="M20.217,42.453a1.229,1.229,0,0,1-1.23-1.23V25.237a1.23,1.23,0,0,1,2.46,0V41.224A1.229,1.229,0,0,1,20.217,42.453Z" transform="translate(4.132 5.516)"/>
    <path id="Trazado_658278" data-name="Trazado 658278" d="M13.135,56.989a1.217,1.217,0,0,1-.615-.166,11.111,11.111,0,0,1-5.533-9.586,1.23,1.23,0,0,1,2.46,0,8.646,8.646,0,0,0,4.305,7.457,1.231,1.231,0,0,1-.617,2.295Z" transform="translate(1.375 10.571)"/>
    <path id="Trazado_658279" data-name="Trazado 658279" d="M20.226,55.979a1.23,1.23,0,0,1-.663-2.266A12.16,12.16,0,0,0,23,50.25a1.229,1.229,0,1,1,2.033,1.383,14.576,14.576,0,0,1-4.147,4.153A1.236,1.236,0,0,1,20.226,55.979Z" transform="translate(4.134 11.422)"/>
    <path id="Trazado_658280" data-name="Trazado 658280" d="M30.342,43.55a1.231,1.231,0,0,1-1.016-1.922c.139-.205.8-1.261.146-1.917a1.269,1.269,0,0,0-1.768.028,1.229,1.229,0,1,1-1.679-1.8,3.716,3.716,0,0,1,5.187.028,3.835,3.835,0,0,1,.146,5.04,1.228,1.228,0,0,1-1.017.54Z" transform="translate(5.66 8.479)"/>
    <path id="Trazado_658281" data-name="Trazado 658281" d="M23.308,54.331a1.231,1.231,0,0,1-1.017-1.921l7.852-11.563a1.23,1.23,0,0,1,2.035,1.381L24.326,53.791A1.225,1.225,0,0,1,23.308,54.331Z" transform="translate(4.843 9.261)"/>
    <path id="Trazado_658282" data-name="Trazado 658282" d="M24.217,43.047a1.23,1.23,0,0,1-.85-2.12l3.256-3.108a1.23,1.23,0,1,1,1.7,1.779l-3.256,3.108A1.223,1.223,0,0,1,24.217,43.047Z" transform="translate(5.051 8.611)"/>
    <path id="Trazado_658283" data-name="Trazado 658283" d="M23.527,58.457H11.23a1.23,1.23,0,1,1,0-2.46h12.3a1.23,1.23,0,1,1,0,2.46Z" transform="translate(2.068 12.866)"/>
    <path id="Trazado_658284" data-name="Trazado 658284" d="M24.987,61.464H10.23a1.23,1.23,0,0,1,0-2.46H24.987a1.23,1.23,0,1,1,0,2.46Z" transform="translate(1.838 13.557)"/>
    <path id="Trazado_658285" data-name="Trazado 658285" d="M11.23,62.145A1.229,1.229,0,0,1,10,60.915V57.227a1.23,1.23,0,1,1,2.46,0v3.688A1.229,1.229,0,0,1,11.23,62.145Z" transform="translate(2.068 12.866)"/>
    <path id="Trazado_658286" data-name="Trazado 658286" d="M21.23,62.145A1.229,1.229,0,0,1,20,60.915V57.227a1.23,1.23,0,1,1,2.46,0v3.688A1.229,1.229,0,0,1,21.23,62.145Z" transform="translate(4.365 12.866)"/>
    <path id="Trazado_658287" data-name="Trazado 658287" d="M55.526,58.457h-12.3a1.23,1.23,0,1,1,0-2.46h12.3a1.23,1.23,0,0,1,0,2.46Z" transform="translate(9.42 12.866)"/>
    <path id="Trazado_658288" data-name="Trazado 658288" d="M53.229,62.145A1.229,1.229,0,0,1,52,60.915V57.227a1.23,1.23,0,1,1,2.46,0v3.688A1.229,1.229,0,0,1,53.229,62.145Z" transform="translate(11.717 12.866)"/>
    <path id="Trazado_658289" data-name="Trazado 658289" d="M43.229,62.145A1.229,1.229,0,0,1,42,60.915V57.227a1.23,1.23,0,1,1,2.46,0v3.688A1.229,1.229,0,0,1,43.229,62.145Z" transform="translate(9.42 12.866)"/>
    <path id="Trazado_658290" data-name="Trazado 658290" d="M12.217,59.161a1.229,1.229,0,0,1-1.23-1.23V54.166a1.23,1.23,0,0,1,2.46,0v3.766A1.229,1.229,0,0,1,12.217,59.161Z" transform="translate(2.294 12.163)"/>
    <path id="Trazado_658291" data-name="Trazado 658291" d="M20.225,59.19A1.229,1.229,0,0,1,19,57.961V54.038a1.23,1.23,0,0,1,2.46,0v3.923A1.229,1.229,0,0,1,20.225,59.19Z" transform="translate(4.134 12.133)"/>
    <path id="Trazado_658292" data-name="Trazado 658292" d="M52.243,59.161a1.229,1.229,0,0,1-1.23-1.23V54.166a1.23,1.23,0,0,1,2.46,0v3.766A1.229,1.229,0,0,1,52.243,59.161Z" transform="translate(11.491 12.163)"/>
    <path id="Trazado_658293" data-name="Trazado 658293" d="M44.235,59.19A1.229,1.229,0,0,1,43,57.961V54.038a1.23,1.23,0,0,1,2.46,0v3.923A1.229,1.229,0,0,1,44.235,59.19Z" transform="translate(9.651 12.133)"/>
    <path id="Trazado_658294" data-name="Trazado 658294" d="M10.23,65.148A1.229,1.229,0,0,1,9,63.918V60.234a1.23,1.23,0,0,1,2.46,0v3.684A1.229,1.229,0,0,1,10.23,65.148Z" transform="translate(1.838 13.557)"/>
    <path id="Trazado_658295" data-name="Trazado 658295" d="M22.23,65.148A1.229,1.229,0,0,1,21,63.918V60.234a1.23,1.23,0,1,1,2.46,0v3.684A1.229,1.229,0,0,1,22.23,65.148Z" transform="translate(4.595 13.557)"/>
    <path id="Trazado_658296" data-name="Trazado 658296" d="M57,61.464H42.243a1.23,1.23,0,1,1,0-2.46H57a1.23,1.23,0,0,1,0,2.46Z" transform="translate(9.193 13.557)"/>
    <path id="Trazado_658297" data-name="Trazado 658297" d="M42.243,65.148a1.229,1.229,0,0,1-1.23-1.23V60.234a1.23,1.23,0,0,1,2.46,0v3.684A1.229,1.229,0,0,1,42.243,65.148Z" transform="translate(9.193 13.557)"/>
    <path id="Trazado_658298" data-name="Trazado 658298" d="M54.243,65.148a1.229,1.229,0,0,1-1.23-1.23V60.234a1.23,1.23,0,1,1,2.46,0v3.684A1.229,1.229,0,0,1,54.243,65.148Z" transform="translate(11.95 13.557)"/>
    <path id="Trazado_658299" data-name="Trazado 658299" d="M73.554,38.118H68.312a1.23,1.23,0,1,1,0-2.46h5.242a1.231,1.231,0,0,0,1.23-1.23V3.689a1.231,1.231,0,0,0-1.23-1.23H4.69a1.231,1.231,0,0,0-1.23,1.23V34.428a1.231,1.231,0,0,0,1.23,1.23H9.923a1.23,1.23,0,0,1,0,2.46H4.69A3.694,3.694,0,0,1,1,34.428V3.689A3.694,3.694,0,0,1,4.69,0H73.554a3.694,3.694,0,0,1,3.689,3.689V34.428A3.694,3.694,0,0,1,73.554,38.118Z" transform="translate(0)"/>
    <path id="Trazado_658300" data-name="Trazado 658300" d="M43.922,31.456H24.23a1.23,1.23,0,1,1,0-2.46H43.922a1.23,1.23,0,1,1,0,2.46Z" transform="translate(5.054 6.662)"/>
    <path id="Trazado_658301" data-name="Trazado 658301" d="M9.919,16.148H6.23A1.229,1.229,0,0,1,5,14.918V11.229A1.229,1.229,0,0,1,6.23,10H9.919a1.229,1.229,0,0,1,1.23,1.23v3.689A1.229,1.229,0,0,1,9.919,16.148Zm-2.46-2.46h1.23v-1.23H7.46Z" transform="translate(0.919 2.297)"/>
    <path id="Trazado_658302" data-name="Trazado 658302" d="M16.919,16.148H13.23A1.229,1.229,0,0,1,12,14.918V11.229A1.229,1.229,0,0,1,13.23,10h3.689a1.229,1.229,0,0,1,1.23,1.23v3.689A1.229,1.229,0,0,1,16.919,16.148Zm-2.46-2.46h1.23v-1.23H14.46Z" transform="translate(2.527 2.297)"/>
    <path id="Trazado_658303" data-name="Trazado 658303" d="M23.919,16.148H20.23A1.229,1.229,0,0,1,19,14.918V11.229A1.229,1.229,0,0,1,20.23,10h3.689a1.229,1.229,0,0,1,1.23,1.23v3.689A1.229,1.229,0,0,1,23.919,16.148Zm-2.46-2.46h1.23v-1.23H21.46Z" transform="translate(4.135 2.297)"/>
    <path id="Trazado_658304" data-name="Trazado 658304" d="M30.919,16.148H27.23A1.229,1.229,0,0,1,26,14.918V11.229A1.229,1.229,0,0,1,27.23,10h3.689a1.229,1.229,0,0,1,1.23,1.23v3.689A1.229,1.229,0,0,1,30.919,16.148Zm-2.46-2.46h1.23v-1.23H28.46Z" transform="translate(5.744 2.297)"/>
    <path id="Trazado_658305" data-name="Trazado 658305" d="M37.919,16.148H34.23A1.229,1.229,0,0,1,33,14.918V11.229A1.229,1.229,0,0,1,34.23,10h3.689a1.229,1.229,0,0,1,1.23,1.23v3.689A1.229,1.229,0,0,1,37.919,16.148Zm-2.46-2.46h1.23v-1.23H35.46Z" transform="translate(7.352 2.297)"/>
    <path id="Trazado_658306" data-name="Trazado 658306" d="M44.919,16.148H41.23A1.229,1.229,0,0,1,40,14.918V11.229A1.229,1.229,0,0,1,41.23,10h3.689a1.229,1.229,0,0,1,1.23,1.23v3.689A1.229,1.229,0,0,1,44.919,16.148Zm-2.46-2.46h1.23v-1.23H42.46Z" transform="translate(8.96 2.297)"/>
    <path id="Trazado_658307" data-name="Trazado 658307" d="M51.919,16.148H48.23A1.229,1.229,0,0,1,47,14.918V11.229A1.229,1.229,0,0,1,48.23,10h3.689a1.229,1.229,0,0,1,1.23,1.23v3.689A1.229,1.229,0,0,1,51.919,16.148Zm-2.46-2.46h1.23v-1.23H49.46Z" transform="translate(10.569 2.297)"/>
    <path id="Trazado_658308" data-name="Trazado 658308" d="M18.527,22.148H6.23A1.229,1.229,0,0,1,5,20.918V17.229A1.229,1.229,0,0,1,6.23,16h12.3a1.229,1.229,0,0,1,1.23,1.23v3.689A1.229,1.229,0,0,1,18.527,22.148ZM7.46,19.688H17.3v-1.23H7.46Z" transform="translate(0.919 3.676)"/>
    <path id="Trazado_658309" data-name="Trazado 658309" d="M23.919,22.148H20.23A1.229,1.229,0,0,1,19,20.918V17.229A1.229,1.229,0,0,1,20.23,16h3.689a1.229,1.229,0,0,1,1.23,1.23v3.689A1.229,1.229,0,0,1,23.919,22.148Zm-2.46-2.46h1.23v-1.23H21.46Z" transform="translate(4.135 3.676)"/>
    <path id="Trazado_658310" data-name="Trazado 658310" d="M30.919,22.148H27.23A1.229,1.229,0,0,1,26,20.918V17.229A1.229,1.229,0,0,1,27.23,16h3.689a1.229,1.229,0,0,1,1.23,1.23v3.689A1.229,1.229,0,0,1,30.919,22.148Zm-2.46-2.46h1.23v-1.23H28.46Z" transform="translate(5.744 3.676)"/>
    <path id="Trazado_658311" data-name="Trazado 658311" d="M37.919,22.148H34.23A1.229,1.229,0,0,1,33,20.918V17.229A1.229,1.229,0,0,1,34.23,16h3.689a1.229,1.229,0,0,1,1.23,1.23v3.689A1.229,1.229,0,0,1,37.919,22.148Zm-2.46-2.46h1.23v-1.23H35.46Z" transform="translate(7.352 3.676)"/>
    <path id="Trazado_658312" data-name="Trazado 658312" d="M44.919,22.148H41.23A1.229,1.229,0,0,1,40,20.918V17.229A1.229,1.229,0,0,1,41.23,16h3.689a1.229,1.229,0,0,1,1.23,1.23v3.689A1.229,1.229,0,0,1,44.919,22.148Zm-2.46-2.46h1.23v-1.23H42.46Z" transform="translate(8.96 3.676)"/>
    <path id="Trazado_658313" data-name="Trazado 658313" d="M51.919,22.148H48.23A1.229,1.229,0,0,1,47,20.918V17.229A1.229,1.229,0,0,1,48.23,16h3.689a1.229,1.229,0,0,1,1.23,1.23v3.689A1.229,1.229,0,0,1,51.919,22.148Zm-2.46-2.46h1.23v-1.23H49.46Z" transform="translate(10.569 3.676)"/>
    <path id="Trazado_658314" data-name="Trazado 658314" d="M58.919,23.526H55.23A1.229,1.229,0,0,1,54,22.3V11.229A1.229,1.229,0,0,1,55.23,10h3.689a1.229,1.229,0,0,1,1.23,1.23V22.3A1.229,1.229,0,0,1,58.919,23.526Zm-2.46-2.46h1.23V12.459H56.46Z" transform="translate(12.177 2.297)"/>
    <path id="Trazado_658315" data-name="Trazado 658315" d="M9.919,28.146H6.23A1.229,1.229,0,0,1,5,26.916V23.227A1.229,1.229,0,0,1,6.23,22H9.919a1.229,1.229,0,0,1,1.23,1.23v3.689A1.229,1.229,0,0,1,9.919,28.146Zm-2.46-2.46h1.23v-1.23H7.46Z" transform="translate(0.919 5.054)"/>
    <path id="Trazado_658316" data-name="Trazado 658316" d="M16.919,28.146H13.23A1.229,1.229,0,0,1,12,26.916V23.227A1.229,1.229,0,0,1,13.23,22h3.689a1.229,1.229,0,0,1,1.23,1.23v3.689A1.229,1.229,0,0,1,16.919,28.146Zm-2.46-2.46h1.23v-1.23H14.46Z" transform="translate(2.527 5.054)"/>
    <path id="Trazado_658317" data-name="Trazado 658317" d="M49.744,28.146H20.229A1.229,1.229,0,0,1,19,26.916V23.227A1.229,1.229,0,0,1,20.229,22H49.744a1.229,1.229,0,0,1,1.23,1.23v3.689A1.229,1.229,0,0,1,49.744,28.146Zm-28.286-2.46H48.514v-1.23H21.459Z" transform="translate(4.135 5.054)"/>
    <path id="Trazado_658318" data-name="Trazado 658318" d="M51.919,28.146H48.23A1.229,1.229,0,0,1,47,26.916V23.227A1.229,1.229,0,0,1,48.23,22h3.689a1.229,1.229,0,0,1,1.23,1.23v3.689A1.229,1.229,0,0,1,51.919,28.146Zm-2.46-2.46h1.23v-1.23H49.46Z" transform="translate(10.569 5.054)"/>
    <path id="Trazado_658319" data-name="Trazado 658319" d="M58.919,28.146H55.23A1.229,1.229,0,0,1,54,26.916V23.227A1.229,1.229,0,0,1,55.23,22h3.689a1.229,1.229,0,0,1,1.23,1.23v3.689A1.229,1.229,0,0,1,58.919,28.146Zm-2.46-2.46h1.23v-1.23H56.46Z" transform="translate(12.177 5.054)"/>
    <path id="Trazado_658320" data-name="Trazado 658320" d="M8.074,10.149a3.074,3.074,0,1,1,3.074-3.074A3.078,3.078,0,0,1,8.074,10.149Zm0-3.689a.615.615,0,1,0,.615.615A.616.616,0,0,0,8.074,6.46Z" transform="translate(0.919 0.919)"/>
    <path id="Trazado_658321" data-name="Trazado 658321" d="M15.074,10.149a3.074,3.074,0,1,1,3.074-3.074A3.078,3.078,0,0,1,15.074,10.149Zm0-3.689a.615.615,0,1,0,.615.615A.616.616,0,0,0,15.074,6.46Z" transform="translate(2.527 0.919)"/>
    <path id="Trazado_658322" data-name="Trazado 658322" d="M22.074,10.149a3.074,3.074,0,1,1,3.074-3.074A3.078,3.078,0,0,1,22.074,10.149Zm0-3.689a.615.615,0,1,0,.615.615A.616.616,0,0,0,22.074,6.46Z" transform="translate(4.135 0.919)"/>
    <path id="Trazado_658323" data-name="Trazado 658323" d="M29.074,10.149a3.074,3.074,0,1,1,3.074-3.074A3.078,3.078,0,0,1,29.074,10.149Zm0-3.689a.615.615,0,1,0,.615.615A.616.616,0,0,0,29.074,6.46Z" transform="translate(5.744 0.919)"/>
    <path id="Trazado_658324" data-name="Trazado 658324" d="M36.074,10.149a3.074,3.074,0,1,1,3.074-3.074A3.078,3.078,0,0,1,36.074,10.149Zm0-3.689a.615.615,0,1,0,.615.615A.616.616,0,0,0,36.074,6.46Z" transform="translate(7.352 0.919)"/>
    <path id="Trazado_658325" data-name="Trazado 658325" d="M43.074,10.149a3.074,3.074,0,1,1,3.074-3.074A3.078,3.078,0,0,1,43.074,10.149Zm0-3.689a.615.615,0,1,0,.615.615A.616.616,0,0,0,43.074,6.46Z" transform="translate(8.96 0.919)"/>
    <path id="Trazado_658326" data-name="Trazado 658326" d="M50.074,10.149a3.074,3.074,0,1,1,3.074-3.074A3.078,3.078,0,0,1,50.074,10.149Zm0-3.689a.615.615,0,1,0,.615.615A.616.616,0,0,0,50.074,6.46Z" transform="translate(10.569 0.919)"/>
    <path id="Trazado_658327" data-name="Trazado 658327" d="M57.074,10.149a3.074,3.074,0,1,1,3.074-3.074A3.078,3.078,0,0,1,57.074,10.149Zm0-3.689a.615.615,0,1,0,.615.615A.616.616,0,0,0,57.074,6.46Z" transform="translate(12.177 0.919)"/>
  </g>
</svg>
